<?xml version="1.0" encoding="UTF-8" standalone="no"?>
<!DOCTYPE svg PUBLIC "-//W3C//DTD SVG 1.1//EN"
 "http://www.w3.org/Graphics/SVG/1.1/DTD/svg11.dtd">
<!-- Generated by graphviz version 2.40.1 (20161225.0304)
 -->
<!-- Title: VideoGameList Pages: 1 -->
<svg width="568pt" height="371pt"
 viewBox="0.00 0.00 567.60 370.60" xmlns="http://www.w3.org/2000/svg" xmlns:xlink="http://www.w3.org/1999/xlink">
<g id="graph0" class="graph" transform="scale(1 1) rotate(0) translate(28.8 341.8)">
<title>VideoGameList</title>
<polygon fill="#ffffff" stroke="transparent" points="-28.8,28.8 -28.8,-341.8 538.8,-341.8 538.8,28.8 -28.8,28.8"/>
<text text-anchor="middle" x="255" y="-298.6" font-family="Arial BoldMT" font-size="13.00" fill="#000000">VideoGameList Domain Model</text>
<!-- m_PgSearch::Document -->
<g id="node1" class="node">
<title>m_PgSearch::Document</title>
<path fill="none" stroke="#000000" d="M12,-98C12,-98 132,-98 132,-98 138,-98 144,-104 144,-110 144,-110 144,-167 144,-167 144,-173 138,-179 132,-179 132,-179 12,-179 12,-179 6,-179 0,-173 0,-167 0,-167 0,-110 0,-110 0,-104 6,-98 12,-98"/>
<text text-anchor="start" x="17.7231" y="-165.7" font-family="Arial BoldMT" font-size="11.00" fill="#000000">PgSearch::Document</text>
<polyline fill="none" stroke="#000000" points="0,-160 144,-160 "/>
<text text-anchor="start" x="7" y="-147" font-family="ArialMT" font-size="10.00" fill="#000000">content </text>
<text text-anchor="start" x="42.5811" y="-147" font-family="Arial ItalicMT" font-size="10.00" fill="#999999">text</text>
<text text-anchor="start" x="7" y="-134" font-family="ArialMT" font-size="10.00" fill="#000000">id </text>
<text text-anchor="start" x="17.5615" y="-134" font-family="Arial ItalicMT" font-size="10.00" fill="#999999">integer (8) PK</text>
<text text-anchor="start" x="7" y="-121" font-family="ArialMT" font-size="10.00" fill="#000000">searchable_id </text>
<text text-anchor="start" x="72.0439" y="-121" font-family="Arial ItalicMT" font-size="10.00" fill="#999999">integer (8)</text>
<text text-anchor="start" x="7" y="-108" font-family="ArialMT" font-size="10.00" fill="#000000">searchable_type </text>
<text text-anchor="start" x="83.1621" y="-108" font-family="Arial ItalicMT" font-size="10.00" fill="#999999">string</text>
</g>
<!-- m_User -->
<g id="node2" class="node">
<title>m_User</title>
<path fill="none" stroke="#000000" d="M185,-.5C185,-.5 325,-.5 325,-.5 331,-.5 337,-6.5 337,-12.5 337,-12.5 337,-264.5 337,-264.5 337,-270.5 331,-276.5 325,-276.5 325,-276.5 185,-276.5 185,-276.5 179,-276.5 173,-270.5 173,-264.5 173,-264.5 173,-12.5 173,-12.5 173,-6.5 179,-.5 185,-.5"/>
<text text-anchor="start" x="241.3877" y="-263.2" font-family="Arial BoldMT" font-size="11.00" fill="#000000">User</text>
<polyline fill="none" stroke="#000000" points="173,-257.5 337,-257.5 "/>
<text text-anchor="start" x="180" y="-244" font-family="ArialMT" font-size="10.00" fill="#000000">bio </text>
<text text-anchor="start" x="196.123" y="-244" font-family="Arial ItalicMT" font-size="10.00" fill="#999999">text ∗</text>
<text text-anchor="start" x="180" y="-231" font-family="ArialMT" font-size="10.00" fill="#000000">confirmation_sent_at </text>
<text text-anchor="start" x="275.6104" y="-231" font-family="Arial ItalicMT" font-size="10.00" fill="#999999">datetime</text>
<text text-anchor="start" x="180" y="-218" font-family="ArialMT" font-size="10.00" fill="#000000">confirmation_token </text>
<text text-anchor="start" x="267.2705" y="-218" font-family="Arial ItalicMT" font-size="10.00" fill="#999999">string</text>
<text text-anchor="start" x="180" y="-205" font-family="ArialMT" font-size="10.00" fill="#000000">confirmed_at </text>
<text text-anchor="start" x="240.5859" y="-205" font-family="Arial ItalicMT" font-size="10.00" fill="#999999">datetime</text>
<text text-anchor="start" x="180" y="-192" font-family="ArialMT" font-size="10.00" fill="#000000">current_sign_in_at </text>
<text text-anchor="start" x="265.0537" y="-192" font-family="Arial ItalicMT" font-size="10.00" fill="#999999">datetime</text>
<text text-anchor="start" x="180" y="-179" font-family="ArialMT" font-size="10.00" fill="#000000">current_sign_in_ip </text>
<text text-anchor="start" x="264.4971" y="-179" font-family="Arial ItalicMT" font-size="10.00" fill="#999999">inet</text>
<text text-anchor="start" x="180" y="-166" font-family="ArialMT" font-size="10.00" fill="#000000">email </text>
<text text-anchor="start" x="206.6748" y="-166" font-family="Arial ItalicMT" font-size="10.00" fill="#999999">string ∗ U</text>
<text text-anchor="start" x="180" y="-153" font-family="ArialMT" font-size="10.00" fill="#000000">encrypted_password </text>
<text text-anchor="start" x="275.0537" y="-153" font-family="Arial ItalicMT" font-size="10.00" fill="#999999">string ∗</text>
<text text-anchor="start" x="180" y="-140" font-family="ArialMT" font-size="10.00" fill="#000000">id </text>
<text text-anchor="start" x="190.5615" y="-140" font-family="Arial ItalicMT" font-size="10.00" fill="#999999">integer (8) PK</text>
<text text-anchor="start" x="180" y="-127" font-family="ArialMT" font-size="10.00" fill="#000000">last_sign_in_at </text>
<text text-anchor="start" x="249.4922" y="-127" font-family="Arial ItalicMT" font-size="10.00" fill="#999999">datetime</text>
<text text-anchor="start" x="180" y="-114" font-family="ArialMT" font-size="10.00" fill="#000000">last_sign_in_ip </text>
<text text-anchor="start" x="248.9355" y="-114" font-family="Arial ItalicMT" font-size="10.00" fill="#999999">inet</text>
<text text-anchor="start" x="180" y="-101" font-family="ArialMT" font-size="10.00" fill="#000000">remember_created_at </text>
<text text-anchor="start" x="281.1621" y="-101" font-family="Arial ItalicMT" font-size="10.00" fill="#999999">datetime</text>
<text text-anchor="start" x="179.9561" y="-88" font-family="ArialMT" font-size="10.00" fill="#000000">reset_password_sent_at </text>
<text text-anchor="start" x="291.6895" y="-88" font-family="Arial ItalicMT" font-size="10.00" fill="#999999">datetime</text>
<text text-anchor="start" x="180" y="-75" font-family="ArialMT" font-size="10.00" fill="#000000">reset_password_token </text>
<text text-anchor="start" x="283.3936" y="-75" font-family="Arial ItalicMT" font-size="10.00" fill="#999999">string</text>
<text text-anchor="start" x="180" y="-62" font-family="ArialMT" font-size="10.00" fill="#000000">role </text>
<text text-anchor="start" x="199.4531" y="-62" font-family="Arial ItalicMT" font-size="10.00" fill="#999999">integer ∗</text>
<text text-anchor="start" x="180" y="-49" font-family="ArialMT" font-size="10.00" fill="#000000">sign_in_count </text>
<text text-anchor="start" x="244.4922" y="-49" font-family="Arial ItalicMT" font-size="10.00" fill="#999999">integer ∗</text>
<text text-anchor="start" x="180" y="-36" font-family="ArialMT" font-size="10.00" fill="#000000">slug </text>
<text text-anchor="start" x="201.123" y="-36" font-family="Arial ItalicMT" font-size="10.00" fill="#999999">string ∗ U</text>
<text text-anchor="start" x="180" y="-23" font-family="ArialMT" font-size="10.00" fill="#000000">unconfirmed_email </text>
<text text-anchor="start" x="267.2656" y="-23" font-family="Arial ItalicMT" font-size="10.00" fill="#999999">string</text>
<text text-anchor="start" x="180" y="-10" font-family="ArialMT" font-size="10.00" fill="#000000">username </text>
<text text-anchor="start" x="227.2461" y="-10" font-family="Arial ItalicMT" font-size="10.00" fill="#999999">text ∗ U</text>
</g>
<!-- m_primary::SchemaMigration -->
<g id="node3" class="node">
<title>m_primary::SchemaMigration</title>
<path fill="none" stroke="#000000" d="M378,-117.5C378,-117.5 498,-117.5 498,-117.5 504,-117.5 510,-123.5 510,-129.5 510,-129.5 510,-147.5 510,-147.5 510,-153.5 504,-159.5 498,-159.5 498,-159.5 378,-159.5 378,-159.5 372,-159.5 366,-153.5 366,-147.5 366,-147.5 366,-129.5 366,-129.5 366,-123.5 372,-117.5 378,-117.5"/>
<text text-anchor="start" x="371.8127" y="-146.2" font-family="Arial BoldMT" font-size="11.00" fill="#000000">primary::SchemaMigration</text>
<polyline fill="none" stroke="#000000" points="366,-140.5 510,-140.5 "/>
<text text-anchor="start" x="373" y="-127" font-family="ArialMT" font-size="10.00" fill="#000000">version </text>
<text text-anchor="start" x="408.0146" y="-127" font-family="Arial ItalicMT" font-size="10.00" fill="#999999">string PK</text>
</g>
</g>
</svg>
