<?xml version="1.0" encoding="UTF-8" standalone="no"?>
<!DOCTYPE svg PUBLIC "-//W3C//DTD SVG 1.1//EN"
 "http://www.w3.org/Graphics/SVG/1.1/DTD/svg11.dtd">
<!-- Generated by graphviz version 2.40.1 (20161225.0304)
 -->
<!-- Title: VideoGameList Pages: 1 -->
<svg width="1818pt" height="764pt"
 viewBox="0.00 0.00 1817.60 763.60" xmlns="http://www.w3.org/2000/svg" xmlns:xlink="http://www.w3.org/1999/xlink">
<g id="graph0" class="graph" transform="scale(1 1) rotate(0) translate(28.8 734.8)">
<title>VideoGameList</title>
<polygon fill="#ffffff" stroke="transparent" points="-28.8,28.8 -28.8,-734.8 1788.8,-734.8 1788.8,28.8 -28.8,28.8"/>
<text text-anchor="middle" x="880" y="-691.6" font-family="Arial BoldMT" font-size="13.00" fill="#000000">VideoGameList Domain Model</text>
<!-- m_ActiveStorage::Attachment -->
<g id="node1" class="node">
<title>m_ActiveStorage::Attachment</title>
<path fill="none" stroke="#000000" d="M185,-131.5C185,-131.5 305,-131.5 305,-131.5 311,-131.5 317,-137.5 317,-143.5 317,-143.5 317,-213.5 317,-213.5 317,-219.5 311,-225.5 305,-225.5 305,-225.5 185,-225.5 185,-225.5 179,-225.5 173,-219.5 173,-213.5 173,-213.5 173,-143.5 173,-143.5 173,-137.5 179,-131.5 185,-131.5"/>
<text text-anchor="start" x="177.8835" y="-212.2" font-family="Arial BoldMT" font-size="11.00" fill="#000000">ActiveStorage::Attachment</text>
<polyline fill="none" stroke="#000000" points="173,-206.5 317,-206.5 "/>
<text text-anchor="start" x="180" y="-193" font-family="ArialMT" font-size="10.00" fill="#000000">blob_id </text>
<text text-anchor="start" x="215.0293" y="-193" font-family="Arial ItalicMT" font-size="10.00" fill="#999999">integer (8) ∗ FK</text>
<text text-anchor="start" x="180" y="-180" font-family="ArialMT" font-size="10.00" fill="#000000">id </text>
<text text-anchor="start" x="190.5615" y="-180" font-family="Arial ItalicMT" font-size="10.00" fill="#999999">integer (8) PK</text>
<text text-anchor="start" x="180" y="-167" font-family="ArialMT" font-size="10.00" fill="#000000">name </text>
<text text-anchor="start" x="207.793" y="-167" font-family="Arial ItalicMT" font-size="10.00" fill="#999999">string ∗</text>
<text text-anchor="start" x="180" y="-154" font-family="ArialMT" font-size="10.00" fill="#000000">record_id </text>
<text text-anchor="start" x="224.4678" y="-154" font-family="Arial ItalicMT" font-size="10.00" fill="#999999">integer (8) ∗ FK</text>
<text text-anchor="start" x="180" y="-141" font-family="ArialMT" font-size="10.00" fill="#000000">record_type </text>
<text text-anchor="start" x="235.5859" y="-141" font-family="Arial ItalicMT" font-size="10.00" fill="#999999">string ∗</text>
</g>
<!-- m_ActiveStorage::Blob -->
<g id="node2" class="node">
<title>m_ActiveStorage::Blob</title>
<path fill="none" stroke="#000000" d="M157,-366.5C157,-366.5 277,-366.5 277,-366.5 283,-366.5 289,-372.5 289,-378.5 289,-378.5 289,-474.5 289,-474.5 289,-480.5 283,-486.5 277,-486.5 277,-486.5 157,-486.5 157,-486.5 151,-486.5 145,-480.5 145,-474.5 145,-474.5 145,-378.5 145,-378.5 145,-372.5 151,-366.5 157,-366.5"/>
<text text-anchor="start" x="166.6951" y="-473.2" font-family="Arial BoldMT" font-size="11.00" fill="#000000">ActiveStorage::Blob</text>
<polyline fill="none" stroke="#000000" points="145,-467.5 289,-467.5 "/>
<text text-anchor="start" x="152" y="-454" font-family="ArialMT" font-size="10.00" fill="#000000">byte_size </text>
<text text-anchor="start" x="197.0244" y="-454" font-family="Arial ItalicMT" font-size="10.00" fill="#999999">integer (8) ∗</text>
<text text-anchor="start" x="152" y="-441" font-family="ArialMT" font-size="10.00" fill="#000000">checksum </text>
<text text-anchor="start" x="199.793" y="-441" font-family="Arial ItalicMT" font-size="10.00" fill="#999999">string ∗</text>
<text text-anchor="start" x="152" y="-428" font-family="ArialMT" font-size="10.00" fill="#000000">content_type </text>
<text text-anchor="start" x="212.0439" y="-428" font-family="Arial ItalicMT" font-size="10.00" fill="#999999">string</text>
<text text-anchor="start" x="152" y="-415" font-family="ArialMT" font-size="10.00" fill="#000000">filename </text>
<text text-anchor="start" x="192.5762" y="-415" font-family="Arial ItalicMT" font-size="10.00" fill="#999999">string ∗</text>
<text text-anchor="start" x="152" y="-402" font-family="ArialMT" font-size="10.00" fill="#000000">id </text>
<text text-anchor="start" x="162.5615" y="-402" font-family="Arial ItalicMT" font-size="10.00" fill="#999999">integer (8) PK</text>
<text text-anchor="start" x="152" y="-389" font-family="ArialMT" font-size="10.00" fill="#000000">key </text>
<text text-anchor="start" x="170.3398" y="-389" font-family="Arial ItalicMT" font-size="10.00" fill="#999999">string ∗</text>
<text text-anchor="start" x="152" y="-376" font-family="ArialMT" font-size="10.00" fill="#000000">metadata </text>
<text text-anchor="start" x="196.4727" y="-376" font-family="Arial ItalicMT" font-size="10.00" fill="#999999">text</text>
</g>
<!-- m_ActiveStorage::Blob&#45;&gt;m_ActiveStorage::Attachment -->
<g id="edge7" class="edge">
<title>m_ActiveStorage::Blob&#45;&gt;m_ActiveStorage::Attachment</title>
<path fill="none" stroke="#000000" d="M223.778,-366.4661C228.6659,-323.1738 235.171,-265.5565 239.685,-225.5753"/>
</g>
<!-- m_ActiveStorage::Blob&#45;&gt;m_ActiveStorage::Blob -->
<g id="edge11" class="edge">
<title>m_ActiveStorage::Blob&#45;&gt;m_ActiveStorage::Blob</title>
<path fill="none" stroke="#000000" stroke-dasharray="1,5" d="M289.1757,-464.6407C305.7932,-461.3542 318,-448.6406 318,-426.5 318,-404.3594 305.7932,-391.6458 289.1757,-388.3593"/>
</g>
<!-- m_Company -->
<g id="node3" class="node">
<title>m_Company</title>
<path fill="none" stroke="#000000" d="M877,-386C877,-386 997,-386 997,-386 1003,-386 1009,-392 1009,-398 1009,-398 1009,-455 1009,-455 1009,-461 1003,-467 997,-467 997,-467 877,-467 877,-467 871,-467 865,-461 865,-455 865,-455 865,-398 865,-398 865,-392 871,-386 877,-386"/>
<text text-anchor="start" x="911.4612" y="-453.7" font-family="Arial BoldMT" font-size="11.00" fill="#000000">Company</text>
<polyline fill="none" stroke="#000000" points="865,-448 1009,-448 "/>
<text text-anchor="start" x="872" y="-435" font-family="ArialMT" font-size="10.00" fill="#000000">description </text>
<text text-anchor="start" x="923.1377" y="-435" font-family="Arial ItalicMT" font-size="10.00" fill="#999999">text ∗</text>
<text text-anchor="start" x="872" y="-422" font-family="ArialMT" font-size="10.00" fill="#000000">id </text>
<text text-anchor="start" x="882.5615" y="-422" font-family="Arial ItalicMT" font-size="10.00" fill="#999999">integer (8) PK</text>
<text text-anchor="start" x="872" y="-409" font-family="ArialMT" font-size="10.00" fill="#000000">name </text>
<text text-anchor="start" x="899.793" y="-409" font-family="Arial ItalicMT" font-size="10.00" fill="#999999">text ∗</text>
<text text-anchor="start" x="872" y="-396" font-family="ArialMT" font-size="10.00" fill="#000000">wikidata_id </text>
<text text-anchor="start" x="924.251" y="-396" font-family="Arial ItalicMT" font-size="10.00" fill="#999999">integer (8) U</text>
</g>
<!-- m_Game -->
<g id="node7" class="node">
<title>m_Game</title>
<path fill="none" stroke="#000000" d="M704,-366.5C704,-366.5 824,-366.5 824,-366.5 830,-366.5 836,-372.5 836,-378.5 836,-378.5 836,-474.5 836,-474.5 836,-480.5 830,-486.5 824,-486.5 824,-486.5 704,-486.5 704,-486.5 698,-486.5 692,-480.5 692,-474.5 692,-474.5 692,-378.5 692,-378.5 692,-372.5 698,-366.5 704,-366.5"/>
<text text-anchor="start" x="747.0227" y="-473.2" font-family="Arial BoldMT" font-size="11.00" fill="#000000">Game</text>
<polyline fill="none" stroke="#000000" points="692,-467.5 836,-467.5 "/>
<text text-anchor="start" x="699" y="-454" font-family="ArialMT" font-size="10.00" fill="#000000">description </text>
<text text-anchor="start" x="750.1377" y="-454" font-family="Arial ItalicMT" font-size="10.00" fill="#999999">text ∗</text>
<text text-anchor="start" x="699" y="-441" font-family="ArialMT" font-size="10.00" fill="#000000">id </text>
<text text-anchor="start" x="709.5615" y="-441" font-family="Arial ItalicMT" font-size="10.00" fill="#999999">integer (8) PK</text>
<text text-anchor="start" x="699" y="-428" font-family="ArialMT" font-size="10.00" fill="#000000">name </text>
<text text-anchor="start" x="726.793" y="-428" font-family="Arial ItalicMT" font-size="10.00" fill="#999999">text ∗</text>
<text text-anchor="start" x="699" y="-415" font-family="ArialMT" font-size="10.00" fill="#000000">pcgamingwiki_id </text>
<text text-anchor="start" x="775.1475" y="-415" font-family="Arial ItalicMT" font-size="10.00" fill="#999999">text U</text>
<text text-anchor="start" x="699" y="-402" font-family="ArialMT" font-size="10.00" fill="#000000">series_id </text>
<text text-anchor="start" x="741.7979" y="-402" font-family="Arial ItalicMT" font-size="10.00" fill="#999999">integer (8) FK</text>
<text text-anchor="start" x="699" y="-389" font-family="ArialMT" font-size="10.00" fill="#000000">steam_app_id </text>
<text text-anchor="start" x="764.6006" y="-389" font-family="Arial ItalicMT" font-size="10.00" fill="#999999">integer U</text>
<text text-anchor="start" x="699" y="-376" font-family="ArialMT" font-size="10.00" fill="#000000">wikidata_id </text>
<text text-anchor="start" x="751.251" y="-376" font-family="Arial ItalicMT" font-size="10.00" fill="#999999">integer (8) U</text>
</g>
<!-- m_GameDeveloper -->
<g id="node8" class="node">
<title>m_GameDeveloper</title>
<path fill="none" stroke="#000000" d="M877,-144.5C877,-144.5 997,-144.5 997,-144.5 1003,-144.5 1009,-150.5 1009,-156.5 1009,-156.5 1009,-200.5 1009,-200.5 1009,-206.5 1003,-212.5 997,-212.5 997,-212.5 877,-212.5 877,-212.5 871,-212.5 865,-206.5 865,-200.5 865,-200.5 865,-156.5 865,-156.5 865,-150.5 871,-144.5 877,-144.5"/>
<text text-anchor="start" x="894.9531" y="-199.2" font-family="Arial BoldMT" font-size="11.00" fill="#000000">GameDeveloper</text>
<polyline fill="none" stroke="#000000" points="865,-193.5 1009,-193.5 "/>
<text text-anchor="start" x="872" y="-180" font-family="ArialMT" font-size="10.00" fill="#000000">company_id </text>
<text text-anchor="start" x="928.6992" y="-180" font-family="Arial ItalicMT" font-size="10.00" fill="#999999">integer (8) ∗ FK</text>
<text text-anchor="start" x="872" y="-167" font-family="ArialMT" font-size="10.00" fill="#000000">game_id </text>
<text text-anchor="start" x="913.1377" y="-167" font-family="Arial ItalicMT" font-size="10.00" fill="#999999">integer (8) ∗ FK</text>
<text text-anchor="start" x="872" y="-154" font-family="ArialMT" font-size="10.00" fill="#000000">id </text>
<text text-anchor="start" x="882.5615" y="-154" font-family="Arial ItalicMT" font-size="10.00" fill="#999999">integer (8) PK</text>
</g>
<!-- m_Company&#45;&gt;m_GameDeveloper -->
<g id="edge17" class="edge">
<title>m_Company&#45;&gt;m_GameDeveloper</title>
<path fill="none" stroke="#000000" d="M937,-385.8255C937,-340.7013 937,-268.1768 937,-221.9605"/>
<polygon fill="#000000" stroke="#000000" points="940.1501,-221.8007 937,-212.8007 933.8501,-221.8007 940.1501,-221.8007"/>
</g>
<!-- m_GamePublisher -->
<g id="node12" class="node">
<title>m_GamePublisher</title>
<path fill="none" stroke="#000000" d="M704,-144.5C704,-144.5 824,-144.5 824,-144.5 830,-144.5 836,-150.5 836,-156.5 836,-156.5 836,-200.5 836,-200.5 836,-206.5 830,-212.5 824,-212.5 824,-212.5 704,-212.5 704,-212.5 698,-212.5 692,-206.5 692,-200.5 692,-200.5 692,-156.5 692,-156.5 692,-150.5 698,-144.5 704,-144.5"/>
<text text-anchor="start" x="724.0935" y="-199.2" font-family="Arial BoldMT" font-size="11.00" fill="#000000">GamePublisher</text>
<polyline fill="none" stroke="#000000" points="692,-193.5 836,-193.5 "/>
<text text-anchor="start" x="699" y="-180" font-family="ArialMT" font-size="10.00" fill="#000000">company_id </text>
<text text-anchor="start" x="755.6992" y="-180" font-family="Arial ItalicMT" font-size="10.00" fill="#999999">integer (8) ∗ FK</text>
<text text-anchor="start" x="699" y="-167" font-family="ArialMT" font-size="10.00" fill="#000000">game_id </text>
<text text-anchor="start" x="740.1377" y="-167" font-family="Arial ItalicMT" font-size="10.00" fill="#999999">integer (8) ∗ FK</text>
<text text-anchor="start" x="699" y="-154" font-family="ArialMT" font-size="10.00" fill="#000000">id </text>
<text text-anchor="start" x="709.5615" y="-154" font-family="Arial ItalicMT" font-size="10.00" fill="#999999">integer (8) PK</text>
</g>
<!-- m_Company&#45;&gt;m_GamePublisher -->
<g id="edge19" class="edge">
<title>m_Company&#45;&gt;m_GamePublisher</title>
<path fill="none" stroke="#000000" d="M913.3628,-385.704C896.7222,-357.6868 873.4885,-319.9353 851,-288 834.6898,-264.8383 815.1757,-240.0444 798.7659,-219.9171"/>
<polygon fill="#000000" stroke="#000000" points="801.0131,-217.6895 792.8723,-212.7245 796.1401,-221.6825 801.0131,-217.6895"/>
</g>
<!-- m_PgSearch::Document -->
<g id="node16" class="node">
<title>m_PgSearch::Document</title>
<path fill="none" stroke="#000000" d="M1628,-138C1628,-138 1748,-138 1748,-138 1754,-138 1760,-144 1760,-150 1760,-150 1760,-207 1760,-207 1760,-213 1754,-219 1748,-219 1748,-219 1628,-219 1628,-219 1622,-219 1616,-213 1616,-207 1616,-207 1616,-150 1616,-150 1616,-144 1622,-138 1628,-138"/>
<text text-anchor="start" x="1633.7231" y="-205.7" font-family="Arial BoldMT" font-size="11.00" fill="#000000">PgSearch::Document</text>
<polyline fill="none" stroke="#000000" points="1616,-200 1760,-200 "/>
<text text-anchor="start" x="1623" y="-187" font-family="ArialMT" font-size="10.00" fill="#000000">content </text>
<text text-anchor="start" x="1658.5811" y="-187" font-family="Arial ItalicMT" font-size="10.00" fill="#999999">text</text>
<text text-anchor="start" x="1623" y="-174" font-family="ArialMT" font-size="10.00" fill="#000000">id </text>
<text text-anchor="start" x="1633.5615" y="-174" font-family="Arial ItalicMT" font-size="10.00" fill="#999999">integer (8) PK</text>
<text text-anchor="start" x="1623" y="-161" font-family="ArialMT" font-size="10.00" fill="#000000">searchable_id </text>
<text text-anchor="start" x="1688.0439" y="-161" font-family="Arial ItalicMT" font-size="10.00" fill="#999999">integer (8) FK</text>
<text text-anchor="start" x="1623" y="-148" font-family="ArialMT" font-size="10.00" fill="#000000">searchable_type </text>
<text text-anchor="start" x="1699.1621" y="-148" font-family="Arial ItalicMT" font-size="10.00" fill="#999999">string</text>
</g>
<!-- m_Company&#45;&gt;m_PgSearch::Document -->
<g id="edge1" class="edge">
<title>m_Company&#45;&gt;m_PgSearch::Document</title>
<path fill="none" stroke="#000000" d="M950.7337,-385.858C964.0273,-353.381 987.5802,-309.8108 1024,-288 1123.1844,-228.6011 1431.5534,-282.748 1543,-252 1569.9345,-244.5688 1597.7218,-231.8932 1621.6742,-219.1407"/>
</g>
<!-- m_Engine -->
<g id="node4" class="node">
<title>m_Engine</title>
<path fill="none" stroke="#000000" d="M1223,-392.5C1223,-392.5 1343,-392.5 1343,-392.5 1349,-392.5 1355,-398.5 1355,-404.5 1355,-404.5 1355,-448.5 1355,-448.5 1355,-454.5 1349,-460.5 1343,-460.5 1343,-460.5 1223,-460.5 1223,-460.5 1217,-460.5 1211,-454.5 1211,-448.5 1211,-448.5 1211,-404.5 1211,-404.5 1211,-398.5 1217,-392.5 1223,-392.5"/>
<text text-anchor="start" x="1263.8743" y="-447.2" font-family="Arial BoldMT" font-size="11.00" fill="#000000">Engine</text>
<polyline fill="none" stroke="#000000" points="1211,-441.5 1355,-441.5 "/>
<text text-anchor="start" x="1218" y="-428" font-family="ArialMT" font-size="10.00" fill="#000000">id </text>
<text text-anchor="start" x="1228.5615" y="-428" font-family="Arial ItalicMT" font-size="10.00" fill="#999999">integer (8) PK</text>
<text text-anchor="start" x="1218" y="-415" font-family="ArialMT" font-size="10.00" fill="#000000">name </text>
<text text-anchor="start" x="1245.793" y="-415" font-family="Arial ItalicMT" font-size="10.00" fill="#999999">text ∗</text>
<text text-anchor="start" x="1218" y="-402" font-family="ArialMT" font-size="10.00" fill="#000000">wikidata_id </text>
<text text-anchor="start" x="1270.251" y="-402" font-family="Arial ItalicMT" font-size="10.00" fill="#999999">integer (8) U</text>
</g>
<!-- m_Engine&#45;&gt;m_Game -->
<g id="edge21" class="edge">
<title>m_Engine&#45;&gt;m_Game</title>
<path fill="none" stroke="#000000" stroke-dasharray="1,5" d="M1273.0041,-460.6198C1259.5895,-499.1442 1231.5785,-559.5136 1182.5,-583 1150.7284,-598.2042 897.2716,-598.2042 865.5,-583 829.5492,-565.7958 804.7065,-528.9639 788.6004,-495.3521"/>
<polygon fill="#000000" stroke="#000000" points="791.3257,-493.7401 784.6924,-486.89 785.6061,-496.3815 791.3257,-493.7401"/>
</g>
<!-- m_GameEngine -->
<g id="node9" class="node">
<title>m_GameEngine</title>
<path fill="none" stroke="#000000" d="M1223,-144.5C1223,-144.5 1343,-144.5 1343,-144.5 1349,-144.5 1355,-150.5 1355,-156.5 1355,-156.5 1355,-200.5 1355,-200.5 1355,-206.5 1349,-212.5 1343,-212.5 1343,-212.5 1223,-212.5 1223,-212.5 1217,-212.5 1211,-206.5 1211,-200.5 1211,-200.5 1211,-156.5 1211,-156.5 1211,-150.5 1217,-144.5 1223,-144.5"/>
<text text-anchor="start" x="1248.897" y="-199.2" font-family="Arial BoldMT" font-size="11.00" fill="#000000">GameEngine</text>
<polyline fill="none" stroke="#000000" points="1211,-193.5 1355,-193.5 "/>
<text text-anchor="start" x="1218" y="-180" font-family="ArialMT" font-size="10.00" fill="#000000">engine_id </text>
<text text-anchor="start" x="1264.1523" y="-180" font-family="Arial ItalicMT" font-size="10.00" fill="#999999">integer (8) ∗ FK</text>
<text text-anchor="start" x="1218" y="-167" font-family="ArialMT" font-size="10.00" fill="#000000">game_id </text>
<text text-anchor="start" x="1259.1377" y="-167" font-family="Arial ItalicMT" font-size="10.00" fill="#999999">integer (8) ∗ FK</text>
<text text-anchor="start" x="1218" y="-154" font-family="ArialMT" font-size="10.00" fill="#000000">id </text>
<text text-anchor="start" x="1228.5615" y="-154" font-family="Arial ItalicMT" font-size="10.00" fill="#999999">integer (8) PK</text>
</g>
<!-- m_Engine&#45;&gt;m_GameEngine -->
<g id="edge20" class="edge">
<title>m_Engine&#45;&gt;m_GameEngine</title>
<path fill="none" stroke="#000000" d="M1283,-392.277C1283,-347.9294 1283,-270.5611 1283,-222.0655"/>
<polygon fill="#000000" stroke="#000000" points="1286.1501,-221.7697 1283,-212.7697 1279.8501,-221.7697 1286.1501,-221.7697"/>
</g>
<!-- m_Engine&#45;&gt;m_PgSearch::Document -->
<g id="edge2" class="edge">
<title>m_Engine&#45;&gt;m_PgSearch::Document</title>
<path fill="none" stroke="#000000" d="M1294.914,-392.3421C1308.0612,-360.0124 1332.4683,-312.8393 1370,-288 1454.0858,-232.3503 1501.5836,-292.3302 1594,-252 1612.4172,-243.9628 1630.3732,-231.4639 1645.5733,-219.0383"/>
</g>
<!-- m_ExternalAccount -->
<g id="node5" class="node">
<title>m_ExternalAccount</title>
<path fill="none" stroke="#000000" d="M12,-131.5C12,-131.5 132,-131.5 132,-131.5 138,-131.5 144,-137.5 144,-143.5 144,-143.5 144,-213.5 144,-213.5 144,-219.5 138,-225.5 132,-225.5 132,-225.5 12,-225.5 12,-225.5 6,-225.5 0,-219.5 0,-213.5 0,-213.5 0,-143.5 0,-143.5 0,-137.5 6,-131.5 12,-131.5"/>
<text text-anchor="start" x="29.9504" y="-212.2" font-family="Arial BoldMT" font-size="11.00" fill="#000000">ExternalAccount</text>
<polyline fill="none" stroke="#000000" points="0,-206.5 144,-206.5 "/>
<text text-anchor="start" x="7" y="-193" font-family="ArialMT" font-size="10.00" fill="#000000">account_type </text>
<text text-anchor="start" x="69.2656" y="-193" font-family="Arial ItalicMT" font-size="10.00" fill="#999999">integer ∗</text>
<text text-anchor="start" x="7" y="-180" font-family="ArialMT" font-size="10.00" fill="#000000">id </text>
<text text-anchor="start" x="17.5615" y="-180" font-family="Arial ItalicMT" font-size="10.00" fill="#999999">integer (8) PK</text>
<text text-anchor="start" x="7" y="-167" font-family="ArialMT" font-size="10.00" fill="#000000">steam_id </text>
<text text-anchor="start" x="50.3545" y="-167" font-family="Arial ItalicMT" font-size="10.00" fill="#999999">integer (8) U</text>
<text text-anchor="start" x="7" y="-154" font-family="ArialMT" font-size="10.00" fill="#000000">steam_profile_url </text>
<text text-anchor="start" x="86.4824" y="-154" font-family="Arial ItalicMT" font-size="10.00" fill="#999999">text</text>
<text text-anchor="start" x="7" y="-141" font-family="ArialMT" font-size="10.00" fill="#000000">user_id </text>
<text text-anchor="start" x="42.5762" y="-141" font-family="Arial ItalicMT" font-size="10.00" fill="#999999">integer (8) ∗ FK</text>
</g>
<!-- m_FavoriteGame -->
<g id="node6" class="node">
<title>m_FavoriteGame</title>
<path fill="none" stroke="#000000" d="M358,-144.5C358,-144.5 478,-144.5 478,-144.5 484,-144.5 490,-150.5 490,-156.5 490,-156.5 490,-200.5 490,-200.5 490,-206.5 484,-212.5 478,-212.5 478,-212.5 358,-212.5 358,-212.5 352,-212.5 346,-206.5 346,-200.5 346,-200.5 346,-156.5 346,-156.5 346,-150.5 352,-144.5 358,-144.5"/>
<text text-anchor="start" x="381.155" y="-199.2" font-family="Arial BoldMT" font-size="11.00" fill="#000000">FavoriteGame</text>
<polyline fill="none" stroke="#000000" points="346,-193.5 490,-193.5 "/>
<text text-anchor="start" x="353" y="-180" font-family="ArialMT" font-size="10.00" fill="#000000">game_id </text>
<text text-anchor="start" x="394.1377" y="-180" font-family="Arial ItalicMT" font-size="10.00" fill="#999999">integer (8) FK</text>
<text text-anchor="start" x="353" y="-167" font-family="ArialMT" font-size="10.00" fill="#000000">id </text>
<text text-anchor="start" x="363.5615" y="-167" font-family="Arial ItalicMT" font-size="10.00" fill="#999999">integer (8) PK</text>
<text text-anchor="start" x="353" y="-154" font-family="ArialMT" font-size="10.00" fill="#000000">user_id </text>
<text text-anchor="start" x="388.5762" y="-154" font-family="Arial ItalicMT" font-size="10.00" fill="#999999">integer (8) FK</text>
</g>
<!-- m_Game&#45;&gt;m_ActiveStorage::Attachment -->
<g id="edge8" class="edge">
<title>m_Game&#45;&gt;m_ActiveStorage::Attachment</title>
<path fill="none" stroke="#000000" d="M691.7395,-378.2892C643.5363,-348.1864 577.7216,-310.9244 515,-288 436.7354,-259.3948 406.0255,-288.2599 331,-252 317.03,-245.2483 303.4923,-235.6642 291.4505,-225.6389"/>
</g>
<!-- m_Game&#45;&gt;m_ActiveStorage::Blob -->
<g id="edge32" class="edge">
<title>m_Game&#45;&gt;m_ActiveStorage::Blob</title>
<path fill="none" stroke="#000000" stroke-dasharray="1,5" d="M691.964,-483.8011C641.5711,-520.0776 570.92,-563.6644 500.5,-583 465.142,-592.7084 368.5746,-598.8277 335.5,-583 294.6138,-563.434 264.2263,-521.957 244.4643,-486.6169"/>
</g>
<!-- m_Game&#45;&gt;m_FavoriteGame -->
<g id="edge22" class="edge">
<title>m_Game&#45;&gt;m_FavoriteGame</title>
<path fill="none" stroke="#000000" d="M691.9227,-380.9435C639.1356,-346.8624 566.3137,-298.3392 505,-252 491.291,-241.6391 476.8635,-229.8423 463.7852,-218.7786"/>
<polygon fill="#000000" stroke="#000000" points="465.566,-216.1577 456.6714,-212.7212 461.4817,-220.9544 465.566,-216.1577"/>
</g>
<!-- m_Game&#45;&gt;m_GameDeveloper -->
<g id="edge24" class="edge">
<title>m_Game&#45;&gt;m_GameDeveloper</title>
<path fill="none" stroke="#000000" d="M799.9134,-366.2968C815.1063,-341.6463 833.3485,-313.0778 851,-288 867.233,-264.9374 886.5325,-240.1524 902.7317,-220.0052"/>
<polygon fill="#000000" stroke="#000000" points="905.3434,-221.7849 908.5481,-212.8041 900.4424,-217.8262 905.3434,-221.7849"/>
</g>
<!-- m_Game&#45;&gt;m_GameEngine -->
<g id="edge30" class="edge">
<title>m_Game&#45;&gt;m_GameEngine</title>
<path fill="none" stroke="#000000" d="M786.9049,-366.3683C800.9739,-337.8283 821.9518,-306.0825 851,-288 982.2544,-206.2939 1054.9258,-312.9796 1197,-252 1214.8368,-244.3443 1231.7187,-231.6456 1245.7247,-218.9386"/>
<polygon fill="#000000" stroke="#000000" points="1247.9462,-221.1738 1252.361,-212.722 1243.6392,-216.576 1247.9462,-221.1738"/>
</g>
<!-- m_GameGenre -->
<g id="node10" class="node">
<title>m_GameGenre</title>
<path fill="none" stroke="#000000" d="M1396,-144.5C1396,-144.5 1516,-144.5 1516,-144.5 1522,-144.5 1528,-150.5 1528,-156.5 1528,-156.5 1528,-200.5 1528,-200.5 1528,-206.5 1522,-212.5 1516,-212.5 1516,-212.5 1396,-212.5 1396,-212.5 1390,-212.5 1384,-206.5 1384,-200.5 1384,-200.5 1384,-156.5 1384,-156.5 1384,-150.5 1390,-144.5 1396,-144.5"/>
<text text-anchor="start" x="1423.7366" y="-199.2" font-family="Arial BoldMT" font-size="11.00" fill="#000000">GameGenre</text>
<polyline fill="none" stroke="#000000" points="1384,-193.5 1528,-193.5 "/>
<text text-anchor="start" x="1391" y="-180" font-family="ArialMT" font-size="10.00" fill="#000000">game_id </text>
<text text-anchor="start" x="1432.1377" y="-180" font-family="Arial ItalicMT" font-size="10.00" fill="#999999">integer (8) ∗ FK</text>
<text text-anchor="start" x="1391" y="-167" font-family="ArialMT" font-size="10.00" fill="#000000">genre_id </text>
<text text-anchor="start" x="1432.6992" y="-167" font-family="Arial ItalicMT" font-size="10.00" fill="#999999">integer (8) ∗ FK</text>
<text text-anchor="start" x="1391" y="-154" font-family="ArialMT" font-size="10.00" fill="#000000">id </text>
<text text-anchor="start" x="1401.5615" y="-154" font-family="Arial ItalicMT" font-size="10.00" fill="#999999">integer (8) PK</text>
</g>
<!-- m_Game&#45;&gt;m_GameGenre -->
<g id="edge28" class="edge">
<title>m_Game&#45;&gt;m_GameGenre</title>
<path fill="none" stroke="#000000" d="M786.473,-366.3024C800.475,-337.5598 821.5231,-305.6529 851,-288 950.1844,-228.6011 1262.9928,-295.7634 1370,-252 1388.1221,-244.5885 1405.1713,-231.8039 1419.2351,-218.9547"/>
<polygon fill="#000000" stroke="#000000" points="1421.5131,-221.1359 1425.891,-212.6649 1417.1861,-216.557 1421.5131,-221.1359"/>
</g>
<!-- m_GamePlatform -->
<g id="node11" class="node">
<title>m_GamePlatform</title>
<path fill="none" stroke="#000000" d="M1050,-144.5C1050,-144.5 1170,-144.5 1170,-144.5 1176,-144.5 1182,-150.5 1182,-156.5 1182,-156.5 1182,-200.5 1182,-200.5 1182,-206.5 1176,-212.5 1170,-212.5 1170,-212.5 1050,-212.5 1050,-212.5 1044,-212.5 1038,-206.5 1038,-200.5 1038,-200.5 1038,-156.5 1038,-156.5 1038,-150.5 1044,-144.5 1050,-144.5"/>
<text text-anchor="start" x="1072.5454" y="-199.2" font-family="Arial BoldMT" font-size="11.00" fill="#000000">GamePlatform</text>
<polyline fill="none" stroke="#000000" points="1038,-193.5 1182,-193.5 "/>
<text text-anchor="start" x="1045" y="-180" font-family="ArialMT" font-size="10.00" fill="#000000">game_id </text>
<text text-anchor="start" x="1086.1377" y="-180" font-family="Arial ItalicMT" font-size="10.00" fill="#999999">integer (8) ∗ FK</text>
<text text-anchor="start" x="1045" y="-167" font-family="ArialMT" font-size="10.00" fill="#000000">id </text>
<text text-anchor="start" x="1055.5615" y="-167" font-family="Arial ItalicMT" font-size="10.00" fill="#999999">integer (8) PK</text>
<text text-anchor="start" x="1045" y="-154" font-family="ArialMT" font-size="10.00" fill="#000000">platform_id </text>
<text text-anchor="start" x="1097.2461" y="-154" font-family="Arial ItalicMT" font-size="10.00" fill="#999999">integer (8) ∗ FK</text>
</g>
<!-- m_Game&#45;&gt;m_GamePlatform -->
<g id="edge26" class="edge">
<title>m_Game&#45;&gt;m_GamePlatform</title>
<path fill="none" stroke="#000000" d="M788.4236,-366.1789C802.681,-338.3102 823.3727,-307.2085 851,-288 915.4821,-243.1674 953.4948,-286.5966 1024,-252 1040.9668,-243.6745 1057.3294,-231.223 1071.1447,-218.9237"/>
<polygon fill="#000000" stroke="#000000" points="1073.6176,-220.9304 1078.1268,-212.5285 1069.3624,-216.2846 1073.6176,-220.9304"/>
</g>
<!-- m_Game&#45;&gt;m_GamePublisher -->
<g id="edge25" class="edge">
<title>m_Game&#45;&gt;m_GamePublisher</title>
<path fill="none" stroke="#000000" d="M764,-366.4661C764,-321.8746 764,-262.0856 764,-222.0246"/>
<polygon fill="#000000" stroke="#000000" points="767.1501,-221.788 764,-212.788 760.8501,-221.788 767.1501,-221.788"/>
</g>
<!-- m_GamePurchase -->
<g id="node13" class="node">
<title>m_GamePurchase</title>
<path fill="none" stroke="#000000" d="M531,-105.5C531,-105.5 651,-105.5 651,-105.5 657,-105.5 663,-111.5 663,-117.5 663,-117.5 663,-239.5 663,-239.5 663,-245.5 657,-251.5 651,-251.5 651,-251.5 531,-251.5 531,-251.5 525,-251.5 519,-245.5 519,-239.5 519,-239.5 519,-117.5 519,-117.5 519,-111.5 525,-105.5 531,-105.5"/>
<text text-anchor="start" x="550.7874" y="-238.2" font-family="Arial BoldMT" font-size="11.00" fill="#000000">GamePurchase</text>
<polyline fill="none" stroke="#000000" points="519,-232.5 663,-232.5 "/>
<text text-anchor="start" x="526" y="-219" font-family="ArialMT" font-size="10.00" fill="#000000">comments </text>
<text text-anchor="start" x="574.9014" y="-219" font-family="Arial ItalicMT" font-size="10.00" fill="#999999">text ∗</text>
<text text-anchor="start" x="526" y="-206" font-family="ArialMT" font-size="10.00" fill="#000000">completion_date </text>
<text text-anchor="start" x="602.1621" y="-206" font-family="Arial ItalicMT" font-size="10.00" fill="#999999">date</text>
<text text-anchor="start" x="526" y="-193" font-family="ArialMT" font-size="10.00" fill="#000000">completion_status </text>
<text text-anchor="start" x="609.3789" y="-193" font-family="Arial ItalicMT" font-size="10.00" fill="#999999">integer</text>
<text text-anchor="start" x="526" y="-180" font-family="ArialMT" font-size="10.00" fill="#000000">game_id </text>
<text text-anchor="start" x="567.1377" y="-180" font-family="Arial ItalicMT" font-size="10.00" fill="#999999">integer (8) ∗ FK</text>
<text text-anchor="start" x="526" y="-167" font-family="ArialMT" font-size="10.00" fill="#000000">hours_played </text>
<text text-anchor="start" x="588.8223" y="-167" font-family="Arial ItalicMT" font-size="10.00" fill="#999999">decimal (10,1)</text>
<text text-anchor="start" x="526" y="-154" font-family="ArialMT" font-size="10.00" fill="#000000">id </text>
<text text-anchor="start" x="536.5615" y="-154" font-family="Arial ItalicMT" font-size="10.00" fill="#999999">integer (8) PK</text>
<text text-anchor="start" x="526" y="-141" font-family="ArialMT" font-size="10.00" fill="#000000">rating </text>
<text text-anchor="start" x="553.793" y="-141" font-family="Arial ItalicMT" font-size="10.00" fill="#999999">integer</text>
<text text-anchor="start" x="526" y="-128" font-family="ArialMT" font-size="10.00" fill="#000000">start_date </text>
<text text-anchor="start" x="573.251" y="-128" font-family="Arial ItalicMT" font-size="10.00" fill="#999999">date</text>
<text text-anchor="start" x="526" y="-115" font-family="ArialMT" font-size="10.00" fill="#000000">user_id </text>
<text text-anchor="start" x="561.5762" y="-115" font-family="Arial ItalicMT" font-size="10.00" fill="#999999">integer (8) ∗ FK</text>
</g>
<!-- m_Game&#45;&gt;m_GamePurchase -->
<g id="edge23" class="edge">
<title>m_Game&#45;&gt;m_GamePurchase</title>
<path fill="none" stroke="#000000" d="M722.1215,-366.4661C699.7161,-334.3474 671.8105,-294.344 647.5092,-259.5073"/>
<polygon fill="#000000" stroke="#000000" points="649.7939,-257.2768 642.0612,-251.6975 644.6269,-260.8813 649.7939,-257.2768"/>
</g>
<!-- m_Genre -->
<g id="node15" class="node">
<title>m_Genre</title>
<path fill="none" stroke="#000000" d="M1396,-386C1396,-386 1516,-386 1516,-386 1522,-386 1528,-392 1528,-398 1528,-398 1528,-455 1528,-455 1528,-461 1522,-467 1516,-467 1516,-467 1396,-467 1396,-467 1390,-467 1384,-461 1384,-455 1384,-455 1384,-398 1384,-398 1384,-392 1390,-386 1396,-386"/>
<text text-anchor="start" x="1438.7139" y="-453.7" font-family="Arial BoldMT" font-size="11.00" fill="#000000">Genre</text>
<polyline fill="none" stroke="#000000" points="1384,-448 1528,-448 "/>
<text text-anchor="start" x="1391" y="-435" font-family="ArialMT" font-size="10.00" fill="#000000">description </text>
<text text-anchor="start" x="1442.1377" y="-435" font-family="Arial ItalicMT" font-size="10.00" fill="#999999">text ∗</text>
<text text-anchor="start" x="1391" y="-422" font-family="ArialMT" font-size="10.00" fill="#000000">id </text>
<text text-anchor="start" x="1401.5615" y="-422" font-family="Arial ItalicMT" font-size="10.00" fill="#999999">integer (8) PK</text>
<text text-anchor="start" x="1391" y="-409" font-family="ArialMT" font-size="10.00" fill="#000000">name </text>
<text text-anchor="start" x="1418.793" y="-409" font-family="Arial ItalicMT" font-size="10.00" fill="#999999">text ∗</text>
<text text-anchor="start" x="1391" y="-396" font-family="ArialMT" font-size="10.00" fill="#000000">wikidata_id </text>
<text text-anchor="start" x="1443.251" y="-396" font-family="Arial ItalicMT" font-size="10.00" fill="#999999">integer (8) U</text>
</g>
<!-- m_Game&#45;&gt;m_Genre -->
<g id="edge29" class="edge">
<title>m_Game&#45;&gt;m_Genre</title>
<path fill="none" stroke="#000000" stroke-dasharray="1,5" d="M784.6924,-486.89C800.5757,-522.5802 826.5025,-564.3379 865.5,-583 914.6107,-606.5018 1306.3893,-606.5018 1355.5,-583 1398.3743,-562.4826 1425.1709,-513.8179 1440.2038,-476.1585"/>
<polygon fill="#000000" stroke="#000000" points="1443.307,-476.8646 1443.5948,-467.3335 1437.4262,-474.6049 1443.307,-476.8646"/>
</g>
<!-- m_Game&#45;&gt;m_PgSearch::Document -->
<g id="edge3" class="edge">
<title>m_Game&#45;&gt;m_PgSearch::Document</title>
<path fill="none" stroke="#000000" d="M786.1739,-366.4462C800.1414,-337.5543 821.2493,-305.4695 851,-288 983.7858,-210.0286 1394.212,-291.6705 1543,-252 1570.2704,-244.7291 1598.361,-231.9233 1622.4699,-219.0163"/>
</g>
<!-- m_Platform -->
<g id="node17" class="node">
<title>m_Platform</title>
<path fill="none" stroke="#000000" d="M1050,-386C1050,-386 1170,-386 1170,-386 1176,-386 1182,-392 1182,-398 1182,-398 1182,-455 1182,-455 1182,-461 1176,-467 1170,-467 1170,-467 1050,-467 1050,-467 1044,-467 1038,-461 1038,-455 1038,-455 1038,-398 1038,-398 1038,-392 1044,-386 1050,-386"/>
<text text-anchor="start" x="1087.5227" y="-453.7" font-family="Arial BoldMT" font-size="11.00" fill="#000000">Platform</text>
<polyline fill="none" stroke="#000000" points="1038,-448 1182,-448 "/>
<text text-anchor="start" x="1045" y="-435" font-family="ArialMT" font-size="10.00" fill="#000000">description </text>
<text text-anchor="start" x="1096.1377" y="-435" font-family="Arial ItalicMT" font-size="10.00" fill="#999999">text ∗</text>
<text text-anchor="start" x="1045" y="-422" font-family="ArialMT" font-size="10.00" fill="#000000">id </text>
<text text-anchor="start" x="1055.5615" y="-422" font-family="Arial ItalicMT" font-size="10.00" fill="#999999">integer (8) PK</text>
<text text-anchor="start" x="1045" y="-409" font-family="ArialMT" font-size="10.00" fill="#000000">name </text>
<text text-anchor="start" x="1072.793" y="-409" font-family="Arial ItalicMT" font-size="10.00" fill="#999999">text ∗</text>
<text text-anchor="start" x="1045" y="-396" font-family="ArialMT" font-size="10.00" fill="#000000">wikidata_id </text>
<text text-anchor="start" x="1097.251" y="-396" font-family="Arial ItalicMT" font-size="10.00" fill="#999999">integer (8) U</text>
</g>
<!-- m_Game&#45;&gt;m_Platform -->
<g id="edge27" class="edge">
<title>m_Game&#45;&gt;m_Platform</title>
<path fill="none" stroke="#000000" stroke-dasharray="1,5" d="M784.6924,-486.89C800.5757,-522.5802 826.5025,-564.3379 865.5,-583 894.3651,-596.8133 980.6349,-596.8133 1009.5,-583 1052.3743,-562.4826 1079.1709,-513.8179 1094.2038,-476.1585"/>
<polygon fill="#000000" stroke="#000000" points="1097.307,-476.8646 1097.5948,-467.3335 1091.4262,-474.6049 1097.307,-476.8646"/>
</g>
<!-- m_GamePurchasePlatform -->
<g id="node14" class="node">
<title>m_GamePurchasePlatform</title>
<path fill="none" stroke="#000000" d="M1009,-.5C1009,-.5 1153,-.5 1153,-.5 1159,-.5 1165,-6.5 1165,-12.5 1165,-12.5 1165,-56.5 1165,-56.5 1165,-62.5 1159,-68.5 1153,-68.5 1153,-68.5 1009,-68.5 1009,-68.5 1003,-68.5 997,-62.5 997,-56.5 997,-56.5 997,-12.5 997,-12.5 997,-6.5 1003,-.5 1009,-.5"/>
<text text-anchor="start" x="1020.3101" y="-55.2" font-family="Arial BoldMT" font-size="11.00" fill="#000000">GamePurchasePlatform</text>
<polyline fill="none" stroke="#000000" points="997,-49.5 1165,-49.5 "/>
<text text-anchor="start" x="1003.5488" y="-36" font-family="ArialMT" font-size="10.00" fill="#000000">game_purchase_id </text>
<text text-anchor="start" x="1091.3857" y="-36" font-family="Arial ItalicMT" font-size="10.00" fill="#999999">integer (8) ∗ FK</text>
<text text-anchor="start" x="1004" y="-23" font-family="ArialMT" font-size="10.00" fill="#000000">id </text>
<text text-anchor="start" x="1014.5615" y="-23" font-family="Arial ItalicMT" font-size="10.00" fill="#999999">integer (8) PK</text>
<text text-anchor="start" x="1004" y="-10" font-family="ArialMT" font-size="10.00" fill="#000000">platform_id </text>
<text text-anchor="start" x="1056.2461" y="-10" font-family="Arial ItalicMT" font-size="10.00" fill="#999999">integer (8) ∗ FK</text>
</g>
<!-- m_GamePurchase&#45;&gt;m_GamePurchasePlatform -->
<g id="edge35" class="edge">
<title>m_GamePurchase&#45;&gt;m_GamePurchasePlatform</title>
<path fill="none" stroke="#000000" d="M663.1707,-113.0253C668.0257,-110.056 672.9847,-107.3448 678,-105 731.6357,-79.9238 886.3311,-57.6087 987.7094,-45.0937"/>
<polygon fill="#000000" stroke="#000000" points="988.1885,-48.2086 996.7386,-43.9875 987.4223,-41.9554 988.1885,-48.2086"/>
</g>
<!-- m_GamePurchase&#45;&gt;m_Platform -->
<g id="edge36" class="edge">
<title>m_GamePurchase&#45;&gt;m_Platform</title>
<path fill="none" stroke="#000000" stroke-dasharray="1,5" d="M663.2467,-244.546C668.0653,-247.3488 672.9972,-249.8696 678,-252 820.2476,-312.5741 892.9582,-205.9533 1024,-288 1056.6724,-308.4565 1078.9218,-346.3475 1092.5909,-377.3323"/>
<polygon fill="#000000" stroke="#000000" points="1089.7998,-378.8184 1096.2204,-385.8682 1095.5975,-376.3532 1089.7998,-378.8184"/>
</g>
<!-- m_Genre&#45;&gt;m_GameGenre -->
<g id="edge33" class="edge">
<title>m_Genre&#45;&gt;m_GameGenre</title>
<path fill="none" stroke="#000000" d="M1456,-385.8255C1456,-340.7013 1456,-268.1768 1456,-221.9605"/>
<polygon fill="#000000" stroke="#000000" points="1459.1501,-221.8007 1456,-212.8007 1452.8501,-221.8007 1459.1501,-221.8007"/>
</g>
<!-- m_Genre&#45;&gt;m_PgSearch::Document -->
<g id="edge4" class="edge">
<title>m_Genre&#45;&gt;m_PgSearch::Document</title>
<path fill="none" stroke="#000000" d="M1494.0503,-385.8255C1537.1147,-339.7912 1606.856,-265.2402 1649.9289,-219.1967"/>
</g>
<!-- m_Platform&#45;&gt;m_GamePlatform -->
<g id="edge34" class="edge">
<title>m_Platform&#45;&gt;m_GamePlatform</title>
<path fill="none" stroke="#000000" d="M1110,-385.8255C1110,-340.7013 1110,-268.1768 1110,-221.9605"/>
<polygon fill="#000000" stroke="#000000" points="1113.1501,-221.8007 1110,-212.8007 1106.8501,-221.8007 1113.1501,-221.8007"/>
</g>
<!-- m_Platform&#45;&gt;m_GamePurchasePlatform -->
<g id="edge37" class="edge">
<title>m_Platform&#45;&gt;m_GamePurchasePlatform</title>
<path fill="none" stroke="#000000" d="M1124.0663,-385.8575C1137.5022,-353.6093 1161.0815,-310.3593 1197,-288 1262.6272,-247.1469 1491.2435,-309.421 1543,-252 1586.7419,-203.4708 1585.5708,-154.5598 1543,-105 1519.299,-77.4079 1302.1153,-53.8791 1174.1372,-42.2596"/>
<polygon fill="#000000" stroke="#000000" points="1174.3273,-39.114 1165.0809,-41.4437 1173.7619,-45.3886 1174.3273,-39.114"/>
</g>
<!-- m_Platform&#45;&gt;m_PgSearch::Document -->
<g id="edge5" class="edge">
<title>m_Platform&#45;&gt;m_PgSearch::Document</title>
<path fill="none" stroke="#000000" d="M1123.9892,-385.7326C1137.3792,-353.4101 1160.9343,-310.121 1197,-288 1272.5118,-241.6845 1511.6376,-284.6127 1594,-252 1613.0684,-244.4496 1631.4464,-231.7469 1646.8163,-219.0061"/>
</g>
<!-- m_Series -->
<g id="node18" class="node">
<title>m_Series</title>
<path fill="none" stroke="#000000" d="M704,-601.5C704,-601.5 824,-601.5 824,-601.5 830,-601.5 836,-607.5 836,-613.5 836,-613.5 836,-657.5 836,-657.5 836,-663.5 830,-669.5 824,-669.5 824,-669.5 704,-669.5 704,-669.5 698,-669.5 692,-663.5 692,-657.5 692,-657.5 692,-613.5 692,-613.5 692,-607.5 698,-601.5 704,-601.5"/>
<text text-anchor="start" x="746.4104" y="-656.2" font-family="Arial BoldMT" font-size="11.00" fill="#000000">Series</text>
<polyline fill="none" stroke="#000000" points="692,-650.5 836,-650.5 "/>
<text text-anchor="start" x="699" y="-637" font-family="ArialMT" font-size="10.00" fill="#000000">id </text>
<text text-anchor="start" x="709.5615" y="-637" font-family="Arial ItalicMT" font-size="10.00" fill="#999999">integer (8) PK</text>
<text text-anchor="start" x="699" y="-624" font-family="ArialMT" font-size="10.00" fill="#000000">name </text>
<text text-anchor="start" x="726.793" y="-624" font-family="Arial ItalicMT" font-size="10.00" fill="#999999">text ∗</text>
<text text-anchor="start" x="699" y="-611" font-family="ArialMT" font-size="10.00" fill="#000000">wikidata_id </text>
<text text-anchor="start" x="751.251" y="-611" font-family="Arial ItalicMT" font-size="10.00" fill="#999999">integer (8) U</text>
</g>
<!-- m_Series&#45;&gt;m_Game -->
<g id="edge31" class="edge">
<title>m_Series&#45;&gt;m_Game</title>
<path fill="none" stroke="#000000" d="M764,-601.4554C764,-572.999 764,-531.4955 764,-496.0532"/>
<polygon fill="#000000" stroke="#000000" points="767.1501,-495.7104 764,-486.7105 760.8501,-495.7105 767.1501,-495.7104"/>
</g>
<!-- m_Series&#45;&gt;m_PgSearch::Document -->
<g id="edge6" class="edge">
<title>m_Series&#45;&gt;m_PgSearch::Document</title>
<path fill="none" stroke="#000000" d="M836.1703,-633.2992C1018.5621,-627.134 1487.4726,-607.306 1543,-565 1654.3058,-480.1969 1680.1739,-299.923 1686.1831,-219.1389"/>
</g>
<!-- m_User -->
<g id="node19" class="node">
<title>m_User</title>
<path fill="none" stroke="#000000" d="M348,-288.5C348,-288.5 488,-288.5 488,-288.5 494,-288.5 500,-294.5 500,-300.5 500,-300.5 500,-552.5 500,-552.5 500,-558.5 494,-564.5 488,-564.5 488,-564.5 348,-564.5 348,-564.5 342,-564.5 336,-558.5 336,-552.5 336,-552.5 336,-300.5 336,-300.5 336,-294.5 342,-288.5 348,-288.5"/>
<text text-anchor="start" x="404.3877" y="-551.2" font-family="Arial BoldMT" font-size="11.00" fill="#000000">User</text>
<polyline fill="none" stroke="#000000" points="336,-545.5 500,-545.5 "/>
<text text-anchor="start" x="343" y="-532" font-family="ArialMT" font-size="10.00" fill="#000000">bio </text>
<text text-anchor="start" x="359.123" y="-532" font-family="Arial ItalicMT" font-size="10.00" fill="#999999">text ∗</text>
<text text-anchor="start" x="343" y="-519" font-family="ArialMT" font-size="10.00" fill="#000000">confirmation_sent_at </text>
<text text-anchor="start" x="438.6104" y="-519" font-family="Arial ItalicMT" font-size="10.00" fill="#999999">datetime</text>
<text text-anchor="start" x="343" y="-506" font-family="ArialMT" font-size="10.00" fill="#000000">confirmation_token </text>
<text text-anchor="start" x="430.2705" y="-506" font-family="Arial ItalicMT" font-size="10.00" fill="#999999">string</text>
<text text-anchor="start" x="343" y="-493" font-family="ArialMT" font-size="10.00" fill="#000000">confirmed_at </text>
<text text-anchor="start" x="403.5859" y="-493" font-family="Arial ItalicMT" font-size="10.00" fill="#999999">datetime</text>
<text text-anchor="start" x="343" y="-480" font-family="ArialMT" font-size="10.00" fill="#000000">current_sign_in_at </text>
<text text-anchor="start" x="428.0537" y="-480" font-family="Arial ItalicMT" font-size="10.00" fill="#999999">datetime</text>
<text text-anchor="start" x="343" y="-467" font-family="ArialMT" font-size="10.00" fill="#000000">current_sign_in_ip </text>
<text text-anchor="start" x="427.4971" y="-467" font-family="Arial ItalicMT" font-size="10.00" fill="#999999">inet</text>
<text text-anchor="start" x="343" y="-454" font-family="ArialMT" font-size="10.00" fill="#000000">email </text>
<text text-anchor="start" x="369.6748" y="-454" font-family="Arial ItalicMT" font-size="10.00" fill="#999999">string ∗ U</text>
<text text-anchor="start" x="343" y="-441" font-family="ArialMT" font-size="10.00" fill="#000000">encrypted_password </text>
<text text-anchor="start" x="438.0537" y="-441" font-family="Arial ItalicMT" font-size="10.00" fill="#999999">string ∗</text>
<text text-anchor="start" x="343" y="-428" font-family="ArialMT" font-size="10.00" fill="#000000">id </text>
<text text-anchor="start" x="353.5615" y="-428" font-family="Arial ItalicMT" font-size="10.00" fill="#999999">integer (8) PK</text>
<text text-anchor="start" x="343" y="-415" font-family="ArialMT" font-size="10.00" fill="#000000">last_sign_in_at </text>
<text text-anchor="start" x="412.4922" y="-415" font-family="Arial ItalicMT" font-size="10.00" fill="#999999">datetime</text>
<text text-anchor="start" x="343" y="-402" font-family="ArialMT" font-size="10.00" fill="#000000">last_sign_in_ip </text>
<text text-anchor="start" x="411.9355" y="-402" font-family="Arial ItalicMT" font-size="10.00" fill="#999999">inet</text>
<text text-anchor="start" x="343" y="-389" font-family="ArialMT" font-size="10.00" fill="#000000">remember_created_at </text>
<text text-anchor="start" x="444.1621" y="-389" font-family="Arial ItalicMT" font-size="10.00" fill="#999999">datetime</text>
<text text-anchor="start" x="342.9561" y="-376" font-family="ArialMT" font-size="10.00" fill="#000000">reset_password_sent_at </text>
<text text-anchor="start" x="454.6895" y="-376" font-family="Arial ItalicMT" font-size="10.00" fill="#999999">datetime</text>
<text text-anchor="start" x="343" y="-363" font-family="ArialMT" font-size="10.00" fill="#000000">reset_password_token </text>
<text text-anchor="start" x="446.3936" y="-363" font-family="Arial ItalicMT" font-size="10.00" fill="#999999">string</text>
<text text-anchor="start" x="343" y="-350" font-family="ArialMT" font-size="10.00" fill="#000000">role </text>
<text text-anchor="start" x="362.4531" y="-350" font-family="Arial ItalicMT" font-size="10.00" fill="#999999">integer ∗</text>
<text text-anchor="start" x="343" y="-337" font-family="ArialMT" font-size="10.00" fill="#000000">sign_in_count </text>
<text text-anchor="start" x="407.4922" y="-337" font-family="Arial ItalicMT" font-size="10.00" fill="#999999">integer ∗</text>
<text text-anchor="start" x="343" y="-324" font-family="ArialMT" font-size="10.00" fill="#000000">slug </text>
<text text-anchor="start" x="364.123" y="-324" font-family="Arial ItalicMT" font-size="10.00" fill="#999999">string ∗ U</text>
<text text-anchor="start" x="343" y="-311" font-family="ArialMT" font-size="10.00" fill="#000000">unconfirmed_email </text>
<text text-anchor="start" x="430.2656" y="-311" font-family="Arial ItalicMT" font-size="10.00" fill="#999999">string</text>
<text text-anchor="start" x="343" y="-298" font-family="ArialMT" font-size="10.00" fill="#000000">username </text>
<text text-anchor="start" x="390.2461" y="-298" font-family="Arial ItalicMT" font-size="10.00" fill="#999999">text ∗ U</text>
</g>
<!-- m_User&#45;&gt;m_ActiveStorage::Attachment -->
<g id="edge9" class="edge">
<title>m_User&#45;&gt;m_ActiveStorage::Attachment</title>
<path fill="none" stroke="#000000" d="M335.8065,-308.6735C315.3189,-279.304 294.5084,-249.4716 277.9874,-225.7884"/>
</g>
<!-- m_User&#45;&gt;m_ExternalAccount -->
<g id="edge15" class="edge">
<title>m_User&#45;&gt;m_ExternalAccount</title>
<path fill="none" stroke="#000000" d="M335.8129,-299.2955C331.0662,-295.2157 326.1273,-291.4226 321,-288 259.2945,-246.8098 224.4032,-285.088 158,-252 144.2884,-245.1676 130.9485,-235.6754 119.0268,-225.7784"/>
</g>
<!-- m_User&#45;&gt;m_FavoriteGame -->
<g id="edge14" class="edge">
<title>m_User&#45;&gt;m_FavoriteGame</title>
<path fill="none" stroke="#000000" d="M418,-288.3594C418,-264.1924 418,-240.7513 418,-221.7727"/>
<polygon fill="#000000" stroke="#000000" points="421.1501,-221.5535 418,-212.5535 414.8501,-221.5535 421.1501,-221.5535"/>
</g>
<!-- m_User&#45;&gt;m_GamePurchase -->
<g id="edge12" class="edge">
<title>m_User&#45;&gt;m_GamePurchase</title>
<path fill="none" stroke="#000000" d="M500.1935,-308.6735C511.8812,-291.9188 523.674,-275.0135 534.7156,-259.1851"/>
<polygon fill="#000000" stroke="#000000" points="537.5062,-260.6904 540.0719,-251.5067 532.3392,-257.086 537.5062,-260.6904"/>
</g>
</g>
</svg>
