<?xml version="1.0" encoding="UTF-8" standalone="no"?>
<!DOCTYPE svg PUBLIC "-//W3C//DTD SVG 1.1//EN"
 "http://www.w3.org/Graphics/SVG/1.1/DTD/svg11.dtd">
<!-- Generated by graphviz version 2.40.1 (20161225.0304)
 -->
<!-- Title: VideoGameList Pages: 1 -->
<svg width="1818pt" height="764pt"
 viewBox="0.00 0.00 1817.60 763.60" xmlns="http://www.w3.org/2000/svg" xmlns:xlink="http://www.w3.org/1999/xlink">
<g id="graph0" class="graph" transform="scale(1 1) rotate(0) translate(28.8 734.8)">
<title>VideoGameList</title>
<polygon fill="#ffffff" stroke="transparent" points="-28.8,28.8 -28.8,-734.8 1788.8,-734.8 1788.8,28.8 -28.8,28.8"/>
<text text-anchor="middle" x="880" y="-691.6" font-family="Arial BoldMT" font-size="13.00" fill="#000000">VideoGameList Domain Model</text>
<!-- m_ActiveStorage::Attachment -->
<g id="node1" class="node">
<title>m_ActiveStorage::Attachment</title>
<path fill="none" stroke="#000000" d="M185,-131.5C185,-131.5 305,-131.5 305,-131.5 311,-131.5 317,-137.5 317,-143.5 317,-143.5 317,-213.5 317,-213.5 317,-219.5 311,-225.5 305,-225.5 305,-225.5 185,-225.5 185,-225.5 179,-225.5 173,-219.5 173,-213.5 173,-213.5 173,-143.5 173,-143.5 173,-137.5 179,-131.5 185,-131.5"/>
<text text-anchor="start" x="177.8835" y="-212.2" font-family="Arial BoldMT" font-size="11.00" fill="#000000">ActiveStorage::Attachment</text>
<polyline fill="none" stroke="#000000" points="173,-206.5 317,-206.5 "/>
<text text-anchor="start" x="180" y="-193" font-family="ArialMT" font-size="10.00" fill="#000000">blob_id </text>
<text text-anchor="start" x="215.0293" y="-193" font-family="Arial ItalicMT" font-size="10.00" fill="#999999">integer (8) ∗ FK</text>
<text text-anchor="start" x="180" y="-180" font-family="ArialMT" font-size="10.00" fill="#000000">id </text>
<text text-anchor="start" x="190.5615" y="-180" font-family="Arial ItalicMT" font-size="10.00" fill="#999999">integer (8) PK</text>
<text text-anchor="start" x="180" y="-167" font-family="ArialMT" font-size="10.00" fill="#000000">name </text>
<text text-anchor="start" x="207.793" y="-167" font-family="Arial ItalicMT" font-size="10.00" fill="#999999">string ∗</text>
<text text-anchor="start" x="180" y="-154" font-family="ArialMT" font-size="10.00" fill="#000000">record_id </text>
<text text-anchor="start" x="224.4678" y="-154" font-family="Arial ItalicMT" font-size="10.00" fill="#999999">integer (8) ∗ FK</text>
<text text-anchor="start" x="180" y="-141" font-family="ArialMT" font-size="10.00" fill="#000000">record_type </text>
<text text-anchor="start" x="235.5859" y="-141" font-family="Arial ItalicMT" font-size="10.00" fill="#999999">string ∗</text>
</g>
<!-- m_ActiveStorage::Blob -->
<g id="node2" class="node">
<title>m_ActiveStorage::Blob</title>
<path fill="none" stroke="#000000" d="M157,-366.5C157,-366.5 277,-366.5 277,-366.5 283,-366.5 289,-372.5 289,-378.5 289,-378.5 289,-474.5 289,-474.5 289,-480.5 283,-486.5 277,-486.5 277,-486.5 157,-486.5 157,-486.5 151,-486.5 145,-480.5 145,-474.5 145,-474.5 145,-378.5 145,-378.5 145,-372.5 151,-366.5 157,-366.5"/>
<text text-anchor="start" x="166.6951" y="-473.2" font-family="Arial BoldMT" font-size="11.00" fill="#000000">ActiveStorage::Blob</text>
<polyline fill="none" stroke="#000000" points="145,-467.5 289,-467.5 "/>
<text text-anchor="start" x="152" y="-454" font-family="ArialMT" font-size="10.00" fill="#000000">byte_size </text>
<text text-anchor="start" x="197.0244" y="-454" font-family="Arial ItalicMT" font-size="10.00" fill="#999999">integer (8) ∗</text>
<text text-anchor="start" x="152" y="-441" font-family="ArialMT" font-size="10.00" fill="#000000">checksum </text>
<text text-anchor="start" x="199.793" y="-441" font-family="Arial ItalicMT" font-size="10.00" fill="#999999">string ∗</text>
<text text-anchor="start" x="152" y="-428" font-family="ArialMT" font-size="10.00" fill="#000000">content_type </text>
<text text-anchor="start" x="212.0439" y="-428" font-family="Arial ItalicMT" font-size="10.00" fill="#999999">string</text>
<text text-anchor="start" x="152" y="-415" font-family="ArialMT" font-size="10.00" fill="#000000">filename </text>
<text text-anchor="start" x="192.5762" y="-415" font-family="Arial ItalicMT" font-size="10.00" fill="#999999">string ∗</text>
<text text-anchor="start" x="152" y="-402" font-family="ArialMT" font-size="10.00" fill="#000000">id </text>
<text text-anchor="start" x="162.5615" y="-402" font-family="Arial ItalicMT" font-size="10.00" fill="#999999">integer (8) PK</text>
<text text-anchor="start" x="152" y="-389" font-family="ArialMT" font-size="10.00" fill="#000000">key </text>
<text text-anchor="start" x="170.3398" y="-389" font-family="Arial ItalicMT" font-size="10.00" fill="#999999">string ∗</text>
<text text-anchor="start" x="152" y="-376" font-family="ArialMT" font-size="10.00" fill="#000000">metadata </text>
<text text-anchor="start" x="196.4727" y="-376" font-family="Arial ItalicMT" font-size="10.00" fill="#999999">text</text>
</g>
<!-- m_ActiveStorage::Blob&#45;&gt;m_ActiveStorage::Attachment -->
<g id="edge7" class="edge">
<title>m_ActiveStorage::Blob&#45;&gt;m_ActiveStorage::Attachment</title>
<path fill="none" stroke="#000000" d="M223.778,-366.4661C228.6659,-323.1738 235.171,-265.5565 239.685,-225.5753"/>
</g>
<!-- m_ActiveStorage::Blob&#45;&gt;m_ActiveStorage::Blob -->
<g id="edge11" class="edge">
<title>m_ActiveStorage::Blob&#45;&gt;m_ActiveStorage::Blob</title>
<path fill="none" stroke="#000000" stroke-dasharray="1,5" d="M289.1757,-464.6407C305.7932,-461.3542 318,-448.6406 318,-426.5 318,-404.3594 305.7932,-391.6458 289.1757,-388.3593"/>
</g>
<!-- m_Company -->
<g id="node3" class="node">
<title>m_Company</title>
<path fill="none" stroke="#000000" d="M906,-386C906,-386 1026,-386 1026,-386 1032,-386 1038,-392 1038,-398 1038,-398 1038,-455 1038,-455 1038,-461 1032,-467 1026,-467 1026,-467 906,-467 906,-467 900,-467 894,-461 894,-455 894,-455 894,-398 894,-398 894,-392 900,-386 906,-386"/>
<text text-anchor="start" x="940.4612" y="-453.7" font-family="Arial BoldMT" font-size="11.00" fill="#000000">Company</text>
<polyline fill="none" stroke="#000000" points="894,-448 1038,-448 "/>
<text text-anchor="start" x="901" y="-435" font-family="ArialMT" font-size="10.00" fill="#000000">description </text>
<text text-anchor="start" x="952.1377" y="-435" font-family="Arial ItalicMT" font-size="10.00" fill="#999999">text ∗</text>
<text text-anchor="start" x="901" y="-422" font-family="ArialMT" font-size="10.00" fill="#000000">id </text>
<text text-anchor="start" x="911.5615" y="-422" font-family="Arial ItalicMT" font-size="10.00" fill="#999999">integer (8) PK</text>
<text text-anchor="start" x="901" y="-409" font-family="ArialMT" font-size="10.00" fill="#000000">name </text>
<text text-anchor="start" x="928.793" y="-409" font-family="Arial ItalicMT" font-size="10.00" fill="#999999">text ∗</text>
<text text-anchor="start" x="901" y="-396" font-family="ArialMT" font-size="10.00" fill="#000000">wikidata_id </text>
<text text-anchor="start" x="953.251" y="-396" font-family="Arial ItalicMT" font-size="10.00" fill="#999999">integer (8) U</text>
</g>
<!-- m_Game -->
<g id="node7" class="node">
<title>m_Game</title>
<path fill="none" stroke="#000000" d="M733,-366.5C733,-366.5 853,-366.5 853,-366.5 859,-366.5 865,-372.5 865,-378.5 865,-378.5 865,-474.5 865,-474.5 865,-480.5 859,-486.5 853,-486.5 853,-486.5 733,-486.5 733,-486.5 727,-486.5 721,-480.5 721,-474.5 721,-474.5 721,-378.5 721,-378.5 721,-372.5 727,-366.5 733,-366.5"/>
<text text-anchor="start" x="776.0227" y="-473.2" font-family="Arial BoldMT" font-size="11.00" fill="#000000">Game</text>
<polyline fill="none" stroke="#000000" points="721,-467.5 865,-467.5 "/>
<text text-anchor="start" x="728" y="-454" font-family="ArialMT" font-size="10.00" fill="#000000">description </text>
<text text-anchor="start" x="779.1377" y="-454" font-family="Arial ItalicMT" font-size="10.00" fill="#999999">text ∗</text>
<text text-anchor="start" x="728" y="-441" font-family="ArialMT" font-size="10.00" fill="#000000">id </text>
<text text-anchor="start" x="738.5615" y="-441" font-family="Arial ItalicMT" font-size="10.00" fill="#999999">integer (8) PK</text>
<text text-anchor="start" x="728" y="-428" font-family="ArialMT" font-size="10.00" fill="#000000">name </text>
<text text-anchor="start" x="755.793" y="-428" font-family="Arial ItalicMT" font-size="10.00" fill="#999999">text ∗</text>
<text text-anchor="start" x="728" y="-415" font-family="ArialMT" font-size="10.00" fill="#000000">pcgamingwiki_id </text>
<text text-anchor="start" x="804.1475" y="-415" font-family="Arial ItalicMT" font-size="10.00" fill="#999999">text U</text>
<text text-anchor="start" x="728" y="-402" font-family="ArialMT" font-size="10.00" fill="#000000">series_id </text>
<text text-anchor="start" x="770.7979" y="-402" font-family="Arial ItalicMT" font-size="10.00" fill="#999999">integer (8) FK</text>
<text text-anchor="start" x="728" y="-389" font-family="ArialMT" font-size="10.00" fill="#000000">steam_app_id </text>
<text text-anchor="start" x="793.6006" y="-389" font-family="Arial ItalicMT" font-size="10.00" fill="#999999">integer U</text>
<text text-anchor="start" x="728" y="-376" font-family="ArialMT" font-size="10.00" fill="#000000">wikidata_id </text>
<text text-anchor="start" x="780.251" y="-376" font-family="Arial ItalicMT" font-size="10.00" fill="#999999">integer (8) U</text>
</g>
<!-- m_GameDeveloper -->
<g id="node8" class="node">
<title>m_GameDeveloper</title>
<path fill="none" stroke="#000000" d="M877,-144.5C877,-144.5 997,-144.5 997,-144.5 1003,-144.5 1009,-150.5 1009,-156.5 1009,-156.5 1009,-200.5 1009,-200.5 1009,-206.5 1003,-212.5 997,-212.5 997,-212.5 877,-212.5 877,-212.5 871,-212.5 865,-206.5 865,-200.5 865,-200.5 865,-156.5 865,-156.5 865,-150.5 871,-144.5 877,-144.5"/>
<text text-anchor="start" x="894.9531" y="-199.2" font-family="Arial BoldMT" font-size="11.00" fill="#000000">GameDeveloper</text>
<polyline fill="none" stroke="#000000" points="865,-193.5 1009,-193.5 "/>
<text text-anchor="start" x="872" y="-180" font-family="ArialMT" font-size="10.00" fill="#000000">company_id </text>
<text text-anchor="start" x="928.6992" y="-180" font-family="Arial ItalicMT" font-size="10.00" fill="#999999">integer (8) ∗ FK</text>
<text text-anchor="start" x="872" y="-167" font-family="ArialMT" font-size="10.00" fill="#000000">game_id </text>
<text text-anchor="start" x="913.1377" y="-167" font-family="Arial ItalicMT" font-size="10.00" fill="#999999">integer (8) ∗ FK</text>
<text text-anchor="start" x="872" y="-154" font-family="ArialMT" font-size="10.00" fill="#000000">id </text>
<text text-anchor="start" x="882.5615" y="-154" font-family="Arial ItalicMT" font-size="10.00" fill="#999999">integer (8) PK</text>
</g>
<!-- m_Company&#45;&gt;m_GameDeveloper -->
<g id="edge17" class="edge">
<title>m_Company&#45;&gt;m_GameDeveloper</title>
<path fill="none" stroke="#000000" d="M961.2437,-385.8255C955.9671,-340.7013 947.4864,-268.1768 942.0821,-221.9605"/>
<polygon fill="#000000" stroke="#000000" points="945.185,-221.3739 941.011,-212.8007 938.9277,-222.1057 945.185,-221.3739"/>
</g>
<!-- m_GamePublisher -->
<g id="node12" class="node">
<title>m_GamePublisher</title>
<path fill="none" stroke="#000000" d="M704,-144.5C704,-144.5 824,-144.5 824,-144.5 830,-144.5 836,-150.5 836,-156.5 836,-156.5 836,-200.5 836,-200.5 836,-206.5 830,-212.5 824,-212.5 824,-212.5 704,-212.5 704,-212.5 698,-212.5 692,-206.5 692,-200.5 692,-200.5 692,-156.5 692,-156.5 692,-150.5 698,-144.5 704,-144.5"/>
<text text-anchor="start" x="724.0935" y="-199.2" font-family="Arial BoldMT" font-size="11.00" fill="#000000">GamePublisher</text>
<polyline fill="none" stroke="#000000" points="692,-193.5 836,-193.5 "/>
<text text-anchor="start" x="699" y="-180" font-family="ArialMT" font-size="10.00" fill="#000000">company_id </text>
<text text-anchor="start" x="755.6992" y="-180" font-family="Arial ItalicMT" font-size="10.00" fill="#999999">integer (8) ∗ FK</text>
<text text-anchor="start" x="699" y="-167" font-family="ArialMT" font-size="10.00" fill="#000000">game_id </text>
<text text-anchor="start" x="740.1377" y="-167" font-family="Arial ItalicMT" font-size="10.00" fill="#999999">integer (8) ∗ FK</text>
<text text-anchor="start" x="699" y="-154" font-family="ArialMT" font-size="10.00" fill="#000000">id </text>
<text text-anchor="start" x="709.5615" y="-154" font-family="Arial ItalicMT" font-size="10.00" fill="#999999">integer (8) PK</text>
</g>
<!-- m_Company&#45;&gt;m_GamePublisher -->
<g id="edge19" class="edge">
<title>m_Company&#45;&gt;m_GamePublisher</title>
<path fill="none" stroke="#000000" d="M944.4702,-385.8624C928.438,-357.2323 905.0679,-318.6877 880,-288 859.7642,-263.2277 834.1755,-238.5191 812.1832,-218.8593"/>
<polygon fill="#000000" stroke="#000000" points="814.0074,-216.2672 805.1806,-212.66 809.8314,-220.9843 814.0074,-216.2672"/>
</g>
<!-- m_PgSearch::Document -->
<g id="node16" class="node">
<title>m_PgSearch::Document</title>
<path fill="none" stroke="#000000" d="M1628,-138C1628,-138 1748,-138 1748,-138 1754,-138 1760,-144 1760,-150 1760,-150 1760,-207 1760,-207 1760,-213 1754,-219 1748,-219 1748,-219 1628,-219 1628,-219 1622,-219 1616,-213 1616,-207 1616,-207 1616,-150 1616,-150 1616,-144 1622,-138 1628,-138"/>
<text text-anchor="start" x="1633.7231" y="-205.7" font-family="Arial BoldMT" font-size="11.00" fill="#000000">PgSearch::Document</text>
<polyline fill="none" stroke="#000000" points="1616,-200 1760,-200 "/>
<text text-anchor="start" x="1623" y="-187" font-family="ArialMT" font-size="10.00" fill="#000000">content </text>
<text text-anchor="start" x="1658.5811" y="-187" font-family="Arial ItalicMT" font-size="10.00" fill="#999999">text</text>
<text text-anchor="start" x="1623" y="-174" font-family="ArialMT" font-size="10.00" fill="#000000">id </text>
<text text-anchor="start" x="1633.5615" y="-174" font-family="Arial ItalicMT" font-size="10.00" fill="#999999">integer (8) PK</text>
<text text-anchor="start" x="1623" y="-161" font-family="ArialMT" font-size="10.00" fill="#000000">searchable_id </text>
<text text-anchor="start" x="1688.0439" y="-161" font-family="Arial ItalicMT" font-size="10.00" fill="#999999">integer (8) FK</text>
<text text-anchor="start" x="1623" y="-148" font-family="ArialMT" font-size="10.00" fill="#000000">searchable_type </text>
<text text-anchor="start" x="1699.1621" y="-148" font-family="Arial ItalicMT" font-size="10.00" fill="#999999">string</text>
</g>
<!-- m_Company&#45;&gt;m_PgSearch::Document -->
<g id="edge1" class="edge">
<title>m_Company&#45;&gt;m_PgSearch::Document</title>
<path fill="none" stroke="#000000" d="M979.7569,-385.8966C993.0645,-353.4429 1016.6249,-309.8852 1053,-288 1146.5549,-231.7125 1437.8095,-281.2532 1543,-252 1569.9192,-244.5138 1597.7031,-231.8257 1621.657,-219.0786"/>
</g>
<!-- m_Engine -->
<g id="node4" class="node">
<title>m_Engine</title>
<path fill="none" stroke="#000000" d="M1252,-392.5C1252,-392.5 1372,-392.5 1372,-392.5 1378,-392.5 1384,-398.5 1384,-404.5 1384,-404.5 1384,-448.5 1384,-448.5 1384,-454.5 1378,-460.5 1372,-460.5 1372,-460.5 1252,-460.5 1252,-460.5 1246,-460.5 1240,-454.5 1240,-448.5 1240,-448.5 1240,-404.5 1240,-404.5 1240,-398.5 1246,-392.5 1252,-392.5"/>
<text text-anchor="start" x="1292.8743" y="-447.2" font-family="Arial BoldMT" font-size="11.00" fill="#000000">Engine</text>
<polyline fill="none" stroke="#000000" points="1240,-441.5 1384,-441.5 "/>
<text text-anchor="start" x="1247" y="-428" font-family="ArialMT" font-size="10.00" fill="#000000">id </text>
<text text-anchor="start" x="1257.5615" y="-428" font-family="Arial ItalicMT" font-size="10.00" fill="#999999">integer (8) PK</text>
<text text-anchor="start" x="1247" y="-415" font-family="ArialMT" font-size="10.00" fill="#000000">name </text>
<text text-anchor="start" x="1274.793" y="-415" font-family="Arial ItalicMT" font-size="10.00" fill="#999999">text ∗</text>
<text text-anchor="start" x="1247" y="-402" font-family="ArialMT" font-size="10.00" fill="#000000">wikidata_id </text>
<text text-anchor="start" x="1299.251" y="-402" font-family="Arial ItalicMT" font-size="10.00" fill="#999999">integer (8) U</text>
</g>
<!-- m_Engine&#45;&gt;m_Game -->
<g id="edge22" class="edge">
<title>m_Engine&#45;&gt;m_Game</title>
<path fill="none" stroke="#000000" stroke-dasharray="1,5" d="M1302.0041,-460.6198C1288.5895,-499.1442 1260.5785,-559.5136 1211.5,-583 1179.7284,-598.2042 926.2716,-598.2042 894.5,-583 858.5492,-565.7958 833.7065,-528.9639 817.6004,-495.3521"/>
<polygon fill="#000000" stroke="#000000" points="820.3257,-493.7401 813.6924,-486.89 814.6061,-496.3815 820.3257,-493.7401"/>
</g>
<!-- m_GameEngine -->
<g id="node9" class="node">
<title>m_GameEngine</title>
<path fill="none" stroke="#000000" d="M1223,-144.5C1223,-144.5 1343,-144.5 1343,-144.5 1349,-144.5 1355,-150.5 1355,-156.5 1355,-156.5 1355,-200.5 1355,-200.5 1355,-206.5 1349,-212.5 1343,-212.5 1343,-212.5 1223,-212.5 1223,-212.5 1217,-212.5 1211,-206.5 1211,-200.5 1211,-200.5 1211,-156.5 1211,-156.5 1211,-150.5 1217,-144.5 1223,-144.5"/>
<text text-anchor="start" x="1248.897" y="-199.2" font-family="Arial BoldMT" font-size="11.00" fill="#000000">GameEngine</text>
<polyline fill="none" stroke="#000000" points="1211,-193.5 1355,-193.5 "/>
<text text-anchor="start" x="1218" y="-180" font-family="ArialMT" font-size="10.00" fill="#000000">engine_id </text>
<text text-anchor="start" x="1264.1523" y="-180" font-family="Arial ItalicMT" font-size="10.00" fill="#999999">integer (8) ∗ FK</text>
<text text-anchor="start" x="1218" y="-167" font-family="ArialMT" font-size="10.00" fill="#000000">game_id </text>
<text text-anchor="start" x="1259.1377" y="-167" font-family="Arial ItalicMT" font-size="10.00" fill="#999999">integer (8) ∗ FK</text>
<text text-anchor="start" x="1218" y="-154" font-family="ArialMT" font-size="10.00" fill="#000000">id </text>
<text text-anchor="start" x="1228.5615" y="-154" font-family="Arial ItalicMT" font-size="10.00" fill="#999999">integer (8) PK</text>
</g>
<!-- m_Engine&#45;&gt;m_GameEngine -->
<g id="edge21" class="edge">
<title>m_Engine&#45;&gt;m_GameEngine</title>
<path fill="none" stroke="#000000" d="M1307.9981,-392.277C1302.8015,-347.837 1293.7275,-270.2386 1288.059,-221.7628"/>
<polygon fill="#000000" stroke="#000000" points="1291.1814,-221.3429 1287.0073,-212.7697 1284.924,-222.0747 1291.1814,-221.3429"/>
</g>
<!-- m_Engine&#45;&gt;m_PgSearch::Document -->
<g id="edge2" class="edge">
<title>m_Engine&#45;&gt;m_PgSearch::Document</title>
<path fill="none" stroke="#000000" d="M1324.1662,-392.2258C1337.4373,-360.0462 1361.8765,-313.1934 1399,-288 1471.9242,-238.5109 1513.6397,-288.1847 1594,-252 1612.1338,-243.8347 1629.886,-231.4574 1644.9927,-219.1754"/>
</g>
<!-- m_ExternalAccount -->
<g id="node5" class="node">
<title>m_ExternalAccount</title>
<path fill="none" stroke="#000000" d="M12,-131.5C12,-131.5 132,-131.5 132,-131.5 138,-131.5 144,-137.5 144,-143.5 144,-143.5 144,-213.5 144,-213.5 144,-219.5 138,-225.5 132,-225.5 132,-225.5 12,-225.5 12,-225.5 6,-225.5 0,-219.5 0,-213.5 0,-213.5 0,-143.5 0,-143.5 0,-137.5 6,-131.5 12,-131.5"/>
<text text-anchor="start" x="29.9504" y="-212.2" font-family="Arial BoldMT" font-size="11.00" fill="#000000">ExternalAccount</text>
<polyline fill="none" stroke="#000000" points="0,-206.5 144,-206.5 "/>
<text text-anchor="start" x="7" y="-193" font-family="ArialMT" font-size="10.00" fill="#000000">account_type </text>
<text text-anchor="start" x="69.2656" y="-193" font-family="Arial ItalicMT" font-size="10.00" fill="#999999">integer ∗</text>
<text text-anchor="start" x="7" y="-180" font-family="ArialMT" font-size="10.00" fill="#000000">id </text>
<text text-anchor="start" x="17.5615" y="-180" font-family="Arial ItalicMT" font-size="10.00" fill="#999999">integer (8) PK</text>
<text text-anchor="start" x="7" y="-167" font-family="ArialMT" font-size="10.00" fill="#000000">steam_id </text>
<text text-anchor="start" x="50.3545" y="-167" font-family="Arial ItalicMT" font-size="10.00" fill="#999999">integer (8) U</text>
<text text-anchor="start" x="7" y="-154" font-family="ArialMT" font-size="10.00" fill="#000000">steam_profile_url </text>
<text text-anchor="start" x="86.4824" y="-154" font-family="Arial ItalicMT" font-size="10.00" fill="#999999">text</text>
<text text-anchor="start" x="7" y="-141" font-family="ArialMT" font-size="10.00" fill="#000000">user_id </text>
<text text-anchor="start" x="42.5762" y="-141" font-family="Arial ItalicMT" font-size="10.00" fill="#999999">integer (8) ∗ FK</text>
</g>
<!-- m_Favorite -->
<g id="node6" class="node">
<title>m_Favorite</title>
<path fill="none" stroke="#000000" d="M358,-138C358,-138 478,-138 478,-138 484,-138 490,-144 490,-150 490,-150 490,-207 490,-207 490,-213 484,-219 478,-219 478,-219 358,-219 358,-219 352,-219 346,-213 346,-207 346,-207 346,-150 346,-150 346,-144 352,-138 358,-138"/>
<text text-anchor="start" x="396.1323" y="-205.7" font-family="Arial BoldMT" font-size="11.00" fill="#000000">Favorite</text>
<polyline fill="none" stroke="#000000" points="346,-200 490,-200 "/>
<text text-anchor="start" x="353" y="-187" font-family="ArialMT" font-size="10.00" fill="#000000">favoritable_id </text>
<text text-anchor="start" x="415.2607" y="-187" font-family="Arial ItalicMT" font-size="10.00" fill="#999999">integer (8) FK</text>
<text text-anchor="start" x="353" y="-174" font-family="ArialMT" font-size="10.00" fill="#000000">favoritable_type </text>
<text text-anchor="start" x="426.3789" y="-174" font-family="Arial ItalicMT" font-size="10.00" fill="#999999">string</text>
<text text-anchor="start" x="353" y="-161" font-family="ArialMT" font-size="10.00" fill="#000000">id </text>
<text text-anchor="start" x="363.5615" y="-161" font-family="Arial ItalicMT" font-size="10.00" fill="#999999">integer (8) PK</text>
<text text-anchor="start" x="353" y="-148" font-family="ArialMT" font-size="10.00" fill="#000000">user_id </text>
<text text-anchor="start" x="388.5762" y="-148" font-family="Arial ItalicMT" font-size="10.00" fill="#999999">integer (8) FK</text>
</g>
<!-- m_Game&#45;&gt;m_ActiveStorage::Attachment -->
<g id="edge8" class="edge">
<title>m_Game&#45;&gt;m_ActiveStorage::Attachment</title>
<path fill="none" stroke="#000000" d="M720.9944,-383.8744C666.193,-353.1265 588.0048,-312.8193 515,-288 436.1063,-261.1787 406.0255,-288.2599 331,-252 317.03,-245.2483 303.4923,-235.6642 291.4505,-225.6389"/>
</g>
<!-- m_Game&#45;&gt;m_ActiveStorage::Blob -->
<g id="edge33" class="edge">
<title>m_Game&#45;&gt;m_ActiveStorage::Blob</title>
<path fill="none" stroke="#000000" stroke-dasharray="1,5" d="M720.8123,-478.186C664.0105,-515.5088 581.2236,-562.7621 500.5,-583 464.934,-591.9166 368.5746,-598.8277 335.5,-583 294.6138,-563.434 264.2263,-521.957 244.4643,-486.6169"/>
</g>
<!-- m_Game&#45;&gt;m_Favorite -->
<g id="edge23" class="edge">
<title>m_Game&#45;&gt;m_Favorite</title>
<path fill="none" stroke="#000000" d="M720.8929,-387.0015C661.4067,-353.437 575.6188,-302.7483 505,-252 493.5407,-243.7651 481.7092,-234.4094 470.6037,-225.1978"/>
<polygon fill="#000000" stroke="#000000" points="472.3429,-222.5454 463.4217,-219.1785 468.2961,-227.3739 472.3429,-222.5454"/>
</g>
<!-- m_Game&#45;&gt;m_GameDeveloper -->
<g id="edge25" class="edge">
<title>m_Game&#45;&gt;m_GameDeveloper</title>
<path fill="none" stroke="#000000" d="M827.8584,-366.4661C854.0233,-321.4043 889.1998,-260.8226 912.4599,-220.7634"/>
<polygon fill="#000000" stroke="#000000" points="915.2957,-222.1528 917.0908,-212.788 909.8475,-218.9894 915.2957,-222.1528"/>
</g>
<!-- m_Game&#45;&gt;m_GameEngine -->
<g id="edge31" class="edge">
<title>m_Game&#45;&gt;m_GameEngine</title>
<path fill="none" stroke="#000000" d="M815.9766,-366.483C830.0643,-337.9727 851.0372,-306.219 880,-288 1000.0227,-212.5001 1066.9649,-308.5381 1197,-252 1214.8006,-244.2605 1231.6742,-231.5427 1245.6838,-218.8438"/>
<polygon fill="#000000" stroke="#000000" points="1247.9021,-221.082 1252.3226,-212.6332 1243.5982,-216.4813 1247.9021,-221.082"/>
</g>
<!-- m_GameGenre -->
<g id="node10" class="node">
<title>m_GameGenre</title>
<path fill="none" stroke="#000000" d="M1396,-144.5C1396,-144.5 1516,-144.5 1516,-144.5 1522,-144.5 1528,-150.5 1528,-156.5 1528,-156.5 1528,-200.5 1528,-200.5 1528,-206.5 1522,-212.5 1516,-212.5 1516,-212.5 1396,-212.5 1396,-212.5 1390,-212.5 1384,-206.5 1384,-200.5 1384,-200.5 1384,-156.5 1384,-156.5 1384,-150.5 1390,-144.5 1396,-144.5"/>
<text text-anchor="start" x="1423.7366" y="-199.2" font-family="Arial BoldMT" font-size="11.00" fill="#000000">GameGenre</text>
<polyline fill="none" stroke="#000000" points="1384,-193.5 1528,-193.5 "/>
<text text-anchor="start" x="1391" y="-180" font-family="ArialMT" font-size="10.00" fill="#000000">game_id </text>
<text text-anchor="start" x="1432.1377" y="-180" font-family="Arial ItalicMT" font-size="10.00" fill="#999999">integer (8) ∗ FK</text>
<text text-anchor="start" x="1391" y="-167" font-family="ArialMT" font-size="10.00" fill="#000000">genre_id </text>
<text text-anchor="start" x="1432.6992" y="-167" font-family="Arial ItalicMT" font-size="10.00" fill="#999999">integer (8) ∗ FK</text>
<text text-anchor="start" x="1391" y="-154" font-family="ArialMT" font-size="10.00" fill="#000000">id </text>
<text text-anchor="start" x="1401.5615" y="-154" font-family="Arial ItalicMT" font-size="10.00" fill="#999999">integer (8) PK</text>
</g>
<!-- m_Game&#45;&gt;m_GameGenre -->
<g id="edge29" class="edge">
<title>m_Game&#45;&gt;m_GameGenre</title>
<path fill="none" stroke="#000000" d="M815.5031,-366.3526C829.5131,-337.6232 850.5593,-305.7131 880,-288 973.5549,-231.7125 1269.0272,-293.5364 1370,-252 1388.107,-244.5515 1405.1527,-231.7587 1419.2181,-218.9133"/>
<polygon fill="#000000" stroke="#000000" points="1421.4947,-221.096 1425.8751,-212.6263 1417.169,-216.5157 1421.4947,-221.096"/>
</g>
<!-- m_GamePlatform -->
<g id="node11" class="node">
<title>m_GamePlatform</title>
<path fill="none" stroke="#000000" d="M1050,-144.5C1050,-144.5 1170,-144.5 1170,-144.5 1176,-144.5 1182,-150.5 1182,-156.5 1182,-156.5 1182,-200.5 1182,-200.5 1182,-206.5 1176,-212.5 1170,-212.5 1170,-212.5 1050,-212.5 1050,-212.5 1044,-212.5 1038,-206.5 1038,-200.5 1038,-200.5 1038,-156.5 1038,-156.5 1038,-150.5 1044,-144.5 1050,-144.5"/>
<text text-anchor="start" x="1072.5454" y="-199.2" font-family="Arial BoldMT" font-size="11.00" fill="#000000">GamePlatform</text>
<polyline fill="none" stroke="#000000" points="1038,-193.5 1182,-193.5 "/>
<text text-anchor="start" x="1045" y="-180" font-family="ArialMT" font-size="10.00" fill="#000000">game_id </text>
<text text-anchor="start" x="1086.1377" y="-180" font-family="Arial ItalicMT" font-size="10.00" fill="#999999">integer (8) ∗ FK</text>
<text text-anchor="start" x="1045" y="-167" font-family="ArialMT" font-size="10.00" fill="#000000">id </text>
<text text-anchor="start" x="1055.5615" y="-167" font-family="Arial ItalicMT" font-size="10.00" fill="#999999">integer (8) PK</text>
<text text-anchor="start" x="1045" y="-154" font-family="ArialMT" font-size="10.00" fill="#000000">platform_id </text>
<text text-anchor="start" x="1097.2461" y="-154" font-family="Arial ItalicMT" font-size="10.00" fill="#999999">integer (8) ∗ FK</text>
</g>
<!-- m_Game&#45;&gt;m_GamePlatform -->
<g id="edge27" class="edge">
<title>m_Game&#45;&gt;m_GamePlatform</title>
<path fill="none" stroke="#000000" d="M817.9411,-366.3C832.2721,-338.6343 852.8755,-307.6713 880,-288 933.4041,-249.2702 965.3664,-282.234 1024,-252 1040.6491,-243.415 1056.8294,-231.0251 1070.5794,-218.8569"/>
<polygon fill="#000000" stroke="#000000" points="1072.9945,-220.9187 1077.5379,-212.5353 1068.7582,-216.2556 1072.9945,-220.9187"/>
</g>
<!-- m_Game&#45;&gt;m_GamePublisher -->
<g id="edge26" class="edge">
<title>m_Game&#45;&gt;m_GamePublisher</title>
<path fill="none" stroke="#000000" d="M785.9799,-366.4661C780.7546,-321.7806 773.7446,-261.8333 769.0599,-221.7713"/>
<polygon fill="#000000" stroke="#000000" points="772.1835,-221.3612 768.0095,-212.788 765.9262,-222.093 772.1835,-221.3612"/>
</g>
<!-- m_GamePurchase -->
<g id="node13" class="node">
<title>m_GamePurchase</title>
<path fill="none" stroke="#000000" d="M531,-105.5C531,-105.5 651,-105.5 651,-105.5 657,-105.5 663,-111.5 663,-117.5 663,-117.5 663,-239.5 663,-239.5 663,-245.5 657,-251.5 651,-251.5 651,-251.5 531,-251.5 531,-251.5 525,-251.5 519,-245.5 519,-239.5 519,-239.5 519,-117.5 519,-117.5 519,-111.5 525,-105.5 531,-105.5"/>
<text text-anchor="start" x="550.7874" y="-238.2" font-family="Arial BoldMT" font-size="11.00" fill="#000000">GamePurchase</text>
<polyline fill="none" stroke="#000000" points="519,-232.5 663,-232.5 "/>
<text text-anchor="start" x="526" y="-219" font-family="ArialMT" font-size="10.00" fill="#000000">comments </text>
<text text-anchor="start" x="574.9014" y="-219" font-family="Arial ItalicMT" font-size="10.00" fill="#999999">text ∗</text>
<text text-anchor="start" x="526" y="-206" font-family="ArialMT" font-size="10.00" fill="#000000">completion_date </text>
<text text-anchor="start" x="602.1621" y="-206" font-family="Arial ItalicMT" font-size="10.00" fill="#999999">date</text>
<text text-anchor="start" x="526" y="-193" font-family="ArialMT" font-size="10.00" fill="#000000">completion_status </text>
<text text-anchor="start" x="609.3789" y="-193" font-family="Arial ItalicMT" font-size="10.00" fill="#999999">integer</text>
<text text-anchor="start" x="526" y="-180" font-family="ArialMT" font-size="10.00" fill="#000000">game_id </text>
<text text-anchor="start" x="567.1377" y="-180" font-family="Arial ItalicMT" font-size="10.00" fill="#999999">integer (8) ∗ FK</text>
<text text-anchor="start" x="526" y="-167" font-family="ArialMT" font-size="10.00" fill="#000000">hours_played </text>
<text text-anchor="start" x="588.8223" y="-167" font-family="Arial ItalicMT" font-size="10.00" fill="#999999">decimal (10,1)</text>
<text text-anchor="start" x="526" y="-154" font-family="ArialMT" font-size="10.00" fill="#000000">id </text>
<text text-anchor="start" x="536.5615" y="-154" font-family="Arial ItalicMT" font-size="10.00" fill="#999999">integer (8) PK</text>
<text text-anchor="start" x="526" y="-141" font-family="ArialMT" font-size="10.00" fill="#000000">rating </text>
<text text-anchor="start" x="553.793" y="-141" font-family="Arial ItalicMT" font-size="10.00" fill="#999999">integer</text>
<text text-anchor="start" x="526" y="-128" font-family="ArialMT" font-size="10.00" fill="#000000">start_date </text>
<text text-anchor="start" x="573.251" y="-128" font-family="Arial ItalicMT" font-size="10.00" fill="#999999">date</text>
<text text-anchor="start" x="526" y="-115" font-family="ArialMT" font-size="10.00" fill="#000000">user_id </text>
<text text-anchor="start" x="561.5762" y="-115" font-family="Arial ItalicMT" font-size="10.00" fill="#999999">integer (8) ∗ FK</text>
</g>
<!-- m_Game&#45;&gt;m_GamePurchase -->
<g id="edge24" class="edge">
<title>m_Game&#45;&gt;m_GamePurchase</title>
<path fill="none" stroke="#000000" d="M744.1014,-366.4661C717.8303,-334.2124 685.0829,-294.0077 656.6243,-259.0685"/>
<polygon fill="#000000" stroke="#000000" points="658.7468,-256.6864 650.6206,-251.6975 653.8621,-260.665 658.7468,-256.6864"/>
</g>
<!-- m_Genre -->
<g id="node15" class="node">
<title>m_Genre</title>
<path fill="none" stroke="#000000" d="M1425,-386C1425,-386 1545,-386 1545,-386 1551,-386 1557,-392 1557,-398 1557,-398 1557,-455 1557,-455 1557,-461 1551,-467 1545,-467 1545,-467 1425,-467 1425,-467 1419,-467 1413,-461 1413,-455 1413,-455 1413,-398 1413,-398 1413,-392 1419,-386 1425,-386"/>
<text text-anchor="start" x="1467.7139" y="-453.7" font-family="Arial BoldMT" font-size="11.00" fill="#000000">Genre</text>
<polyline fill="none" stroke="#000000" points="1413,-448 1557,-448 "/>
<text text-anchor="start" x="1420" y="-435" font-family="ArialMT" font-size="10.00" fill="#000000">description </text>
<text text-anchor="start" x="1471.1377" y="-435" font-family="Arial ItalicMT" font-size="10.00" fill="#999999">text ∗</text>
<text text-anchor="start" x="1420" y="-422" font-family="ArialMT" font-size="10.00" fill="#000000">id </text>
<text text-anchor="start" x="1430.5615" y="-422" font-family="Arial ItalicMT" font-size="10.00" fill="#999999">integer (8) PK</text>
<text text-anchor="start" x="1420" y="-409" font-family="ArialMT" font-size="10.00" fill="#000000">name </text>
<text text-anchor="start" x="1447.793" y="-409" font-family="Arial ItalicMT" font-size="10.00" fill="#999999">text ∗</text>
<text text-anchor="start" x="1420" y="-396" font-family="ArialMT" font-size="10.00" fill="#000000">wikidata_id </text>
<text text-anchor="start" x="1472.251" y="-396" font-family="Arial ItalicMT" font-size="10.00" fill="#999999">integer (8) U</text>
</g>
<!-- m_Game&#45;&gt;m_Genre -->
<g id="edge30" class="edge">
<title>m_Game&#45;&gt;m_Genre</title>
<path fill="none" stroke="#000000" stroke-dasharray="1,5" d="M813.6924,-486.89C829.5757,-522.5802 855.5025,-564.3379 894.5,-583 943.6107,-606.5018 1335.3893,-606.5018 1384.5,-583 1427.3743,-562.4826 1454.1709,-513.8179 1469.2038,-476.1585"/>
<polygon fill="#000000" stroke="#000000" points="1472.307,-476.8646 1472.5948,-467.3335 1466.4262,-474.6049 1472.307,-476.8646"/>
</g>
<!-- m_Game&#45;&gt;m_PgSearch::Document -->
<g id="edge3" class="edge">
<title>m_Game&#45;&gt;m_PgSearch::Document</title>
<path fill="none" stroke="#000000" d="M815.1903,-366.4742C829.1623,-337.5898 850.2692,-305.5033 880,-288 1007.1515,-213.1428 1400.4734,-290.1743 1543,-252 1570.1258,-244.7346 1598.07,-232.0136 1622.0988,-219.1754"/>
</g>
<!-- m_Platform -->
<g id="node17" class="node">
<title>m_Platform</title>
<path fill="none" stroke="#000000" d="M1079,-386C1079,-386 1199,-386 1199,-386 1205,-386 1211,-392 1211,-398 1211,-398 1211,-455 1211,-455 1211,-461 1205,-467 1199,-467 1199,-467 1079,-467 1079,-467 1073,-467 1067,-461 1067,-455 1067,-455 1067,-398 1067,-398 1067,-392 1073,-386 1079,-386"/>
<text text-anchor="start" x="1116.5227" y="-453.7" font-family="Arial BoldMT" font-size="11.00" fill="#000000">Platform</text>
<polyline fill="none" stroke="#000000" points="1067,-448 1211,-448 "/>
<text text-anchor="start" x="1074" y="-435" font-family="ArialMT" font-size="10.00" fill="#000000">description </text>
<text text-anchor="start" x="1125.1377" y="-435" font-family="Arial ItalicMT" font-size="10.00" fill="#999999">text ∗</text>
<text text-anchor="start" x="1074" y="-422" font-family="ArialMT" font-size="10.00" fill="#000000">id </text>
<text text-anchor="start" x="1084.5615" y="-422" font-family="Arial ItalicMT" font-size="10.00" fill="#999999">integer (8) PK</text>
<text text-anchor="start" x="1074" y="-409" font-family="ArialMT" font-size="10.00" fill="#000000">name </text>
<text text-anchor="start" x="1101.793" y="-409" font-family="Arial ItalicMT" font-size="10.00" fill="#999999">text ∗</text>
<text text-anchor="start" x="1074" y="-396" font-family="ArialMT" font-size="10.00" fill="#000000">wikidata_id </text>
<text text-anchor="start" x="1126.251" y="-396" font-family="Arial ItalicMT" font-size="10.00" fill="#999999">integer (8) U</text>
</g>
<!-- m_Game&#45;&gt;m_Platform -->
<g id="edge28" class="edge">
<title>m_Game&#45;&gt;m_Platform</title>
<path fill="none" stroke="#000000" stroke-dasharray="1,5" d="M813.6924,-486.89C829.5757,-522.5802 855.5025,-564.3379 894.5,-583 923.3651,-596.8133 1009.6349,-596.8133 1038.5,-583 1081.3743,-562.4826 1108.1709,-513.8179 1123.2038,-476.1585"/>
<polygon fill="#000000" stroke="#000000" points="1126.307,-476.8646 1126.5948,-467.3335 1120.4262,-474.6049 1126.307,-476.8646"/>
</g>
<!-- m_GamePurchasePlatform -->
<g id="node14" class="node">
<title>m_GamePurchasePlatform</title>
<path fill="none" stroke="#000000" d="M1009,-.5C1009,-.5 1153,-.5 1153,-.5 1159,-.5 1165,-6.5 1165,-12.5 1165,-12.5 1165,-56.5 1165,-56.5 1165,-62.5 1159,-68.5 1153,-68.5 1153,-68.5 1009,-68.5 1009,-68.5 1003,-68.5 997,-62.5 997,-56.5 997,-56.5 997,-12.5 997,-12.5 997,-6.5 1003,-.5 1009,-.5"/>
<text text-anchor="start" x="1020.3101" y="-55.2" font-family="Arial BoldMT" font-size="11.00" fill="#000000">GamePurchasePlatform</text>
<polyline fill="none" stroke="#000000" points="997,-49.5 1165,-49.5 "/>
<text text-anchor="start" x="1003.5488" y="-36" font-family="ArialMT" font-size="10.00" fill="#000000">game_purchase_id </text>
<text text-anchor="start" x="1091.3857" y="-36" font-family="Arial ItalicMT" font-size="10.00" fill="#999999">integer (8) ∗ FK</text>
<text text-anchor="start" x="1004" y="-23" font-family="ArialMT" font-size="10.00" fill="#000000">id </text>
<text text-anchor="start" x="1014.5615" y="-23" font-family="Arial ItalicMT" font-size="10.00" fill="#999999">integer (8) PK</text>
<text text-anchor="start" x="1004" y="-10" font-family="ArialMT" font-size="10.00" fill="#000000">platform_id </text>
<text text-anchor="start" x="1056.2461" y="-10" font-family="Arial ItalicMT" font-size="10.00" fill="#999999">integer (8) ∗ FK</text>
</g>
<!-- m_GamePurchase&#45;&gt;m_GamePurchasePlatform -->
<g id="edge36" class="edge">
<title>m_GamePurchase&#45;&gt;m_GamePurchasePlatform</title>
<path fill="none" stroke="#000000" d="M663.1707,-113.0253C668.0257,-110.056 672.9847,-107.3448 678,-105 731.6357,-79.9238 886.3311,-57.6087 987.7094,-45.0937"/>
<polygon fill="#000000" stroke="#000000" points="988.1885,-48.2086 996.7386,-43.9875 987.4223,-41.9554 988.1885,-48.2086"/>
</g>
<!-- m_GamePurchase&#45;&gt;m_Platform -->
<g id="edge37" class="edge">
<title>m_GamePurchase&#45;&gt;m_Platform</title>
<path fill="none" stroke="#000000" stroke-dasharray="1,5" d="M663.2265,-244.5936C668.0502,-247.3844 672.9887,-249.8896 678,-252 832.3074,-316.9847 910.7353,-199.7133 1053,-288 1085.7536,-308.3262 1107.9978,-346.2256 1121.6443,-377.2467"/>
<polygon fill="#000000" stroke="#000000" points="1118.8544,-378.7364 1125.2669,-385.7935 1124.6549,-376.2778 1118.8544,-378.7364"/>
</g>
<!-- m_Genre&#45;&gt;m_GameGenre -->
<g id="edge34" class="edge">
<title>m_Genre&#45;&gt;m_GameGenre</title>
<path fill="none" stroke="#000000" d="M1480.2437,-385.8255C1474.9671,-340.7013 1466.4864,-268.1768 1461.0821,-221.9605"/>
<polygon fill="#000000" stroke="#000000" points="1464.185,-221.3739 1460.011,-212.8007 1457.9277,-222.1057 1464.185,-221.3739"/>
</g>
<!-- m_Genre&#45;&gt;m_PgSearch::Document -->
<g id="edge4" class="edge">
<title>m_Genre&#45;&gt;m_PgSearch::Document</title>
<path fill="none" stroke="#000000" d="M1518.294,-385.8255C1555.9753,-339.7912 1616.999,-265.2402 1654.6878,-219.1967"/>
</g>
<!-- m_Platform&#45;&gt;m_GamePlatform -->
<g id="edge35" class="edge">
<title>m_Platform&#45;&gt;m_GamePlatform</title>
<path fill="none" stroke="#000000" d="M1134.2437,-385.8255C1128.9671,-340.7013 1120.4864,-268.1768 1115.0821,-221.9605"/>
<polygon fill="#000000" stroke="#000000" points="1118.185,-221.3739 1114.011,-212.8007 1111.9277,-222.1057 1118.185,-221.3739"/>
</g>
<!-- m_Platform&#45;&gt;m_GamePurchasePlatform -->
<g id="edge38" class="edge">
<title>m_Platform&#45;&gt;m_GamePurchasePlatform</title>
<path fill="none" stroke="#000000" d="M1153.1216,-385.9459C1166.5905,-353.7503 1190.1871,-310.528 1226,-288 1286.0113,-250.25 1495.7811,-304.8848 1543,-252 1586.5132,-203.2656 1585.5708,-154.5598 1543,-105 1519.299,-77.4079 1302.1153,-53.8791 1174.1372,-42.2596"/>
<polygon fill="#000000" stroke="#000000" points="1174.3273,-39.114 1165.0809,-41.4437 1173.7619,-45.3886 1174.3273,-39.114"/>
</g>
<!-- m_Platform&#45;&gt;m_PgSearch::Document -->
<g id="edge5" class="edge">
<title>m_Platform&#45;&gt;m_PgSearch::Document</title>
<path fill="none" stroke="#000000" d="M1153.0303,-385.7995C1166.4448,-353.5168 1190.0129,-310.2486 1226,-288 1365.78,-201.5826 1441.4212,-313.042 1594,-252 1612.8492,-244.459 1631.0422,-231.9205 1646.3192,-219.3158"/>
</g>
<!-- m_Series -->
<g id="node18" class="node">
<title>m_Series</title>
<path fill="none" stroke="#000000" d="M733,-601.5C733,-601.5 853,-601.5 853,-601.5 859,-601.5 865,-607.5 865,-613.5 865,-613.5 865,-657.5 865,-657.5 865,-663.5 859,-669.5 853,-669.5 853,-669.5 733,-669.5 733,-669.5 727,-669.5 721,-663.5 721,-657.5 721,-657.5 721,-613.5 721,-613.5 721,-607.5 727,-601.5 733,-601.5"/>
<text text-anchor="start" x="775.4104" y="-656.2" font-family="Arial BoldMT" font-size="11.00" fill="#000000">Series</text>
<polyline fill="none" stroke="#000000" points="721,-650.5 865,-650.5 "/>
<text text-anchor="start" x="728" y="-637" font-family="ArialMT" font-size="10.00" fill="#000000">id </text>
<text text-anchor="start" x="738.5615" y="-637" font-family="Arial ItalicMT" font-size="10.00" fill="#999999">integer (8) PK</text>
<text text-anchor="start" x="728" y="-624" font-family="ArialMT" font-size="10.00" fill="#000000">name </text>
<text text-anchor="start" x="755.793" y="-624" font-family="Arial ItalicMT" font-size="10.00" fill="#999999">text ∗</text>
<text text-anchor="start" x="728" y="-611" font-family="ArialMT" font-size="10.00" fill="#000000">wikidata_id </text>
<text text-anchor="start" x="780.251" y="-611" font-family="Arial ItalicMT" font-size="10.00" fill="#999999">integer (8) U</text>
</g>
<!-- m_Series&#45;&gt;m_Game -->
<g id="edge32" class="edge">
<title>m_Series&#45;&gt;m_Game</title>
<path fill="none" stroke="#000000" d="M793,-601.4554C793,-572.999 793,-531.4955 793,-496.0532"/>
<polygon fill="#000000" stroke="#000000" points="796.1501,-495.7104 793,-486.7105 789.8501,-495.7105 796.1501,-495.7104"/>
</g>
<!-- m_Series&#45;&gt;m_PgSearch::Document -->
<g id="edge6" class="edge">
<title>m_Series&#45;&gt;m_PgSearch::Document</title>
<path fill="none" stroke="#000000" d="M865.0063,-633.5239C1047.5636,-627.8829 1517.8953,-609.178 1572,-565 1677.818,-478.5967 1689.7339,-299.5702 1689.4044,-219.1586"/>
</g>
<!-- m_User -->
<g id="node19" class="node">
<title>m_User</title>
<path fill="none" stroke="#000000" d="M348,-288.5C348,-288.5 488,-288.5 488,-288.5 494,-288.5 500,-294.5 500,-300.5 500,-300.5 500,-552.5 500,-552.5 500,-558.5 494,-564.5 488,-564.5 488,-564.5 348,-564.5 348,-564.5 342,-564.5 336,-558.5 336,-552.5 336,-552.5 336,-300.5 336,-300.5 336,-294.5 342,-288.5 348,-288.5"/>
<text text-anchor="start" x="404.3877" y="-551.2" font-family="Arial BoldMT" font-size="11.00" fill="#000000">User</text>
<polyline fill="none" stroke="#000000" points="336,-545.5 500,-545.5 "/>
<text text-anchor="start" x="343" y="-532" font-family="ArialMT" font-size="10.00" fill="#000000">bio </text>
<text text-anchor="start" x="359.123" y="-532" font-family="Arial ItalicMT" font-size="10.00" fill="#999999">text ∗</text>
<text text-anchor="start" x="343" y="-519" font-family="ArialMT" font-size="10.00" fill="#000000">confirmation_sent_at </text>
<text text-anchor="start" x="438.6104" y="-519" font-family="Arial ItalicMT" font-size="10.00" fill="#999999">datetime</text>
<text text-anchor="start" x="343" y="-506" font-family="ArialMT" font-size="10.00" fill="#000000">confirmation_token </text>
<text text-anchor="start" x="430.2705" y="-506" font-family="Arial ItalicMT" font-size="10.00" fill="#999999">string</text>
<text text-anchor="start" x="343" y="-493" font-family="ArialMT" font-size="10.00" fill="#000000">confirmed_at </text>
<text text-anchor="start" x="403.5859" y="-493" font-family="Arial ItalicMT" font-size="10.00" fill="#999999">datetime</text>
<text text-anchor="start" x="343" y="-480" font-family="ArialMT" font-size="10.00" fill="#000000">current_sign_in_at </text>
<text text-anchor="start" x="428.0537" y="-480" font-family="Arial ItalicMT" font-size="10.00" fill="#999999">datetime</text>
<text text-anchor="start" x="343" y="-467" font-family="ArialMT" font-size="10.00" fill="#000000">current_sign_in_ip </text>
<text text-anchor="start" x="427.4971" y="-467" font-family="Arial ItalicMT" font-size="10.00" fill="#999999">inet</text>
<text text-anchor="start" x="343" y="-454" font-family="ArialMT" font-size="10.00" fill="#000000">email </text>
<text text-anchor="start" x="369.6748" y="-454" font-family="Arial ItalicMT" font-size="10.00" fill="#999999">string ∗ U</text>
<text text-anchor="start" x="343" y="-441" font-family="ArialMT" font-size="10.00" fill="#000000">encrypted_password </text>
<text text-anchor="start" x="438.0537" y="-441" font-family="Arial ItalicMT" font-size="10.00" fill="#999999">string ∗</text>
<text text-anchor="start" x="343" y="-428" font-family="ArialMT" font-size="10.00" fill="#000000">id </text>
<text text-anchor="start" x="353.5615" y="-428" font-family="Arial ItalicMT" font-size="10.00" fill="#999999">integer (8) PK</text>
<text text-anchor="start" x="343" y="-415" font-family="ArialMT" font-size="10.00" fill="#000000">last_sign_in_at </text>
<text text-anchor="start" x="412.4922" y="-415" font-family="Arial ItalicMT" font-size="10.00" fill="#999999">datetime</text>
<text text-anchor="start" x="343" y="-402" font-family="ArialMT" font-size="10.00" fill="#000000">last_sign_in_ip </text>
<text text-anchor="start" x="411.9355" y="-402" font-family="Arial ItalicMT" font-size="10.00" fill="#999999">inet</text>
<text text-anchor="start" x="343" y="-389" font-family="ArialMT" font-size="10.00" fill="#000000">remember_created_at </text>
<text text-anchor="start" x="444.1621" y="-389" font-family="Arial ItalicMT" font-size="10.00" fill="#999999">datetime</text>
<text text-anchor="start" x="342.9561" y="-376" font-family="ArialMT" font-size="10.00" fill="#000000">reset_password_sent_at </text>
<text text-anchor="start" x="454.6895" y="-376" font-family="Arial ItalicMT" font-size="10.00" fill="#999999">datetime</text>
<text text-anchor="start" x="343" y="-363" font-family="ArialMT" font-size="10.00" fill="#000000">reset_password_token </text>
<text text-anchor="start" x="446.3936" y="-363" font-family="Arial ItalicMT" font-size="10.00" fill="#999999">string</text>
<text text-anchor="start" x="343" y="-350" font-family="ArialMT" font-size="10.00" fill="#000000">role </text>
<text text-anchor="start" x="362.4531" y="-350" font-family="Arial ItalicMT" font-size="10.00" fill="#999999">integer ∗</text>
<text text-anchor="start" x="343" y="-337" font-family="ArialMT" font-size="10.00" fill="#000000">sign_in_count </text>
<text text-anchor="start" x="407.4922" y="-337" font-family="Arial ItalicMT" font-size="10.00" fill="#999999">integer ∗</text>
<text text-anchor="start" x="343" y="-324" font-family="ArialMT" font-size="10.00" fill="#000000">slug </text>
<text text-anchor="start" x="364.123" y="-324" font-family="Arial ItalicMT" font-size="10.00" fill="#999999">string ∗ U</text>
<text text-anchor="start" x="343" y="-311" font-family="ArialMT" font-size="10.00" fill="#000000">unconfirmed_email </text>
<text text-anchor="start" x="430.2656" y="-311" font-family="Arial ItalicMT" font-size="10.00" fill="#999999">string</text>
<text text-anchor="start" x="343" y="-298" font-family="ArialMT" font-size="10.00" fill="#000000">username </text>
<text text-anchor="start" x="390.2461" y="-298" font-family="Arial ItalicMT" font-size="10.00" fill="#999999">text ∗ U</text>
</g>
<!-- m_User&#45;&gt;m_ActiveStorage::Attachment -->
<g id="edge9" class="edge">
<title>m_User&#45;&gt;m_ActiveStorage::Attachment</title>
<path fill="none" stroke="#000000" d="M335.8065,-308.6735C315.3189,-279.304 294.5084,-249.4716 277.9874,-225.7884"/>
</g>
<!-- m_User&#45;&gt;m_ExternalAccount -->
<g id="edge15" class="edge">
<title>m_User&#45;&gt;m_ExternalAccount</title>
<path fill="none" stroke="#000000" d="M335.8129,-299.2955C331.0662,-295.2157 326.1273,-291.4226 321,-288 259.2945,-246.8098 224.4032,-285.088 158,-252 144.2884,-245.1676 130.9485,-235.6754 119.0268,-225.7784"/>
</g>
<!-- m_User&#45;&gt;m_Favorite -->
<g id="edge14" class="edge">
<title>m_User&#45;&gt;m_Favorite</title>
<path fill="none" stroke="#000000" d="M418,-288.3594C418,-267.0572 418,-246.319 418,-228.7038"/>
<polygon fill="#000000" stroke="#000000" points="421.1501,-228.2552 418,-219.2552 414.8501,-228.2552 421.1501,-228.2552"/>
</g>
<!-- m_User&#45;&gt;m_GamePurchase -->
<g id="edge12" class="edge">
<title>m_User&#45;&gt;m_GamePurchase</title>
<path fill="none" stroke="#000000" d="M500.1935,-308.6735C511.8812,-291.9188 523.674,-275.0135 534.7156,-259.1851"/>
<polygon fill="#000000" stroke="#000000" points="537.5062,-260.6904 540.0719,-251.5067 532.3392,-257.086 537.5062,-260.6904"/>
</g>
</g>
</svg>
