<?xml version="1.0" encoding="UTF-8" standalone="no"?>
<!DOCTYPE svg PUBLIC "-//W3C//DTD SVG 1.1//EN"
 "http://www.w3.org/Graphics/SVG/1.1/DTD/svg11.dtd">
<!-- Generated by graphviz version 2.40.1 (20161225.0304)
 -->
<!-- Title: GameTracker Pages: 1 -->
<svg width="1600pt" height="672pt"
 viewBox="0.00 0.00 1599.60 671.60" xmlns="http://www.w3.org/2000/svg" xmlns:xlink="http://www.w3.org/1999/xlink">
<g id="graph0" class="graph" transform="scale(1 1) rotate(0) translate(28.8 642.8)">
<title>GameTracker</title>
<polygon fill="#ffffff" stroke="transparent" points="-28.8,28.8 -28.8,-642.8 1570.8,-642.8 1570.8,28.8 -28.8,28.8"/>
<text text-anchor="middle" x="771" y="-599.6" font-family="Arial BoldMT" font-size="13.00" fill="#000000">Continue From Checkpoint domain model</text>
<!-- m_ActiveStorage::Attachment -->
<g id="node1" class="node">
<title>m_ActiveStorage::Attachment</title>
<path fill="none" stroke="#000000" d="M26,-33C26,-33 146,-33 146,-33 152,-33 158,-39 158,-45 158,-45 158,-115 158,-115 158,-121 152,-127 146,-127 146,-127 26,-127 26,-127 20,-127 14,-121 14,-115 14,-115 14,-45 14,-45 14,-39 20,-33 26,-33"/>
<text text-anchor="start" x="18.8835" y="-113.7" font-family="Arial BoldMT" font-size="11.00" fill="#000000">ActiveStorage::Attachment</text>
<polyline fill="none" stroke="#000000" points="14,-108 158,-108 "/>
<text text-anchor="start" x="21" y="-94.5" font-family="ArialMT" font-size="10.00" fill="#000000">blob_id </text>
<text text-anchor="start" x="56.0293" y="-94.5" font-family="Arial ItalicMT" font-size="10.00" fill="#999999">integer (8) ∗ FK</text>
<text text-anchor="start" x="21" y="-81.5" font-family="ArialMT" font-size="10.00" fill="#000000">id </text>
<text text-anchor="start" x="31.5615" y="-81.5" font-family="Arial ItalicMT" font-size="10.00" fill="#999999">integer (8) PK</text>
<text text-anchor="start" x="21" y="-68.5" font-family="ArialMT" font-size="10.00" fill="#000000">name </text>
<text text-anchor="start" x="48.793" y="-68.5" font-family="Arial ItalicMT" font-size="10.00" fill="#999999">string ∗</text>
<text text-anchor="start" x="21" y="-55.5" font-family="ArialMT" font-size="10.00" fill="#000000">record_id </text>
<text text-anchor="start" x="65.4678" y="-55.5" font-family="Arial ItalicMT" font-size="10.00" fill="#999999">integer (8) ∗ FK</text>
<text text-anchor="start" x="21" y="-42.5" font-family="ArialMT" font-size="10.00" fill="#000000">record_type </text>
<text text-anchor="start" x="76.5859" y="-42.5" font-family="Arial ItalicMT" font-size="10.00" fill="#999999">string ∗</text>
</g>
<!-- m_ActiveStorage::Blob -->
<g id="node2" class="node">
<title>m_ActiveStorage::Blob</title>
<path fill="none" stroke="#000000" d="M12,-274.5C12,-274.5 132,-274.5 132,-274.5 138,-274.5 144,-280.5 144,-286.5 144,-286.5 144,-382.5 144,-382.5 144,-388.5 138,-394.5 132,-394.5 132,-394.5 12,-394.5 12,-394.5 6,-394.5 0,-388.5 0,-382.5 0,-382.5 0,-286.5 0,-286.5 0,-280.5 6,-274.5 12,-274.5"/>
<text text-anchor="start" x="21.6951" y="-381.2" font-family="Arial BoldMT" font-size="11.00" fill="#000000">ActiveStorage::Blob</text>
<polyline fill="none" stroke="#000000" points="0,-375.5 144,-375.5 "/>
<text text-anchor="start" x="7" y="-362" font-family="ArialMT" font-size="10.00" fill="#000000">byte_size </text>
<text text-anchor="start" x="52.0244" y="-362" font-family="Arial ItalicMT" font-size="10.00" fill="#999999">integer (8) ∗</text>
<text text-anchor="start" x="7" y="-349" font-family="ArialMT" font-size="10.00" fill="#000000">checksum </text>
<text text-anchor="start" x="54.793" y="-349" font-family="Arial ItalicMT" font-size="10.00" fill="#999999">string ∗</text>
<text text-anchor="start" x="7" y="-336" font-family="ArialMT" font-size="10.00" fill="#000000">content_type </text>
<text text-anchor="start" x="67.0439" y="-336" font-family="Arial ItalicMT" font-size="10.00" fill="#999999">string</text>
<text text-anchor="start" x="7" y="-323" font-family="ArialMT" font-size="10.00" fill="#000000">filename </text>
<text text-anchor="start" x="47.5762" y="-323" font-family="Arial ItalicMT" font-size="10.00" fill="#999999">string ∗</text>
<text text-anchor="start" x="7" y="-310" font-family="ArialMT" font-size="10.00" fill="#000000">id </text>
<text text-anchor="start" x="17.5615" y="-310" font-family="Arial ItalicMT" font-size="10.00" fill="#999999">integer (8) PK</text>
<text text-anchor="start" x="7" y="-297" font-family="ArialMT" font-size="10.00" fill="#000000">key </text>
<text text-anchor="start" x="25.3398" y="-297" font-family="Arial ItalicMT" font-size="10.00" fill="#999999">string ∗</text>
<text text-anchor="start" x="7" y="-284" font-family="ArialMT" font-size="10.00" fill="#000000">metadata </text>
<text text-anchor="start" x="51.4727" y="-284" font-family="Arial ItalicMT" font-size="10.00" fill="#999999">text</text>
</g>
<!-- m_ActiveStorage::Blob&#45;&gt;m_ActiveStorage::Attachment -->
<g id="edge7" class="edge">
<title>m_ActiveStorage::Blob&#45;&gt;m_ActiveStorage::Attachment</title>
<path fill="none" stroke="#000000" d="M75.3178,-274.1871C77.7921,-229.208 81.1244,-168.6307 83.4054,-127.1662"/>
</g>
<!-- m_ActiveStorage::Blob&#45;&gt;m_ActiveStorage::Blob -->
<g id="edge11" class="edge">
<title>m_ActiveStorage::Blob&#45;&gt;m_ActiveStorage::Blob</title>
<path fill="none" stroke="#000000" stroke-dasharray="1,5" d="M144.1757,-372.6407C160.7932,-369.3542 173,-356.6406 173,-334.5 173,-312.3594 160.7932,-299.6458 144.1757,-296.3593"/>
</g>
<!-- m_Company -->
<g id="node3" class="node">
<title>m_Company</title>
<path fill="none" stroke="#000000" d="M718,-294C718,-294 838,-294 838,-294 844,-294 850,-300 850,-306 850,-306 850,-363 850,-363 850,-369 844,-375 838,-375 838,-375 718,-375 718,-375 712,-375 706,-369 706,-363 706,-363 706,-306 706,-306 706,-300 712,-294 718,-294"/>
<text text-anchor="start" x="752.4612" y="-361.7" font-family="Arial BoldMT" font-size="11.00" fill="#000000">Company</text>
<polyline fill="none" stroke="#000000" points="706,-356 850,-356 "/>
<text text-anchor="start" x="713" y="-343" font-family="ArialMT" font-size="10.00" fill="#000000">description </text>
<text text-anchor="start" x="764.1377" y="-343" font-family="Arial ItalicMT" font-size="10.00" fill="#999999">text ∗</text>
<text text-anchor="start" x="713" y="-330" font-family="ArialMT" font-size="10.00" fill="#000000">id </text>
<text text-anchor="start" x="723.5615" y="-330" font-family="Arial ItalicMT" font-size="10.00" fill="#999999">integer (8) PK</text>
<text text-anchor="start" x="713" y="-317" font-family="ArialMT" font-size="10.00" fill="#000000">name </text>
<text text-anchor="start" x="740.793" y="-317" font-family="Arial ItalicMT" font-size="10.00" fill="#999999">text ∗</text>
<text text-anchor="start" x="713" y="-304" font-family="ArialMT" font-size="10.00" fill="#000000">wikidata_id </text>
<text text-anchor="start" x="765.251" y="-304" font-family="Arial ItalicMT" font-size="10.00" fill="#999999">integer (8) U</text>
</g>
<!-- m_Game -->
<g id="node6" class="node">
<title>m_Game</title>
<path fill="none" stroke="#000000" d="M545,-268C545,-268 665,-268 665,-268 671,-268 677,-274 677,-280 677,-280 677,-389 677,-389 677,-395 671,-401 665,-401 665,-401 545,-401 545,-401 539,-401 533,-395 533,-389 533,-389 533,-280 533,-280 533,-274 539,-268 545,-268"/>
<text text-anchor="start" x="588.0227" y="-387.7" font-family="Arial BoldMT" font-size="11.00" fill="#000000">Game</text>
<polyline fill="none" stroke="#000000" points="533,-382 677,-382 "/>
<text text-anchor="start" x="540" y="-369" font-family="ArialMT" font-size="10.00" fill="#000000">description </text>
<text text-anchor="start" x="591.1377" y="-369" font-family="Arial ItalicMT" font-size="10.00" fill="#999999">text ∗</text>
<text text-anchor="start" x="540" y="-356" font-family="ArialMT" font-size="10.00" fill="#000000">earliest_release_date </text>
<text text-anchor="start" x="638.3984" y="-356" font-family="Arial ItalicMT" font-size="10.00" fill="#999999">date</text>
<text text-anchor="start" x="540" y="-343" font-family="ArialMT" font-size="10.00" fill="#000000">id </text>
<text text-anchor="start" x="550.5615" y="-343" font-family="Arial ItalicMT" font-size="10.00" fill="#999999">integer (8) PK</text>
<text text-anchor="start" x="540" y="-330" font-family="ArialMT" font-size="10.00" fill="#000000">name </text>
<text text-anchor="start" x="567.793" y="-330" font-family="Arial ItalicMT" font-size="10.00" fill="#999999">text ∗</text>
<text text-anchor="start" x="540" y="-317" font-family="ArialMT" font-size="10.00" fill="#000000">pcgamingwiki_id </text>
<text text-anchor="start" x="616.1475" y="-317" font-family="Arial ItalicMT" font-size="10.00" fill="#999999">text U</text>
<text text-anchor="start" x="540" y="-304" font-family="ArialMT" font-size="10.00" fill="#000000">release_dates </text>
<text text-anchor="start" x="605.6006" y="-304" font-family="Arial ItalicMT" font-size="10.00" fill="#999999">jsonb</text>
<text text-anchor="start" x="540" y="-291" font-family="ArialMT" font-size="10.00" fill="#000000">series_id </text>
<text text-anchor="start" x="582.7979" y="-291" font-family="Arial ItalicMT" font-size="10.00" fill="#999999">integer (8) FK</text>
<text text-anchor="start" x="540" y="-278" font-family="ArialMT" font-size="10.00" fill="#000000">wikidata_id </text>
<text text-anchor="start" x="592.251" y="-278" font-family="Arial ItalicMT" font-size="10.00" fill="#999999">integer (8) U</text>
</g>
<!-- m_GameDeveloper -->
<g id="node7" class="node">
<title>m_GameDeveloper</title>
<path fill="none" stroke="#000000" d="M718,-46C718,-46 838,-46 838,-46 844,-46 850,-52 850,-58 850,-58 850,-102 850,-102 850,-108 844,-114 838,-114 838,-114 718,-114 718,-114 712,-114 706,-108 706,-102 706,-102 706,-58 706,-58 706,-52 712,-46 718,-46"/>
<text text-anchor="start" x="735.9531" y="-100.7" font-family="Arial BoldMT" font-size="11.00" fill="#000000">GameDeveloper</text>
<polyline fill="none" stroke="#000000" points="706,-95 850,-95 "/>
<text text-anchor="start" x="713" y="-81.5" font-family="ArialMT" font-size="10.00" fill="#000000">company_id </text>
<text text-anchor="start" x="769.6992" y="-81.5" font-family="Arial ItalicMT" font-size="10.00" fill="#999999">integer (8) ∗ FK</text>
<text text-anchor="start" x="713" y="-68.5" font-family="ArialMT" font-size="10.00" fill="#000000">game_id </text>
<text text-anchor="start" x="754.1377" y="-68.5" font-family="Arial ItalicMT" font-size="10.00" fill="#999999">integer (8) ∗ FK</text>
<text text-anchor="start" x="713" y="-55.5" font-family="ArialMT" font-size="10.00" fill="#000000">id </text>
<text text-anchor="start" x="723.5615" y="-55.5" font-family="Arial ItalicMT" font-size="10.00" fill="#999999">integer (8) PK</text>
</g>
<!-- m_Company&#45;&gt;m_GameDeveloper -->
<g id="edge16" class="edge">
<title>m_Company&#45;&gt;m_GameDeveloper</title>
<path fill="none" stroke="#000000" d="M778,-293.8923C778,-247.3181 778,-171.2543 778,-123.4991"/>
<polygon fill="#000000" stroke="#000000" points="781.1501,-123.3426 778,-114.3426 774.8501,-123.3427 781.1501,-123.3426"/>
</g>
<!-- m_GamePublisher -->
<g id="node11" class="node">
<title>m_GamePublisher</title>
<path fill="none" stroke="#000000" d="M545,-46C545,-46 665,-46 665,-46 671,-46 677,-52 677,-58 677,-58 677,-102 677,-102 677,-108 671,-114 665,-114 665,-114 545,-114 545,-114 539,-114 533,-108 533,-102 533,-102 533,-58 533,-58 533,-52 539,-46 545,-46"/>
<text text-anchor="start" x="565.0935" y="-100.7" font-family="Arial BoldMT" font-size="11.00" fill="#000000">GamePublisher</text>
<polyline fill="none" stroke="#000000" points="533,-95 677,-95 "/>
<text text-anchor="start" x="540" y="-81.5" font-family="ArialMT" font-size="10.00" fill="#000000">company_id </text>
<text text-anchor="start" x="596.6992" y="-81.5" font-family="Arial ItalicMT" font-size="10.00" fill="#999999">integer (8) ∗ FK</text>
<text text-anchor="start" x="540" y="-68.5" font-family="ArialMT" font-size="10.00" fill="#000000">game_id </text>
<text text-anchor="start" x="581.1377" y="-68.5" font-family="Arial ItalicMT" font-size="10.00" fill="#999999">integer (8) ∗ FK</text>
<text text-anchor="start" x="540" y="-55.5" font-family="ArialMT" font-size="10.00" fill="#000000">id </text>
<text text-anchor="start" x="550.5615" y="-55.5" font-family="Arial ItalicMT" font-size="10.00" fill="#999999">integer (8) PK</text>
</g>
<!-- m_Company&#45;&gt;m_GamePublisher -->
<g id="edge18" class="edge">
<title>m_Company&#45;&gt;m_GamePublisher</title>
<path fill="none" stroke="#000000" d="M754.0775,-293.9019C737.3096,-265.9731 714.041,-228.2458 692,-196 674.7065,-170.6997 654.1864,-143.2299 637.4193,-121.3754"/>
<polygon fill="#000000" stroke="#000000" points="639.8736,-119.3997 631.887,-114.1904 634.8819,-123.2433 639.8736,-119.3997"/>
</g>
<!-- m_PgSearch::Document -->
<g id="node14" class="node">
<title>m_PgSearch::Document</title>
<path fill="none" stroke="#000000" d="M1410,-39.5C1410,-39.5 1530,-39.5 1530,-39.5 1536,-39.5 1542,-45.5 1542,-51.5 1542,-51.5 1542,-108.5 1542,-108.5 1542,-114.5 1536,-120.5 1530,-120.5 1530,-120.5 1410,-120.5 1410,-120.5 1404,-120.5 1398,-114.5 1398,-108.5 1398,-108.5 1398,-51.5 1398,-51.5 1398,-45.5 1404,-39.5 1410,-39.5"/>
<text text-anchor="start" x="1415.7231" y="-107.2" font-family="Arial BoldMT" font-size="11.00" fill="#000000">PgSearch::Document</text>
<polyline fill="none" stroke="#000000" points="1398,-101.5 1542,-101.5 "/>
<text text-anchor="start" x="1405" y="-88.5" font-family="ArialMT" font-size="10.00" fill="#000000">content </text>
<text text-anchor="start" x="1440.5811" y="-88.5" font-family="Arial ItalicMT" font-size="10.00" fill="#999999">text</text>
<text text-anchor="start" x="1405" y="-75.5" font-family="ArialMT" font-size="10.00" fill="#000000">id </text>
<text text-anchor="start" x="1415.5615" y="-75.5" font-family="Arial ItalicMT" font-size="10.00" fill="#999999">integer (8) PK</text>
<text text-anchor="start" x="1405" y="-62.5" font-family="ArialMT" font-size="10.00" fill="#000000">searchable_id </text>
<text text-anchor="start" x="1470.0439" y="-62.5" font-family="Arial ItalicMT" font-size="10.00" fill="#999999">integer (8) FK</text>
<text text-anchor="start" x="1405" y="-49.5" font-family="ArialMT" font-size="10.00" fill="#000000">searchable_type </text>
<text text-anchor="start" x="1481.1621" y="-49.5" font-family="Arial ItalicMT" font-size="10.00" fill="#999999">string</text>
</g>
<!-- m_Company&#45;&gt;m_PgSearch::Document -->
<g id="edge1" class="edge">
<title>m_Company&#45;&gt;m_PgSearch::Document</title>
<path fill="none" stroke="#000000" d="M791.7337,-293.858C805.0273,-261.381 828.5802,-217.8108 865,-196 964.1844,-136.6011 1277.9372,-206.0051 1384,-160 1404.2043,-151.2363 1422.6674,-135.6287 1437.2624,-120.5115"/>
</g>
<!-- m_Engine -->
<g id="node4" class="node">
<title>m_Engine</title>
<path fill="none" stroke="#000000" d="M891,-300.5C891,-300.5 1011,-300.5 1011,-300.5 1017,-300.5 1023,-306.5 1023,-312.5 1023,-312.5 1023,-356.5 1023,-356.5 1023,-362.5 1017,-368.5 1011,-368.5 1011,-368.5 891,-368.5 891,-368.5 885,-368.5 879,-362.5 879,-356.5 879,-356.5 879,-312.5 879,-312.5 879,-306.5 885,-300.5 891,-300.5"/>
<text text-anchor="start" x="931.8743" y="-355.2" font-family="Arial BoldMT" font-size="11.00" fill="#000000">Engine</text>
<polyline fill="none" stroke="#000000" points="879,-349.5 1023,-349.5 "/>
<text text-anchor="start" x="886" y="-336" font-family="ArialMT" font-size="10.00" fill="#000000">id </text>
<text text-anchor="start" x="896.5615" y="-336" font-family="Arial ItalicMT" font-size="10.00" fill="#999999">integer (8) PK</text>
<text text-anchor="start" x="886" y="-323" font-family="ArialMT" font-size="10.00" fill="#000000">name </text>
<text text-anchor="start" x="913.793" y="-323" font-family="Arial ItalicMT" font-size="10.00" fill="#999999">text ∗</text>
<text text-anchor="start" x="886" y="-310" font-family="ArialMT" font-size="10.00" fill="#000000">wikidata_id </text>
<text text-anchor="start" x="938.251" y="-310" font-family="Arial ItalicMT" font-size="10.00" fill="#999999">integer (8) U</text>
</g>
<!-- m_Engine&#45;&gt;m_Game -->
<g id="edge21" class="edge">
<title>m_Engine&#45;&gt;m_Game</title>
<path fill="none" stroke="#000000" stroke-dasharray="1,5" d="M941.0041,-368.6198C927.5895,-407.1442 899.5785,-467.5136 850.5,-491 821.6349,-504.8133 735.3651,-504.8133 706.5,-491 672.8467,-474.8953 648.9272,-441.5915 632.796,-409.8298"/>
<polygon fill="#000000" stroke="#000000" points="635.4403,-408.0665 628.6567,-401.3653 629.7807,-410.8342 635.4403,-408.0665"/>
</g>
<!-- m_GameEngine -->
<g id="node8" class="node">
<title>m_GameEngine</title>
<path fill="none" stroke="#000000" d="M891,-46C891,-46 1011,-46 1011,-46 1017,-46 1023,-52 1023,-58 1023,-58 1023,-102 1023,-102 1023,-108 1017,-114 1011,-114 1011,-114 891,-114 891,-114 885,-114 879,-108 879,-102 879,-102 879,-58 879,-58 879,-52 885,-46 891,-46"/>
<text text-anchor="start" x="916.897" y="-100.7" font-family="Arial BoldMT" font-size="11.00" fill="#000000">GameEngine</text>
<polyline fill="none" stroke="#000000" points="879,-95 1023,-95 "/>
<text text-anchor="start" x="886" y="-81.5" font-family="ArialMT" font-size="10.00" fill="#000000">engine_id </text>
<text text-anchor="start" x="932.1523" y="-81.5" font-family="Arial ItalicMT" font-size="10.00" fill="#999999">integer (8) ∗ FK</text>
<text text-anchor="start" x="886" y="-68.5" font-family="ArialMT" font-size="10.00" fill="#000000">game_id </text>
<text text-anchor="start" x="927.1377" y="-68.5" font-family="Arial ItalicMT" font-size="10.00" fill="#999999">integer (8) ∗ FK</text>
<text text-anchor="start" x="886" y="-55.5" font-family="ArialMT" font-size="10.00" fill="#000000">id </text>
<text text-anchor="start" x="896.5615" y="-55.5" font-family="Arial ItalicMT" font-size="10.00" fill="#999999">integer (8) PK</text>
</g>
<!-- m_Engine&#45;&gt;m_GameEngine -->
<g id="edge20" class="edge">
<title>m_Engine&#45;&gt;m_GameEngine</title>
<path fill="none" stroke="#000000" d="M951,-300.4411C951,-254.7597 951,-173.6091 951,-123.5394"/>
<polygon fill="#000000" stroke="#000000" points="954.1501,-123.2636 951,-114.2636 947.8501,-123.2637 954.1501,-123.2636"/>
</g>
<!-- m_Engine&#45;&gt;m_PgSearch::Document -->
<g id="edge2" class="edge">
<title>m_Engine&#45;&gt;m_PgSearch::Document</title>
<path fill="none" stroke="#000000" d="M962.3762,-300.5C975.2403,-267.8087 999.5504,-219.935 1038,-196 1169.2544,-114.2939 1243.2402,-223.9552 1384,-160 1403.8648,-150.9743 1422.1479,-135.5177 1436.7012,-120.5828"/>
</g>
<!-- m_Favorite -->
<g id="node5" class="node">
<title>m_Favorite</title>
<path fill="none" stroke="#000000" d="M372,-39.5C372,-39.5 492,-39.5 492,-39.5 498,-39.5 504,-45.5 504,-51.5 504,-51.5 504,-108.5 504,-108.5 504,-114.5 498,-120.5 492,-120.5 492,-120.5 372,-120.5 372,-120.5 366,-120.5 360,-114.5 360,-108.5 360,-108.5 360,-51.5 360,-51.5 360,-45.5 366,-39.5 372,-39.5"/>
<text text-anchor="start" x="410.1323" y="-107.2" font-family="Arial BoldMT" font-size="11.00" fill="#000000">Favorite</text>
<polyline fill="none" stroke="#000000" points="360,-101.5 504,-101.5 "/>
<text text-anchor="start" x="367" y="-88.5" font-family="ArialMT" font-size="10.00" fill="#000000">favoritable_id </text>
<text text-anchor="start" x="429.2607" y="-88.5" font-family="Arial ItalicMT" font-size="10.00" fill="#999999">integer (8) FK</text>
<text text-anchor="start" x="367" y="-75.5" font-family="ArialMT" font-size="10.00" fill="#000000">favoritable_type </text>
<text text-anchor="start" x="440.3789" y="-75.5" font-family="Arial ItalicMT" font-size="10.00" fill="#999999">string</text>
<text text-anchor="start" x="367" y="-62.5" font-family="ArialMT" font-size="10.00" fill="#000000">id </text>
<text text-anchor="start" x="377.5615" y="-62.5" font-family="Arial ItalicMT" font-size="10.00" fill="#999999">integer (8) PK</text>
<text text-anchor="start" x="367" y="-49.5" font-family="ArialMT" font-size="10.00" fill="#000000">user_id </text>
<text text-anchor="start" x="402.5762" y="-49.5" font-family="Arial ItalicMT" font-size="10.00" fill="#999999">integer (8) FK</text>
</g>
<!-- m_Game&#45;&gt;m_ActiveStorage::Attachment -->
<g id="edge8" class="edge">
<title>m_Game&#45;&gt;m_ActiveStorage::Attachment</title>
<path fill="none" stroke="#000000" d="M532.9603,-282.9875C488.0872,-253.2575 428.0325,-217.5927 370,-196 286.1719,-164.8094 251.9634,-200.0731 172,-160 155.7748,-151.8689 140.4368,-139.7222 127.3302,-127.3349"/>
</g>
<!-- m_Game&#45;&gt;m_ActiveStorage::Blob -->
<g id="edge32" class="edge">
<title>m_Game&#45;&gt;m_ActiveStorage::Blob</title>
<path fill="none" stroke="#000000" stroke-dasharray="1,5" d="M532.8176,-395.1468C485.6454,-430.6922 420.8552,-472.1991 355.5,-491 320.2624,-501.1369 223.5746,-506.8277 190.5,-491 149.6138,-471.434 119.2263,-429.957 99.4643,-394.6169"/>
</g>
<!-- m_Game&#45;&gt;m_Favorite -->
<g id="edge22" class="edge">
<title>m_Game&#45;&gt;m_Favorite</title>
<path fill="none" stroke="#000000" d="M559.7723,-267.9655C530.0196,-224.1965 491.758,-167.9099 464.8895,-128.3837"/>
<polygon fill="#000000" stroke="#000000" points="467.3384,-126.383 459.6736,-120.7107 462.1282,-129.9247 467.3384,-126.383"/>
</g>
<!-- m_Game&#45;&gt;m_GameDeveloper -->
<g id="edge24" class="edge">
<title>m_Game&#45;&gt;m_GameDeveloper</title>
<path fill="none" stroke="#000000" d="M645.3538,-267.9575C659.7042,-244.92 676.2207,-219.0935 692,-196 709.2814,-170.708 729.6579,-143.1335 746.238,-121.2171"/>
<polygon fill="#000000" stroke="#000000" points="748.7737,-123.0865 751.7053,-114.013 743.7552,-119.2779 748.7737,-123.0865"/>
</g>
<!-- m_Game&#45;&gt;m_GameEngine -->
<g id="edge30" class="edge">
<title>m_Game&#45;&gt;m_GameEngine</title>
<path fill="none" stroke="#000000" d="M632.7837,-267.7797C646.864,-241.6545 666.471,-213.7496 692,-196 756.4821,-151.1674 795.2383,-196.0723 865,-160 883.8494,-150.2534 901.5848,-135.2117 915.9974,-120.7902"/>
<polygon fill="#000000" stroke="#000000" points="918.3615,-122.8774 922.3776,-114.229 913.8449,-118.4853 918.3615,-122.8774"/>
</g>
<!-- m_GameGenre -->
<g id="node9" class="node">
<title>m_GameGenre</title>
<path fill="none" stroke="#000000" d="M1064,-46C1064,-46 1184,-46 1184,-46 1190,-46 1196,-52 1196,-58 1196,-58 1196,-102 1196,-102 1196,-108 1190,-114 1184,-114 1184,-114 1064,-114 1064,-114 1058,-114 1052,-108 1052,-102 1052,-102 1052,-58 1052,-58 1052,-52 1058,-46 1064,-46"/>
<text text-anchor="start" x="1091.7366" y="-100.7" font-family="Arial BoldMT" font-size="11.00" fill="#000000">GameGenre</text>
<polyline fill="none" stroke="#000000" points="1052,-95 1196,-95 "/>
<text text-anchor="start" x="1059" y="-81.5" font-family="ArialMT" font-size="10.00" fill="#000000">game_id </text>
<text text-anchor="start" x="1100.1377" y="-81.5" font-family="Arial ItalicMT" font-size="10.00" fill="#999999">integer (8) ∗ FK</text>
<text text-anchor="start" x="1059" y="-68.5" font-family="ArialMT" font-size="10.00" fill="#000000">genre_id </text>
<text text-anchor="start" x="1100.6992" y="-68.5" font-family="Arial ItalicMT" font-size="10.00" fill="#999999">integer (8) ∗ FK</text>
<text text-anchor="start" x="1059" y="-55.5" font-family="ArialMT" font-size="10.00" fill="#000000">id </text>
<text text-anchor="start" x="1069.5615" y="-55.5" font-family="Arial ItalicMT" font-size="10.00" fill="#999999">integer (8) PK</text>
</g>
<!-- m_Game&#45;&gt;m_GameGenre -->
<g id="edge28" class="edge">
<title>m_Game&#45;&gt;m_GameGenre</title>
<path fill="none" stroke="#000000" d="M631.1734,-267.9268C645.1526,-241.1624 665.1214,-212.732 692,-196 823.2544,-114.2939 897.2402,-223.9552 1038,-160 1057.6415,-151.0758 1075.7366,-135.8644 1090.2088,-121.0867"/>
<polygon fill="#000000" stroke="#000000" points="1092.6885,-123.0497 1096.5959,-114.3516 1088.1172,-118.7146 1092.6885,-123.0497"/>
</g>
<!-- m_GamePlatform -->
<g id="node10" class="node">
<title>m_GamePlatform</title>
<path fill="none" stroke="#000000" d="M1237,-46C1237,-46 1357,-46 1357,-46 1363,-46 1369,-52 1369,-58 1369,-58 1369,-102 1369,-102 1369,-108 1363,-114 1357,-114 1357,-114 1237,-114 1237,-114 1231,-114 1225,-108 1225,-102 1225,-102 1225,-58 1225,-58 1225,-52 1231,-46 1237,-46"/>
<text text-anchor="start" x="1259.5454" y="-100.7" font-family="Arial BoldMT" font-size="11.00" fill="#000000">GamePlatform</text>
<polyline fill="none" stroke="#000000" points="1225,-95 1369,-95 "/>
<text text-anchor="start" x="1232" y="-81.5" font-family="ArialMT" font-size="10.00" fill="#000000">game_id </text>
<text text-anchor="start" x="1273.1377" y="-81.5" font-family="Arial ItalicMT" font-size="10.00" fill="#999999">integer (8) ∗ FK</text>
<text text-anchor="start" x="1232" y="-68.5" font-family="ArialMT" font-size="10.00" fill="#000000">id </text>
<text text-anchor="start" x="1242.5615" y="-68.5" font-family="Arial ItalicMT" font-size="10.00" fill="#999999">integer (8) PK</text>
<text text-anchor="start" x="1232" y="-55.5" font-family="ArialMT" font-size="10.00" fill="#000000">platform_id </text>
<text text-anchor="start" x="1284.2461" y="-55.5" font-family="Arial ItalicMT" font-size="10.00" fill="#999999">integer (8) ∗ FK</text>
</g>
<!-- m_Game&#45;&gt;m_GamePlatform -->
<g id="edge26" class="edge">
<title>m_Game&#45;&gt;m_GamePlatform</title>
<path fill="none" stroke="#000000" d="M630.7149,-267.8434C644.6527,-240.8921 664.7156,-212.3399 692,-196 791.1844,-136.6011 1104.9372,-206.0051 1211,-160 1230.9544,-151.3447 1249.2103,-136.0138 1263.7191,-121.0727"/>
<polygon fill="#000000" stroke="#000000" points="1266.2507,-122.9783 1270.1142,-114.2607 1261.6576,-118.6663 1266.2507,-122.9783"/>
</g>
<!-- m_Game&#45;&gt;m_GamePublisher -->
<g id="edge25" class="edge">
<title>m_Game&#45;&gt;m_GamePublisher</title>
<path fill="none" stroke="#000000" d="M605,-267.9655C605,-222.2894 605,-162.9811 605,-123.3149"/>
<polygon fill="#000000" stroke="#000000" points="608.1501,-123.1707 605,-114.1708 601.8501,-123.1708 608.1501,-123.1707"/>
</g>
<!-- m_GamePurchase -->
<g id="node12" class="node">
<title>m_GamePurchase</title>
<path fill="none" stroke="#000000" d="M199,-.5C199,-.5 319,-.5 319,-.5 325,-.5 331,-6.5 331,-12.5 331,-12.5 331,-147.5 331,-147.5 331,-153.5 325,-159.5 319,-159.5 319,-159.5 199,-159.5 199,-159.5 193,-159.5 187,-153.5 187,-147.5 187,-147.5 187,-12.5 187,-12.5 187,-6.5 193,-.5 199,-.5"/>
<text text-anchor="start" x="218.7874" y="-146.2" font-family="Arial BoldMT" font-size="11.00" fill="#000000">GamePurchase</text>
<polyline fill="none" stroke="#000000" points="187,-140.5 331,-140.5 "/>
<text text-anchor="start" x="194" y="-127.5" font-family="ArialMT" font-size="10.00" fill="#000000">comments </text>
<text text-anchor="start" x="242.9014" y="-127.5" font-family="Arial ItalicMT" font-size="10.00" fill="#999999">text ∗</text>
<text text-anchor="start" x="194" y="-114.5" font-family="ArialMT" font-size="10.00" fill="#000000">completion_date </text>
<text text-anchor="start" x="270.1621" y="-114.5" font-family="Arial ItalicMT" font-size="10.00" fill="#999999">date</text>
<text text-anchor="start" x="194" y="-101.5" font-family="ArialMT" font-size="10.00" fill="#000000">completion_status </text>
<text text-anchor="start" x="277.3789" y="-101.5" font-family="Arial ItalicMT" font-size="10.00" fill="#999999">integer</text>
<text text-anchor="start" x="194" y="-88.5" font-family="ArialMT" font-size="10.00" fill="#000000">game_id </text>
<text text-anchor="start" x="235.1377" y="-88.5" font-family="Arial ItalicMT" font-size="10.00" fill="#999999">integer (8) ∗ FK</text>
<text text-anchor="start" x="194" y="-75.5" font-family="ArialMT" font-size="10.00" fill="#000000">hours_played </text>
<text text-anchor="start" x="256.8223" y="-75.5" font-family="Arial ItalicMT" font-size="10.00" fill="#999999">decimal (10,1)</text>
<text text-anchor="start" x="194" y="-62.5" font-family="ArialMT" font-size="10.00" fill="#000000">id </text>
<text text-anchor="start" x="204.5615" y="-62.5" font-family="Arial ItalicMT" font-size="10.00" fill="#999999">integer (8) PK</text>
<text text-anchor="start" x="194" y="-49.5" font-family="ArialMT" font-size="10.00" fill="#000000">purchase_date </text>
<text text-anchor="start" x="262.9404" y="-49.5" font-family="Arial ItalicMT" font-size="10.00" fill="#999999">date</text>
<text text-anchor="start" x="194" y="-36.5" font-family="ArialMT" font-size="10.00" fill="#000000">rating </text>
<text text-anchor="start" x="221.793" y="-36.5" font-family="Arial ItalicMT" font-size="10.00" fill="#999999">integer</text>
<text text-anchor="start" x="194" y="-23.5" font-family="ArialMT" font-size="10.00" fill="#000000">start_date </text>
<text text-anchor="start" x="241.251" y="-23.5" font-family="Arial ItalicMT" font-size="10.00" fill="#999999">date</text>
<text text-anchor="start" x="194" y="-10.5" font-family="ArialMT" font-size="10.00" fill="#000000">user_id </text>
<text text-anchor="start" x="229.5762" y="-10.5" font-family="Arial ItalicMT" font-size="10.00" fill="#999999">integer (8) ∗ FK</text>
</g>
<!-- m_Game&#45;&gt;m_GamePurchase -->
<g id="edge23" class="edge">
<title>m_Game&#45;&gt;m_GamePurchase</title>
<path fill="none" stroke="#000000" d="M532.8938,-290.0632C479.7692,-256.3444 406.5394,-207.7852 346,-160 343.584,-158.093 341.1525,-156.1349 338.7156,-154.1381"/>
<polygon fill="#000000" stroke="#000000" points="340.33,-151.3833 331.3984,-148.0443 336.2984,-156.2244 340.33,-151.3833"/>
</g>
<!-- m_Genre -->
<g id="node13" class="node">
<title>m_Genre</title>
<path fill="none" stroke="#000000" d="M1064,-294C1064,-294 1184,-294 1184,-294 1190,-294 1196,-300 1196,-306 1196,-306 1196,-363 1196,-363 1196,-369 1190,-375 1184,-375 1184,-375 1064,-375 1064,-375 1058,-375 1052,-369 1052,-363 1052,-363 1052,-306 1052,-306 1052,-300 1058,-294 1064,-294"/>
<text text-anchor="start" x="1106.7139" y="-361.7" font-family="Arial BoldMT" font-size="11.00" fill="#000000">Genre</text>
<polyline fill="none" stroke="#000000" points="1052,-356 1196,-356 "/>
<text text-anchor="start" x="1059" y="-343" font-family="ArialMT" font-size="10.00" fill="#000000">description </text>
<text text-anchor="start" x="1110.1377" y="-343" font-family="Arial ItalicMT" font-size="10.00" fill="#999999">text ∗</text>
<text text-anchor="start" x="1059" y="-330" font-family="ArialMT" font-size="10.00" fill="#000000">id </text>
<text text-anchor="start" x="1069.5615" y="-330" font-family="Arial ItalicMT" font-size="10.00" fill="#999999">integer (8) PK</text>
<text text-anchor="start" x="1059" y="-317" font-family="ArialMT" font-size="10.00" fill="#000000">name </text>
<text text-anchor="start" x="1086.793" y="-317" font-family="Arial ItalicMT" font-size="10.00" fill="#999999">text ∗</text>
<text text-anchor="start" x="1059" y="-304" font-family="ArialMT" font-size="10.00" fill="#000000">wikidata_id </text>
<text text-anchor="start" x="1111.251" y="-304" font-family="Arial ItalicMT" font-size="10.00" fill="#999999">integer (8) U</text>
</g>
<!-- m_Game&#45;&gt;m_Genre -->
<g id="edge29" class="edge">
<title>m_Game&#45;&gt;m_Genre</title>
<path fill="none" stroke="#000000" stroke-dasharray="1,5" d="M628.6567,-401.3653C644.7299,-435.5019 669.8394,-473.4562 706.5,-491 738.2716,-506.2042 991.7284,-506.2042 1023.5,-491 1066.3743,-470.4826 1093.1709,-421.8179 1108.2038,-384.1585"/>
<polygon fill="#000000" stroke="#000000" points="1111.307,-384.8646 1111.5948,-375.3335 1105.4262,-382.6049 1111.307,-384.8646"/>
</g>
<!-- m_Game&#45;&gt;m_PgSearch::Document -->
<g id="edge3" class="edge">
<title>m_Game&#45;&gt;m_PgSearch::Document</title>
<path fill="none" stroke="#000000" d="M630.396,-267.9805C644.316,-240.8812 664.4531,-212.1755 692,-196 824.7858,-118.0286 1242.2071,-220.0532 1384,-160 1404.2792,-151.4112 1422.754,-135.8309 1437.3376,-120.6868"/>
</g>
<!-- m_Platform -->
<g id="node15" class="node">
<title>m_Platform</title>
<path fill="none" stroke="#000000" d="M1237,-294C1237,-294 1357,-294 1357,-294 1363,-294 1369,-300 1369,-306 1369,-306 1369,-363 1369,-363 1369,-369 1363,-375 1357,-375 1357,-375 1237,-375 1237,-375 1231,-375 1225,-369 1225,-363 1225,-363 1225,-306 1225,-306 1225,-300 1231,-294 1237,-294"/>
<text text-anchor="start" x="1274.5227" y="-361.7" font-family="Arial BoldMT" font-size="11.00" fill="#000000">Platform</text>
<polyline fill="none" stroke="#000000" points="1225,-356 1369,-356 "/>
<text text-anchor="start" x="1232" y="-343" font-family="ArialMT" font-size="10.00" fill="#000000">description </text>
<text text-anchor="start" x="1283.1377" y="-343" font-family="Arial ItalicMT" font-size="10.00" fill="#999999">text ∗</text>
<text text-anchor="start" x="1232" y="-330" font-family="ArialMT" font-size="10.00" fill="#000000">id </text>
<text text-anchor="start" x="1242.5615" y="-330" font-family="Arial ItalicMT" font-size="10.00" fill="#999999">integer (8) PK</text>
<text text-anchor="start" x="1232" y="-317" font-family="ArialMT" font-size="10.00" fill="#000000">name </text>
<text text-anchor="start" x="1259.793" y="-317" font-family="Arial ItalicMT" font-size="10.00" fill="#999999">text ∗</text>
<text text-anchor="start" x="1232" y="-304" font-family="ArialMT" font-size="10.00" fill="#000000">wikidata_id </text>
<text text-anchor="start" x="1284.251" y="-304" font-family="Arial ItalicMT" font-size="10.00" fill="#999999">integer (8) U</text>
</g>
<!-- m_Game&#45;&gt;m_Platform -->
<g id="edge27" class="edge">
<title>m_Game&#45;&gt;m_Platform</title>
<path fill="none" stroke="#000000" stroke-dasharray="1,5" d="M628.6567,-401.3653C644.7299,-435.5019 669.8394,-473.4562 706.5,-491 755.6107,-514.5018 1147.3893,-514.5018 1196.5,-491 1239.3743,-470.4826 1266.1709,-421.8179 1281.2038,-384.1585"/>
<polygon fill="#000000" stroke="#000000" points="1284.307,-384.8646 1284.5948,-375.3335 1278.4262,-382.6049 1284.307,-384.8646"/>
</g>
<!-- m_Genre&#45;&gt;m_GameGenre -->
<g id="edge33" class="edge">
<title>m_Genre&#45;&gt;m_GameGenre</title>
<path fill="none" stroke="#000000" d="M1124,-293.8923C1124,-247.3181 1124,-171.2543 1124,-123.4991"/>
<polygon fill="#000000" stroke="#000000" points="1127.1501,-123.3426 1124,-114.3426 1120.8501,-123.3427 1127.1501,-123.3426"/>
</g>
<!-- m_Genre&#45;&gt;m_PgSearch::Document -->
<g id="edge4" class="edge">
<title>m_Genre&#45;&gt;m_PgSearch::Document</title>
<path fill="none" stroke="#000000" d="M1139.1049,-293.8368C1152.9687,-262.2453 1176.6116,-219.9093 1211,-196 1275.4821,-151.1674 1314.2383,-196.0723 1384,-160 1402.838,-150.2593 1420.5635,-135.2297 1434.9714,-120.8162"/>
</g>
<!-- m_Platform&#45;&gt;m_GamePlatform -->
<g id="edge34" class="edge">
<title>m_Platform&#45;&gt;m_GamePlatform</title>
<path fill="none" stroke="#000000" d="M1297,-293.8923C1297,-247.3181 1297,-171.2543 1297,-123.4991"/>
<polygon fill="#000000" stroke="#000000" points="1300.1501,-123.3426 1297,-114.3426 1293.8501,-123.3427 1300.1501,-123.3426"/>
</g>
<!-- m_Platform&#45;&gt;m_PgSearch::Document -->
<g id="edge5" class="edge">
<title>m_Platform&#45;&gt;m_PgSearch::Document</title>
<path fill="none" stroke="#000000" d="M1324.6037,-293.8923C1356.8474,-246.4586 1409.884,-168.4366 1442.2083,-120.8843"/>
</g>
<!-- m_Series -->
<g id="node16" class="node">
<title>m_Series</title>
<path fill="none" stroke="#000000" d="M545,-509.5C545,-509.5 665,-509.5 665,-509.5 671,-509.5 677,-515.5 677,-521.5 677,-521.5 677,-565.5 677,-565.5 677,-571.5 671,-577.5 665,-577.5 665,-577.5 545,-577.5 545,-577.5 539,-577.5 533,-571.5 533,-565.5 533,-565.5 533,-521.5 533,-521.5 533,-515.5 539,-509.5 545,-509.5"/>
<text text-anchor="start" x="587.4104" y="-564.2" font-family="Arial BoldMT" font-size="11.00" fill="#000000">Series</text>
<polyline fill="none" stroke="#000000" points="533,-558.5 677,-558.5 "/>
<text text-anchor="start" x="540" y="-545" font-family="ArialMT" font-size="10.00" fill="#000000">id </text>
<text text-anchor="start" x="550.5615" y="-545" font-family="Arial ItalicMT" font-size="10.00" fill="#999999">integer (8) PK</text>
<text text-anchor="start" x="540" y="-532" font-family="ArialMT" font-size="10.00" fill="#000000">name </text>
<text text-anchor="start" x="567.793" y="-532" font-family="Arial ItalicMT" font-size="10.00" fill="#999999">text ∗</text>
<text text-anchor="start" x="540" y="-519" font-family="ArialMT" font-size="10.00" fill="#000000">wikidata_id </text>
<text text-anchor="start" x="592.251" y="-519" font-family="Arial ItalicMT" font-size="10.00" fill="#999999">integer (8) U</text>
</g>
<!-- m_Series&#45;&gt;m_Game -->
<g id="edge31" class="edge">
<title>m_Series&#45;&gt;m_Game</title>
<path fill="none" stroke="#000000" d="M605,-509.4554C605,-482.5917 605,-444.1005 605,-410.0579"/>
<polygon fill="#000000" stroke="#000000" points="608.1501,-410.0496 605,-401.0497 601.8501,-410.0497 608.1501,-410.0496"/>
</g>
<!-- m_Series&#45;&gt;m_PgSearch::Document -->
<g id="edge6" class="edge">
<title>m_Series&#45;&gt;m_PgSearch::Document</title>
<path fill="none" stroke="#000000" d="M677.2052,-541.7582C860.2391,-536.6788 1331.616,-519.2053 1384,-473 1486.2706,-382.7922 1482.5652,-201.5768 1475.0473,-120.6502"/>
</g>
<!-- m_User -->
<g id="node17" class="node">
<title>m_User</title>
<path fill="none" stroke="#000000" d="M203,-196.5C203,-196.5 343,-196.5 343,-196.5 349,-196.5 355,-202.5 355,-208.5 355,-208.5 355,-460.5 355,-460.5 355,-466.5 349,-472.5 343,-472.5 343,-472.5 203,-472.5 203,-472.5 197,-472.5 191,-466.5 191,-460.5 191,-460.5 191,-208.5 191,-208.5 191,-202.5 197,-196.5 203,-196.5"/>
<text text-anchor="start" x="259.3877" y="-459.2" font-family="Arial BoldMT" font-size="11.00" fill="#000000">User</text>
<polyline fill="none" stroke="#000000" points="191,-453.5 355,-453.5 "/>
<text text-anchor="start" x="198" y="-440" font-family="ArialMT" font-size="10.00" fill="#000000">bio </text>
<text text-anchor="start" x="214.123" y="-440" font-family="Arial ItalicMT" font-size="10.00" fill="#999999">text ∗</text>
<text text-anchor="start" x="198" y="-427" font-family="ArialMT" font-size="10.00" fill="#000000">confirmation_sent_at </text>
<text text-anchor="start" x="293.6104" y="-427" font-family="Arial ItalicMT" font-size="10.00" fill="#999999">datetime</text>
<text text-anchor="start" x="198" y="-414" font-family="ArialMT" font-size="10.00" fill="#000000">confirmation_token </text>
<text text-anchor="start" x="285.2705" y="-414" font-family="Arial ItalicMT" font-size="10.00" fill="#999999">string</text>
<text text-anchor="start" x="198" y="-401" font-family="ArialMT" font-size="10.00" fill="#000000">confirmed_at </text>
<text text-anchor="start" x="258.5859" y="-401" font-family="Arial ItalicMT" font-size="10.00" fill="#999999">datetime</text>
<text text-anchor="start" x="198" y="-388" font-family="ArialMT" font-size="10.00" fill="#000000">current_sign_in_at </text>
<text text-anchor="start" x="283.0537" y="-388" font-family="Arial ItalicMT" font-size="10.00" fill="#999999">datetime</text>
<text text-anchor="start" x="198" y="-375" font-family="ArialMT" font-size="10.00" fill="#000000">current_sign_in_ip </text>
<text text-anchor="start" x="282.4971" y="-375" font-family="Arial ItalicMT" font-size="10.00" fill="#999999">inet</text>
<text text-anchor="start" x="198" y="-362" font-family="ArialMT" font-size="10.00" fill="#000000">email </text>
<text text-anchor="start" x="224.6748" y="-362" font-family="Arial ItalicMT" font-size="10.00" fill="#999999">string ∗ U</text>
<text text-anchor="start" x="198" y="-349" font-family="ArialMT" font-size="10.00" fill="#000000">encrypted_password </text>
<text text-anchor="start" x="293.0537" y="-349" font-family="Arial ItalicMT" font-size="10.00" fill="#999999">string ∗</text>
<text text-anchor="start" x="198" y="-336" font-family="ArialMT" font-size="10.00" fill="#000000">id </text>
<text text-anchor="start" x="208.5615" y="-336" font-family="Arial ItalicMT" font-size="10.00" fill="#999999">integer (8) PK</text>
<text text-anchor="start" x="198" y="-323" font-family="ArialMT" font-size="10.00" fill="#000000">last_sign_in_at </text>
<text text-anchor="start" x="267.4922" y="-323" font-family="Arial ItalicMT" font-size="10.00" fill="#999999">datetime</text>
<text text-anchor="start" x="198" y="-310" font-family="ArialMT" font-size="10.00" fill="#000000">last_sign_in_ip </text>
<text text-anchor="start" x="266.9355" y="-310" font-family="Arial ItalicMT" font-size="10.00" fill="#999999">inet</text>
<text text-anchor="start" x="198" y="-297" font-family="ArialMT" font-size="10.00" fill="#000000">remember_created_at </text>
<text text-anchor="start" x="299.1621" y="-297" font-family="Arial ItalicMT" font-size="10.00" fill="#999999">datetime</text>
<text text-anchor="start" x="197.9561" y="-284" font-family="ArialMT" font-size="10.00" fill="#000000">reset_password_sent_at </text>
<text text-anchor="start" x="309.6895" y="-284" font-family="Arial ItalicMT" font-size="10.00" fill="#999999">datetime</text>
<text text-anchor="start" x="198" y="-271" font-family="ArialMT" font-size="10.00" fill="#000000">reset_password_token </text>
<text text-anchor="start" x="301.3936" y="-271" font-family="Arial ItalicMT" font-size="10.00" fill="#999999">string</text>
<text text-anchor="start" x="198" y="-258" font-family="ArialMT" font-size="10.00" fill="#000000">role </text>
<text text-anchor="start" x="217.4531" y="-258" font-family="Arial ItalicMT" font-size="10.00" fill="#999999">integer ∗</text>
<text text-anchor="start" x="198" y="-245" font-family="ArialMT" font-size="10.00" fill="#000000">sign_in_count </text>
<text text-anchor="start" x="262.4922" y="-245" font-family="Arial ItalicMT" font-size="10.00" fill="#999999">integer ∗</text>
<text text-anchor="start" x="198" y="-232" font-family="ArialMT" font-size="10.00" fill="#000000">slug </text>
<text text-anchor="start" x="219.123" y="-232" font-family="Arial ItalicMT" font-size="10.00" fill="#999999">string ∗ U</text>
<text text-anchor="start" x="198" y="-219" font-family="ArialMT" font-size="10.00" fill="#000000">unconfirmed_email </text>
<text text-anchor="start" x="285.2656" y="-219" font-family="Arial ItalicMT" font-size="10.00" fill="#999999">string</text>
<text text-anchor="start" x="198" y="-206" font-family="ArialMT" font-size="10.00" fill="#000000">username </text>
<text text-anchor="start" x="245.2461" y="-206" font-family="Arial ItalicMT" font-size="10.00" fill="#999999">text ∗ U</text>
</g>
<!-- m_User&#45;&gt;m_ActiveStorage::Attachment -->
<g id="edge9" class="edge">
<title>m_User&#45;&gt;m_ActiveStorage::Attachment</title>
<path fill="none" stroke="#000000" d="M190.8362,-216.3504C185.85,-209.4405 180.8784,-202.6154 176,-196 159.0564,-173.0235 139.7119,-147.9483 123.3104,-127.0087"/>
</g>
<!-- m_User&#45;&gt;m_Favorite -->
<g id="edge14" class="edge">
<title>m_User&#45;&gt;m_Favorite</title>
<path fill="none" stroke="#000000" d="M355.0616,-203.1498C371.7658,-176.4125 388.3191,-149.9169 401.7675,-128.3911"/>
<polygon fill="#000000" stroke="#000000" points="404.479,-129.996 406.5762,-120.6941 399.136,-126.6579 404.479,-129.996"/>
</g>
<!-- m_User&#45;&gt;m_GamePurchase -->
<g id="edge12" class="edge">
<title>m_User&#45;&gt;m_GamePurchase</title>
<path fill="none" stroke="#000000" d="M265.4059,-196.4503C264.8852,-186.9852 264.369,-177.6004 263.8688,-168.5073"/>
<polygon fill="#000000" stroke="#000000" points="267.014,-168.3327 263.3743,-159.5194 260.7235,-168.6788 267.014,-168.3327"/>
</g>
</g>
</svg>
