<?xml version="1.0" encoding="UTF-8" standalone="no"?>
<!DOCTYPE svg PUBLIC "-//W3C//DTD SVG 1.1//EN"
 "http://www.w3.org/Graphics/SVG/1.1/DTD/svg11.dtd">
<!-- Generated by graphviz version 2.40.1 (20161225.0304)
 -->
<!-- Title: VideoGameList Pages: 1 -->
<svg width="1659pt" height="764pt"
 viewBox="0.00 0.00 1658.60 763.60" xmlns="http://www.w3.org/2000/svg" xmlns:xlink="http://www.w3.org/1999/xlink">
<g id="graph0" class="graph" transform="scale(1 1) rotate(0) translate(28.8 734.8)">
<title>VideoGameList</title>
<polygon fill="#ffffff" stroke="transparent" points="-28.8,28.8 -28.8,-734.8 1629.8,-734.8 1629.8,28.8 -28.8,28.8"/>
<text text-anchor="middle" x="800.5" y="-691.6" font-family="Arial BoldMT" font-size="13.00" fill="#000000">VideoGameList Domain Model</text>
<!-- m_ActiveStorage::Attachment -->
<g id="node1" class="node">
<title>m_ActiveStorage::Attachment</title>
<path fill="none" stroke="#000000" d="M26,-131.5C26,-131.5 146,-131.5 146,-131.5 152,-131.5 158,-137.5 158,-143.5 158,-143.5 158,-213.5 158,-213.5 158,-219.5 152,-225.5 146,-225.5 146,-225.5 26,-225.5 26,-225.5 20,-225.5 14,-219.5 14,-213.5 14,-213.5 14,-143.5 14,-143.5 14,-137.5 20,-131.5 26,-131.5"/>
<text text-anchor="start" x="18.8835" y="-212.2" font-family="Arial BoldMT" font-size="11.00" fill="#000000">ActiveStorage::Attachment</text>
<polyline fill="none" stroke="#000000" points="14,-206.5 158,-206.5 "/>
<text text-anchor="start" x="21" y="-193" font-family="ArialMT" font-size="10.00" fill="#000000">blob_id </text>
<text text-anchor="start" x="56.0293" y="-193" font-family="Arial ItalicMT" font-size="10.00" fill="#999999">integer (8) ∗ FK</text>
<text text-anchor="start" x="21" y="-180" font-family="ArialMT" font-size="10.00" fill="#000000">id </text>
<text text-anchor="start" x="31.5615" y="-180" font-family="Arial ItalicMT" font-size="10.00" fill="#999999">integer (8) PK</text>
<text text-anchor="start" x="21" y="-167" font-family="ArialMT" font-size="10.00" fill="#000000">name </text>
<text text-anchor="start" x="48.793" y="-167" font-family="Arial ItalicMT" font-size="10.00" fill="#999999">string ∗</text>
<text text-anchor="start" x="21" y="-154" font-family="ArialMT" font-size="10.00" fill="#000000">record_id </text>
<text text-anchor="start" x="65.4678" y="-154" font-family="Arial ItalicMT" font-size="10.00" fill="#999999">integer (8) ∗ FK</text>
<text text-anchor="start" x="21" y="-141" font-family="ArialMT" font-size="10.00" fill="#000000">record_type </text>
<text text-anchor="start" x="76.5859" y="-141" font-family="Arial ItalicMT" font-size="10.00" fill="#999999">string ∗</text>
</g>
<!-- m_ActiveStorage::Blob -->
<g id="node2" class="node">
<title>m_ActiveStorage::Blob</title>
<path fill="none" stroke="#000000" d="M12,-366.5C12,-366.5 132,-366.5 132,-366.5 138,-366.5 144,-372.5 144,-378.5 144,-378.5 144,-474.5 144,-474.5 144,-480.5 138,-486.5 132,-486.5 132,-486.5 12,-486.5 12,-486.5 6,-486.5 0,-480.5 0,-474.5 0,-474.5 0,-378.5 0,-378.5 0,-372.5 6,-366.5 12,-366.5"/>
<text text-anchor="start" x="21.6951" y="-473.2" font-family="Arial BoldMT" font-size="11.00" fill="#000000">ActiveStorage::Blob</text>
<polyline fill="none" stroke="#000000" points="0,-467.5 144,-467.5 "/>
<text text-anchor="start" x="7" y="-454" font-family="ArialMT" font-size="10.00" fill="#000000">byte_size </text>
<text text-anchor="start" x="52.0244" y="-454" font-family="Arial ItalicMT" font-size="10.00" fill="#999999">integer (8) ∗</text>
<text text-anchor="start" x="7" y="-441" font-family="ArialMT" font-size="10.00" fill="#000000">checksum </text>
<text text-anchor="start" x="54.793" y="-441" font-family="Arial ItalicMT" font-size="10.00" fill="#999999">string ∗</text>
<text text-anchor="start" x="7" y="-428" font-family="ArialMT" font-size="10.00" fill="#000000">content_type </text>
<text text-anchor="start" x="67.0439" y="-428" font-family="Arial ItalicMT" font-size="10.00" fill="#999999">string</text>
<text text-anchor="start" x="7" y="-415" font-family="ArialMT" font-size="10.00" fill="#000000">filename </text>
<text text-anchor="start" x="47.5762" y="-415" font-family="Arial ItalicMT" font-size="10.00" fill="#999999">string ∗</text>
<text text-anchor="start" x="7" y="-402" font-family="ArialMT" font-size="10.00" fill="#000000">id </text>
<text text-anchor="start" x="17.5615" y="-402" font-family="Arial ItalicMT" font-size="10.00" fill="#999999">integer (8) PK</text>
<text text-anchor="start" x="7" y="-389" font-family="ArialMT" font-size="10.00" fill="#000000">key </text>
<text text-anchor="start" x="25.3398" y="-389" font-family="Arial ItalicMT" font-size="10.00" fill="#999999">string ∗</text>
<text text-anchor="start" x="7" y="-376" font-family="ArialMT" font-size="10.00" fill="#000000">metadata </text>
<text text-anchor="start" x="51.4727" y="-376" font-family="Arial ItalicMT" font-size="10.00" fill="#999999">text</text>
</g>
<!-- m_ActiveStorage::Blob&#45;&gt;m_ActiveStorage::Attachment -->
<g id="edge7" class="edge">
<title>m_ActiveStorage::Blob&#45;&gt;m_ActiveStorage::Attachment</title>
<path fill="none" stroke="#000000" d="M75.389,-366.4661C77.8329,-323.1738 81.0855,-265.5565 83.3425,-225.5753"/>
</g>
<!-- m_ActiveStorage::Blob&#45;&gt;m_ActiveStorage::Blob -->
<g id="edge11" class="edge">
<title>m_ActiveStorage::Blob&#45;&gt;m_ActiveStorage::Blob</title>
<path fill="none" stroke="#000000" stroke-dasharray="1,5" d="M144.1757,-464.6407C160.7932,-461.3542 173,-448.6406 173,-426.5 173,-404.3594 160.7932,-391.6458 144.1757,-388.3593"/>
</g>
<!-- m_Company -->
<g id="node3" class="node">
<title>m_Company</title>
<path fill="none" stroke="#000000" d="M747,-386C747,-386 867,-386 867,-386 873,-386 879,-392 879,-398 879,-398 879,-455 879,-455 879,-461 873,-467 867,-467 867,-467 747,-467 747,-467 741,-467 735,-461 735,-455 735,-455 735,-398 735,-398 735,-392 741,-386 747,-386"/>
<text text-anchor="start" x="781.4612" y="-453.7" font-family="Arial BoldMT" font-size="11.00" fill="#000000">Company</text>
<polyline fill="none" stroke="#000000" points="735,-448 879,-448 "/>
<text text-anchor="start" x="742" y="-435" font-family="ArialMT" font-size="10.00" fill="#000000">description </text>
<text text-anchor="start" x="793.1377" y="-435" font-family="Arial ItalicMT" font-size="10.00" fill="#999999">text ∗</text>
<text text-anchor="start" x="742" y="-422" font-family="ArialMT" font-size="10.00" fill="#000000">id </text>
<text text-anchor="start" x="752.5615" y="-422" font-family="Arial ItalicMT" font-size="10.00" fill="#999999">integer (8) PK</text>
<text text-anchor="start" x="742" y="-409" font-family="ArialMT" font-size="10.00" fill="#000000">name </text>
<text text-anchor="start" x="769.793" y="-409" font-family="Arial ItalicMT" font-size="10.00" fill="#999999">text ∗</text>
<text text-anchor="start" x="742" y="-396" font-family="ArialMT" font-size="10.00" fill="#000000">wikidata_id </text>
<text text-anchor="start" x="794.251" y="-396" font-family="Arial ItalicMT" font-size="10.00" fill="#999999">integer (8) U</text>
</g>
<!-- m_Game -->
<g id="node6" class="node">
<title>m_Game</title>
<path fill="none" stroke="#000000" d="M574,-366.5C574,-366.5 694,-366.5 694,-366.5 700,-366.5 706,-372.5 706,-378.5 706,-378.5 706,-474.5 706,-474.5 706,-480.5 700,-486.5 694,-486.5 694,-486.5 574,-486.5 574,-486.5 568,-486.5 562,-480.5 562,-474.5 562,-474.5 562,-378.5 562,-378.5 562,-372.5 568,-366.5 574,-366.5"/>
<text text-anchor="start" x="617.0227" y="-473.2" font-family="Arial BoldMT" font-size="11.00" fill="#000000">Game</text>
<polyline fill="none" stroke="#000000" points="562,-467.5 706,-467.5 "/>
<text text-anchor="start" x="569" y="-454" font-family="ArialMT" font-size="10.00" fill="#000000">description </text>
<text text-anchor="start" x="620.1377" y="-454" font-family="Arial ItalicMT" font-size="10.00" fill="#999999">text ∗</text>
<text text-anchor="start" x="569" y="-441" font-family="ArialMT" font-size="10.00" fill="#000000">id </text>
<text text-anchor="start" x="579.5615" y="-441" font-family="Arial ItalicMT" font-size="10.00" fill="#999999">integer (8) PK</text>
<text text-anchor="start" x="569" y="-428" font-family="ArialMT" font-size="10.00" fill="#000000">name </text>
<text text-anchor="start" x="596.793" y="-428" font-family="Arial ItalicMT" font-size="10.00" fill="#999999">text ∗</text>
<text text-anchor="start" x="569" y="-415" font-family="ArialMT" font-size="10.00" fill="#000000">pcgamingwiki_id </text>
<text text-anchor="start" x="645.1475" y="-415" font-family="Arial ItalicMT" font-size="10.00" fill="#999999">text U</text>
<text text-anchor="start" x="569" y="-402" font-family="ArialMT" font-size="10.00" fill="#000000">series_id </text>
<text text-anchor="start" x="611.7979" y="-402" font-family="Arial ItalicMT" font-size="10.00" fill="#999999">integer (8) FK</text>
<text text-anchor="start" x="569" y="-389" font-family="ArialMT" font-size="10.00" fill="#000000">steam_app_id </text>
<text text-anchor="start" x="634.6006" y="-389" font-family="Arial ItalicMT" font-size="10.00" fill="#999999">integer U</text>
<text text-anchor="start" x="569" y="-376" font-family="ArialMT" font-size="10.00" fill="#000000">wikidata_id </text>
<text text-anchor="start" x="621.251" y="-376" font-family="Arial ItalicMT" font-size="10.00" fill="#999999">integer (8) U</text>
</g>
<!-- m_GameDeveloper -->
<g id="node7" class="node">
<title>m_GameDeveloper</title>
<path fill="none" stroke="#000000" d="M545,-144.5C545,-144.5 665,-144.5 665,-144.5 671,-144.5 677,-150.5 677,-156.5 677,-156.5 677,-200.5 677,-200.5 677,-206.5 671,-212.5 665,-212.5 665,-212.5 545,-212.5 545,-212.5 539,-212.5 533,-206.5 533,-200.5 533,-200.5 533,-156.5 533,-156.5 533,-150.5 539,-144.5 545,-144.5"/>
<text text-anchor="start" x="562.9531" y="-199.2" font-family="Arial BoldMT" font-size="11.00" fill="#000000">GameDeveloper</text>
<polyline fill="none" stroke="#000000" points="533,-193.5 677,-193.5 "/>
<text text-anchor="start" x="540" y="-180" font-family="ArialMT" font-size="10.00" fill="#000000">company_id </text>
<text text-anchor="start" x="596.6992" y="-180" font-family="Arial ItalicMT" font-size="10.00" fill="#999999">integer (8) ∗ FK</text>
<text text-anchor="start" x="540" y="-167" font-family="ArialMT" font-size="10.00" fill="#000000">game_id </text>
<text text-anchor="start" x="581.1377" y="-167" font-family="Arial ItalicMT" font-size="10.00" fill="#999999">integer (8) ∗ FK</text>
<text text-anchor="start" x="540" y="-154" font-family="ArialMT" font-size="10.00" fill="#000000">id </text>
<text text-anchor="start" x="550.5615" y="-154" font-family="Arial ItalicMT" font-size="10.00" fill="#999999">integer (8) PK</text>
</g>
<!-- m_Company&#45;&gt;m_GameDeveloper -->
<g id="edge16" class="edge">
<title>m_Company&#45;&gt;m_GameDeveloper</title>
<path fill="none" stroke="#000000" d="M785.4702,-385.8624C769.438,-357.2323 746.0679,-318.6877 721,-288 700.7642,-263.2277 675.1755,-238.5191 653.1832,-218.8593"/>
<polygon fill="#000000" stroke="#000000" points="655.0074,-216.2672 646.1806,-212.66 650.8314,-220.9843 655.0074,-216.2672"/>
</g>
<!-- m_GamePublisher -->
<g id="node11" class="node">
<title>m_GamePublisher</title>
<path fill="none" stroke="#000000" d="M718,-144.5C718,-144.5 838,-144.5 838,-144.5 844,-144.5 850,-150.5 850,-156.5 850,-156.5 850,-200.5 850,-200.5 850,-206.5 844,-212.5 838,-212.5 838,-212.5 718,-212.5 718,-212.5 712,-212.5 706,-206.5 706,-200.5 706,-200.5 706,-156.5 706,-156.5 706,-150.5 712,-144.5 718,-144.5"/>
<text text-anchor="start" x="738.0935" y="-199.2" font-family="Arial BoldMT" font-size="11.00" fill="#000000">GamePublisher</text>
<polyline fill="none" stroke="#000000" points="706,-193.5 850,-193.5 "/>
<text text-anchor="start" x="713" y="-180" font-family="ArialMT" font-size="10.00" fill="#000000">company_id </text>
<text text-anchor="start" x="769.6992" y="-180" font-family="Arial ItalicMT" font-size="10.00" fill="#999999">integer (8) ∗ FK</text>
<text text-anchor="start" x="713" y="-167" font-family="ArialMT" font-size="10.00" fill="#000000">game_id </text>
<text text-anchor="start" x="754.1377" y="-167" font-family="Arial ItalicMT" font-size="10.00" fill="#999999">integer (8) ∗ FK</text>
<text text-anchor="start" x="713" y="-154" font-family="ArialMT" font-size="10.00" fill="#000000">id </text>
<text text-anchor="start" x="723.5615" y="-154" font-family="Arial ItalicMT" font-size="10.00" fill="#999999">integer (8) PK</text>
</g>
<!-- m_Company&#45;&gt;m_GamePublisher -->
<g id="edge18" class="edge">
<title>m_Company&#45;&gt;m_GamePublisher</title>
<path fill="none" stroke="#000000" d="M802.2437,-385.8255C796.9671,-340.7013 788.4864,-268.1768 783.0821,-221.9605"/>
<polygon fill="#000000" stroke="#000000" points="786.185,-221.3739 782.011,-212.8007 779.9277,-222.1057 786.185,-221.3739"/>
</g>
<!-- m_PgSearch::Document -->
<g id="node15" class="node">
<title>m_PgSearch::Document</title>
<path fill="none" stroke="#000000" d="M1469,-138C1469,-138 1589,-138 1589,-138 1595,-138 1601,-144 1601,-150 1601,-150 1601,-207 1601,-207 1601,-213 1595,-219 1589,-219 1589,-219 1469,-219 1469,-219 1463,-219 1457,-213 1457,-207 1457,-207 1457,-150 1457,-150 1457,-144 1463,-138 1469,-138"/>
<text text-anchor="start" x="1474.7231" y="-205.7" font-family="Arial BoldMT" font-size="11.00" fill="#000000">PgSearch::Document</text>
<polyline fill="none" stroke="#000000" points="1457,-200 1601,-200 "/>
<text text-anchor="start" x="1464" y="-187" font-family="ArialMT" font-size="10.00" fill="#000000">content </text>
<text text-anchor="start" x="1499.5811" y="-187" font-family="Arial ItalicMT" font-size="10.00" fill="#999999">text</text>
<text text-anchor="start" x="1464" y="-174" font-family="ArialMT" font-size="10.00" fill="#000000">id </text>
<text text-anchor="start" x="1474.5615" y="-174" font-family="Arial ItalicMT" font-size="10.00" fill="#999999">integer (8) PK</text>
<text text-anchor="start" x="1464" y="-161" font-family="ArialMT" font-size="10.00" fill="#000000">searchable_id </text>
<text text-anchor="start" x="1529.0439" y="-161" font-family="Arial ItalicMT" font-size="10.00" fill="#999999">integer (8) FK</text>
<text text-anchor="start" x="1464" y="-148" font-family="ArialMT" font-size="10.00" fill="#000000">searchable_type </text>
<text text-anchor="start" x="1540.1621" y="-148" font-family="Arial ItalicMT" font-size="10.00" fill="#999999">string</text>
</g>
<!-- m_Company&#45;&gt;m_PgSearch::Document -->
<g id="edge1" class="edge">
<title>m_Company&#45;&gt;m_PgSearch::Document</title>
<path fill="none" stroke="#000000" d="M820.7569,-385.8966C834.0645,-353.4429 857.6249,-309.8852 894,-288 987.5549,-231.7125 1278.8095,-281.2532 1384,-252 1410.9192,-244.5138 1438.7031,-231.8257 1462.657,-219.0786"/>
</g>
<!-- m_Engine -->
<g id="node4" class="node">
<title>m_Engine</title>
<path fill="none" stroke="#000000" d="M1093,-392.5C1093,-392.5 1213,-392.5 1213,-392.5 1219,-392.5 1225,-398.5 1225,-404.5 1225,-404.5 1225,-448.5 1225,-448.5 1225,-454.5 1219,-460.5 1213,-460.5 1213,-460.5 1093,-460.5 1093,-460.5 1087,-460.5 1081,-454.5 1081,-448.5 1081,-448.5 1081,-404.5 1081,-404.5 1081,-398.5 1087,-392.5 1093,-392.5"/>
<text text-anchor="start" x="1133.8743" y="-447.2" font-family="Arial BoldMT" font-size="11.00" fill="#000000">Engine</text>
<polyline fill="none" stroke="#000000" points="1081,-441.5 1225,-441.5 "/>
<text text-anchor="start" x="1088" y="-428" font-family="ArialMT" font-size="10.00" fill="#000000">id </text>
<text text-anchor="start" x="1098.5615" y="-428" font-family="Arial ItalicMT" font-size="10.00" fill="#999999">integer (8) PK</text>
<text text-anchor="start" x="1088" y="-415" font-family="ArialMT" font-size="10.00" fill="#000000">name </text>
<text text-anchor="start" x="1115.793" y="-415" font-family="Arial ItalicMT" font-size="10.00" fill="#999999">text ∗</text>
<text text-anchor="start" x="1088" y="-402" font-family="ArialMT" font-size="10.00" fill="#000000">wikidata_id </text>
<text text-anchor="start" x="1140.251" y="-402" font-family="Arial ItalicMT" font-size="10.00" fill="#999999">integer (8) U</text>
</g>
<!-- m_Engine&#45;&gt;m_Game -->
<g id="edge21" class="edge">
<title>m_Engine&#45;&gt;m_Game</title>
<path fill="none" stroke="#000000" stroke-dasharray="1,5" d="M1143.0041,-460.6198C1129.5895,-499.1442 1101.5785,-559.5136 1052.5,-583 1020.7284,-598.2042 767.2716,-598.2042 735.5,-583 699.5492,-565.7958 674.7065,-528.9639 658.6004,-495.3521"/>
<polygon fill="#000000" stroke="#000000" points="661.3257,-493.7401 654.6924,-486.89 655.6061,-496.3815 661.3257,-493.7401"/>
</g>
<!-- m_GameEngine -->
<g id="node8" class="node">
<title>m_GameEngine</title>
<path fill="none" stroke="#000000" d="M1064,-144.5C1064,-144.5 1184,-144.5 1184,-144.5 1190,-144.5 1196,-150.5 1196,-156.5 1196,-156.5 1196,-200.5 1196,-200.5 1196,-206.5 1190,-212.5 1184,-212.5 1184,-212.5 1064,-212.5 1064,-212.5 1058,-212.5 1052,-206.5 1052,-200.5 1052,-200.5 1052,-156.5 1052,-156.5 1052,-150.5 1058,-144.5 1064,-144.5"/>
<text text-anchor="start" x="1089.897" y="-199.2" font-family="Arial BoldMT" font-size="11.00" fill="#000000">GameEngine</text>
<polyline fill="none" stroke="#000000" points="1052,-193.5 1196,-193.5 "/>
<text text-anchor="start" x="1059" y="-180" font-family="ArialMT" font-size="10.00" fill="#000000">engine_id </text>
<text text-anchor="start" x="1105.1523" y="-180" font-family="Arial ItalicMT" font-size="10.00" fill="#999999">integer (8) ∗ FK</text>
<text text-anchor="start" x="1059" y="-167" font-family="ArialMT" font-size="10.00" fill="#000000">game_id </text>
<text text-anchor="start" x="1100.1377" y="-167" font-family="Arial ItalicMT" font-size="10.00" fill="#999999">integer (8) ∗ FK</text>
<text text-anchor="start" x="1059" y="-154" font-family="ArialMT" font-size="10.00" fill="#000000">id </text>
<text text-anchor="start" x="1069.5615" y="-154" font-family="Arial ItalicMT" font-size="10.00" fill="#999999">integer (8) PK</text>
</g>
<!-- m_Engine&#45;&gt;m_GameEngine -->
<g id="edge20" class="edge">
<title>m_Engine&#45;&gt;m_GameEngine</title>
<path fill="none" stroke="#000000" d="M1148.9981,-392.277C1143.8015,-347.837 1134.7275,-270.2386 1129.059,-221.7628"/>
<polygon fill="#000000" stroke="#000000" points="1132.1814,-221.3429 1128.0073,-212.7697 1125.924,-222.0747 1132.1814,-221.3429"/>
</g>
<!-- m_Engine&#45;&gt;m_PgSearch::Document -->
<g id="edge2" class="edge">
<title>m_Engine&#45;&gt;m_PgSearch::Document</title>
<path fill="none" stroke="#000000" d="M1165.1662,-392.2258C1178.4373,-360.0462 1202.8765,-313.1934 1240,-288 1312.9242,-238.5109 1354.6397,-288.1847 1435,-252 1453.1338,-243.8347 1470.886,-231.4574 1485.9927,-219.1754"/>
</g>
<!-- m_Favorite -->
<g id="node5" class="node">
<title>m_Favorite</title>
<path fill="none" stroke="#000000" d="M199,-138C199,-138 319,-138 319,-138 325,-138 331,-144 331,-150 331,-150 331,-207 331,-207 331,-213 325,-219 319,-219 319,-219 199,-219 199,-219 193,-219 187,-213 187,-207 187,-207 187,-150 187,-150 187,-144 193,-138 199,-138"/>
<text text-anchor="start" x="237.1323" y="-205.7" font-family="Arial BoldMT" font-size="11.00" fill="#000000">Favorite</text>
<polyline fill="none" stroke="#000000" points="187,-200 331,-200 "/>
<text text-anchor="start" x="194" y="-187" font-family="ArialMT" font-size="10.00" fill="#000000">favoritable_id </text>
<text text-anchor="start" x="256.2607" y="-187" font-family="Arial ItalicMT" font-size="10.00" fill="#999999">integer (8) FK</text>
<text text-anchor="start" x="194" y="-174" font-family="ArialMT" font-size="10.00" fill="#000000">favoritable_type </text>
<text text-anchor="start" x="267.3789" y="-174" font-family="Arial ItalicMT" font-size="10.00" fill="#999999">string</text>
<text text-anchor="start" x="194" y="-161" font-family="ArialMT" font-size="10.00" fill="#000000">id </text>
<text text-anchor="start" x="204.5615" y="-161" font-family="Arial ItalicMT" font-size="10.00" fill="#999999">integer (8) PK</text>
<text text-anchor="start" x="194" y="-148" font-family="ArialMT" font-size="10.00" fill="#000000">user_id </text>
<text text-anchor="start" x="229.5762" y="-148" font-family="Arial ItalicMT" font-size="10.00" fill="#999999">integer (8) FK</text>
</g>
<!-- m_Game&#45;&gt;m_ActiveStorage::Attachment -->
<g id="edge8" class="edge">
<title>m_Game&#45;&gt;m_ActiveStorage::Attachment</title>
<path fill="none" stroke="#000000" d="M561.8794,-380.9923C510.2704,-350.3743 438.1486,-311.457 370,-288 285.427,-258.8897 252.7888,-290.3819 172,-252 157.9852,-245.3417 144.4304,-235.7935 132.3863,-225.7729"/>
</g>
<!-- m_Game&#45;&gt;m_ActiveStorage::Blob -->
<g id="edge32" class="edge">
<title>m_Game&#45;&gt;m_ActiveStorage::Blob</title>
<path fill="none" stroke="#000000" stroke-dasharray="1,5" d="M561.9762,-480.6873C508.2275,-517.5737 431.287,-563.1648 355.5,-583 320.0281,-592.2838 223.5746,-598.8277 190.5,-583 149.6138,-563.434 119.2263,-521.957 99.4643,-486.6169"/>
</g>
<!-- m_Game&#45;&gt;m_Favorite -->
<g id="edge22" class="edge">
<title>m_Game&#45;&gt;m_Favorite</title>
<path fill="none" stroke="#000000" d="M561.8929,-387.0015C502.4067,-353.437 416.6188,-302.7483 346,-252 334.5407,-243.7651 322.7092,-234.4094 311.6037,-225.1978"/>
<polygon fill="#000000" stroke="#000000" points="313.3429,-222.5454 304.4217,-219.1785 309.2961,-227.3739 313.3429,-222.5454"/>
</g>
<!-- m_Game&#45;&gt;m_GameDeveloper -->
<g id="edge24" class="edge">
<title>m_Game&#45;&gt;m_GameDeveloper</title>
<path fill="none" stroke="#000000" d="M626.9799,-366.4661C621.7546,-321.7806 614.7446,-261.8333 610.0599,-221.7713"/>
<polygon fill="#000000" stroke="#000000" points="613.1835,-221.3612 609.0095,-212.788 606.9262,-222.093 613.1835,-221.3612"/>
</g>
<!-- m_Game&#45;&gt;m_GameEngine -->
<g id="edge30" class="edge">
<title>m_Game&#45;&gt;m_GameEngine</title>
<path fill="none" stroke="#000000" d="M656.9766,-366.483C671.0643,-337.9727 692.0372,-306.219 721,-288 841.0227,-212.5001 907.9649,-308.5381 1038,-252 1055.8006,-244.2605 1072.6742,-231.5427 1086.6838,-218.8438"/>
<polygon fill="#000000" stroke="#000000" points="1088.9021,-221.082 1093.3226,-212.6332 1084.5982,-216.4813 1088.9021,-221.082"/>
</g>
<!-- m_GameGenre -->
<g id="node9" class="node">
<title>m_GameGenre</title>
<path fill="none" stroke="#000000" d="M1237,-144.5C1237,-144.5 1357,-144.5 1357,-144.5 1363,-144.5 1369,-150.5 1369,-156.5 1369,-156.5 1369,-200.5 1369,-200.5 1369,-206.5 1363,-212.5 1357,-212.5 1357,-212.5 1237,-212.5 1237,-212.5 1231,-212.5 1225,-206.5 1225,-200.5 1225,-200.5 1225,-156.5 1225,-156.5 1225,-150.5 1231,-144.5 1237,-144.5"/>
<text text-anchor="start" x="1264.7366" y="-199.2" font-family="Arial BoldMT" font-size="11.00" fill="#000000">GameGenre</text>
<polyline fill="none" stroke="#000000" points="1225,-193.5 1369,-193.5 "/>
<text text-anchor="start" x="1232" y="-180" font-family="ArialMT" font-size="10.00" fill="#000000">game_id </text>
<text text-anchor="start" x="1273.1377" y="-180" font-family="Arial ItalicMT" font-size="10.00" fill="#999999">integer (8) ∗ FK</text>
<text text-anchor="start" x="1232" y="-167" font-family="ArialMT" font-size="10.00" fill="#000000">genre_id </text>
<text text-anchor="start" x="1273.6992" y="-167" font-family="Arial ItalicMT" font-size="10.00" fill="#999999">integer (8) ∗ FK</text>
<text text-anchor="start" x="1232" y="-154" font-family="ArialMT" font-size="10.00" fill="#000000">id </text>
<text text-anchor="start" x="1242.5615" y="-154" font-family="Arial ItalicMT" font-size="10.00" fill="#999999">integer (8) PK</text>
</g>
<!-- m_Game&#45;&gt;m_GameGenre -->
<g id="edge28" class="edge">
<title>m_Game&#45;&gt;m_GameGenre</title>
<path fill="none" stroke="#000000" d="M656.5031,-366.3526C670.5131,-337.6232 691.5593,-305.7131 721,-288 814.5549,-231.7125 1110.0272,-293.5364 1211,-252 1229.107,-244.5515 1246.1527,-231.7587 1260.2181,-218.9133"/>
<polygon fill="#000000" stroke="#000000" points="1262.4947,-221.096 1266.8751,-212.6263 1258.169,-216.5157 1262.4947,-221.096"/>
</g>
<!-- m_GamePlatform -->
<g id="node10" class="node">
<title>m_GamePlatform</title>
<path fill="none" stroke="#000000" d="M891,-144.5C891,-144.5 1011,-144.5 1011,-144.5 1017,-144.5 1023,-150.5 1023,-156.5 1023,-156.5 1023,-200.5 1023,-200.5 1023,-206.5 1017,-212.5 1011,-212.5 1011,-212.5 891,-212.5 891,-212.5 885,-212.5 879,-206.5 879,-200.5 879,-200.5 879,-156.5 879,-156.5 879,-150.5 885,-144.5 891,-144.5"/>
<text text-anchor="start" x="913.5454" y="-199.2" font-family="Arial BoldMT" font-size="11.00" fill="#000000">GamePlatform</text>
<polyline fill="none" stroke="#000000" points="879,-193.5 1023,-193.5 "/>
<text text-anchor="start" x="886" y="-180" font-family="ArialMT" font-size="10.00" fill="#000000">game_id </text>
<text text-anchor="start" x="927.1377" y="-180" font-family="Arial ItalicMT" font-size="10.00" fill="#999999">integer (8) ∗ FK</text>
<text text-anchor="start" x="886" y="-167" font-family="ArialMT" font-size="10.00" fill="#000000">id </text>
<text text-anchor="start" x="896.5615" y="-167" font-family="Arial ItalicMT" font-size="10.00" fill="#999999">integer (8) PK</text>
<text text-anchor="start" x="886" y="-154" font-family="ArialMT" font-size="10.00" fill="#000000">platform_id </text>
<text text-anchor="start" x="938.2461" y="-154" font-family="Arial ItalicMT" font-size="10.00" fill="#999999">integer (8) ∗ FK</text>
</g>
<!-- m_Game&#45;&gt;m_GamePlatform -->
<g id="edge26" class="edge">
<title>m_Game&#45;&gt;m_GamePlatform</title>
<path fill="none" stroke="#000000" d="M658.9411,-366.3C673.2721,-338.6343 693.8755,-307.6713 721,-288 774.4041,-249.2702 806.3664,-282.234 865,-252 881.6491,-243.415 897.8294,-231.0251 911.5794,-218.8569"/>
<polygon fill="#000000" stroke="#000000" points="913.9945,-220.9187 918.5379,-212.5353 909.7582,-216.2556 913.9945,-220.9187"/>
</g>
<!-- m_Game&#45;&gt;m_GamePublisher -->
<g id="edge25" class="edge">
<title>m_Game&#45;&gt;m_GamePublisher</title>
<path fill="none" stroke="#000000" d="M668.8584,-366.4661C695.0233,-321.4043 730.1998,-260.8226 753.4599,-220.7634"/>
<polygon fill="#000000" stroke="#000000" points="756.2957,-222.1528 758.0908,-212.788 750.8475,-218.9894 756.2957,-222.1528"/>
</g>
<!-- m_GamePurchase -->
<g id="node12" class="node">
<title>m_GamePurchase</title>
<path fill="none" stroke="#000000" d="M372,-105.5C372,-105.5 492,-105.5 492,-105.5 498,-105.5 504,-111.5 504,-117.5 504,-117.5 504,-239.5 504,-239.5 504,-245.5 498,-251.5 492,-251.5 492,-251.5 372,-251.5 372,-251.5 366,-251.5 360,-245.5 360,-239.5 360,-239.5 360,-117.5 360,-117.5 360,-111.5 366,-105.5 372,-105.5"/>
<text text-anchor="start" x="391.7874" y="-238.2" font-family="Arial BoldMT" font-size="11.00" fill="#000000">GamePurchase</text>
<polyline fill="none" stroke="#000000" points="360,-232.5 504,-232.5 "/>
<text text-anchor="start" x="367" y="-219" font-family="ArialMT" font-size="10.00" fill="#000000">comments </text>
<text text-anchor="start" x="415.9014" y="-219" font-family="Arial ItalicMT" font-size="10.00" fill="#999999">text ∗</text>
<text text-anchor="start" x="367" y="-206" font-family="ArialMT" font-size="10.00" fill="#000000">completion_date </text>
<text text-anchor="start" x="443.1621" y="-206" font-family="Arial ItalicMT" font-size="10.00" fill="#999999">date</text>
<text text-anchor="start" x="367" y="-193" font-family="ArialMT" font-size="10.00" fill="#000000">completion_status </text>
<text text-anchor="start" x="450.3789" y="-193" font-family="Arial ItalicMT" font-size="10.00" fill="#999999">integer</text>
<text text-anchor="start" x="367" y="-180" font-family="ArialMT" font-size="10.00" fill="#000000">game_id </text>
<text text-anchor="start" x="408.1377" y="-180" font-family="Arial ItalicMT" font-size="10.00" fill="#999999">integer (8) ∗ FK</text>
<text text-anchor="start" x="367" y="-167" font-family="ArialMT" font-size="10.00" fill="#000000">hours_played </text>
<text text-anchor="start" x="429.8223" y="-167" font-family="Arial ItalicMT" font-size="10.00" fill="#999999">decimal (10,1)</text>
<text text-anchor="start" x="367" y="-154" font-family="ArialMT" font-size="10.00" fill="#000000">id </text>
<text text-anchor="start" x="377.5615" y="-154" font-family="Arial ItalicMT" font-size="10.00" fill="#999999">integer (8) PK</text>
<text text-anchor="start" x="367" y="-141" font-family="ArialMT" font-size="10.00" fill="#000000">rating </text>
<text text-anchor="start" x="394.793" y="-141" font-family="Arial ItalicMT" font-size="10.00" fill="#999999">integer</text>
<text text-anchor="start" x="367" y="-128" font-family="ArialMT" font-size="10.00" fill="#000000">start_date </text>
<text text-anchor="start" x="414.251" y="-128" font-family="Arial ItalicMT" font-size="10.00" fill="#999999">date</text>
<text text-anchor="start" x="367" y="-115" font-family="ArialMT" font-size="10.00" fill="#000000">user_id </text>
<text text-anchor="start" x="402.5762" y="-115" font-family="Arial ItalicMT" font-size="10.00" fill="#999999">integer (8) ∗ FK</text>
</g>
<!-- m_Game&#45;&gt;m_GamePurchase -->
<g id="edge23" class="edge">
<title>m_Game&#45;&gt;m_GamePurchase</title>
<path fill="none" stroke="#000000" d="M585.1014,-366.4661C558.8303,-334.2124 526.0829,-294.0077 497.6243,-259.0685"/>
<polygon fill="#000000" stroke="#000000" points="499.7468,-256.6864 491.6206,-251.6975 494.8621,-260.665 499.7468,-256.6864"/>
</g>
<!-- m_Genre -->
<g id="node14" class="node">
<title>m_Genre</title>
<path fill="none" stroke="#000000" d="M1266,-386C1266,-386 1386,-386 1386,-386 1392,-386 1398,-392 1398,-398 1398,-398 1398,-455 1398,-455 1398,-461 1392,-467 1386,-467 1386,-467 1266,-467 1266,-467 1260,-467 1254,-461 1254,-455 1254,-455 1254,-398 1254,-398 1254,-392 1260,-386 1266,-386"/>
<text text-anchor="start" x="1308.7139" y="-453.7" font-family="Arial BoldMT" font-size="11.00" fill="#000000">Genre</text>
<polyline fill="none" stroke="#000000" points="1254,-448 1398,-448 "/>
<text text-anchor="start" x="1261" y="-435" font-family="ArialMT" font-size="10.00" fill="#000000">description </text>
<text text-anchor="start" x="1312.1377" y="-435" font-family="Arial ItalicMT" font-size="10.00" fill="#999999">text ∗</text>
<text text-anchor="start" x="1261" y="-422" font-family="ArialMT" font-size="10.00" fill="#000000">id </text>
<text text-anchor="start" x="1271.5615" y="-422" font-family="Arial ItalicMT" font-size="10.00" fill="#999999">integer (8) PK</text>
<text text-anchor="start" x="1261" y="-409" font-family="ArialMT" font-size="10.00" fill="#000000">name </text>
<text text-anchor="start" x="1288.793" y="-409" font-family="Arial ItalicMT" font-size="10.00" fill="#999999">text ∗</text>
<text text-anchor="start" x="1261" y="-396" font-family="ArialMT" font-size="10.00" fill="#000000">wikidata_id </text>
<text text-anchor="start" x="1313.251" y="-396" font-family="Arial ItalicMT" font-size="10.00" fill="#999999">integer (8) U</text>
</g>
<!-- m_Game&#45;&gt;m_Genre -->
<g id="edge29" class="edge">
<title>m_Game&#45;&gt;m_Genre</title>
<path fill="none" stroke="#000000" stroke-dasharray="1,5" d="M654.6924,-486.89C670.5757,-522.5802 696.5025,-564.3379 735.5,-583 784.6107,-606.5018 1176.3893,-606.5018 1225.5,-583 1268.3743,-562.4826 1295.1709,-513.8179 1310.2038,-476.1585"/>
<polygon fill="#000000" stroke="#000000" points="1313.307,-476.8646 1313.5948,-467.3335 1307.4262,-474.6049 1313.307,-476.8646"/>
</g>
<!-- m_Game&#45;&gt;m_PgSearch::Document -->
<g id="edge3" class="edge">
<title>m_Game&#45;&gt;m_PgSearch::Document</title>
<path fill="none" stroke="#000000" d="M656.1903,-366.4742C670.1623,-337.5898 691.2692,-305.5033 721,-288 848.1515,-213.1428 1241.4734,-290.1743 1384,-252 1411.1258,-244.7346 1439.07,-232.0136 1463.0988,-219.1754"/>
</g>
<!-- m_Platform -->
<g id="node16" class="node">
<title>m_Platform</title>
<path fill="none" stroke="#000000" d="M920,-386C920,-386 1040,-386 1040,-386 1046,-386 1052,-392 1052,-398 1052,-398 1052,-455 1052,-455 1052,-461 1046,-467 1040,-467 1040,-467 920,-467 920,-467 914,-467 908,-461 908,-455 908,-455 908,-398 908,-398 908,-392 914,-386 920,-386"/>
<text text-anchor="start" x="957.5227" y="-453.7" font-family="Arial BoldMT" font-size="11.00" fill="#000000">Platform</text>
<polyline fill="none" stroke="#000000" points="908,-448 1052,-448 "/>
<text text-anchor="start" x="915" y="-435" font-family="ArialMT" font-size="10.00" fill="#000000">description </text>
<text text-anchor="start" x="966.1377" y="-435" font-family="Arial ItalicMT" font-size="10.00" fill="#999999">text ∗</text>
<text text-anchor="start" x="915" y="-422" font-family="ArialMT" font-size="10.00" fill="#000000">id </text>
<text text-anchor="start" x="925.5615" y="-422" font-family="Arial ItalicMT" font-size="10.00" fill="#999999">integer (8) PK</text>
<text text-anchor="start" x="915" y="-409" font-family="ArialMT" font-size="10.00" fill="#000000">name </text>
<text text-anchor="start" x="942.793" y="-409" font-family="Arial ItalicMT" font-size="10.00" fill="#999999">text ∗</text>
<text text-anchor="start" x="915" y="-396" font-family="ArialMT" font-size="10.00" fill="#000000">wikidata_id </text>
<text text-anchor="start" x="967.251" y="-396" font-family="Arial ItalicMT" font-size="10.00" fill="#999999">integer (8) U</text>
</g>
<!-- m_Game&#45;&gt;m_Platform -->
<g id="edge27" class="edge">
<title>m_Game&#45;&gt;m_Platform</title>
<path fill="none" stroke="#000000" stroke-dasharray="1,5" d="M654.6924,-486.89C670.5757,-522.5802 696.5025,-564.3379 735.5,-583 764.3651,-596.8133 850.6349,-596.8133 879.5,-583 922.3743,-562.4826 949.1709,-513.8179 964.2038,-476.1585"/>
<polygon fill="#000000" stroke="#000000" points="967.307,-476.8646 967.5948,-467.3335 961.4262,-474.6049 967.307,-476.8646"/>
</g>
<!-- m_GamePurchasePlatform -->
<g id="node13" class="node">
<title>m_GamePurchasePlatform</title>
<path fill="none" stroke="#000000" d="M850,-.5C850,-.5 994,-.5 994,-.5 1000,-.5 1006,-6.5 1006,-12.5 1006,-12.5 1006,-56.5 1006,-56.5 1006,-62.5 1000,-68.5 994,-68.5 994,-68.5 850,-68.5 850,-68.5 844,-68.5 838,-62.5 838,-56.5 838,-56.5 838,-12.5 838,-12.5 838,-6.5 844,-.5 850,-.5"/>
<text text-anchor="start" x="861.3101" y="-55.2" font-family="Arial BoldMT" font-size="11.00" fill="#000000">GamePurchasePlatform</text>
<polyline fill="none" stroke="#000000" points="838,-49.5 1006,-49.5 "/>
<text text-anchor="start" x="844.5488" y="-36" font-family="ArialMT" font-size="10.00" fill="#000000">game_purchase_id </text>
<text text-anchor="start" x="932.3857" y="-36" font-family="Arial ItalicMT" font-size="10.00" fill="#999999">integer (8) ∗ FK</text>
<text text-anchor="start" x="845" y="-23" font-family="ArialMT" font-size="10.00" fill="#000000">id </text>
<text text-anchor="start" x="855.5615" y="-23" font-family="Arial ItalicMT" font-size="10.00" fill="#999999">integer (8) PK</text>
<text text-anchor="start" x="845" y="-10" font-family="ArialMT" font-size="10.00" fill="#000000">platform_id </text>
<text text-anchor="start" x="897.2461" y="-10" font-family="Arial ItalicMT" font-size="10.00" fill="#999999">integer (8) ∗ FK</text>
</g>
<!-- m_GamePurchase&#45;&gt;m_GamePurchasePlatform -->
<g id="edge35" class="edge">
<title>m_GamePurchase&#45;&gt;m_GamePurchasePlatform</title>
<path fill="none" stroke="#000000" d="M504.1707,-113.0253C509.0257,-110.056 513.9847,-107.3448 519,-105 572.6357,-79.9238 727.3311,-57.6087 828.7094,-45.0937"/>
<polygon fill="#000000" stroke="#000000" points="829.1885,-48.2086 837.7386,-43.9875 828.4223,-41.9554 829.1885,-48.2086"/>
</g>
<!-- m_GamePurchase&#45;&gt;m_Platform -->
<g id="edge36" class="edge">
<title>m_GamePurchase&#45;&gt;m_Platform</title>
<path fill="none" stroke="#000000" stroke-dasharray="1,5" d="M504.2265,-244.5936C509.0502,-247.3844 513.9887,-249.8896 519,-252 673.3074,-316.9847 751.7353,-199.7133 894,-288 926.7536,-308.3262 948.9978,-346.2256 962.6443,-377.2467"/>
<polygon fill="#000000" stroke="#000000" points="959.8544,-378.7364 966.2669,-385.7935 965.6549,-376.2778 959.8544,-378.7364"/>
</g>
<!-- m_Genre&#45;&gt;m_GameGenre -->
<g id="edge33" class="edge">
<title>m_Genre&#45;&gt;m_GameGenre</title>
<path fill="none" stroke="#000000" d="M1321.2437,-385.8255C1315.9671,-340.7013 1307.4864,-268.1768 1302.0821,-221.9605"/>
<polygon fill="#000000" stroke="#000000" points="1305.185,-221.3739 1301.011,-212.8007 1298.9277,-222.1057 1305.185,-221.3739"/>
</g>
<!-- m_Genre&#45;&gt;m_PgSearch::Document -->
<g id="edge4" class="edge">
<title>m_Genre&#45;&gt;m_PgSearch::Document</title>
<path fill="none" stroke="#000000" d="M1359.294,-385.8255C1396.9753,-339.7912 1457.999,-265.2402 1495.6878,-219.1967"/>
</g>
<!-- m_Platform&#45;&gt;m_GamePlatform -->
<g id="edge34" class="edge">
<title>m_Platform&#45;&gt;m_GamePlatform</title>
<path fill="none" stroke="#000000" d="M975.2437,-385.8255C969.9671,-340.7013 961.4864,-268.1768 956.0821,-221.9605"/>
<polygon fill="#000000" stroke="#000000" points="959.185,-221.3739 955.011,-212.8007 952.9277,-222.1057 959.185,-221.3739"/>
</g>
<!-- m_Platform&#45;&gt;m_GamePurchasePlatform -->
<g id="edge37" class="edge">
<title>m_Platform&#45;&gt;m_GamePurchasePlatform</title>
<path fill="none" stroke="#000000" d="M994.1216,-385.9459C1007.5905,-353.7503 1031.1871,-310.528 1067,-288 1127.0113,-250.25 1336.7811,-304.8848 1384,-252 1427.5132,-203.2656 1426.5708,-154.5598 1384,-105 1360.299,-77.4079 1143.1153,-53.8791 1015.1372,-42.2596"/>
<polygon fill="#000000" stroke="#000000" points="1015.3273,-39.114 1006.0809,-41.4437 1014.7619,-45.3886 1015.3273,-39.114"/>
</g>
<!-- m_Platform&#45;&gt;m_PgSearch::Document -->
<g id="edge5" class="edge">
<title>m_Platform&#45;&gt;m_PgSearch::Document</title>
<path fill="none" stroke="#000000" d="M994.0303,-385.7995C1007.4448,-353.5168 1031.0129,-310.2486 1067,-288 1206.78,-201.5826 1282.4212,-313.042 1435,-252 1453.8492,-244.459 1472.0422,-231.9205 1487.3192,-219.3158"/>
</g>
<!-- m_Series -->
<g id="node17" class="node">
<title>m_Series</title>
<path fill="none" stroke="#000000" d="M574,-601.5C574,-601.5 694,-601.5 694,-601.5 700,-601.5 706,-607.5 706,-613.5 706,-613.5 706,-657.5 706,-657.5 706,-663.5 700,-669.5 694,-669.5 694,-669.5 574,-669.5 574,-669.5 568,-669.5 562,-663.5 562,-657.5 562,-657.5 562,-613.5 562,-613.5 562,-607.5 568,-601.5 574,-601.5"/>
<text text-anchor="start" x="616.4104" y="-656.2" font-family="Arial BoldMT" font-size="11.00" fill="#000000">Series</text>
<polyline fill="none" stroke="#000000" points="562,-650.5 706,-650.5 "/>
<text text-anchor="start" x="569" y="-637" font-family="ArialMT" font-size="10.00" fill="#000000">id </text>
<text text-anchor="start" x="579.5615" y="-637" font-family="Arial ItalicMT" font-size="10.00" fill="#999999">integer (8) PK</text>
<text text-anchor="start" x="569" y="-624" font-family="ArialMT" font-size="10.00" fill="#000000">name </text>
<text text-anchor="start" x="596.793" y="-624" font-family="Arial ItalicMT" font-size="10.00" fill="#999999">text ∗</text>
<text text-anchor="start" x="569" y="-611" font-family="ArialMT" font-size="10.00" fill="#000000">wikidata_id </text>
<text text-anchor="start" x="621.251" y="-611" font-family="Arial ItalicMT" font-size="10.00" fill="#999999">integer (8) U</text>
</g>
<!-- m_Series&#45;&gt;m_Game -->
<g id="edge31" class="edge">
<title>m_Series&#45;&gt;m_Game</title>
<path fill="none" stroke="#000000" d="M634,-601.4554C634,-572.999 634,-531.4955 634,-496.0532"/>
<polygon fill="#000000" stroke="#000000" points="637.1501,-495.7104 634,-486.7105 630.8501,-495.7105 637.1501,-495.7104"/>
</g>
<!-- m_Series&#45;&gt;m_PgSearch::Document -->
<g id="edge6" class="edge">
<title>m_Series&#45;&gt;m_PgSearch::Document</title>
<path fill="none" stroke="#000000" d="M706.0063,-633.5239C888.5636,-627.8829 1358.8953,-609.178 1413,-565 1518.818,-478.5967 1530.7339,-299.5702 1530.4044,-219.1586"/>
</g>
<!-- m_User -->
<g id="node18" class="node">
<title>m_User</title>
<path fill="none" stroke="#000000" d="M203,-288.5C203,-288.5 343,-288.5 343,-288.5 349,-288.5 355,-294.5 355,-300.5 355,-300.5 355,-552.5 355,-552.5 355,-558.5 349,-564.5 343,-564.5 343,-564.5 203,-564.5 203,-564.5 197,-564.5 191,-558.5 191,-552.5 191,-552.5 191,-300.5 191,-300.5 191,-294.5 197,-288.5 203,-288.5"/>
<text text-anchor="start" x="259.3877" y="-551.2" font-family="Arial BoldMT" font-size="11.00" fill="#000000">User</text>
<polyline fill="none" stroke="#000000" points="191,-545.5 355,-545.5 "/>
<text text-anchor="start" x="198" y="-532" font-family="ArialMT" font-size="10.00" fill="#000000">bio </text>
<text text-anchor="start" x="214.123" y="-532" font-family="Arial ItalicMT" font-size="10.00" fill="#999999">text ∗</text>
<text text-anchor="start" x="198" y="-519" font-family="ArialMT" font-size="10.00" fill="#000000">confirmation_sent_at </text>
<text text-anchor="start" x="293.6104" y="-519" font-family="Arial ItalicMT" font-size="10.00" fill="#999999">datetime</text>
<text text-anchor="start" x="198" y="-506" font-family="ArialMT" font-size="10.00" fill="#000000">confirmation_token </text>
<text text-anchor="start" x="285.2705" y="-506" font-family="Arial ItalicMT" font-size="10.00" fill="#999999">string</text>
<text text-anchor="start" x="198" y="-493" font-family="ArialMT" font-size="10.00" fill="#000000">confirmed_at </text>
<text text-anchor="start" x="258.5859" y="-493" font-family="Arial ItalicMT" font-size="10.00" fill="#999999">datetime</text>
<text text-anchor="start" x="198" y="-480" font-family="ArialMT" font-size="10.00" fill="#000000">current_sign_in_at </text>
<text text-anchor="start" x="283.0537" y="-480" font-family="Arial ItalicMT" font-size="10.00" fill="#999999">datetime</text>
<text text-anchor="start" x="198" y="-467" font-family="ArialMT" font-size="10.00" fill="#000000">current_sign_in_ip </text>
<text text-anchor="start" x="282.4971" y="-467" font-family="Arial ItalicMT" font-size="10.00" fill="#999999">inet</text>
<text text-anchor="start" x="198" y="-454" font-family="ArialMT" font-size="10.00" fill="#000000">email </text>
<text text-anchor="start" x="224.6748" y="-454" font-family="Arial ItalicMT" font-size="10.00" fill="#999999">string ∗ U</text>
<text text-anchor="start" x="198" y="-441" font-family="ArialMT" font-size="10.00" fill="#000000">encrypted_password </text>
<text text-anchor="start" x="293.0537" y="-441" font-family="Arial ItalicMT" font-size="10.00" fill="#999999">string ∗</text>
<text text-anchor="start" x="198" y="-428" font-family="ArialMT" font-size="10.00" fill="#000000">id </text>
<text text-anchor="start" x="208.5615" y="-428" font-family="Arial ItalicMT" font-size="10.00" fill="#999999">integer (8) PK</text>
<text text-anchor="start" x="198" y="-415" font-family="ArialMT" font-size="10.00" fill="#000000">last_sign_in_at </text>
<text text-anchor="start" x="267.4922" y="-415" font-family="Arial ItalicMT" font-size="10.00" fill="#999999">datetime</text>
<text text-anchor="start" x="198" y="-402" font-family="ArialMT" font-size="10.00" fill="#000000">last_sign_in_ip </text>
<text text-anchor="start" x="266.9355" y="-402" font-family="Arial ItalicMT" font-size="10.00" fill="#999999">inet</text>
<text text-anchor="start" x="198" y="-389" font-family="ArialMT" font-size="10.00" fill="#000000">remember_created_at </text>
<text text-anchor="start" x="299.1621" y="-389" font-family="Arial ItalicMT" font-size="10.00" fill="#999999">datetime</text>
<text text-anchor="start" x="197.9561" y="-376" font-family="ArialMT" font-size="10.00" fill="#000000">reset_password_sent_at </text>
<text text-anchor="start" x="309.6895" y="-376" font-family="Arial ItalicMT" font-size="10.00" fill="#999999">datetime</text>
<text text-anchor="start" x="198" y="-363" font-family="ArialMT" font-size="10.00" fill="#000000">reset_password_token </text>
<text text-anchor="start" x="301.3936" y="-363" font-family="Arial ItalicMT" font-size="10.00" fill="#999999">string</text>
<text text-anchor="start" x="198" y="-350" font-family="ArialMT" font-size="10.00" fill="#000000">role </text>
<text text-anchor="start" x="217.4531" y="-350" font-family="Arial ItalicMT" font-size="10.00" fill="#999999">integer ∗</text>
<text text-anchor="start" x="198" y="-337" font-family="ArialMT" font-size="10.00" fill="#000000">sign_in_count </text>
<text text-anchor="start" x="262.4922" y="-337" font-family="Arial ItalicMT" font-size="10.00" fill="#999999">integer ∗</text>
<text text-anchor="start" x="198" y="-324" font-family="ArialMT" font-size="10.00" fill="#000000">slug </text>
<text text-anchor="start" x="219.123" y="-324" font-family="Arial ItalicMT" font-size="10.00" fill="#999999">string ∗ U</text>
<text text-anchor="start" x="198" y="-311" font-family="ArialMT" font-size="10.00" fill="#000000">unconfirmed_email </text>
<text text-anchor="start" x="285.2656" y="-311" font-family="Arial ItalicMT" font-size="10.00" fill="#999999">string</text>
<text text-anchor="start" x="198" y="-298" font-family="ArialMT" font-size="10.00" fill="#000000">username </text>
<text text-anchor="start" x="245.2461" y="-298" font-family="Arial ItalicMT" font-size="10.00" fill="#999999">text ∗ U</text>
</g>
<!-- m_User&#45;&gt;m_ActiveStorage::Attachment -->
<g id="edge9" class="edge">
<title>m_User&#45;&gt;m_ActiveStorage::Attachment</title>
<path fill="none" stroke="#000000" d="M190.7863,-307.8178C185.8347,-301.0755 180.8821,-294.4293 176,-288 160.1509,-267.1284 141.9126,-244.6716 126.0159,-225.5607"/>
</g>
<!-- m_User&#45;&gt;m_Favorite -->
<g id="edge14" class="edge">
<title>m_User&#45;&gt;m_Favorite</title>
<path fill="none" stroke="#000000" d="M265.2017,-288.3594C263.9992,-267.0572 262.8285,-246.319 261.8341,-228.7038"/>
<polygon fill="#000000" stroke="#000000" points="264.953,-228.0633 261.3007,-219.2552 258.6631,-228.4185 264.953,-228.0633"/>
</g>
<!-- m_User&#45;&gt;m_GamePurchase -->
<g id="edge12" class="edge">
<title>m_User&#45;&gt;m_GamePurchase</title>
<path fill="none" stroke="#000000" d="M355.0616,-298.5045C363.6136,-285.1655 372.1261,-271.8882 380.2026,-259.2909"/>
<polygon fill="#000000" stroke="#000000" points="382.9657,-260.8174 385.1715,-251.5407 377.6621,-257.4171 382.9657,-260.8174"/>
</g>
</g>
</svg>
