<?xml version="1.0" encoding="UTF-8" standalone="no"?>
<!DOCTYPE svg PUBLIC "-//W3C//DTD SVG 1.1//EN"
 "http://www.w3.org/Graphics/SVG/1.1/DTD/svg11.dtd">
<!-- Generated by graphviz version 2.40.1 (20161225.0304)
 -->
<!-- Title: GameTracker Pages: 1 -->
<svg width="1600pt" height="659pt"
 viewBox="0.00 0.00 1599.60 658.60" xmlns="http://www.w3.org/2000/svg" xmlns:xlink="http://www.w3.org/1999/xlink">
<g id="graph0" class="graph" transform="scale(1 1) rotate(0) translate(28.8 629.8)">
<title>GameTracker</title>
<polygon fill="#ffffff" stroke="transparent" points="-28.8,28.8 -28.8,-629.8 1570.8,-629.8 1570.8,28.8 -28.8,28.8"/>
<text text-anchor="middle" x="771" y="-586.6" font-family="Arial BoldMT" font-size="13.00" fill="#000000">VideoGameList Domain Model</text>
<!-- m_ActiveStorage::Attachment -->
<g id="node1" class="node">
<title>m_ActiveStorage::Attachment</title>
<path fill="none" stroke="#000000" d="M26,-26.5C26,-26.5 146,-26.5 146,-26.5 152,-26.5 158,-32.5 158,-38.5 158,-38.5 158,-108.5 158,-108.5 158,-114.5 152,-120.5 146,-120.5 146,-120.5 26,-120.5 26,-120.5 20,-120.5 14,-114.5 14,-108.5 14,-108.5 14,-38.5 14,-38.5 14,-32.5 20,-26.5 26,-26.5"/>
<text text-anchor="start" x="18.8835" y="-107.2" font-family="Arial BoldMT" font-size="11.00" fill="#000000">ActiveStorage::Attachment</text>
<polyline fill="none" stroke="#000000" points="14,-101.5 158,-101.5 "/>
<text text-anchor="start" x="21" y="-88" font-family="ArialMT" font-size="10.00" fill="#000000">blob_id </text>
<text text-anchor="start" x="56.0293" y="-88" font-family="Arial ItalicMT" font-size="10.00" fill="#999999">integer (8) ∗ FK</text>
<text text-anchor="start" x="21" y="-75" font-family="ArialMT" font-size="10.00" fill="#000000">id </text>
<text text-anchor="start" x="31.5615" y="-75" font-family="Arial ItalicMT" font-size="10.00" fill="#999999">integer (8) PK</text>
<text text-anchor="start" x="21" y="-62" font-family="ArialMT" font-size="10.00" fill="#000000">name </text>
<text text-anchor="start" x="48.793" y="-62" font-family="Arial ItalicMT" font-size="10.00" fill="#999999">string ∗</text>
<text text-anchor="start" x="21" y="-49" font-family="ArialMT" font-size="10.00" fill="#000000">record_id </text>
<text text-anchor="start" x="65.4678" y="-49" font-family="Arial ItalicMT" font-size="10.00" fill="#999999">integer (8) ∗ FK</text>
<text text-anchor="start" x="21" y="-36" font-family="ArialMT" font-size="10.00" fill="#000000">record_type </text>
<text text-anchor="start" x="76.5859" y="-36" font-family="Arial ItalicMT" font-size="10.00" fill="#999999">string ∗</text>
</g>
<!-- m_ActiveStorage::Blob -->
<g id="node2" class="node">
<title>m_ActiveStorage::Blob</title>
<path fill="none" stroke="#000000" d="M12,-261.5C12,-261.5 132,-261.5 132,-261.5 138,-261.5 144,-267.5 144,-273.5 144,-273.5 144,-369.5 144,-369.5 144,-375.5 138,-381.5 132,-381.5 132,-381.5 12,-381.5 12,-381.5 6,-381.5 0,-375.5 0,-369.5 0,-369.5 0,-273.5 0,-273.5 0,-267.5 6,-261.5 12,-261.5"/>
<text text-anchor="start" x="21.6951" y="-368.2" font-family="Arial BoldMT" font-size="11.00" fill="#000000">ActiveStorage::Blob</text>
<polyline fill="none" stroke="#000000" points="0,-362.5 144,-362.5 "/>
<text text-anchor="start" x="7" y="-349" font-family="ArialMT" font-size="10.00" fill="#000000">byte_size </text>
<text text-anchor="start" x="52.0244" y="-349" font-family="Arial ItalicMT" font-size="10.00" fill="#999999">integer (8) ∗</text>
<text text-anchor="start" x="7" y="-336" font-family="ArialMT" font-size="10.00" fill="#000000">checksum </text>
<text text-anchor="start" x="54.793" y="-336" font-family="Arial ItalicMT" font-size="10.00" fill="#999999">string ∗</text>
<text text-anchor="start" x="7" y="-323" font-family="ArialMT" font-size="10.00" fill="#000000">content_type </text>
<text text-anchor="start" x="67.0439" y="-323" font-family="Arial ItalicMT" font-size="10.00" fill="#999999">string</text>
<text text-anchor="start" x="7" y="-310" font-family="ArialMT" font-size="10.00" fill="#000000">filename </text>
<text text-anchor="start" x="47.5762" y="-310" font-family="Arial ItalicMT" font-size="10.00" fill="#999999">string ∗</text>
<text text-anchor="start" x="7" y="-297" font-family="ArialMT" font-size="10.00" fill="#000000">id </text>
<text text-anchor="start" x="17.5615" y="-297" font-family="Arial ItalicMT" font-size="10.00" fill="#999999">integer (8) PK</text>
<text text-anchor="start" x="7" y="-284" font-family="ArialMT" font-size="10.00" fill="#000000">key </text>
<text text-anchor="start" x="25.3398" y="-284" font-family="Arial ItalicMT" font-size="10.00" fill="#999999">string ∗</text>
<text text-anchor="start" x="7" y="-271" font-family="ArialMT" font-size="10.00" fill="#000000">metadata </text>
<text text-anchor="start" x="51.4727" y="-271" font-family="Arial ItalicMT" font-size="10.00" fill="#999999">text</text>
</g>
<!-- m_ActiveStorage::Blob&#45;&gt;m_ActiveStorage::Attachment -->
<g id="edge7" class="edge">
<title>m_ActiveStorage::Blob&#45;&gt;m_ActiveStorage::Attachment</title>
<path fill="none" stroke="#000000" d="M75.389,-261.4661C77.8329,-218.1738 81.0855,-160.5565 83.3425,-120.5753"/>
</g>
<!-- m_ActiveStorage::Blob&#45;&gt;m_ActiveStorage::Blob -->
<g id="edge11" class="edge">
<title>m_ActiveStorage::Blob&#45;&gt;m_ActiveStorage::Blob</title>
<path fill="none" stroke="#000000" stroke-dasharray="1,5" d="M144.1757,-359.6407C160.7932,-356.3542 173,-343.6406 173,-321.5 173,-299.3594 160.7932,-286.6458 144.1757,-283.3593"/>
</g>
<!-- m_Company -->
<g id="node3" class="node">
<title>m_Company</title>
<path fill="none" stroke="#000000" d="M718,-281C718,-281 838,-281 838,-281 844,-281 850,-287 850,-293 850,-293 850,-350 850,-350 850,-356 844,-362 838,-362 838,-362 718,-362 718,-362 712,-362 706,-356 706,-350 706,-350 706,-293 706,-293 706,-287 712,-281 718,-281"/>
<text text-anchor="start" x="752.4612" y="-348.7" font-family="Arial BoldMT" font-size="11.00" fill="#000000">Company</text>
<polyline fill="none" stroke="#000000" points="706,-343 850,-343 "/>
<text text-anchor="start" x="713" y="-330" font-family="ArialMT" font-size="10.00" fill="#000000">description </text>
<text text-anchor="start" x="764.1377" y="-330" font-family="Arial ItalicMT" font-size="10.00" fill="#999999">text ∗</text>
<text text-anchor="start" x="713" y="-317" font-family="ArialMT" font-size="10.00" fill="#000000">id </text>
<text text-anchor="start" x="723.5615" y="-317" font-family="Arial ItalicMT" font-size="10.00" fill="#999999">integer (8) PK</text>
<text text-anchor="start" x="713" y="-304" font-family="ArialMT" font-size="10.00" fill="#000000">name </text>
<text text-anchor="start" x="740.793" y="-304" font-family="Arial ItalicMT" font-size="10.00" fill="#999999">text ∗</text>
<text text-anchor="start" x="713" y="-291" font-family="ArialMT" font-size="10.00" fill="#000000">wikidata_id </text>
<text text-anchor="start" x="765.251" y="-291" font-family="Arial ItalicMT" font-size="10.00" fill="#999999">integer (8) U</text>
</g>
<!-- m_Game -->
<g id="node6" class="node">
<title>m_Game</title>
<path fill="none" stroke="#000000" d="M545,-261.5C545,-261.5 665,-261.5 665,-261.5 671,-261.5 677,-267.5 677,-273.5 677,-273.5 677,-369.5 677,-369.5 677,-375.5 671,-381.5 665,-381.5 665,-381.5 545,-381.5 545,-381.5 539,-381.5 533,-375.5 533,-369.5 533,-369.5 533,-273.5 533,-273.5 533,-267.5 539,-261.5 545,-261.5"/>
<text text-anchor="start" x="588.0227" y="-368.2" font-family="Arial BoldMT" font-size="11.00" fill="#000000">Game</text>
<polyline fill="none" stroke="#000000" points="533,-362.5 677,-362.5 "/>
<text text-anchor="start" x="540" y="-349" font-family="ArialMT" font-size="10.00" fill="#000000">description </text>
<text text-anchor="start" x="591.1377" y="-349" font-family="Arial ItalicMT" font-size="10.00" fill="#999999">text ∗</text>
<text text-anchor="start" x="540" y="-336" font-family="ArialMT" font-size="10.00" fill="#000000">id </text>
<text text-anchor="start" x="550.5615" y="-336" font-family="Arial ItalicMT" font-size="10.00" fill="#999999">integer (8) PK</text>
<text text-anchor="start" x="540" y="-323" font-family="ArialMT" font-size="10.00" fill="#000000">name </text>
<text text-anchor="start" x="567.793" y="-323" font-family="Arial ItalicMT" font-size="10.00" fill="#999999">text ∗</text>
<text text-anchor="start" x="540" y="-310" font-family="ArialMT" font-size="10.00" fill="#000000">pcgamingwiki_id </text>
<text text-anchor="start" x="616.1475" y="-310" font-family="Arial ItalicMT" font-size="10.00" fill="#999999">text U</text>
<text text-anchor="start" x="540" y="-297" font-family="ArialMT" font-size="10.00" fill="#000000">series_id </text>
<text text-anchor="start" x="582.7979" y="-297" font-family="Arial ItalicMT" font-size="10.00" fill="#999999">integer (8) FK</text>
<text text-anchor="start" x="540" y="-284" font-family="ArialMT" font-size="10.00" fill="#000000">steam_app_id </text>
<text text-anchor="start" x="605.6006" y="-284" font-family="Arial ItalicMT" font-size="10.00" fill="#999999">integer U</text>
<text text-anchor="start" x="540" y="-271" font-family="ArialMT" font-size="10.00" fill="#000000">wikidata_id </text>
<text text-anchor="start" x="592.251" y="-271" font-family="Arial ItalicMT" font-size="10.00" fill="#999999">integer (8) U</text>
</g>
<!-- m_GameDeveloper -->
<g id="node7" class="node">
<title>m_GameDeveloper</title>
<path fill="none" stroke="#000000" d="M718,-39.5C718,-39.5 838,-39.5 838,-39.5 844,-39.5 850,-45.5 850,-51.5 850,-51.5 850,-95.5 850,-95.5 850,-101.5 844,-107.5 838,-107.5 838,-107.5 718,-107.5 718,-107.5 712,-107.5 706,-101.5 706,-95.5 706,-95.5 706,-51.5 706,-51.5 706,-45.5 712,-39.5 718,-39.5"/>
<text text-anchor="start" x="735.9531" y="-94.2" font-family="Arial BoldMT" font-size="11.00" fill="#000000">GameDeveloper</text>
<polyline fill="none" stroke="#000000" points="706,-88.5 850,-88.5 "/>
<text text-anchor="start" x="713" y="-75" font-family="ArialMT" font-size="10.00" fill="#000000">company_id </text>
<text text-anchor="start" x="769.6992" y="-75" font-family="Arial ItalicMT" font-size="10.00" fill="#999999">integer (8) ∗ FK</text>
<text text-anchor="start" x="713" y="-62" font-family="ArialMT" font-size="10.00" fill="#000000">game_id </text>
<text text-anchor="start" x="754.1377" y="-62" font-family="Arial ItalicMT" font-size="10.00" fill="#999999">integer (8) ∗ FK</text>
<text text-anchor="start" x="713" y="-49" font-family="ArialMT" font-size="10.00" fill="#000000">id </text>
<text text-anchor="start" x="723.5615" y="-49" font-family="Arial ItalicMT" font-size="10.00" fill="#999999">integer (8) PK</text>
</g>
<!-- m_Company&#45;&gt;m_GameDeveloper -->
<g id="edge16" class="edge">
<title>m_Company&#45;&gt;m_GameDeveloper</title>
<path fill="none" stroke="#000000" d="M778,-280.8255C778,-235.7013 778,-163.1768 778,-116.9605"/>
<polygon fill="#000000" stroke="#000000" points="781.1501,-116.8007 778,-107.8007 774.8501,-116.8007 781.1501,-116.8007"/>
</g>
<!-- m_GamePublisher -->
<g id="node11" class="node">
<title>m_GamePublisher</title>
<path fill="none" stroke="#000000" d="M545,-39.5C545,-39.5 665,-39.5 665,-39.5 671,-39.5 677,-45.5 677,-51.5 677,-51.5 677,-95.5 677,-95.5 677,-101.5 671,-107.5 665,-107.5 665,-107.5 545,-107.5 545,-107.5 539,-107.5 533,-101.5 533,-95.5 533,-95.5 533,-51.5 533,-51.5 533,-45.5 539,-39.5 545,-39.5"/>
<text text-anchor="start" x="565.0935" y="-94.2" font-family="Arial BoldMT" font-size="11.00" fill="#000000">GamePublisher</text>
<polyline fill="none" stroke="#000000" points="533,-88.5 677,-88.5 "/>
<text text-anchor="start" x="540" y="-75" font-family="ArialMT" font-size="10.00" fill="#000000">company_id </text>
<text text-anchor="start" x="596.6992" y="-75" font-family="Arial ItalicMT" font-size="10.00" fill="#999999">integer (8) ∗ FK</text>
<text text-anchor="start" x="540" y="-62" font-family="ArialMT" font-size="10.00" fill="#000000">game_id </text>
<text text-anchor="start" x="581.1377" y="-62" font-family="Arial ItalicMT" font-size="10.00" fill="#999999">integer (8) ∗ FK</text>
<text text-anchor="start" x="540" y="-49" font-family="ArialMT" font-size="10.00" fill="#000000">id </text>
<text text-anchor="start" x="550.5615" y="-49" font-family="Arial ItalicMT" font-size="10.00" fill="#999999">integer (8) PK</text>
</g>
<!-- m_Company&#45;&gt;m_GamePublisher -->
<g id="edge18" class="edge">
<title>m_Company&#45;&gt;m_GamePublisher</title>
<path fill="none" stroke="#000000" d="M754.3628,-280.704C737.7222,-252.6868 714.4885,-214.9353 692,-183 675.6898,-159.8383 656.1757,-135.0444 639.7659,-114.9171"/>
<polygon fill="#000000" stroke="#000000" points="642.0131,-112.6895 633.8723,-107.7245 637.1401,-116.6825 642.0131,-112.6895"/>
</g>
<!-- m_PgSearch::Document -->
<g id="node14" class="node">
<title>m_PgSearch::Document</title>
<path fill="none" stroke="#000000" d="M1410,-33C1410,-33 1530,-33 1530,-33 1536,-33 1542,-39 1542,-45 1542,-45 1542,-102 1542,-102 1542,-108 1536,-114 1530,-114 1530,-114 1410,-114 1410,-114 1404,-114 1398,-108 1398,-102 1398,-102 1398,-45 1398,-45 1398,-39 1404,-33 1410,-33"/>
<text text-anchor="start" x="1415.7231" y="-100.7" font-family="Arial BoldMT" font-size="11.00" fill="#000000">PgSearch::Document</text>
<polyline fill="none" stroke="#000000" points="1398,-95 1542,-95 "/>
<text text-anchor="start" x="1405" y="-82" font-family="ArialMT" font-size="10.00" fill="#000000">content </text>
<text text-anchor="start" x="1440.5811" y="-82" font-family="Arial ItalicMT" font-size="10.00" fill="#999999">text</text>
<text text-anchor="start" x="1405" y="-69" font-family="ArialMT" font-size="10.00" fill="#000000">id </text>
<text text-anchor="start" x="1415.5615" y="-69" font-family="Arial ItalicMT" font-size="10.00" fill="#999999">integer (8) PK</text>
<text text-anchor="start" x="1405" y="-56" font-family="ArialMT" font-size="10.00" fill="#000000">searchable_id </text>
<text text-anchor="start" x="1470.0439" y="-56" font-family="Arial ItalicMT" font-size="10.00" fill="#999999">integer (8) FK</text>
<text text-anchor="start" x="1405" y="-43" font-family="ArialMT" font-size="10.00" fill="#000000">searchable_type </text>
<text text-anchor="start" x="1481.1621" y="-43" font-family="Arial ItalicMT" font-size="10.00" fill="#999999">string</text>
</g>
<!-- m_Company&#45;&gt;m_PgSearch::Document -->
<g id="edge1" class="edge">
<title>m_Company&#45;&gt;m_PgSearch::Document</title>
<path fill="none" stroke="#000000" d="M791.7337,-280.858C805.0273,-248.381 828.5802,-204.8108 865,-183 964.1844,-123.6011 1276.9928,-190.7634 1384,-147 1401.9972,-139.6396 1418.9361,-126.98 1432.9437,-114.2205"/>
</g>
<!-- m_Engine -->
<g id="node4" class="node">
<title>m_Engine</title>
<path fill="none" stroke="#000000" d="M891,-287.5C891,-287.5 1011,-287.5 1011,-287.5 1017,-287.5 1023,-293.5 1023,-299.5 1023,-299.5 1023,-343.5 1023,-343.5 1023,-349.5 1017,-355.5 1011,-355.5 1011,-355.5 891,-355.5 891,-355.5 885,-355.5 879,-349.5 879,-343.5 879,-343.5 879,-299.5 879,-299.5 879,-293.5 885,-287.5 891,-287.5"/>
<text text-anchor="start" x="931.8743" y="-342.2" font-family="Arial BoldMT" font-size="11.00" fill="#000000">Engine</text>
<polyline fill="none" stroke="#000000" points="879,-336.5 1023,-336.5 "/>
<text text-anchor="start" x="886" y="-323" font-family="ArialMT" font-size="10.00" fill="#000000">id </text>
<text text-anchor="start" x="896.5615" y="-323" font-family="Arial ItalicMT" font-size="10.00" fill="#999999">integer (8) PK</text>
<text text-anchor="start" x="886" y="-310" font-family="ArialMT" font-size="10.00" fill="#000000">name </text>
<text text-anchor="start" x="913.793" y="-310" font-family="Arial ItalicMT" font-size="10.00" fill="#999999">text ∗</text>
<text text-anchor="start" x="886" y="-297" font-family="ArialMT" font-size="10.00" fill="#000000">wikidata_id </text>
<text text-anchor="start" x="938.251" y="-297" font-family="Arial ItalicMT" font-size="10.00" fill="#999999">integer (8) U</text>
</g>
<!-- m_Engine&#45;&gt;m_Game -->
<g id="edge21" class="edge">
<title>m_Engine&#45;&gt;m_Game</title>
<path fill="none" stroke="#000000" stroke-dasharray="1,5" d="M941.0041,-355.6198C927.5895,-394.1442 899.5785,-454.5136 850.5,-478 821.6349,-491.8133 735.3651,-491.8133 706.5,-478 670.5492,-460.7958 645.7065,-423.9639 629.6004,-390.3521"/>
<polygon fill="#000000" stroke="#000000" points="632.3257,-388.7401 625.6924,-381.89 626.6061,-391.3815 632.3257,-388.7401"/>
</g>
<!-- m_GameEngine -->
<g id="node8" class="node">
<title>m_GameEngine</title>
<path fill="none" stroke="#000000" d="M891,-39.5C891,-39.5 1011,-39.5 1011,-39.5 1017,-39.5 1023,-45.5 1023,-51.5 1023,-51.5 1023,-95.5 1023,-95.5 1023,-101.5 1017,-107.5 1011,-107.5 1011,-107.5 891,-107.5 891,-107.5 885,-107.5 879,-101.5 879,-95.5 879,-95.5 879,-51.5 879,-51.5 879,-45.5 885,-39.5 891,-39.5"/>
<text text-anchor="start" x="916.897" y="-94.2" font-family="Arial BoldMT" font-size="11.00" fill="#000000">GameEngine</text>
<polyline fill="none" stroke="#000000" points="879,-88.5 1023,-88.5 "/>
<text text-anchor="start" x="886" y="-75" font-family="ArialMT" font-size="10.00" fill="#000000">engine_id </text>
<text text-anchor="start" x="932.1523" y="-75" font-family="Arial ItalicMT" font-size="10.00" fill="#999999">integer (8) ∗ FK</text>
<text text-anchor="start" x="886" y="-62" font-family="ArialMT" font-size="10.00" fill="#000000">game_id </text>
<text text-anchor="start" x="927.1377" y="-62" font-family="Arial ItalicMT" font-size="10.00" fill="#999999">integer (8) ∗ FK</text>
<text text-anchor="start" x="886" y="-49" font-family="ArialMT" font-size="10.00" fill="#000000">id </text>
<text text-anchor="start" x="896.5615" y="-49" font-family="Arial ItalicMT" font-size="10.00" fill="#999999">integer (8) PK</text>
</g>
<!-- m_Engine&#45;&gt;m_GameEngine -->
<g id="edge20" class="edge">
<title>m_Engine&#45;&gt;m_GameEngine</title>
<path fill="none" stroke="#000000" d="M951,-287.277C951,-242.9294 951,-165.5611 951,-117.0655"/>
<polygon fill="#000000" stroke="#000000" points="954.1501,-116.7697 951,-107.7697 947.8501,-116.7697 954.1501,-116.7697"/>
</g>
<!-- m_Engine&#45;&gt;m_PgSearch::Document -->
<g id="edge2" class="edge">
<title>m_Engine&#45;&gt;m_PgSearch::Document</title>
<path fill="none" stroke="#000000" d="M962.3762,-287.5C975.2403,-254.8087 999.5504,-206.935 1038,-183 1169.2544,-101.2939 1241.9258,-207.9796 1384,-147 1401.6873,-139.4084 1418.4357,-126.8581 1432.372,-114.258"/>
</g>
<!-- m_Favorite -->
<g id="node5" class="node">
<title>m_Favorite</title>
<path fill="none" stroke="#000000" d="M372,-33C372,-33 492,-33 492,-33 498,-33 504,-39 504,-45 504,-45 504,-102 504,-102 504,-108 498,-114 492,-114 492,-114 372,-114 372,-114 366,-114 360,-108 360,-102 360,-102 360,-45 360,-45 360,-39 366,-33 372,-33"/>
<text text-anchor="start" x="410.1323" y="-100.7" font-family="Arial BoldMT" font-size="11.00" fill="#000000">Favorite</text>
<polyline fill="none" stroke="#000000" points="360,-95 504,-95 "/>
<text text-anchor="start" x="367" y="-82" font-family="ArialMT" font-size="10.00" fill="#000000">favoritable_id </text>
<text text-anchor="start" x="429.2607" y="-82" font-family="Arial ItalicMT" font-size="10.00" fill="#999999">integer (8) FK</text>
<text text-anchor="start" x="367" y="-69" font-family="ArialMT" font-size="10.00" fill="#000000">favoritable_type </text>
<text text-anchor="start" x="440.3789" y="-69" font-family="Arial ItalicMT" font-size="10.00" fill="#999999">string</text>
<text text-anchor="start" x="367" y="-56" font-family="ArialMT" font-size="10.00" fill="#000000">id </text>
<text text-anchor="start" x="377.5615" y="-56" font-family="Arial ItalicMT" font-size="10.00" fill="#999999">integer (8) PK</text>
<text text-anchor="start" x="367" y="-43" font-family="ArialMT" font-size="10.00" fill="#000000">user_id </text>
<text text-anchor="start" x="402.5762" y="-43" font-family="Arial ItalicMT" font-size="10.00" fill="#999999">integer (8) FK</text>
</g>
<!-- m_Game&#45;&gt;m_ActiveStorage::Attachment -->
<g id="edge8" class="edge">
<title>m_Game&#45;&gt;m_ActiveStorage::Attachment</title>
<path fill="none" stroke="#000000" d="M532.9603,-269.9875C488.0872,-240.2575 428.0325,-204.5927 370,-183 286.1719,-151.8094 252.7888,-185.3819 172,-147 157.9852,-140.3417 144.4304,-130.7935 132.3863,-120.7729"/>
</g>
<!-- m_Game&#45;&gt;m_ActiveStorage::Blob -->
<g id="edge32" class="edge">
<title>m_Game&#45;&gt;m_ActiveStorage::Blob</title>
<path fill="none" stroke="#000000" stroke-dasharray="1,5" d="M533.614,-381.546C486.3761,-417.2233 421.2237,-459.0931 355.5,-478 320.2624,-488.1369 223.5746,-493.8277 190.5,-478 149.6138,-458.434 119.2263,-416.957 99.4643,-381.6169"/>
</g>
<!-- m_Game&#45;&gt;m_Favorite -->
<g id="edge22" class="edge">
<title>m_Game&#45;&gt;m_Favorite</title>
<path fill="none" stroke="#000000" d="M563.1215,-261.4661C533.3091,-218.7293 493.7587,-162.0327 465.9185,-122.123"/>
<polygon fill="#000000" stroke="#000000" points="468.2456,-119.9532 460.5129,-114.374 463.0786,-123.5577 468.2456,-119.9532"/>
</g>
<!-- m_Game&#45;&gt;m_GameDeveloper -->
<g id="edge24" class="edge">
<title>m_Game&#45;&gt;m_GameDeveloper</title>
<path fill="none" stroke="#000000" d="M640.9134,-261.2968C656.1063,-236.6463 674.3485,-208.0778 692,-183 708.233,-159.9374 727.5325,-135.1524 743.7317,-115.0052"/>
<polygon fill="#000000" stroke="#000000" points="746.3434,-116.7849 749.5481,-107.8041 741.4424,-112.8262 746.3434,-116.7849"/>
</g>
<!-- m_Game&#45;&gt;m_GameEngine -->
<g id="edge30" class="edge">
<title>m_Game&#45;&gt;m_GameEngine</title>
<path fill="none" stroke="#000000" d="M629.4236,-261.1789C643.681,-233.3102 664.3727,-202.2085 692,-183 756.4821,-138.1674 794.4948,-181.5966 865,-147 881.9668,-138.6745 898.3294,-126.223 912.1447,-113.9237"/>
<polygon fill="#000000" stroke="#000000" points="914.6176,-115.9304 919.1268,-107.5285 910.3624,-111.2846 914.6176,-115.9304"/>
</g>
<!-- m_GameGenre -->
<g id="node9" class="node">
<title>m_GameGenre</title>
<path fill="none" stroke="#000000" d="M1064,-39.5C1064,-39.5 1184,-39.5 1184,-39.5 1190,-39.5 1196,-45.5 1196,-51.5 1196,-51.5 1196,-95.5 1196,-95.5 1196,-101.5 1190,-107.5 1184,-107.5 1184,-107.5 1064,-107.5 1064,-107.5 1058,-107.5 1052,-101.5 1052,-95.5 1052,-95.5 1052,-51.5 1052,-51.5 1052,-45.5 1058,-39.5 1064,-39.5"/>
<text text-anchor="start" x="1091.7366" y="-94.2" font-family="Arial BoldMT" font-size="11.00" fill="#000000">GameGenre</text>
<polyline fill="none" stroke="#000000" points="1052,-88.5 1196,-88.5 "/>
<text text-anchor="start" x="1059" y="-75" font-family="ArialMT" font-size="10.00" fill="#000000">game_id </text>
<text text-anchor="start" x="1100.1377" y="-75" font-family="Arial ItalicMT" font-size="10.00" fill="#999999">integer (8) ∗ FK</text>
<text text-anchor="start" x="1059" y="-62" font-family="ArialMT" font-size="10.00" fill="#000000">genre_id </text>
<text text-anchor="start" x="1100.6992" y="-62" font-family="Arial ItalicMT" font-size="10.00" fill="#999999">integer (8) ∗ FK</text>
<text text-anchor="start" x="1059" y="-49" font-family="ArialMT" font-size="10.00" fill="#000000">id </text>
<text text-anchor="start" x="1069.5615" y="-49" font-family="Arial ItalicMT" font-size="10.00" fill="#999999">integer (8) PK</text>
</g>
<!-- m_Game&#45;&gt;m_GameGenre -->
<g id="edge28" class="edge">
<title>m_Game&#45;&gt;m_GameGenre</title>
<path fill="none" stroke="#000000" d="M627.9049,-261.3683C641.9739,-232.8283 662.9518,-201.0825 692,-183 823.2544,-101.2939 895.9258,-207.9796 1038,-147 1055.8368,-139.3443 1072.7187,-126.6456 1086.7247,-113.9386"/>
<polygon fill="#000000" stroke="#000000" points="1088.9462,-116.1738 1093.361,-107.722 1084.6392,-111.576 1088.9462,-116.1738"/>
</g>
<!-- m_GamePlatform -->
<g id="node10" class="node">
<title>m_GamePlatform</title>
<path fill="none" stroke="#000000" d="M1237,-39.5C1237,-39.5 1357,-39.5 1357,-39.5 1363,-39.5 1369,-45.5 1369,-51.5 1369,-51.5 1369,-95.5 1369,-95.5 1369,-101.5 1363,-107.5 1357,-107.5 1357,-107.5 1237,-107.5 1237,-107.5 1231,-107.5 1225,-101.5 1225,-95.5 1225,-95.5 1225,-51.5 1225,-51.5 1225,-45.5 1231,-39.5 1237,-39.5"/>
<text text-anchor="start" x="1259.5454" y="-94.2" font-family="Arial BoldMT" font-size="11.00" fill="#000000">GamePlatform</text>
<polyline fill="none" stroke="#000000" points="1225,-88.5 1369,-88.5 "/>
<text text-anchor="start" x="1232" y="-75" font-family="ArialMT" font-size="10.00" fill="#000000">game_id </text>
<text text-anchor="start" x="1273.1377" y="-75" font-family="Arial ItalicMT" font-size="10.00" fill="#999999">integer (8) ∗ FK</text>
<text text-anchor="start" x="1232" y="-62" font-family="ArialMT" font-size="10.00" fill="#000000">id </text>
<text text-anchor="start" x="1242.5615" y="-62" font-family="Arial ItalicMT" font-size="10.00" fill="#999999">integer (8) PK</text>
<text text-anchor="start" x="1232" y="-49" font-family="ArialMT" font-size="10.00" fill="#000000">platform_id </text>
<text text-anchor="start" x="1284.2461" y="-49" font-family="Arial ItalicMT" font-size="10.00" fill="#999999">integer (8) ∗ FK</text>
</g>
<!-- m_Game&#45;&gt;m_GamePlatform -->
<g id="edge26" class="edge">
<title>m_Game&#45;&gt;m_GamePlatform</title>
<path fill="none" stroke="#000000" d="M627.473,-261.3024C641.475,-232.5598 662.5231,-200.6529 692,-183 791.1844,-123.6011 1103.9928,-190.7634 1211,-147 1229.1221,-139.5885 1246.1713,-126.8039 1260.2351,-113.9547"/>
<polygon fill="#000000" stroke="#000000" points="1262.5131,-116.1359 1266.891,-107.6649 1258.1861,-111.557 1262.5131,-116.1359"/>
</g>
<!-- m_Game&#45;&gt;m_GamePublisher -->
<g id="edge25" class="edge">
<title>m_Game&#45;&gt;m_GamePublisher</title>
<path fill="none" stroke="#000000" d="M605,-261.4661C605,-216.8746 605,-157.0856 605,-117.0246"/>
<polygon fill="#000000" stroke="#000000" points="608.1501,-116.788 605,-107.788 601.8501,-116.788 608.1501,-116.788"/>
</g>
<!-- m_GamePurchase -->
<g id="node12" class="node">
<title>m_GamePurchase</title>
<path fill="none" stroke="#000000" d="M199,-.5C199,-.5 319,-.5 319,-.5 325,-.5 331,-6.5 331,-12.5 331,-12.5 331,-134.5 331,-134.5 331,-140.5 325,-146.5 319,-146.5 319,-146.5 199,-146.5 199,-146.5 193,-146.5 187,-140.5 187,-134.5 187,-134.5 187,-12.5 187,-12.5 187,-6.5 193,-.5 199,-.5"/>
<text text-anchor="start" x="218.7874" y="-133.2" font-family="Arial BoldMT" font-size="11.00" fill="#000000">GamePurchase</text>
<polyline fill="none" stroke="#000000" points="187,-127.5 331,-127.5 "/>
<text text-anchor="start" x="194" y="-114" font-family="ArialMT" font-size="10.00" fill="#000000">comments </text>
<text text-anchor="start" x="242.9014" y="-114" font-family="Arial ItalicMT" font-size="10.00" fill="#999999">text ∗</text>
<text text-anchor="start" x="194" y="-101" font-family="ArialMT" font-size="10.00" fill="#000000">completion_date </text>
<text text-anchor="start" x="270.1621" y="-101" font-family="Arial ItalicMT" font-size="10.00" fill="#999999">date</text>
<text text-anchor="start" x="194" y="-88" font-family="ArialMT" font-size="10.00" fill="#000000">completion_status </text>
<text text-anchor="start" x="277.3789" y="-88" font-family="Arial ItalicMT" font-size="10.00" fill="#999999">integer</text>
<text text-anchor="start" x="194" y="-75" font-family="ArialMT" font-size="10.00" fill="#000000">game_id </text>
<text text-anchor="start" x="235.1377" y="-75" font-family="Arial ItalicMT" font-size="10.00" fill="#999999">integer (8) ∗ FK</text>
<text text-anchor="start" x="194" y="-62" font-family="ArialMT" font-size="10.00" fill="#000000">hours_played </text>
<text text-anchor="start" x="256.8223" y="-62" font-family="Arial ItalicMT" font-size="10.00" fill="#999999">decimal (10,1)</text>
<text text-anchor="start" x="194" y="-49" font-family="ArialMT" font-size="10.00" fill="#000000">id </text>
<text text-anchor="start" x="204.5615" y="-49" font-family="Arial ItalicMT" font-size="10.00" fill="#999999">integer (8) PK</text>
<text text-anchor="start" x="194" y="-36" font-family="ArialMT" font-size="10.00" fill="#000000">rating </text>
<text text-anchor="start" x="221.793" y="-36" font-family="Arial ItalicMT" font-size="10.00" fill="#999999">integer</text>
<text text-anchor="start" x="194" y="-23" font-family="ArialMT" font-size="10.00" fill="#000000">start_date </text>
<text text-anchor="start" x="241.251" y="-23" font-family="Arial ItalicMT" font-size="10.00" fill="#999999">date</text>
<text text-anchor="start" x="194" y="-10" font-family="ArialMT" font-size="10.00" fill="#000000">user_id </text>
<text text-anchor="start" x="229.5762" y="-10" font-family="Arial ItalicMT" font-size="10.00" fill="#999999">integer (8) ∗ FK</text>
</g>
<!-- m_Game&#45;&gt;m_GamePurchase -->
<g id="edge23" class="edge">
<title>m_Game&#45;&gt;m_GamePurchase</title>
<path fill="none" stroke="#000000" d="M532.9227,-275.9435C480.1356,-241.8624 407.3137,-193.3392 346,-147 343.555,-145.1521 341.0871,-143.2585 338.608,-141.3316"/>
<polygon fill="#000000" stroke="#000000" points="340.1703,-138.5526 331.1493,-135.463 336.2746,-143.5038 340.1703,-138.5526"/>
</g>
<!-- m_Genre -->
<g id="node13" class="node">
<title>m_Genre</title>
<path fill="none" stroke="#000000" d="M1064,-281C1064,-281 1184,-281 1184,-281 1190,-281 1196,-287 1196,-293 1196,-293 1196,-350 1196,-350 1196,-356 1190,-362 1184,-362 1184,-362 1064,-362 1064,-362 1058,-362 1052,-356 1052,-350 1052,-350 1052,-293 1052,-293 1052,-287 1058,-281 1064,-281"/>
<text text-anchor="start" x="1106.7139" y="-348.7" font-family="Arial BoldMT" font-size="11.00" fill="#000000">Genre</text>
<polyline fill="none" stroke="#000000" points="1052,-343 1196,-343 "/>
<text text-anchor="start" x="1059" y="-330" font-family="ArialMT" font-size="10.00" fill="#000000">description </text>
<text text-anchor="start" x="1110.1377" y="-330" font-family="Arial ItalicMT" font-size="10.00" fill="#999999">text ∗</text>
<text text-anchor="start" x="1059" y="-317" font-family="ArialMT" font-size="10.00" fill="#000000">id </text>
<text text-anchor="start" x="1069.5615" y="-317" font-family="Arial ItalicMT" font-size="10.00" fill="#999999">integer (8) PK</text>
<text text-anchor="start" x="1059" y="-304" font-family="ArialMT" font-size="10.00" fill="#000000">name </text>
<text text-anchor="start" x="1086.793" y="-304" font-family="Arial ItalicMT" font-size="10.00" fill="#999999">text ∗</text>
<text text-anchor="start" x="1059" y="-291" font-family="ArialMT" font-size="10.00" fill="#000000">wikidata_id </text>
<text text-anchor="start" x="1111.251" y="-291" font-family="Arial ItalicMT" font-size="10.00" fill="#999999">integer (8) U</text>
</g>
<!-- m_Game&#45;&gt;m_Genre -->
<g id="edge29" class="edge">
<title>m_Game&#45;&gt;m_Genre</title>
<path fill="none" stroke="#000000" stroke-dasharray="1,5" d="M625.6924,-381.89C641.5757,-417.5802 667.5025,-459.3379 706.5,-478 738.2716,-493.2042 991.7284,-493.2042 1023.5,-478 1066.3743,-457.4826 1093.1709,-408.8179 1108.2038,-371.1585"/>
<polygon fill="#000000" stroke="#000000" points="1111.307,-371.8646 1111.5948,-362.3335 1105.4262,-369.6049 1111.307,-371.8646"/>
</g>
<!-- m_Game&#45;&gt;m_PgSearch::Document -->
<g id="edge3" class="edge">
<title>m_Game&#45;&gt;m_PgSearch::Document</title>
<path fill="none" stroke="#000000" d="M627.1739,-261.4462C641.1414,-232.5543 662.2493,-200.4695 692,-183 824.7858,-105.0286 1240.975,-204.0567 1384,-147 1402.2425,-139.7226 1419.3556,-126.9154 1433.4381,-114.0091"/>
</g>
<!-- m_Platform -->
<g id="node15" class="node">
<title>m_Platform</title>
<path fill="none" stroke="#000000" d="M1237,-281C1237,-281 1357,-281 1357,-281 1363,-281 1369,-287 1369,-293 1369,-293 1369,-350 1369,-350 1369,-356 1363,-362 1357,-362 1357,-362 1237,-362 1237,-362 1231,-362 1225,-356 1225,-350 1225,-350 1225,-293 1225,-293 1225,-287 1231,-281 1237,-281"/>
<text text-anchor="start" x="1274.5227" y="-348.7" font-family="Arial BoldMT" font-size="11.00" fill="#000000">Platform</text>
<polyline fill="none" stroke="#000000" points="1225,-343 1369,-343 "/>
<text text-anchor="start" x="1232" y="-330" font-family="ArialMT" font-size="10.00" fill="#000000">description </text>
<text text-anchor="start" x="1283.1377" y="-330" font-family="Arial ItalicMT" font-size="10.00" fill="#999999">text ∗</text>
<text text-anchor="start" x="1232" y="-317" font-family="ArialMT" font-size="10.00" fill="#000000">id </text>
<text text-anchor="start" x="1242.5615" y="-317" font-family="Arial ItalicMT" font-size="10.00" fill="#999999">integer (8) PK</text>
<text text-anchor="start" x="1232" y="-304" font-family="ArialMT" font-size="10.00" fill="#000000">name </text>
<text text-anchor="start" x="1259.793" y="-304" font-family="Arial ItalicMT" font-size="10.00" fill="#999999">text ∗</text>
<text text-anchor="start" x="1232" y="-291" font-family="ArialMT" font-size="10.00" fill="#000000">wikidata_id </text>
<text text-anchor="start" x="1284.251" y="-291" font-family="Arial ItalicMT" font-size="10.00" fill="#999999">integer (8) U</text>
</g>
<!-- m_Game&#45;&gt;m_Platform -->
<g id="edge27" class="edge">
<title>m_Game&#45;&gt;m_Platform</title>
<path fill="none" stroke="#000000" stroke-dasharray="1,5" d="M625.6924,-381.89C641.5757,-417.5802 667.5025,-459.3379 706.5,-478 755.6107,-501.5018 1147.3893,-501.5018 1196.5,-478 1239.3743,-457.4826 1266.1709,-408.8179 1281.2038,-371.1585"/>
<polygon fill="#000000" stroke="#000000" points="1284.307,-371.8646 1284.5948,-362.3335 1278.4262,-369.6049 1284.307,-371.8646"/>
</g>
<!-- m_Genre&#45;&gt;m_GameGenre -->
<g id="edge33" class="edge">
<title>m_Genre&#45;&gt;m_GameGenre</title>
<path fill="none" stroke="#000000" d="M1124,-280.8255C1124,-235.7013 1124,-163.1768 1124,-116.9605"/>
<polygon fill="#000000" stroke="#000000" points="1127.1501,-116.8007 1124,-107.8007 1120.8501,-116.8007 1127.1501,-116.8007"/>
</g>
<!-- m_Genre&#45;&gt;m_PgSearch::Document -->
<g id="edge4" class="edge">
<title>m_Genre&#45;&gt;m_PgSearch::Document</title>
<path fill="none" stroke="#000000" d="M1139.1049,-280.8368C1152.9687,-249.2453 1176.6116,-206.9093 1211,-183 1275.4821,-138.1674 1313.4948,-181.5966 1384,-147 1400.9269,-138.6941 1417.2523,-126.2816 1431.0471,-114.0106"/>
</g>
<!-- m_Platform&#45;&gt;m_GamePlatform -->
<g id="edge34" class="edge">
<title>m_Platform&#45;&gt;m_GamePlatform</title>
<path fill="none" stroke="#000000" d="M1297,-280.8255C1297,-235.7013 1297,-163.1768 1297,-116.9605"/>
<polygon fill="#000000" stroke="#000000" points="1300.1501,-116.8007 1297,-107.8007 1293.8501,-116.8007 1300.1501,-116.8007"/>
</g>
<!-- m_Platform&#45;&gt;m_PgSearch::Document -->
<g id="edge5" class="edge">
<title>m_Platform&#45;&gt;m_PgSearch::Document</title>
<path fill="none" stroke="#000000" d="M1325.3737,-280.8255C1357.4864,-234.7912 1409.4917,-160.2402 1441.6108,-114.1967"/>
</g>
<!-- m_Series -->
<g id="node16" class="node">
<title>m_Series</title>
<path fill="none" stroke="#000000" d="M545,-496.5C545,-496.5 665,-496.5 665,-496.5 671,-496.5 677,-502.5 677,-508.5 677,-508.5 677,-552.5 677,-552.5 677,-558.5 671,-564.5 665,-564.5 665,-564.5 545,-564.5 545,-564.5 539,-564.5 533,-558.5 533,-552.5 533,-552.5 533,-508.5 533,-508.5 533,-502.5 539,-496.5 545,-496.5"/>
<text text-anchor="start" x="587.4104" y="-551.2" font-family="Arial BoldMT" font-size="11.00" fill="#000000">Series</text>
<polyline fill="none" stroke="#000000" points="533,-545.5 677,-545.5 "/>
<text text-anchor="start" x="540" y="-532" font-family="ArialMT" font-size="10.00" fill="#000000">id </text>
<text text-anchor="start" x="550.5615" y="-532" font-family="Arial ItalicMT" font-size="10.00" fill="#999999">integer (8) PK</text>
<text text-anchor="start" x="540" y="-519" font-family="ArialMT" font-size="10.00" fill="#000000">name </text>
<text text-anchor="start" x="567.793" y="-519" font-family="Arial ItalicMT" font-size="10.00" fill="#999999">text ∗</text>
<text text-anchor="start" x="540" y="-506" font-family="ArialMT" font-size="10.00" fill="#000000">wikidata_id </text>
<text text-anchor="start" x="592.251" y="-506" font-family="Arial ItalicMT" font-size="10.00" fill="#999999">integer (8) U</text>
</g>
<!-- m_Series&#45;&gt;m_Game -->
<g id="edge31" class="edge">
<title>m_Series&#45;&gt;m_Game</title>
<path fill="none" stroke="#000000" d="M605,-496.4554C605,-467.999 605,-426.4955 605,-391.0532"/>
<polygon fill="#000000" stroke="#000000" points="608.1501,-390.7104 605,-381.7105 601.8501,-390.7105 608.1501,-390.7104"/>
</g>
<!-- m_Series&#45;&gt;m_PgSearch::Document -->
<g id="edge6" class="edge">
<title>m_Series&#45;&gt;m_PgSearch::Document</title>
<path fill="none" stroke="#000000" d="M677.1959,-528.7476C860.2073,-523.6426 1331.535,-506.1133 1384,-460 1484.5545,-371.6192 1481.8876,-194.0298 1474.8552,-114.1097"/>
</g>
<!-- m_User -->
<g id="node17" class="node">
<title>m_User</title>
<path fill="none" stroke="#000000" d="M203,-183.5C203,-183.5 343,-183.5 343,-183.5 349,-183.5 355,-189.5 355,-195.5 355,-195.5 355,-447.5 355,-447.5 355,-453.5 349,-459.5 343,-459.5 343,-459.5 203,-459.5 203,-459.5 197,-459.5 191,-453.5 191,-447.5 191,-447.5 191,-195.5 191,-195.5 191,-189.5 197,-183.5 203,-183.5"/>
<text text-anchor="start" x="259.3877" y="-446.2" font-family="Arial BoldMT" font-size="11.00" fill="#000000">User</text>
<polyline fill="none" stroke="#000000" points="191,-440.5 355,-440.5 "/>
<text text-anchor="start" x="198" y="-427" font-family="ArialMT" font-size="10.00" fill="#000000">bio </text>
<text text-anchor="start" x="214.123" y="-427" font-family="Arial ItalicMT" font-size="10.00" fill="#999999">text ∗</text>
<text text-anchor="start" x="198" y="-414" font-family="ArialMT" font-size="10.00" fill="#000000">confirmation_sent_at </text>
<text text-anchor="start" x="293.6104" y="-414" font-family="Arial ItalicMT" font-size="10.00" fill="#999999">datetime</text>
<text text-anchor="start" x="198" y="-401" font-family="ArialMT" font-size="10.00" fill="#000000">confirmation_token </text>
<text text-anchor="start" x="285.2705" y="-401" font-family="Arial ItalicMT" font-size="10.00" fill="#999999">string</text>
<text text-anchor="start" x="198" y="-388" font-family="ArialMT" font-size="10.00" fill="#000000">confirmed_at </text>
<text text-anchor="start" x="258.5859" y="-388" font-family="Arial ItalicMT" font-size="10.00" fill="#999999">datetime</text>
<text text-anchor="start" x="198" y="-375" font-family="ArialMT" font-size="10.00" fill="#000000">current_sign_in_at </text>
<text text-anchor="start" x="283.0537" y="-375" font-family="Arial ItalicMT" font-size="10.00" fill="#999999">datetime</text>
<text text-anchor="start" x="198" y="-362" font-family="ArialMT" font-size="10.00" fill="#000000">current_sign_in_ip </text>
<text text-anchor="start" x="282.4971" y="-362" font-family="Arial ItalicMT" font-size="10.00" fill="#999999">inet</text>
<text text-anchor="start" x="198" y="-349" font-family="ArialMT" font-size="10.00" fill="#000000">email </text>
<text text-anchor="start" x="224.6748" y="-349" font-family="Arial ItalicMT" font-size="10.00" fill="#999999">string ∗ U</text>
<text text-anchor="start" x="198" y="-336" font-family="ArialMT" font-size="10.00" fill="#000000">encrypted_password </text>
<text text-anchor="start" x="293.0537" y="-336" font-family="Arial ItalicMT" font-size="10.00" fill="#999999">string ∗</text>
<text text-anchor="start" x="198" y="-323" font-family="ArialMT" font-size="10.00" fill="#000000">id </text>
<text text-anchor="start" x="208.5615" y="-323" font-family="Arial ItalicMT" font-size="10.00" fill="#999999">integer (8) PK</text>
<text text-anchor="start" x="198" y="-310" font-family="ArialMT" font-size="10.00" fill="#000000">last_sign_in_at </text>
<text text-anchor="start" x="267.4922" y="-310" font-family="Arial ItalicMT" font-size="10.00" fill="#999999">datetime</text>
<text text-anchor="start" x="198" y="-297" font-family="ArialMT" font-size="10.00" fill="#000000">last_sign_in_ip </text>
<text text-anchor="start" x="266.9355" y="-297" font-family="Arial ItalicMT" font-size="10.00" fill="#999999">inet</text>
<text text-anchor="start" x="198" y="-284" font-family="ArialMT" font-size="10.00" fill="#000000">remember_created_at </text>
<text text-anchor="start" x="299.1621" y="-284" font-family="Arial ItalicMT" font-size="10.00" fill="#999999">datetime</text>
<text text-anchor="start" x="197.9561" y="-271" font-family="ArialMT" font-size="10.00" fill="#000000">reset_password_sent_at </text>
<text text-anchor="start" x="309.6895" y="-271" font-family="Arial ItalicMT" font-size="10.00" fill="#999999">datetime</text>
<text text-anchor="start" x="198" y="-258" font-family="ArialMT" font-size="10.00" fill="#000000">reset_password_token </text>
<text text-anchor="start" x="301.3936" y="-258" font-family="Arial ItalicMT" font-size="10.00" fill="#999999">string</text>
<text text-anchor="start" x="198" y="-245" font-family="ArialMT" font-size="10.00" fill="#000000">role </text>
<text text-anchor="start" x="217.4531" y="-245" font-family="Arial ItalicMT" font-size="10.00" fill="#999999">integer ∗</text>
<text text-anchor="start" x="198" y="-232" font-family="ArialMT" font-size="10.00" fill="#000000">sign_in_count </text>
<text text-anchor="start" x="262.4922" y="-232" font-family="Arial ItalicMT" font-size="10.00" fill="#999999">integer ∗</text>
<text text-anchor="start" x="198" y="-219" font-family="ArialMT" font-size="10.00" fill="#000000">slug </text>
<text text-anchor="start" x="219.123" y="-219" font-family="Arial ItalicMT" font-size="10.00" fill="#999999">string ∗ U</text>
<text text-anchor="start" x="198" y="-206" font-family="ArialMT" font-size="10.00" fill="#000000">unconfirmed_email </text>
<text text-anchor="start" x="285.2656" y="-206" font-family="Arial ItalicMT" font-size="10.00" fill="#999999">string</text>
<text text-anchor="start" x="198" y="-193" font-family="ArialMT" font-size="10.00" fill="#000000">username </text>
<text text-anchor="start" x="245.2461" y="-193" font-family="Arial ItalicMT" font-size="10.00" fill="#999999">text ∗ U</text>
</g>
<!-- m_User&#45;&gt;m_ActiveStorage::Attachment -->
<g id="edge9" class="edge">
<title>m_User&#45;&gt;m_ActiveStorage::Attachment</title>
<path fill="none" stroke="#000000" d="M190.7863,-202.8178C185.8347,-196.0755 180.8821,-189.4293 176,-183 160.1509,-162.1284 141.9126,-139.6716 126.0159,-120.5607"/>
</g>
<!-- m_User&#45;&gt;m_Favorite -->
<g id="edge14" class="edge">
<title>m_User&#45;&gt;m_Favorite</title>
<path fill="none" stroke="#000000" d="M355.0616,-193.5045C371.4232,-167.9845 387.6401,-142.6904 400.9361,-121.9518"/>
<polygon fill="#000000" stroke="#000000" points="403.6774,-123.5124 405.8832,-114.2357 398.3738,-120.1121 403.6774,-123.5124"/>
</g>
<!-- m_User&#45;&gt;m_GamePurchase -->
<g id="edge12" class="edge">
<title>m_User&#45;&gt;m_GamePurchase</title>
<path fill="none" stroke="#000000" d="M265.2017,-183.3594C264.6752,-174.0317 264.1547,-164.812 263.6525,-155.9154"/>
<polygon fill="#000000" stroke="#000000" points="266.7886,-155.5782 263.1362,-146.7701 260.4986,-155.9334 266.7886,-155.5782"/>
</g>
</g>
</svg>
