<?xml version="1.0" encoding="UTF-8" standalone="no"?>
<!DOCTYPE svg PUBLIC "-//W3C//DTD SVG 1.1//EN"
 "http://www.w3.org/Graphics/SVG/1.1/DTD/svg11.dtd">
<!-- Generated by graphviz version 2.40.1 (20161225.0304)
 -->
<!-- Title: VideoGameList Pages: 1 -->
<svg width="1818pt" height="790pt"
 viewBox="0.00 0.00 1817.60 789.60" xmlns="http://www.w3.org/2000/svg" xmlns:xlink="http://www.w3.org/1999/xlink">
<g id="graph0" class="graph" transform="scale(1 1) rotate(0) translate(28.8 760.8)">
<title>VideoGameList</title>
<polygon fill="#ffffff" stroke="transparent" points="-28.8,28.8 -28.8,-760.8 1788.8,-760.8 1788.8,28.8 -28.8,28.8"/>
<text text-anchor="middle" x="880" y="-717.6" font-family="Arial BoldMT" font-size="13.00" fill="#000000">VideoGameList Domain Model</text>
<!-- m_ActiveStorage::Attachment -->
<g id="node1" class="node">
<title>m_ActiveStorage::Attachment</title>
<path fill="none" stroke="#000000" d="M185,-131.5C185,-131.5 305,-131.5 305,-131.5 311,-131.5 317,-137.5 317,-143.5 317,-143.5 317,-213.5 317,-213.5 317,-219.5 311,-225.5 305,-225.5 305,-225.5 185,-225.5 185,-225.5 179,-225.5 173,-219.5 173,-213.5 173,-213.5 173,-143.5 173,-143.5 173,-137.5 179,-131.5 185,-131.5"/>
<text text-anchor="start" x="177.8835" y="-212.2" font-family="Arial BoldMT" font-size="11.00" fill="#000000">ActiveStorage::Attachment</text>
<polyline fill="none" stroke="#000000" points="173,-206.5 317,-206.5 "/>
<text text-anchor="start" x="180" y="-193" font-family="ArialMT" font-size="10.00" fill="#000000">blob_id </text>
<text text-anchor="start" x="215.0293" y="-193" font-family="Arial ItalicMT" font-size="10.00" fill="#999999">integer (8) ∗ FK</text>
<text text-anchor="start" x="180" y="-180" font-family="ArialMT" font-size="10.00" fill="#000000">id </text>
<text text-anchor="start" x="190.5615" y="-180" font-family="Arial ItalicMT" font-size="10.00" fill="#999999">integer (8) PK</text>
<text text-anchor="start" x="180" y="-167" font-family="ArialMT" font-size="10.00" fill="#000000">name </text>
<text text-anchor="start" x="207.793" y="-167" font-family="Arial ItalicMT" font-size="10.00" fill="#999999">string ∗</text>
<text text-anchor="start" x="180" y="-154" font-family="ArialMT" font-size="10.00" fill="#000000">record_id </text>
<text text-anchor="start" x="224.4678" y="-154" font-family="Arial ItalicMT" font-size="10.00" fill="#999999">integer (8) ∗ FK</text>
<text text-anchor="start" x="180" y="-141" font-family="ArialMT" font-size="10.00" fill="#000000">record_type </text>
<text text-anchor="start" x="235.5859" y="-141" font-family="Arial ItalicMT" font-size="10.00" fill="#999999">string ∗</text>
</g>
<!-- m_ActiveStorage::Blob -->
<g id="node2" class="node">
<title>m_ActiveStorage::Blob</title>
<path fill="none" stroke="#000000" d="M157,-379.5C157,-379.5 277,-379.5 277,-379.5 283,-379.5 289,-385.5 289,-391.5 289,-391.5 289,-487.5 289,-487.5 289,-493.5 283,-499.5 277,-499.5 277,-499.5 157,-499.5 157,-499.5 151,-499.5 145,-493.5 145,-487.5 145,-487.5 145,-391.5 145,-391.5 145,-385.5 151,-379.5 157,-379.5"/>
<text text-anchor="start" x="166.6951" y="-486.2" font-family="Arial BoldMT" font-size="11.00" fill="#000000">ActiveStorage::Blob</text>
<polyline fill="none" stroke="#000000" points="145,-480.5 289,-480.5 "/>
<text text-anchor="start" x="152" y="-467" font-family="ArialMT" font-size="10.00" fill="#000000">byte_size </text>
<text text-anchor="start" x="197.0244" y="-467" font-family="Arial ItalicMT" font-size="10.00" fill="#999999">integer (8) ∗</text>
<text text-anchor="start" x="152" y="-454" font-family="ArialMT" font-size="10.00" fill="#000000">checksum </text>
<text text-anchor="start" x="199.793" y="-454" font-family="Arial ItalicMT" font-size="10.00" fill="#999999">string ∗</text>
<text text-anchor="start" x="152" y="-441" font-family="ArialMT" font-size="10.00" fill="#000000">content_type </text>
<text text-anchor="start" x="212.0439" y="-441" font-family="Arial ItalicMT" font-size="10.00" fill="#999999">string</text>
<text text-anchor="start" x="152" y="-428" font-family="ArialMT" font-size="10.00" fill="#000000">filename </text>
<text text-anchor="start" x="192.5762" y="-428" font-family="Arial ItalicMT" font-size="10.00" fill="#999999">string ∗</text>
<text text-anchor="start" x="152" y="-415" font-family="ArialMT" font-size="10.00" fill="#000000">id </text>
<text text-anchor="start" x="162.5615" y="-415" font-family="Arial ItalicMT" font-size="10.00" fill="#999999">integer (8) PK</text>
<text text-anchor="start" x="152" y="-402" font-family="ArialMT" font-size="10.00" fill="#000000">key </text>
<text text-anchor="start" x="170.3398" y="-402" font-family="Arial ItalicMT" font-size="10.00" fill="#999999">string ∗</text>
<text text-anchor="start" x="152" y="-389" font-family="ArialMT" font-size="10.00" fill="#000000">metadata </text>
<text text-anchor="start" x="196.4727" y="-389" font-family="Arial ItalicMT" font-size="10.00" fill="#999999">text</text>
</g>
<!-- m_ActiveStorage::Blob&#45;&gt;m_ActiveStorage::Attachment -->
<g id="edge7" class="edge">
<title>m_ActiveStorage::Blob&#45;&gt;m_ActiveStorage::Attachment</title>
<path fill="none" stroke="#000000" d="M223.4589,-379.2936C228.4656,-332.6243 235.3063,-268.8592 239.9247,-225.8089"/>
</g>
<!-- m_ActiveStorage::Blob&#45;&gt;m_ActiveStorage::Blob -->
<g id="edge11" class="edge">
<title>m_ActiveStorage::Blob&#45;&gt;m_ActiveStorage::Blob</title>
<path fill="none" stroke="#000000" stroke-dasharray="1,5" d="M289.1757,-480.2078C305.7932,-476.7001 318,-463.1309 318,-439.5 318,-415.8691 305.7932,-402.2999 289.1757,-398.7922"/>
</g>
<!-- m_Company -->
<g id="node3" class="node">
<title>m_Company</title>
<path fill="none" stroke="#000000" d="M906,-399C906,-399 1026,-399 1026,-399 1032,-399 1038,-405 1038,-411 1038,-411 1038,-468 1038,-468 1038,-474 1032,-480 1026,-480 1026,-480 906,-480 906,-480 900,-480 894,-474 894,-468 894,-468 894,-411 894,-411 894,-405 900,-399 906,-399"/>
<text text-anchor="start" x="940.4612" y="-466.7" font-family="Arial BoldMT" font-size="11.00" fill="#000000">Company</text>
<polyline fill="none" stroke="#000000" points="894,-461 1038,-461 "/>
<text text-anchor="start" x="901" y="-448" font-family="ArialMT" font-size="10.00" fill="#000000">description </text>
<text text-anchor="start" x="952.1377" y="-448" font-family="Arial ItalicMT" font-size="10.00" fill="#999999">text ∗</text>
<text text-anchor="start" x="901" y="-435" font-family="ArialMT" font-size="10.00" fill="#000000">id </text>
<text text-anchor="start" x="911.5615" y="-435" font-family="Arial ItalicMT" font-size="10.00" fill="#999999">integer (8) PK</text>
<text text-anchor="start" x="901" y="-422" font-family="ArialMT" font-size="10.00" fill="#000000">name </text>
<text text-anchor="start" x="928.793" y="-422" font-family="Arial ItalicMT" font-size="10.00" fill="#999999">text ∗</text>
<text text-anchor="start" x="901" y="-409" font-family="ArialMT" font-size="10.00" fill="#000000">wikidata_id </text>
<text text-anchor="start" x="953.251" y="-409" font-family="Arial ItalicMT" font-size="10.00" fill="#999999">integer (8) U</text>
</g>
<!-- m_Game -->
<g id="node7" class="node">
<title>m_Game</title>
<path fill="none" stroke="#000000" d="M733,-379.5C733,-379.5 853,-379.5 853,-379.5 859,-379.5 865,-385.5 865,-391.5 865,-391.5 865,-487.5 865,-487.5 865,-493.5 859,-499.5 853,-499.5 853,-499.5 733,-499.5 733,-499.5 727,-499.5 721,-493.5 721,-487.5 721,-487.5 721,-391.5 721,-391.5 721,-385.5 727,-379.5 733,-379.5"/>
<text text-anchor="start" x="776.0227" y="-486.2" font-family="Arial BoldMT" font-size="11.00" fill="#000000">Game</text>
<polyline fill="none" stroke="#000000" points="721,-480.5 865,-480.5 "/>
<text text-anchor="start" x="728" y="-467" font-family="ArialMT" font-size="10.00" fill="#000000">description </text>
<text text-anchor="start" x="779.1377" y="-467" font-family="Arial ItalicMT" font-size="10.00" fill="#999999">text ∗</text>
<text text-anchor="start" x="728" y="-454" font-family="ArialMT" font-size="10.00" fill="#000000">id </text>
<text text-anchor="start" x="738.5615" y="-454" font-family="Arial ItalicMT" font-size="10.00" fill="#999999">integer (8) PK</text>
<text text-anchor="start" x="728" y="-441" font-family="ArialMT" font-size="10.00" fill="#000000">name </text>
<text text-anchor="start" x="755.793" y="-441" font-family="Arial ItalicMT" font-size="10.00" fill="#999999">text ∗</text>
<text text-anchor="start" x="728" y="-428" font-family="ArialMT" font-size="10.00" fill="#000000">pcgamingwiki_id </text>
<text text-anchor="start" x="804.1475" y="-428" font-family="Arial ItalicMT" font-size="10.00" fill="#999999">text U</text>
<text text-anchor="start" x="728" y="-415" font-family="ArialMT" font-size="10.00" fill="#000000">series_id </text>
<text text-anchor="start" x="770.7979" y="-415" font-family="Arial ItalicMT" font-size="10.00" fill="#999999">integer (8) FK</text>
<text text-anchor="start" x="728" y="-402" font-family="ArialMT" font-size="10.00" fill="#000000">steam_app_id </text>
<text text-anchor="start" x="793.6006" y="-402" font-family="Arial ItalicMT" font-size="10.00" fill="#999999">integer U</text>
<text text-anchor="start" x="728" y="-389" font-family="ArialMT" font-size="10.00" fill="#000000">wikidata_id </text>
<text text-anchor="start" x="780.251" y="-389" font-family="Arial ItalicMT" font-size="10.00" fill="#999999">integer (8) U</text>
</g>
<!-- m_GameDeveloper -->
<g id="node8" class="node">
<title>m_GameDeveloper</title>
<path fill="none" stroke="#000000" d="M877,-144.5C877,-144.5 997,-144.5 997,-144.5 1003,-144.5 1009,-150.5 1009,-156.5 1009,-156.5 1009,-200.5 1009,-200.5 1009,-206.5 1003,-212.5 997,-212.5 997,-212.5 877,-212.5 877,-212.5 871,-212.5 865,-206.5 865,-200.5 865,-200.5 865,-156.5 865,-156.5 865,-150.5 871,-144.5 877,-144.5"/>
<text text-anchor="start" x="894.9531" y="-199.2" font-family="Arial BoldMT" font-size="11.00" fill="#000000">GameDeveloper</text>
<polyline fill="none" stroke="#000000" points="865,-193.5 1009,-193.5 "/>
<text text-anchor="start" x="872" y="-180" font-family="ArialMT" font-size="10.00" fill="#000000">company_id </text>
<text text-anchor="start" x="928.6992" y="-180" font-family="Arial ItalicMT" font-size="10.00" fill="#999999">integer (8) ∗ FK</text>
<text text-anchor="start" x="872" y="-167" font-family="ArialMT" font-size="10.00" fill="#000000">game_id </text>
<text text-anchor="start" x="913.1377" y="-167" font-family="Arial ItalicMT" font-size="10.00" fill="#999999">integer (8) ∗ FK</text>
<text text-anchor="start" x="872" y="-154" font-family="ArialMT" font-size="10.00" fill="#000000">id </text>
<text text-anchor="start" x="882.5615" y="-154" font-family="Arial ItalicMT" font-size="10.00" fill="#999999">integer (8) PK</text>
</g>
<!-- m_Company&#45;&gt;m_GameDeveloper -->
<g id="edge17" class="edge">
<title>m_Company&#45;&gt;m_GameDeveloper</title>
<path fill="none" stroke="#000000" d="M961.4688,-398.7188C956.126,-350.6341 947.2835,-271.0517 941.8188,-221.8692"/>
<polygon fill="#000000" stroke="#000000" points="944.9308,-221.3523 940.8061,-212.7553 938.6694,-222.0481 944.9308,-221.3523"/>
</g>
<!-- m_GamePublisher -->
<g id="node12" class="node">
<title>m_GamePublisher</title>
<path fill="none" stroke="#000000" d="M704,-144.5C704,-144.5 824,-144.5 824,-144.5 830,-144.5 836,-150.5 836,-156.5 836,-156.5 836,-200.5 836,-200.5 836,-206.5 830,-212.5 824,-212.5 824,-212.5 704,-212.5 704,-212.5 698,-212.5 692,-206.5 692,-200.5 692,-200.5 692,-156.5 692,-156.5 692,-150.5 698,-144.5 704,-144.5"/>
<text text-anchor="start" x="724.0935" y="-199.2" font-family="Arial BoldMT" font-size="11.00" fill="#000000">GamePublisher</text>
<polyline fill="none" stroke="#000000" points="692,-193.5 836,-193.5 "/>
<text text-anchor="start" x="699" y="-180" font-family="ArialMT" font-size="10.00" fill="#000000">company_id </text>
<text text-anchor="start" x="755.6992" y="-180" font-family="Arial ItalicMT" font-size="10.00" fill="#999999">integer (8) ∗ FK</text>
<text text-anchor="start" x="699" y="-167" font-family="ArialMT" font-size="10.00" fill="#000000">game_id </text>
<text text-anchor="start" x="740.1377" y="-167" font-family="Arial ItalicMT" font-size="10.00" fill="#999999">integer (8) ∗ FK</text>
<text text-anchor="start" x="699" y="-154" font-family="ArialMT" font-size="10.00" fill="#000000">id </text>
<text text-anchor="start" x="709.5615" y="-154" font-family="Arial ItalicMT" font-size="10.00" fill="#999999">integer (8) PK</text>
</g>
<!-- m_Company&#45;&gt;m_GamePublisher -->
<g id="edge19" class="edge">
<title>m_Company&#45;&gt;m_GamePublisher</title>
<path fill="none" stroke="#000000" d="M947.1076,-398.8659C931.3954,-367.1316 907.2562,-322.7407 880,-288 860.3329,-262.9324 834.9146,-238.2804 812.8865,-218.7334"/>
<polygon fill="#000000" stroke="#000000" points="814.7077,-216.1407 805.8652,-212.5723 810.5524,-220.8761 814.7077,-216.1407"/>
</g>
<!-- m_PgSearch::Document -->
<g id="node16" class="node">
<title>m_PgSearch::Document</title>
<path fill="none" stroke="#000000" d="M1628,-138C1628,-138 1748,-138 1748,-138 1754,-138 1760,-144 1760,-150 1760,-150 1760,-207 1760,-207 1760,-213 1754,-219 1748,-219 1748,-219 1628,-219 1628,-219 1622,-219 1616,-213 1616,-207 1616,-207 1616,-150 1616,-150 1616,-144 1622,-138 1628,-138"/>
<text text-anchor="start" x="1633.7231" y="-205.7" font-family="Arial BoldMT" font-size="11.00" fill="#000000">PgSearch::Document</text>
<polyline fill="none" stroke="#000000" points="1616,-200 1760,-200 "/>
<text text-anchor="start" x="1623" y="-187" font-family="ArialMT" font-size="10.00" fill="#000000">content </text>
<text text-anchor="start" x="1658.5811" y="-187" font-family="Arial ItalicMT" font-size="10.00" fill="#999999">text</text>
<text text-anchor="start" x="1623" y="-174" font-family="ArialMT" font-size="10.00" fill="#000000">id </text>
<text text-anchor="start" x="1633.5615" y="-174" font-family="Arial ItalicMT" font-size="10.00" fill="#999999">integer (8) PK</text>
<text text-anchor="start" x="1623" y="-161" font-family="ArialMT" font-size="10.00" fill="#000000">searchable_id </text>
<text text-anchor="start" x="1688.0439" y="-161" font-family="Arial ItalicMT" font-size="10.00" fill="#999999">integer (8) FK</text>
<text text-anchor="start" x="1623" y="-148" font-family="ArialMT" font-size="10.00" fill="#000000">searchable_type </text>
<text text-anchor="start" x="1699.1621" y="-148" font-family="Arial ItalicMT" font-size="10.00" fill="#999999">string</text>
</g>
<!-- m_Company&#45;&gt;m_PgSearch::Document -->
<g id="edge1" class="edge">
<title>m_Company&#45;&gt;m_PgSearch::Document</title>
<path fill="none" stroke="#000000" d="M977.4772,-398.7035C989.857,-362.9643 1013.3328,-312.9484 1053,-288 1145.4224,-229.8717 1437.8095,-281.2532 1543,-252 1569.9192,-244.5138 1597.7031,-231.8257 1621.657,-219.0786"/>
</g>
<!-- m_Engine -->
<g id="node4" class="node">
<title>m_Engine</title>
<path fill="none" stroke="#000000" d="M1252,-405.5C1252,-405.5 1372,-405.5 1372,-405.5 1378,-405.5 1384,-411.5 1384,-417.5 1384,-417.5 1384,-461.5 1384,-461.5 1384,-467.5 1378,-473.5 1372,-473.5 1372,-473.5 1252,-473.5 1252,-473.5 1246,-473.5 1240,-467.5 1240,-461.5 1240,-461.5 1240,-417.5 1240,-417.5 1240,-411.5 1246,-405.5 1252,-405.5"/>
<text text-anchor="start" x="1292.8743" y="-460.2" font-family="Arial BoldMT" font-size="11.00" fill="#000000">Engine</text>
<polyline fill="none" stroke="#000000" points="1240,-454.5 1384,-454.5 "/>
<text text-anchor="start" x="1247" y="-441" font-family="ArialMT" font-size="10.00" fill="#000000">id </text>
<text text-anchor="start" x="1257.5615" y="-441" font-family="Arial ItalicMT" font-size="10.00" fill="#999999">integer (8) PK</text>
<text text-anchor="start" x="1247" y="-428" font-family="ArialMT" font-size="10.00" fill="#000000">name </text>
<text text-anchor="start" x="1274.793" y="-428" font-family="Arial ItalicMT" font-size="10.00" fill="#999999">text ∗</text>
<text text-anchor="start" x="1247" y="-415" font-family="ArialMT" font-size="10.00" fill="#000000">wikidata_id </text>
<text text-anchor="start" x="1299.251" y="-415" font-family="Arial ItalicMT" font-size="10.00" fill="#999999">integer (8) U</text>
</g>
<!-- m_Engine&#45;&gt;m_Game -->
<g id="edge22" class="edge">
<title>m_Engine&#45;&gt;m_Game</title>
<path fill="none" stroke="#000000" stroke-dasharray="1,5" d="M1303.8887,-473.7043C1291.8573,-515.4215 1264.7324,-583.5258 1211.5,-609 1179.7284,-624.2042 926.2716,-624.2042 894.5,-609 854.2303,-589.729 828.6715,-546.239 813.2744,-508.1383"/>
<polygon fill="#000000" stroke="#000000" points="816.1514,-506.8451 809.9534,-499.5989 810.2798,-509.1287 816.1514,-506.8451"/>
</g>
<!-- m_GameEngine -->
<g id="node9" class="node">
<title>m_GameEngine</title>
<path fill="none" stroke="#000000" d="M1223,-144.5C1223,-144.5 1343,-144.5 1343,-144.5 1349,-144.5 1355,-150.5 1355,-156.5 1355,-156.5 1355,-200.5 1355,-200.5 1355,-206.5 1349,-212.5 1343,-212.5 1343,-212.5 1223,-212.5 1223,-212.5 1217,-212.5 1211,-206.5 1211,-200.5 1211,-200.5 1211,-156.5 1211,-156.5 1211,-150.5 1217,-144.5 1223,-144.5"/>
<text text-anchor="start" x="1248.897" y="-199.2" font-family="Arial BoldMT" font-size="11.00" fill="#000000">GameEngine</text>
<polyline fill="none" stroke="#000000" points="1211,-193.5 1355,-193.5 "/>
<text text-anchor="start" x="1218" y="-180" font-family="ArialMT" font-size="10.00" fill="#000000">engine_id </text>
<text text-anchor="start" x="1264.1523" y="-180" font-family="Arial ItalicMT" font-size="10.00" fill="#999999">integer (8) ∗ FK</text>
<text text-anchor="start" x="1218" y="-167" font-family="ArialMT" font-size="10.00" fill="#000000">game_id </text>
<text text-anchor="start" x="1259.1377" y="-167" font-family="Arial ItalicMT" font-size="10.00" fill="#999999">integer (8) ∗ FK</text>
<text text-anchor="start" x="1218" y="-154" font-family="ArialMT" font-size="10.00" fill="#000000">id </text>
<text text-anchor="start" x="1228.5615" y="-154" font-family="Arial ItalicMT" font-size="10.00" fill="#999999">integer (8) PK</text>
</g>
<!-- m_Engine&#45;&gt;m_GameEngine -->
<g id="edge21" class="edge">
<title>m_Engine&#45;&gt;m_GameEngine</title>
<path fill="none" stroke="#000000" d="M1308.2088,-405.3788C1302.9766,-358.2892 1293.5413,-273.3719 1287.8162,-221.8455"/>
<polygon fill="#000000" stroke="#000000" points="1290.9169,-221.2266 1286.7922,-212.6296 1284.6554,-221.9224 1290.9169,-221.2266"/>
</g>
<!-- m_Engine&#45;&gt;m_PgSearch::Document -->
<g id="edge2" class="edge">
<title>m_Engine&#45;&gt;m_PgSearch::Document</title>
<path fill="none" stroke="#000000" d="M1322.1273,-405.3549C1334.4121,-370.1747 1358.6495,-316.566 1399,-288 1470.9303,-237.0771 1513.6397,-288.1847 1594,-252 1612.1338,-243.8347 1629.886,-231.4574 1644.9927,-219.1754"/>
</g>
<!-- m_ExternalAccount -->
<g id="node5" class="node">
<title>m_ExternalAccount</title>
<path fill="none" stroke="#000000" d="M12,-131.5C12,-131.5 132,-131.5 132,-131.5 138,-131.5 144,-137.5 144,-143.5 144,-143.5 144,-213.5 144,-213.5 144,-219.5 138,-225.5 132,-225.5 132,-225.5 12,-225.5 12,-225.5 6,-225.5 0,-219.5 0,-213.5 0,-213.5 0,-143.5 0,-143.5 0,-137.5 6,-131.5 12,-131.5"/>
<text text-anchor="start" x="29.9504" y="-212.2" font-family="Arial BoldMT" font-size="11.00" fill="#000000">ExternalAccount</text>
<polyline fill="none" stroke="#000000" points="0,-206.5 144,-206.5 "/>
<text text-anchor="start" x="7" y="-193" font-family="ArialMT" font-size="10.00" fill="#000000">account_type </text>
<text text-anchor="start" x="69.2656" y="-193" font-family="Arial ItalicMT" font-size="10.00" fill="#999999">integer ∗</text>
<text text-anchor="start" x="7" y="-180" font-family="ArialMT" font-size="10.00" fill="#000000">id </text>
<text text-anchor="start" x="17.5615" y="-180" font-family="Arial ItalicMT" font-size="10.00" fill="#999999">integer (8) PK</text>
<text text-anchor="start" x="7" y="-167" font-family="ArialMT" font-size="10.00" fill="#000000">steam_id </text>
<text text-anchor="start" x="50.3545" y="-167" font-family="Arial ItalicMT" font-size="10.00" fill="#999999">integer (8) U</text>
<text text-anchor="start" x="7" y="-154" font-family="ArialMT" font-size="10.00" fill="#000000">steam_profile_url </text>
<text text-anchor="start" x="86.4824" y="-154" font-family="Arial ItalicMT" font-size="10.00" fill="#999999">text</text>
<text text-anchor="start" x="7" y="-141" font-family="ArialMT" font-size="10.00" fill="#000000">user_id </text>
<text text-anchor="start" x="42.5762" y="-141" font-family="Arial ItalicMT" font-size="10.00" fill="#999999">integer (8) ∗ FK</text>
</g>
<!-- m_Favorite -->
<g id="node6" class="node">
<title>m_Favorite</title>
<path fill="none" stroke="#000000" d="M358,-138C358,-138 478,-138 478,-138 484,-138 490,-144 490,-150 490,-150 490,-207 490,-207 490,-213 484,-219 478,-219 478,-219 358,-219 358,-219 352,-219 346,-213 346,-207 346,-207 346,-150 346,-150 346,-144 352,-138 358,-138"/>
<text text-anchor="start" x="396.1323" y="-205.7" font-family="Arial BoldMT" font-size="11.00" fill="#000000">Favorite</text>
<polyline fill="none" stroke="#000000" points="346,-200 490,-200 "/>
<text text-anchor="start" x="353" y="-187" font-family="ArialMT" font-size="10.00" fill="#000000">favoritable_id </text>
<text text-anchor="start" x="415.2607" y="-187" font-family="Arial ItalicMT" font-size="10.00" fill="#999999">integer (8) FK</text>
<text text-anchor="start" x="353" y="-174" font-family="ArialMT" font-size="10.00" fill="#000000">favoritable_type </text>
<text text-anchor="start" x="426.3789" y="-174" font-family="Arial ItalicMT" font-size="10.00" fill="#999999">string</text>
<text text-anchor="start" x="353" y="-161" font-family="ArialMT" font-size="10.00" fill="#000000">id </text>
<text text-anchor="start" x="363.5615" y="-161" font-family="Arial ItalicMT" font-size="10.00" fill="#999999">integer (8) PK</text>
<text text-anchor="start" x="353" y="-148" font-family="ArialMT" font-size="10.00" fill="#000000">user_id </text>
<text text-anchor="start" x="388.5762" y="-148" font-family="Arial ItalicMT" font-size="10.00" fill="#999999">integer (8) FK</text>
</g>
<!-- m_Game&#45;&gt;m_ActiveStorage::Attachment -->
<g id="edge8" class="edge">
<title>m_Game&#45;&gt;m_ActiveStorage::Attachment</title>
<path fill="none" stroke="#000000" d="M720.9683,-392.2348C666.4728,-358.5021 588.6816,-314.5699 515,-288 436.6126,-259.7332 406.0255,-288.2599 331,-252 317.03,-245.2483 303.4923,-235.6642 291.4505,-225.6389"/>
</g>
<!-- m_Game&#45;&gt;m_ActiveStorage::Blob -->
<g id="edge33" class="edge">
<title>m_Game&#45;&gt;m_ActiveStorage::Blob</title>
<path fill="none" stroke="#000000" stroke-dasharray="1,5" d="M720.8959,-495.844C664.4649,-536.172 582.1184,-587.0604 500.5,-609 465.0903,-618.5184 368.5746,-624.8277 335.5,-609 290.4808,-587.4562 259.4141,-539.3365 240.4206,-499.852"/>
</g>
<!-- m_Game&#45;&gt;m_Favorite -->
<g id="edge23" class="edge">
<title>m_Game&#45;&gt;m_Favorite</title>
<path fill="none" stroke="#000000" d="M720.9113,-396.043C661.6241,-359.4869 576.1022,-304.8609 505,-252 493.8056,-243.6775 482.1741,-234.3603 471.1966,-225.2286"/>
<polygon fill="#000000" stroke="#000000" points="473.0083,-222.6369 464.0883,-219.2669 468.9599,-227.464 473.0083,-222.6369"/>
</g>
<!-- m_Game&#45;&gt;m_GameDeveloper -->
<g id="edge25" class="edge">
<title>m_Game&#45;&gt;m_GameDeveloper</title>
<path fill="none" stroke="#000000" d="M826.2173,-379.2936C852.9819,-330.7828 889.9378,-263.8003 913.6556,-220.8117"/>
<polygon fill="#000000" stroke="#000000" points="916.4805,-222.2123 918.0702,-212.8103 910.9643,-219.1688 916.4805,-222.2123"/>
</g>
<!-- m_Game&#45;&gt;m_GameEngine -->
<g id="edge31" class="edge">
<title>m_Game&#45;&gt;m_GameEngine</title>
<path fill="none" stroke="#000000" d="M812.3255,-379.357C825.9738,-346.8975 847.6805,-309.2348 880,-288 998.5047,-210.1391 1066.9649,-308.5381 1197,-252 1214.8006,-244.2605 1231.6742,-231.5427 1245.6838,-218.8438"/>
<polygon fill="#000000" stroke="#000000" points="1247.9021,-221.082 1252.3226,-212.6332 1243.5982,-216.4813 1247.9021,-221.082"/>
</g>
<!-- m_GameGenre -->
<g id="node10" class="node">
<title>m_GameGenre</title>
<path fill="none" stroke="#000000" d="M1396,-144.5C1396,-144.5 1516,-144.5 1516,-144.5 1522,-144.5 1528,-150.5 1528,-156.5 1528,-156.5 1528,-200.5 1528,-200.5 1528,-206.5 1522,-212.5 1516,-212.5 1516,-212.5 1396,-212.5 1396,-212.5 1390,-212.5 1384,-206.5 1384,-200.5 1384,-200.5 1384,-156.5 1384,-156.5 1384,-150.5 1390,-144.5 1396,-144.5"/>
<text text-anchor="start" x="1423.7366" y="-199.2" font-family="Arial BoldMT" font-size="11.00" fill="#000000">GameGenre</text>
<polyline fill="none" stroke="#000000" points="1384,-193.5 1528,-193.5 "/>
<text text-anchor="start" x="1391" y="-180" font-family="ArialMT" font-size="10.00" fill="#000000">game_id </text>
<text text-anchor="start" x="1432.1377" y="-180" font-family="Arial ItalicMT" font-size="10.00" fill="#999999">integer (8) ∗ FK</text>
<text text-anchor="start" x="1391" y="-167" font-family="ArialMT" font-size="10.00" fill="#000000">genre_id </text>
<text text-anchor="start" x="1432.6992" y="-167" font-family="Arial ItalicMT" font-size="10.00" fill="#999999">integer (8) ∗ FK</text>
<text text-anchor="start" x="1391" y="-154" font-family="ArialMT" font-size="10.00" fill="#000000">id </text>
<text text-anchor="start" x="1401.5615" y="-154" font-family="Arial ItalicMT" font-size="10.00" fill="#999999">integer (8) PK</text>
</g>
<!-- m_Game&#45;&gt;m_GameGenre -->
<g id="edge29" class="edge">
<title>m_Game&#45;&gt;m_GameGenre</title>
<path fill="none" stroke="#000000" d="M811.8524,-379.2519C825.3866,-346.5442 847.1366,-308.6692 880,-288 972.4224,-229.8717 1269.0272,-293.5364 1370,-252 1388.107,-244.5515 1405.1527,-231.7587 1419.2181,-218.9133"/>
<polygon fill="#000000" stroke="#000000" points="1421.4947,-221.096 1425.8751,-212.6263 1417.169,-216.5157 1421.4947,-221.096"/>
</g>
<!-- m_GamePlatform -->
<g id="node11" class="node">
<title>m_GamePlatform</title>
<path fill="none" stroke="#000000" d="M1050,-144.5C1050,-144.5 1170,-144.5 1170,-144.5 1176,-144.5 1182,-150.5 1182,-156.5 1182,-156.5 1182,-200.5 1182,-200.5 1182,-206.5 1176,-212.5 1170,-212.5 1170,-212.5 1050,-212.5 1050,-212.5 1044,-212.5 1038,-206.5 1038,-200.5 1038,-200.5 1038,-156.5 1038,-156.5 1038,-150.5 1044,-144.5 1050,-144.5"/>
<text text-anchor="start" x="1072.5454" y="-199.2" font-family="Arial BoldMT" font-size="11.00" fill="#000000">GamePlatform</text>
<polyline fill="none" stroke="#000000" points="1038,-193.5 1182,-193.5 "/>
<text text-anchor="start" x="1045" y="-180" font-family="ArialMT" font-size="10.00" fill="#000000">game_id </text>
<text text-anchor="start" x="1086.1377" y="-180" font-family="Arial ItalicMT" font-size="10.00" fill="#999999">integer (8) ∗ FK</text>
<text text-anchor="start" x="1045" y="-167" font-family="ArialMT" font-size="10.00" fill="#000000">id </text>
<text text-anchor="start" x="1055.5615" y="-167" font-family="Arial ItalicMT" font-size="10.00" fill="#999999">integer (8) PK</text>
<text text-anchor="start" x="1045" y="-154" font-family="ArialMT" font-size="10.00" fill="#000000">platform_id </text>
<text text-anchor="start" x="1097.2461" y="-154" font-family="Arial ItalicMT" font-size="10.00" fill="#999999">integer (8) ∗ FK</text>
</g>
<!-- m_Game&#45;&gt;m_GamePlatform -->
<g id="edge27" class="edge">
<title>m_Game&#45;&gt;m_GamePlatform</title>
<path fill="none" stroke="#000000" d="M814.1015,-379.4247C828.1323,-347.8111 849.6341,-310.9528 880,-288 932.627,-248.2206 965.3664,-282.234 1024,-252 1040.6491,-243.415 1056.8294,-231.0251 1070.5794,-218.8569"/>
<polygon fill="#000000" stroke="#000000" points="1072.9945,-220.9187 1077.5379,-212.5353 1068.7582,-216.2556 1072.9945,-220.9187"/>
</g>
<!-- m_Game&#45;&gt;m_GamePublisher -->
<g id="edge26" class="edge">
<title>m_Game&#45;&gt;m_GamePublisher</title>
<path fill="none" stroke="#000000" d="M786.3104,-379.2936C780.9651,-331.1862 773.6015,-264.9131 768.821,-221.8891"/>
<polygon fill="#000000" stroke="#000000" points="771.937,-221.4074 767.8123,-212.8103 765.6755,-222.1032 771.937,-221.4074"/>
</g>
<!-- m_GamePurchase -->
<g id="node13" class="node">
<title>m_GamePurchase</title>
<path fill="none" stroke="#000000" d="M531,-105.5C531,-105.5 651,-105.5 651,-105.5 657,-105.5 663,-111.5 663,-117.5 663,-117.5 663,-239.5 663,-239.5 663,-245.5 657,-251.5 651,-251.5 651,-251.5 531,-251.5 531,-251.5 525,-251.5 519,-245.5 519,-239.5 519,-239.5 519,-117.5 519,-117.5 519,-111.5 525,-105.5 531,-105.5"/>
<text text-anchor="start" x="550.7874" y="-238.2" font-family="Arial BoldMT" font-size="11.00" fill="#000000">GamePurchase</text>
<polyline fill="none" stroke="#000000" points="519,-232.5 663,-232.5 "/>
<text text-anchor="start" x="526" y="-219" font-family="ArialMT" font-size="10.00" fill="#000000">comments </text>
<text text-anchor="start" x="574.9014" y="-219" font-family="Arial ItalicMT" font-size="10.00" fill="#999999">text ∗</text>
<text text-anchor="start" x="526" y="-206" font-family="ArialMT" font-size="10.00" fill="#000000">completion_date </text>
<text text-anchor="start" x="602.1621" y="-206" font-family="Arial ItalicMT" font-size="10.00" fill="#999999">date</text>
<text text-anchor="start" x="526" y="-193" font-family="ArialMT" font-size="10.00" fill="#000000">completion_status </text>
<text text-anchor="start" x="609.3789" y="-193" font-family="Arial ItalicMT" font-size="10.00" fill="#999999">integer</text>
<text text-anchor="start" x="526" y="-180" font-family="ArialMT" font-size="10.00" fill="#000000">game_id </text>
<text text-anchor="start" x="567.1377" y="-180" font-family="Arial ItalicMT" font-size="10.00" fill="#999999">integer (8) ∗ FK</text>
<text text-anchor="start" x="526" y="-167" font-family="ArialMT" font-size="10.00" fill="#000000">hours_played </text>
<text text-anchor="start" x="588.8223" y="-167" font-family="Arial ItalicMT" font-size="10.00" fill="#999999">decimal (10,1)</text>
<text text-anchor="start" x="526" y="-154" font-family="ArialMT" font-size="10.00" fill="#000000">id </text>
<text text-anchor="start" x="536.5615" y="-154" font-family="Arial ItalicMT" font-size="10.00" fill="#999999">integer (8) PK</text>
<text text-anchor="start" x="526" y="-141" font-family="ArialMT" font-size="10.00" fill="#000000">rating </text>
<text text-anchor="start" x="553.793" y="-141" font-family="Arial ItalicMT" font-size="10.00" fill="#999999">integer</text>
<text text-anchor="start" x="526" y="-128" font-family="ArialMT" font-size="10.00" fill="#000000">start_date </text>
<text text-anchor="start" x="573.251" y="-128" font-family="Arial ItalicMT" font-size="10.00" fill="#999999">date</text>
<text text-anchor="start" x="526" y="-115" font-family="ArialMT" font-size="10.00" fill="#000000">user_id </text>
<text text-anchor="start" x="561.5762" y="-115" font-family="Arial ItalicMT" font-size="10.00" fill="#999999">integer (8) ∗ FK</text>
</g>
<!-- m_Game&#45;&gt;m_GamePurchase -->
<g id="edge24" class="edge">
<title>m_Game&#45;&gt;m_GamePurchase</title>
<path fill="none" stroke="#000000" d="M746.4035,-379.2936C718.7622,-343.5789 683.3722,-297.8522 653.3485,-259.0592"/>
<polygon fill="#000000" stroke="#000000" points="655.8075,-257.0897 647.8079,-251.9003 650.8253,-260.9457 655.8075,-257.0897"/>
</g>
<!-- m_Genre -->
<g id="node15" class="node">
<title>m_Genre</title>
<path fill="none" stroke="#000000" d="M1425,-399C1425,-399 1545,-399 1545,-399 1551,-399 1557,-405 1557,-411 1557,-411 1557,-468 1557,-468 1557,-474 1551,-480 1545,-480 1545,-480 1425,-480 1425,-480 1419,-480 1413,-474 1413,-468 1413,-468 1413,-411 1413,-411 1413,-405 1419,-399 1425,-399"/>
<text text-anchor="start" x="1467.7139" y="-466.7" font-family="Arial BoldMT" font-size="11.00" fill="#000000">Genre</text>
<polyline fill="none" stroke="#000000" points="1413,-461 1557,-461 "/>
<text text-anchor="start" x="1420" y="-448" font-family="ArialMT" font-size="10.00" fill="#000000">description </text>
<text text-anchor="start" x="1471.1377" y="-448" font-family="Arial ItalicMT" font-size="10.00" fill="#999999">text ∗</text>
<text text-anchor="start" x="1420" y="-435" font-family="ArialMT" font-size="10.00" fill="#000000">id </text>
<text text-anchor="start" x="1430.5615" y="-435" font-family="Arial ItalicMT" font-size="10.00" fill="#999999">integer (8) PK</text>
<text text-anchor="start" x="1420" y="-422" font-family="ArialMT" font-size="10.00" fill="#000000">name </text>
<text text-anchor="start" x="1447.793" y="-422" font-family="Arial ItalicMT" font-size="10.00" fill="#999999">text ∗</text>
<text text-anchor="start" x="1420" y="-409" font-family="ArialMT" font-size="10.00" fill="#000000">wikidata_id </text>
<text text-anchor="start" x="1472.251" y="-409" font-family="Arial ItalicMT" font-size="10.00" fill="#999999">integer (8) U</text>
</g>
<!-- m_Game&#45;&gt;m_Genre -->
<g id="edge30" class="edge">
<title>m_Game&#45;&gt;m_Genre</title>
<path fill="none" stroke="#000000" stroke-dasharray="1,5" d="M809.9534,-499.5989C824.8897,-539.5221 851.1847,-588.2716 894.5,-609 943.6107,-632.5018 1335.3893,-632.5018 1384.5,-609 1431.7486,-586.3893 1458.4292,-530.194 1472.2436,-488.6748"/>
<polygon fill="#000000" stroke="#000000" points="1475.259,-489.587 1474.9989,-480.0552 1469.2581,-487.6687 1475.259,-489.587"/>
</g>
<!-- m_Game&#45;&gt;m_PgSearch::Document -->
<g id="edge3" class="edge">
<title>m_Game&#45;&gt;m_PgSearch::Document</title>
<path fill="none" stroke="#000000" d="M811.5479,-379.3999C825.021,-346.5257 846.8116,-308.4341 880,-288 1005.6449,-210.6406 1400.4734,-290.1743 1543,-252 1570.1258,-244.7346 1598.07,-232.0136 1622.0988,-219.1754"/>
</g>
<!-- m_Platform -->
<g id="node17" class="node">
<title>m_Platform</title>
<path fill="none" stroke="#000000" d="M1079,-399C1079,-399 1199,-399 1199,-399 1205,-399 1211,-405 1211,-411 1211,-411 1211,-468 1211,-468 1211,-474 1205,-480 1199,-480 1199,-480 1079,-480 1079,-480 1073,-480 1067,-474 1067,-468 1067,-468 1067,-411 1067,-411 1067,-405 1073,-399 1079,-399"/>
<text text-anchor="start" x="1116.5227" y="-466.7" font-family="Arial BoldMT" font-size="11.00" fill="#000000">Platform</text>
<polyline fill="none" stroke="#000000" points="1067,-461 1211,-461 "/>
<text text-anchor="start" x="1074" y="-448" font-family="ArialMT" font-size="10.00" fill="#000000">description </text>
<text text-anchor="start" x="1125.1377" y="-448" font-family="Arial ItalicMT" font-size="10.00" fill="#999999">text ∗</text>
<text text-anchor="start" x="1074" y="-435" font-family="ArialMT" font-size="10.00" fill="#000000">id </text>
<text text-anchor="start" x="1084.5615" y="-435" font-family="Arial ItalicMT" font-size="10.00" fill="#999999">integer (8) PK</text>
<text text-anchor="start" x="1074" y="-422" font-family="ArialMT" font-size="10.00" fill="#000000">name </text>
<text text-anchor="start" x="1101.793" y="-422" font-family="Arial ItalicMT" font-size="10.00" fill="#999999">text ∗</text>
<text text-anchor="start" x="1074" y="-409" font-family="ArialMT" font-size="10.00" fill="#000000">wikidata_id </text>
<text text-anchor="start" x="1126.251" y="-409" font-family="Arial ItalicMT" font-size="10.00" fill="#999999">integer (8) U</text>
</g>
<!-- m_Game&#45;&gt;m_Platform -->
<g id="edge28" class="edge">
<title>m_Game&#45;&gt;m_Platform</title>
<path fill="none" stroke="#000000" stroke-dasharray="1,5" d="M809.9534,-499.5989C824.8897,-539.5221 851.1847,-588.2716 894.5,-609 923.3651,-622.8133 1009.6349,-622.8133 1038.5,-609 1085.7486,-586.3893 1112.4292,-530.194 1126.2436,-488.6748"/>
<polygon fill="#000000" stroke="#000000" points="1129.259,-489.587 1128.9989,-480.0552 1123.2581,-487.6687 1129.259,-489.587"/>
</g>
<!-- m_GamePurchasePlatform -->
<g id="node14" class="node">
<title>m_GamePurchasePlatform</title>
<path fill="none" stroke="#000000" d="M1009,-.5C1009,-.5 1153,-.5 1153,-.5 1159,-.5 1165,-6.5 1165,-12.5 1165,-12.5 1165,-56.5 1165,-56.5 1165,-62.5 1159,-68.5 1153,-68.5 1153,-68.5 1009,-68.5 1009,-68.5 1003,-68.5 997,-62.5 997,-56.5 997,-56.5 997,-12.5 997,-12.5 997,-6.5 1003,-.5 1009,-.5"/>
<text text-anchor="start" x="1020.3101" y="-55.2" font-family="Arial BoldMT" font-size="11.00" fill="#000000">GamePurchasePlatform</text>
<polyline fill="none" stroke="#000000" points="997,-49.5 1165,-49.5 "/>
<text text-anchor="start" x="1003.5488" y="-36" font-family="ArialMT" font-size="10.00" fill="#000000">game_purchase_id </text>
<text text-anchor="start" x="1091.3857" y="-36" font-family="Arial ItalicMT" font-size="10.00" fill="#999999">integer (8) ∗ FK</text>
<text text-anchor="start" x="1004" y="-23" font-family="ArialMT" font-size="10.00" fill="#000000">id </text>
<text text-anchor="start" x="1014.5615" y="-23" font-family="Arial ItalicMT" font-size="10.00" fill="#999999">integer (8) PK</text>
<text text-anchor="start" x="1004" y="-10" font-family="ArialMT" font-size="10.00" fill="#000000">platform_id </text>
<text text-anchor="start" x="1056.2461" y="-10" font-family="Arial ItalicMT" font-size="10.00" fill="#999999">integer (8) ∗ FK</text>
</g>
<!-- m_GamePurchase&#45;&gt;m_GamePurchasePlatform -->
<g id="edge36" class="edge">
<title>m_GamePurchase&#45;&gt;m_GamePurchasePlatform</title>
<path fill="none" stroke="#000000" d="M663.1707,-113.0253C668.0257,-110.056 672.9847,-107.3448 678,-105 731.6357,-79.9238 886.3311,-57.6087 987.7094,-45.0937"/>
<polygon fill="#000000" stroke="#000000" points="988.1885,-48.2086 996.7386,-43.9875 987.4223,-41.9554 988.1885,-48.2086"/>
</g>
<!-- m_GamePurchase&#45;&gt;m_Platform -->
<g id="edge37" class="edge">
<title>m_GamePurchase&#45;&gt;m_Platform</title>
<path fill="none" stroke="#000000" stroke-dasharray="1,5" d="M663.2265,-244.5936C668.0502,-247.3844 672.9887,-249.8896 678,-252 832.3074,-316.9847 912.5009,-196.9298 1053,-288 1089.1474,-311.4304 1111.6932,-355.6849 1124.5831,-390.339"/>
<polygon fill="#000000" stroke="#000000" points="1121.6568,-391.5112 1127.6545,-398.924 1127.5886,-389.3889 1121.6568,-391.5112"/>
</g>
<!-- m_Genre&#45;&gt;m_GameGenre -->
<g id="edge34" class="edge">
<title>m_Genre&#45;&gt;m_GameGenre</title>
<path fill="none" stroke="#000000" d="M1480.4688,-398.7188C1475.126,-350.6341 1466.2835,-271.0517 1460.8188,-221.8692"/>
<polygon fill="#000000" stroke="#000000" points="1463.9308,-221.3523 1459.8061,-212.7553 1457.6694,-222.0481 1463.9308,-221.3523"/>
</g>
<!-- m_Genre&#45;&gt;m_PgSearch::Document -->
<g id="edge4" class="edge">
<title>m_Genre&#45;&gt;m_PgSearch::Document</title>
<path fill="none" stroke="#000000" d="M1516.7188,-398.7188C1554.7441,-349.829 1618.0949,-268.378 1656.1697,-219.4247"/>
</g>
<!-- m_Platform&#45;&gt;m_GamePlatform -->
<g id="edge35" class="edge">
<title>m_Platform&#45;&gt;m_GamePlatform</title>
<path fill="none" stroke="#000000" d="M1134.4688,-398.7188C1129.126,-350.6341 1120.2835,-271.0517 1114.8188,-221.8692"/>
<polygon fill="#000000" stroke="#000000" points="1117.9308,-221.3523 1113.8061,-212.7553 1111.6694,-222.0481 1117.9308,-221.3523"/>
</g>
<!-- m_Platform&#45;&gt;m_GamePurchasePlatform -->
<g id="edge38" class="edge">
<title>m_Platform&#45;&gt;m_GamePurchasePlatform</title>
<path fill="none" stroke="#000000" d="M1150.8368,-398.7279C1163.4091,-363.263 1186.9631,-313.6484 1226,-288 1285.2523,-249.0695 1495.7811,-304.8848 1543,-252 1586.5132,-203.2656 1585.5708,-154.5598 1543,-105 1519.299,-77.4079 1302.1153,-53.8791 1174.1372,-42.2596"/>
<polygon fill="#000000" stroke="#000000" points="1174.3273,-39.114 1165.0809,-41.4437 1173.7619,-45.3886 1174.3273,-39.114"/>
</g>
<!-- m_Platform&#45;&gt;m_PgSearch::Document -->
<g id="edge5" class="edge">
<title>m_Platform&#45;&gt;m_PgSearch::Document</title>
<path fill="none" stroke="#000000" d="M1150.6208,-398.9288C1163.0985,-363.3431 1186.6373,-313.4261 1226,-288 1364.0421,-198.8327 1441.4212,-313.042 1594,-252 1612.8492,-244.459 1631.0422,-231.9205 1646.3192,-219.3158"/>
</g>
<!-- m_Series -->
<g id="node18" class="node">
<title>m_Series</title>
<path fill="none" stroke="#000000" d="M733,-627.5C733,-627.5 853,-627.5 853,-627.5 859,-627.5 865,-633.5 865,-639.5 865,-639.5 865,-683.5 865,-683.5 865,-689.5 859,-695.5 853,-695.5 853,-695.5 733,-695.5 733,-695.5 727,-695.5 721,-689.5 721,-683.5 721,-683.5 721,-639.5 721,-639.5 721,-633.5 727,-627.5 733,-627.5"/>
<text text-anchor="start" x="775.4104" y="-682.2" font-family="Arial BoldMT" font-size="11.00" fill="#000000">Series</text>
<polyline fill="none" stroke="#000000" points="721,-676.5 865,-676.5 "/>
<text text-anchor="start" x="728" y="-663" font-family="ArialMT" font-size="10.00" fill="#000000">id </text>
<text text-anchor="start" x="738.5615" y="-663" font-family="Arial ItalicMT" font-size="10.00" fill="#999999">integer (8) PK</text>
<text text-anchor="start" x="728" y="-650" font-family="ArialMT" font-size="10.00" fill="#000000">name </text>
<text text-anchor="start" x="755.793" y="-650" font-family="Arial ItalicMT" font-size="10.00" fill="#999999">text ∗</text>
<text text-anchor="start" x="728" y="-637" font-family="ArialMT" font-size="10.00" fill="#000000">wikidata_id </text>
<text text-anchor="start" x="780.251" y="-637" font-family="Arial ItalicMT" font-size="10.00" fill="#999999">integer (8) U</text>
</g>
<!-- m_Series&#45;&gt;m_Game -->
<g id="edge32" class="edge">
<title>m_Series&#45;&gt;m_Game</title>
<path fill="none" stroke="#000000" d="M793,-627.299C793,-595.8837 793,-548.3706 793,-508.9967"/>
<polygon fill="#000000" stroke="#000000" points="796.1501,-508.6964 793,-499.6965 789.8501,-508.6965 796.1501,-508.6964"/>
</g>
<!-- m_Series&#45;&gt;m_PgSearch::Document -->
<g id="edge6" class="edge">
<title>m_Series&#45;&gt;m_PgSearch::Document</title>
<path fill="none" stroke="#000000" d="M865.0511,-659.5782C1047.7157,-654.0675 1518.2826,-635.6482 1572,-591 1684.705,-497.3231 1692.6426,-303.5473 1690.315,-219.2044"/>
</g>
<!-- m_User -->
<g id="node19" class="node">
<title>m_User</title>
<path fill="none" stroke="#000000" d="M348,-288.5C348,-288.5 488,-288.5 488,-288.5 494,-288.5 500,-294.5 500,-300.5 500,-300.5 500,-578.5 500,-578.5 500,-584.5 494,-590.5 488,-590.5 488,-590.5 348,-590.5 348,-590.5 342,-590.5 336,-584.5 336,-578.5 336,-578.5 336,-300.5 336,-300.5 336,-294.5 342,-288.5 348,-288.5"/>
<text text-anchor="start" x="404.3877" y="-577.2" font-family="Arial BoldMT" font-size="11.00" fill="#000000">User</text>
<polyline fill="none" stroke="#000000" points="336,-571.5 500,-571.5 "/>
<text text-anchor="start" x="343" y="-558" font-family="ArialMT" font-size="10.00" fill="#000000">bio </text>
<text text-anchor="start" x="359.123" y="-558" font-family="Arial ItalicMT" font-size="10.00" fill="#999999">text ∗</text>
<text text-anchor="start" x="343" y="-545" font-family="ArialMT" font-size="10.00" fill="#000000">confirmation_sent_at </text>
<text text-anchor="start" x="438.6104" y="-545" font-family="Arial ItalicMT" font-size="10.00" fill="#999999">datetime</text>
<text text-anchor="start" x="343" y="-532" font-family="ArialMT" font-size="10.00" fill="#000000">confirmation_token </text>
<text text-anchor="start" x="430.2705" y="-532" font-family="Arial ItalicMT" font-size="10.00" fill="#999999">string</text>
<text text-anchor="start" x="343" y="-519" font-family="ArialMT" font-size="10.00" fill="#000000">confirmed_at </text>
<text text-anchor="start" x="403.5859" y="-519" font-family="Arial ItalicMT" font-size="10.00" fill="#999999">datetime</text>
<text text-anchor="start" x="343" y="-506" font-family="ArialMT" font-size="10.00" fill="#000000">current_sign_in_at </text>
<text text-anchor="start" x="428.0537" y="-506" font-family="Arial ItalicMT" font-size="10.00" fill="#999999">datetime</text>
<text text-anchor="start" x="343" y="-493" font-family="ArialMT" font-size="10.00" fill="#000000">current_sign_in_ip </text>
<text text-anchor="start" x="427.4971" y="-493" font-family="Arial ItalicMT" font-size="10.00" fill="#999999">inet</text>
<text text-anchor="start" x="343" y="-480" font-family="ArialMT" font-size="10.00" fill="#000000">email </text>
<text text-anchor="start" x="369.6748" y="-480" font-family="Arial ItalicMT" font-size="10.00" fill="#999999">string ∗ U</text>
<text text-anchor="start" x="343" y="-467" font-family="ArialMT" font-size="10.00" fill="#000000">encrypted_password </text>
<text text-anchor="start" x="438.0537" y="-467" font-family="Arial ItalicMT" font-size="10.00" fill="#999999">string ∗</text>
<text text-anchor="start" x="343" y="-454" font-family="ArialMT" font-size="10.00" fill="#000000">id </text>
<text text-anchor="start" x="353.5615" y="-454" font-family="Arial ItalicMT" font-size="10.00" fill="#999999">integer (8) PK</text>
<text text-anchor="start" x="343" y="-441" font-family="ArialMT" font-size="10.00" fill="#000000">last_sign_in_at </text>
<text text-anchor="start" x="412.4922" y="-441" font-family="Arial ItalicMT" font-size="10.00" fill="#999999">datetime</text>
<text text-anchor="start" x="343" y="-428" font-family="ArialMT" font-size="10.00" fill="#000000">last_sign_in_ip </text>
<text text-anchor="start" x="411.9355" y="-428" font-family="Arial ItalicMT" font-size="10.00" fill="#999999">inet</text>
<text text-anchor="start" x="343" y="-415" font-family="ArialMT" font-size="10.00" fill="#000000">provider </text>
<text text-anchor="start" x="381.9063" y="-415" font-family="Arial ItalicMT" font-size="10.00" fill="#999999">string</text>
<text text-anchor="start" x="343" y="-402" font-family="ArialMT" font-size="10.00" fill="#000000">remember_created_at </text>
<text text-anchor="start" x="444.1621" y="-402" font-family="Arial ItalicMT" font-size="10.00" fill="#999999">datetime</text>
<text text-anchor="start" x="342.9561" y="-389" font-family="ArialMT" font-size="10.00" fill="#000000">reset_password_sent_at </text>
<text text-anchor="start" x="454.6895" y="-389" font-family="Arial ItalicMT" font-size="10.00" fill="#999999">datetime</text>
<text text-anchor="start" x="343" y="-376" font-family="ArialMT" font-size="10.00" fill="#000000">reset_password_token </text>
<text text-anchor="start" x="446.3936" y="-376" font-family="Arial ItalicMT" font-size="10.00" fill="#999999">string</text>
<text text-anchor="start" x="343" y="-363" font-family="ArialMT" font-size="10.00" fill="#000000">role </text>
<text text-anchor="start" x="362.4531" y="-363" font-family="Arial ItalicMT" font-size="10.00" fill="#999999">integer ∗</text>
<text text-anchor="start" x="343" y="-350" font-family="ArialMT" font-size="10.00" fill="#000000">sign_in_count </text>
<text text-anchor="start" x="407.4922" y="-350" font-family="Arial ItalicMT" font-size="10.00" fill="#999999">integer ∗</text>
<text text-anchor="start" x="343" y="-337" font-family="ArialMT" font-size="10.00" fill="#000000">slug </text>
<text text-anchor="start" x="364.123" y="-337" font-family="Arial ItalicMT" font-size="10.00" fill="#999999">string ∗ U</text>
<text text-anchor="start" x="343" y="-324" font-family="ArialMT" font-size="10.00" fill="#000000">uid </text>
<text text-anchor="start" x="359.123" y="-324" font-family="Arial ItalicMT" font-size="10.00" fill="#999999">string</text>
<text text-anchor="start" x="343" y="-311" font-family="ArialMT" font-size="10.00" fill="#000000">unconfirmed_email </text>
<text text-anchor="start" x="430.2656" y="-311" font-family="Arial ItalicMT" font-size="10.00" fill="#999999">string</text>
<text text-anchor="start" x="343" y="-298" font-family="ArialMT" font-size="10.00" fill="#000000">username </text>
<text text-anchor="start" x="390.2461" y="-298" font-family="Arial ItalicMT" font-size="10.00" fill="#999999">text ∗ U</text>
</g>
<!-- m_User&#45;&gt;m_ActiveStorage::Attachment -->
<g id="edge9" class="edge">
<title>m_User&#45;&gt;m_ActiveStorage::Attachment</title>
<path fill="none" stroke="#000000" d="M335.7723,-310.3538C330.8022,-302.7719 325.8515,-295.2755 321,-288 307.263,-267.3996 291.7323,-244.8904 278.307,-225.6669"/>
</g>
<!-- m_User&#45;&gt;m_ExternalAccount -->
<g id="edge15" class="edge">
<title>m_User&#45;&gt;m_ExternalAccount</title>
<path fill="none" stroke="#000000" d="M335.7428,-299.7439C331.036,-295.5158 326.1221,-291.5749 321,-288 260.1617,-245.5394 224.4032,-285.088 158,-252 144.2884,-245.1676 130.9485,-235.6754 119.0268,-225.7784"/>
</g>
<!-- m_User&#45;&gt;m_Favorite -->
<g id="edge14" class="edge">
<title>m_User&#45;&gt;m_Favorite</title>
<path fill="none" stroke="#000000" d="M418,-288.431C418,-266.9344 418,-246.2016 418,-228.6455"/>
<polygon fill="#000000" stroke="#000000" points="421.1501,-228.2342 418,-219.2342 414.8501,-228.2342 421.1501,-228.2342"/>
</g>
<!-- m_User&#45;&gt;m_GamePurchase -->
<g id="edge12" class="edge">
<title>m_User&#45;&gt;m_GamePurchase</title>
<path fill="none" stroke="#000000" d="M500.1935,-315.4971C512.8565,-296.3927 525.643,-277.1022 537.4637,-259.2687"/>
<polygon fill="#000000" stroke="#000000" points="540.1205,-260.9618 542.4674,-251.7197 534.8693,-257.4811 540.1205,-260.9618"/>
</g>
</g>
</svg>
