<?xml version="1.0" encoding="UTF-8" standalone="no"?>
<!DOCTYPE svg PUBLIC "-//W3C//DTD SVG 1.1//EN"
 "http://www.w3.org/Graphics/SVG/1.1/DTD/svg11.dtd">
<!-- Generated by graphviz version 2.40.1 (20161225.0304)
 -->
<!-- Title: GameTracker Pages: 1 -->
<svg width="1441pt" height="633pt"
 viewBox="0.00 0.00 1440.60 632.60" xmlns="http://www.w3.org/2000/svg" xmlns:xlink="http://www.w3.org/1999/xlink">
<g id="graph0" class="graph" transform="scale(1 1) rotate(0) translate(28.8 603.8)">
<title>GameTracker</title>
<polygon fill="#ffffff" stroke="transparent" points="-28.8,28.8 -28.8,-603.8 1411.8,-603.8 1411.8,28.8 -28.8,28.8"/>
<text text-anchor="middle" x="691.5" y="-560.6" font-family="Arial BoldMT" font-size="13.00" fill="#000000">Continue From Checkpoint domain model</text>
<!-- m_ActiveStorage::Attachment -->
<g id="node1" class="node">
<title>m_ActiveStorage::Attachment</title>
<path fill="none" stroke="#000000" d="M40,-13.5C40,-13.5 160,-13.5 160,-13.5 166,-13.5 172,-19.5 172,-25.5 172,-25.5 172,-95.5 172,-95.5 172,-101.5 166,-107.5 160,-107.5 160,-107.5 40,-107.5 40,-107.5 34,-107.5 28,-101.5 28,-95.5 28,-95.5 28,-25.5 28,-25.5 28,-19.5 34,-13.5 40,-13.5"/>
<text text-anchor="start" x="32.8835" y="-94.2" font-family="Arial BoldMT" font-size="11.00" fill="#000000">ActiveStorage::Attachment</text>
<polyline fill="none" stroke="#000000" points="28,-88.5 172,-88.5 "/>
<text text-anchor="start" x="35" y="-75" font-family="ArialMT" font-size="10.00" fill="#000000">blob_id </text>
<text text-anchor="start" x="70.0293" y="-75" font-family="Arial ItalicMT" font-size="10.00" fill="#999999">integer (8) ∗ FK</text>
<text text-anchor="start" x="35" y="-62" font-family="ArialMT" font-size="10.00" fill="#000000">id </text>
<text text-anchor="start" x="45.5615" y="-62" font-family="Arial ItalicMT" font-size="10.00" fill="#999999">integer (8) PK</text>
<text text-anchor="start" x="35" y="-49" font-family="ArialMT" font-size="10.00" fill="#000000">name </text>
<text text-anchor="start" x="62.793" y="-49" font-family="Arial ItalicMT" font-size="10.00" fill="#999999">string ∗</text>
<text text-anchor="start" x="35" y="-36" font-family="ArialMT" font-size="10.00" fill="#000000">record_id </text>
<text text-anchor="start" x="79.4678" y="-36" font-family="Arial ItalicMT" font-size="10.00" fill="#999999">integer (8) ∗ FK</text>
<text text-anchor="start" x="35" y="-23" font-family="ArialMT" font-size="10.00" fill="#000000">record_type </text>
<text text-anchor="start" x="90.5859" y="-23" font-family="Arial ItalicMT" font-size="10.00" fill="#999999">string ∗</text>
</g>
<!-- m_ActiveStorage::Blob -->
<g id="node2" class="node">
<title>m_ActiveStorage::Blob</title>
<path fill="none" stroke="#000000" d="M12,-235.5C12,-235.5 132,-235.5 132,-235.5 138,-235.5 144,-241.5 144,-247.5 144,-247.5 144,-343.5 144,-343.5 144,-349.5 138,-355.5 132,-355.5 132,-355.5 12,-355.5 12,-355.5 6,-355.5 0,-349.5 0,-343.5 0,-343.5 0,-247.5 0,-247.5 0,-241.5 6,-235.5 12,-235.5"/>
<text text-anchor="start" x="21.6951" y="-342.2" font-family="Arial BoldMT" font-size="11.00" fill="#000000">ActiveStorage::Blob</text>
<polyline fill="none" stroke="#000000" points="0,-336.5 144,-336.5 "/>
<text text-anchor="start" x="7" y="-323" font-family="ArialMT" font-size="10.00" fill="#000000">byte_size </text>
<text text-anchor="start" x="52.0244" y="-323" font-family="Arial ItalicMT" font-size="10.00" fill="#999999">integer (8) ∗</text>
<text text-anchor="start" x="7" y="-310" font-family="ArialMT" font-size="10.00" fill="#000000">checksum </text>
<text text-anchor="start" x="54.793" y="-310" font-family="Arial ItalicMT" font-size="10.00" fill="#999999">string ∗</text>
<text text-anchor="start" x="7" y="-297" font-family="ArialMT" font-size="10.00" fill="#000000">content_type </text>
<text text-anchor="start" x="67.0439" y="-297" font-family="Arial ItalicMT" font-size="10.00" fill="#999999">string</text>
<text text-anchor="start" x="7" y="-284" font-family="ArialMT" font-size="10.00" fill="#000000">filename </text>
<text text-anchor="start" x="47.5762" y="-284" font-family="Arial ItalicMT" font-size="10.00" fill="#999999">string ∗</text>
<text text-anchor="start" x="7" y="-271" font-family="ArialMT" font-size="10.00" fill="#000000">id </text>
<text text-anchor="start" x="17.5615" y="-271" font-family="Arial ItalicMT" font-size="10.00" fill="#999999">integer (8) PK</text>
<text text-anchor="start" x="7" y="-258" font-family="ArialMT" font-size="10.00" fill="#000000">key </text>
<text text-anchor="start" x="25.3398" y="-258" font-family="Arial ItalicMT" font-size="10.00" fill="#999999">string ∗</text>
<text text-anchor="start" x="7" y="-245" font-family="ArialMT" font-size="10.00" fill="#000000">metadata </text>
<text text-anchor="start" x="51.4727" y="-245" font-family="Arial ItalicMT" font-size="10.00" fill="#999999">text</text>
</g>
<!-- m_ActiveStorage::Blob&#45;&gt;m_ActiveStorage::Attachment -->
<g id="edge7" class="edge">
<title>m_ActiveStorage::Blob&#45;&gt;m_ActiveStorage::Attachment</title>
<path fill="none" stroke="#000000" d="M79.1743,-235.2868C83.9057,-195.5776 90.014,-144.3112 94.3898,-107.5857"/>
</g>
<!-- m_ActiveStorage::Blob&#45;&gt;m_ActiveStorage::Blob -->
<g id="edge11" class="edge">
<title>m_ActiveStorage::Blob&#45;&gt;m_ActiveStorage::Blob</title>
<path fill="none" stroke="#000000" stroke-dasharray="1,5" d="M144.1757,-333.6407C160.7932,-330.3542 173,-317.6406 173,-295.5 173,-273.3594 160.7932,-260.6458 144.1757,-257.3593"/>
</g>
<!-- m_Company -->
<g id="node3" class="node">
<title>m_Company</title>
<path fill="none" stroke="#000000" d="M569,-255C569,-255 689,-255 689,-255 695,-255 701,-261 701,-267 701,-267 701,-324 701,-324 701,-330 695,-336 689,-336 689,-336 569,-336 569,-336 563,-336 557,-330 557,-324 557,-324 557,-267 557,-267 557,-261 563,-255 569,-255"/>
<text text-anchor="start" x="603.4612" y="-322.7" font-family="Arial BoldMT" font-size="11.00" fill="#000000">Company</text>
<polyline fill="none" stroke="#000000" points="557,-317 701,-317 "/>
<text text-anchor="start" x="564" y="-304" font-family="ArialMT" font-size="10.00" fill="#000000">description </text>
<text text-anchor="start" x="615.1377" y="-304" font-family="Arial ItalicMT" font-size="10.00" fill="#999999">text ∗</text>
<text text-anchor="start" x="564" y="-291" font-family="ArialMT" font-size="10.00" fill="#000000">id </text>
<text text-anchor="start" x="574.5615" y="-291" font-family="Arial ItalicMT" font-size="10.00" fill="#999999">integer (8) PK</text>
<text text-anchor="start" x="564" y="-278" font-family="ArialMT" font-size="10.00" fill="#000000">name </text>
<text text-anchor="start" x="591.793" y="-278" font-family="Arial ItalicMT" font-size="10.00" fill="#999999">text ∗</text>
<text text-anchor="start" x="564" y="-265" font-family="ArialMT" font-size="10.00" fill="#000000">wikidata_id </text>
<text text-anchor="start" x="616.251" y="-265" font-family="Arial ItalicMT" font-size="10.00" fill="#999999">integer (8) U</text>
</g>
<!-- m_Game -->
<g id="node5" class="node">
<title>m_Game</title>
<path fill="none" stroke="#000000" d="M396,-242C396,-242 516,-242 516,-242 522,-242 528,-248 528,-254 528,-254 528,-337 528,-337 528,-343 522,-349 516,-349 516,-349 396,-349 396,-349 390,-349 384,-343 384,-337 384,-337 384,-254 384,-254 384,-248 390,-242 396,-242"/>
<text text-anchor="start" x="439.0227" y="-335.7" font-family="Arial BoldMT" font-size="11.00" fill="#000000">Game</text>
<polyline fill="none" stroke="#000000" points="384,-330 528,-330 "/>
<text text-anchor="start" x="391" y="-317" font-family="ArialMT" font-size="10.00" fill="#000000">description </text>
<text text-anchor="start" x="442.1377" y="-317" font-family="Arial ItalicMT" font-size="10.00" fill="#999999">text ∗</text>
<text text-anchor="start" x="391" y="-304" font-family="ArialMT" font-size="10.00" fill="#000000">id </text>
<text text-anchor="start" x="401.5615" y="-304" font-family="Arial ItalicMT" font-size="10.00" fill="#999999">integer (8) PK</text>
<text text-anchor="start" x="391" y="-291" font-family="ArialMT" font-size="10.00" fill="#000000">name </text>
<text text-anchor="start" x="418.793" y="-291" font-family="Arial ItalicMT" font-size="10.00" fill="#999999">text ∗</text>
<text text-anchor="start" x="391" y="-278" font-family="ArialMT" font-size="10.00" fill="#000000">pcgamingwiki_id </text>
<text text-anchor="start" x="467.1475" y="-278" font-family="Arial ItalicMT" font-size="10.00" fill="#999999">text U</text>
<text text-anchor="start" x="391" y="-265" font-family="ArialMT" font-size="10.00" fill="#000000">series_id </text>
<text text-anchor="start" x="433.7979" y="-265" font-family="Arial ItalicMT" font-size="10.00" fill="#999999">integer (8) FK</text>
<text text-anchor="start" x="391" y="-252" font-family="ArialMT" font-size="10.00" fill="#000000">wikidata_id </text>
<text text-anchor="start" x="443.251" y="-252" font-family="Arial ItalicMT" font-size="10.00" fill="#999999">integer (8) U</text>
</g>
<!-- m_GameDeveloper -->
<g id="node6" class="node">
<title>m_GameDeveloper</title>
<path fill="none" stroke="#000000" d="M559,-26.5C559,-26.5 679,-26.5 679,-26.5 685,-26.5 691,-32.5 691,-38.5 691,-38.5 691,-82.5 691,-82.5 691,-88.5 685,-94.5 679,-94.5 679,-94.5 559,-94.5 559,-94.5 553,-94.5 547,-88.5 547,-82.5 547,-82.5 547,-38.5 547,-38.5 547,-32.5 553,-26.5 559,-26.5"/>
<text text-anchor="start" x="576.9531" y="-81.2" font-family="Arial BoldMT" font-size="11.00" fill="#000000">GameDeveloper</text>
<polyline fill="none" stroke="#000000" points="547,-75.5 691,-75.5 "/>
<text text-anchor="start" x="554" y="-62" font-family="ArialMT" font-size="10.00" fill="#000000">company_id </text>
<text text-anchor="start" x="610.6992" y="-62" font-family="Arial ItalicMT" font-size="10.00" fill="#999999">integer (8) ∗ FK</text>
<text text-anchor="start" x="554" y="-49" font-family="ArialMT" font-size="10.00" fill="#000000">game_id </text>
<text text-anchor="start" x="595.1377" y="-49" font-family="Arial ItalicMT" font-size="10.00" fill="#999999">integer (8) ∗ FK</text>
<text text-anchor="start" x="554" y="-36" font-family="ArialMT" font-size="10.00" fill="#000000">id </text>
<text text-anchor="start" x="564.5615" y="-36" font-family="Arial ItalicMT" font-size="10.00" fill="#999999">integer (8) PK</text>
</g>
<!-- m_Company&#45;&gt;m_GameDeveloper -->
<g id="edge15" class="edge">
<title>m_Company&#45;&gt;m_GameDeveloper</title>
<path fill="none" stroke="#000000" d="M627.2695,-254.8344C625.4728,-212.6109 622.673,-146.8151 620.8376,-103.6827"/>
<polygon fill="#000000" stroke="#000000" points="623.9798,-103.4303 620.4499,-94.5724 617.6855,-103.6982 623.9798,-103.4303"/>
</g>
<!-- m_GamePublisher -->
<g id="node10" class="node">
<title>m_GamePublisher</title>
<path fill="none" stroke="#000000" d="M386,-26.5C386,-26.5 506,-26.5 506,-26.5 512,-26.5 518,-32.5 518,-38.5 518,-38.5 518,-82.5 518,-82.5 518,-88.5 512,-94.5 506,-94.5 506,-94.5 386,-94.5 386,-94.5 380,-94.5 374,-88.5 374,-82.5 374,-82.5 374,-38.5 374,-38.5 374,-32.5 380,-26.5 386,-26.5"/>
<text text-anchor="start" x="406.0935" y="-81.2" font-family="Arial BoldMT" font-size="11.00" fill="#000000">GamePublisher</text>
<polyline fill="none" stroke="#000000" points="374,-75.5 518,-75.5 "/>
<text text-anchor="start" x="381" y="-62" font-family="ArialMT" font-size="10.00" fill="#000000">company_id </text>
<text text-anchor="start" x="437.6992" y="-62" font-family="Arial ItalicMT" font-size="10.00" fill="#999999">integer (8) ∗ FK</text>
<text text-anchor="start" x="381" y="-49" font-family="ArialMT" font-size="10.00" fill="#000000">game_id </text>
<text text-anchor="start" x="422.1377" y="-49" font-family="Arial ItalicMT" font-size="10.00" fill="#999999">integer (8) ∗ FK</text>
<text text-anchor="start" x="381" y="-36" font-family="ArialMT" font-size="10.00" fill="#000000">id </text>
<text text-anchor="start" x="391.5615" y="-36" font-family="Arial ItalicMT" font-size="10.00" fill="#999999">integer (8) PK</text>
</g>
<!-- m_Company&#45;&gt;m_GamePublisher -->
<g id="edge17" class="edge">
<title>m_Company&#45;&gt;m_GamePublisher</title>
<path fill="none" stroke="#000000" d="M607.0476,-254.7571C590.9041,-226.2528 567.5752,-187.9031 543,-157 527.4675,-137.468 508.348,-117.7157 491.2012,-101.2133"/>
<polygon fill="#000000" stroke="#000000" points="493.1797,-98.7475 484.4901,-94.8214 488.8347,-103.3095 493.1797,-98.7475"/>
</g>
<!-- m_PgSearch::Document -->
<g id="node13" class="node">
<title>m_PgSearch::Document</title>
<path fill="none" stroke="#000000" d="M1251,-20C1251,-20 1371,-20 1371,-20 1377,-20 1383,-26 1383,-32 1383,-32 1383,-89 1383,-89 1383,-95 1377,-101 1371,-101 1371,-101 1251,-101 1251,-101 1245,-101 1239,-95 1239,-89 1239,-89 1239,-32 1239,-32 1239,-26 1245,-20 1251,-20"/>
<text text-anchor="start" x="1256.7231" y="-87.7" font-family="Arial BoldMT" font-size="11.00" fill="#000000">PgSearch::Document</text>
<polyline fill="none" stroke="#000000" points="1239,-82 1383,-82 "/>
<text text-anchor="start" x="1246" y="-69" font-family="ArialMT" font-size="10.00" fill="#000000">content </text>
<text text-anchor="start" x="1281.5811" y="-69" font-family="Arial ItalicMT" font-size="10.00" fill="#999999">text</text>
<text text-anchor="start" x="1246" y="-56" font-family="ArialMT" font-size="10.00" fill="#000000">id </text>
<text text-anchor="start" x="1256.5615" y="-56" font-family="Arial ItalicMT" font-size="10.00" fill="#999999">integer (8) PK</text>
<text text-anchor="start" x="1246" y="-43" font-family="ArialMT" font-size="10.00" fill="#000000">searchable_id </text>
<text text-anchor="start" x="1311.0439" y="-43" font-family="Arial ItalicMT" font-size="10.00" fill="#999999">integer (8) FK</text>
<text text-anchor="start" x="1246" y="-30" font-family="ArialMT" font-size="10.00" fill="#000000">searchable_type </text>
<text text-anchor="start" x="1322.1621" y="-30" font-family="Arial ItalicMT" font-size="10.00" fill="#999999">string</text>
</g>
<!-- m_Company&#45;&gt;m_PgSearch::Document -->
<g id="edge1" class="edge">
<title>m_Company&#45;&gt;m_PgSearch::Document</title>
<path fill="none" stroke="#000000" d="M642.7414,-254.8708C656.0397,-222.4016 679.595,-178.8355 716,-157 813.243,-98.6741 1118.1672,-159.0116 1225,-121 1238.0711,-116.3493 1250.9608,-109.1277 1262.6248,-101.2717"/>
</g>
<!-- m_Engine -->
<g id="node4" class="node">
<title>m_Engine</title>
<path fill="none" stroke="#000000" d="M742,-261.5C742,-261.5 862,-261.5 862,-261.5 868,-261.5 874,-267.5 874,-273.5 874,-273.5 874,-317.5 874,-317.5 874,-323.5 868,-329.5 862,-329.5 862,-329.5 742,-329.5 742,-329.5 736,-329.5 730,-323.5 730,-317.5 730,-317.5 730,-273.5 730,-273.5 730,-267.5 736,-261.5 742,-261.5"/>
<text text-anchor="start" x="782.8743" y="-316.2" font-family="Arial BoldMT" font-size="11.00" fill="#000000">Engine</text>
<polyline fill="none" stroke="#000000" points="730,-310.5 874,-310.5 "/>
<text text-anchor="start" x="737" y="-297" font-family="ArialMT" font-size="10.00" fill="#000000">id </text>
<text text-anchor="start" x="747.5615" y="-297" font-family="Arial ItalicMT" font-size="10.00" fill="#999999">integer (8) PK</text>
<text text-anchor="start" x="737" y="-284" font-family="ArialMT" font-size="10.00" fill="#000000">name </text>
<text text-anchor="start" x="764.793" y="-284" font-family="Arial ItalicMT" font-size="10.00" fill="#999999">text ∗</text>
<text text-anchor="start" x="737" y="-271" font-family="ArialMT" font-size="10.00" fill="#000000">wikidata_id </text>
<text text-anchor="start" x="789.251" y="-271" font-family="Arial ItalicMT" font-size="10.00" fill="#999999">integer (8) U</text>
</g>
<!-- m_Engine&#45;&gt;m_Game -->
<g id="edge20" class="edge">
<title>m_Engine&#45;&gt;m_Game</title>
<path fill="none" stroke="#000000" stroke-dasharray="1,5" d="M792.0041,-329.6198C778.5895,-368.1442 750.5785,-428.5136 701.5,-452 672.6349,-465.8133 586.3651,-465.8133 557.5,-452 519.0981,-433.6229 493.3707,-392.8504 477.4272,-357.5296"/>
<polygon fill="#000000" stroke="#000000" points="480.2614,-356.1479 473.7799,-349.1541 474.4853,-358.6634 480.2614,-356.1479"/>
</g>
<!-- m_GameEngine -->
<g id="node7" class="node">
<title>m_GameEngine</title>
<path fill="none" stroke="#000000" d="M732,-26.5C732,-26.5 852,-26.5 852,-26.5 858,-26.5 864,-32.5 864,-38.5 864,-38.5 864,-82.5 864,-82.5 864,-88.5 858,-94.5 852,-94.5 852,-94.5 732,-94.5 732,-94.5 726,-94.5 720,-88.5 720,-82.5 720,-82.5 720,-38.5 720,-38.5 720,-32.5 726,-26.5 732,-26.5"/>
<text text-anchor="start" x="757.897" y="-81.2" font-family="Arial BoldMT" font-size="11.00" fill="#000000">GameEngine</text>
<polyline fill="none" stroke="#000000" points="720,-75.5 864,-75.5 "/>
<text text-anchor="start" x="727" y="-62" font-family="ArialMT" font-size="10.00" fill="#000000">engine_id </text>
<text text-anchor="start" x="773.1523" y="-62" font-family="Arial ItalicMT" font-size="10.00" fill="#999999">integer (8) ∗ FK</text>
<text text-anchor="start" x="727" y="-49" font-family="ArialMT" font-size="10.00" fill="#000000">game_id </text>
<text text-anchor="start" x="768.1377" y="-49" font-family="Arial ItalicMT" font-size="10.00" fill="#999999">integer (8) ∗ FK</text>
<text text-anchor="start" x="727" y="-36" font-family="ArialMT" font-size="10.00" fill="#000000">id </text>
<text text-anchor="start" x="737.5615" y="-36" font-family="Arial ItalicMT" font-size="10.00" fill="#999999">integer (8) PK</text>
</g>
<!-- m_Engine&#45;&gt;m_GameEngine -->
<g id="edge19" class="edge">
<title>m_Engine&#45;&gt;m_GameEngine</title>
<path fill="none" stroke="#000000" d="M800.5459,-261.329C798.7722,-219.6463 795.7719,-149.1388 793.8393,-103.7237"/>
<polygon fill="#000000" stroke="#000000" points="796.9857,-103.5702 793.4558,-94.7123 790.6914,-103.8381 796.9857,-103.5702"/>
</g>
<!-- m_Engine&#45;&gt;m_PgSearch::Document -->
<g id="edge2" class="edge">
<title>m_Engine&#45;&gt;m_PgSearch::Document</title>
<path fill="none" stroke="#000000" d="M813.5133,-261.2173C826.4205,-228.5532 850.7075,-180.9186 889,-157 1016.3805,-77.4345 1084.4342,-173.8932 1225,-121 1237.8141,-116.1782 1250.5013,-108.9889 1262.0363,-101.2332"/>
</g>
<!-- m_Game&#45;&gt;m_ActiveStorage::Attachment -->
<g id="edge8" class="edge">
<title>m_Game&#45;&gt;m_ActiveStorage::Attachment</title>
<path fill="none" stroke="#000000" d="M434.9662,-241.6888C420.705,-212.2101 398.955,-177.5851 369,-157 300.6839,-110.053 262.2303,-153.5584 186,-121 177.4382,-117.3432 168.8745,-112.7423 160.6496,-107.7185"/>
</g>
<!-- m_Game&#45;&gt;m_ActiveStorage::Blob -->
<g id="edge30" class="edge">
<title>m_Game&#45;&gt;m_ActiveStorage::Blob</title>
<path fill="none" stroke="#000000" stroke-dasharray="1,5" d="M438.2201,-349.1541C422.6729,-386.1691 395.9805,-432.1496 354.5,-452 321.6259,-467.7318 223.3741,-467.7318 190.5,-452 149.6138,-432.434 119.2263,-390.957 99.4643,-355.6169"/>
</g>
<!-- m_Game&#45;&gt;m_GameDeveloper -->
<g id="edge22" class="edge">
<title>m_Game&#45;&gt;m_GameDeveloper</title>
<path fill="none" stroke="#000000" d="M487.9614,-241.6945C503.8726,-215.6852 523.7775,-184.2708 543,-157 556.1156,-138.393 571.5081,-118.5243 584.9979,-101.6816"/>
<polygon fill="#000000" stroke="#000000" points="587.4599,-103.6467 590.6506,-94.661 582.5528,-99.6956 587.4599,-103.6467"/>
</g>
<!-- m_Game&#45;&gt;m_GameEngine -->
<g id="edge28" class="edge">
<title>m_Game&#45;&gt;m_GameEngine</title>
<path fill="none" stroke="#000000" d="M477.2138,-241.9476C491.5351,-212.5552 513.2851,-177.9302 543,-157 603.6544,-114.2772 638.1137,-150.9275 706,-121 718.7432,-115.3822 731.5287,-107.7399 743.1996,-99.7785"/>
<polygon fill="#000000" stroke="#000000" points="745.1381,-102.2665 750.6965,-94.5188 741.5197,-97.1092 745.1381,-102.2665"/>
</g>
<!-- m_GameGenre -->
<g id="node8" class="node">
<title>m_GameGenre</title>
<path fill="none" stroke="#000000" d="M905,-26.5C905,-26.5 1025,-26.5 1025,-26.5 1031,-26.5 1037,-32.5 1037,-38.5 1037,-38.5 1037,-82.5 1037,-82.5 1037,-88.5 1031,-94.5 1025,-94.5 1025,-94.5 905,-94.5 905,-94.5 899,-94.5 893,-88.5 893,-82.5 893,-82.5 893,-38.5 893,-38.5 893,-32.5 899,-26.5 905,-26.5"/>
<text text-anchor="start" x="932.7366" y="-81.2" font-family="Arial BoldMT" font-size="11.00" fill="#000000">GameGenre</text>
<polyline fill="none" stroke="#000000" points="893,-75.5 1037,-75.5 "/>
<text text-anchor="start" x="900" y="-62" font-family="ArialMT" font-size="10.00" fill="#000000">game_id </text>
<text text-anchor="start" x="941.1377" y="-62" font-family="Arial ItalicMT" font-size="10.00" fill="#999999">integer (8) ∗ FK</text>
<text text-anchor="start" x="900" y="-49" font-family="ArialMT" font-size="10.00" fill="#000000">genre_id </text>
<text text-anchor="start" x="941.6992" y="-49" font-family="Arial ItalicMT" font-size="10.00" fill="#999999">integer (8) ∗ FK</text>
<text text-anchor="start" x="900" y="-36" font-family="ArialMT" font-size="10.00" fill="#000000">id </text>
<text text-anchor="start" x="910.5615" y="-36" font-family="Arial ItalicMT" font-size="10.00" fill="#999999">integer (8) PK</text>
</g>
<!-- m_Game&#45;&gt;m_GameGenre -->
<g id="edge26" class="edge">
<title>m_Game&#45;&gt;m_GameGenre</title>
<path fill="none" stroke="#000000" d="M475.8894,-241.7375C489.9148,-211.6939 511.8121,-176.4809 543,-157 670.3805,-77.4345 738.4342,-173.8932 879,-121 892.4548,-115.9371 905.7697,-108.2641 917.7577,-100.0659"/>
<polygon fill="#000000" stroke="#000000" points="919.912,-102.3999 925.432,-94.6247 916.2682,-97.2605 919.912,-102.3999"/>
</g>
<!-- m_GamePlatform -->
<g id="node9" class="node">
<title>m_GamePlatform</title>
<path fill="none" stroke="#000000" d="M1078,-26.5C1078,-26.5 1198,-26.5 1198,-26.5 1204,-26.5 1210,-32.5 1210,-38.5 1210,-38.5 1210,-82.5 1210,-82.5 1210,-88.5 1204,-94.5 1198,-94.5 1198,-94.5 1078,-94.5 1078,-94.5 1072,-94.5 1066,-88.5 1066,-82.5 1066,-82.5 1066,-38.5 1066,-38.5 1066,-32.5 1072,-26.5 1078,-26.5"/>
<text text-anchor="start" x="1100.5454" y="-81.2" font-family="Arial BoldMT" font-size="11.00" fill="#000000">GamePlatform</text>
<polyline fill="none" stroke="#000000" points="1066,-75.5 1210,-75.5 "/>
<text text-anchor="start" x="1073" y="-62" font-family="ArialMT" font-size="10.00" fill="#000000">game_id </text>
<text text-anchor="start" x="1114.1377" y="-62" font-family="Arial ItalicMT" font-size="10.00" fill="#999999">integer (8) ∗ FK</text>
<text text-anchor="start" x="1073" y="-49" font-family="ArialMT" font-size="10.00" fill="#000000">id </text>
<text text-anchor="start" x="1083.5615" y="-49" font-family="Arial ItalicMT" font-size="10.00" fill="#999999">integer (8) PK</text>
<text text-anchor="start" x="1073" y="-36" font-family="ArialMT" font-size="10.00" fill="#000000">platform_id </text>
<text text-anchor="start" x="1125.2461" y="-36" font-family="Arial ItalicMT" font-size="10.00" fill="#999999">integer (8) ∗ FK</text>
</g>
<!-- m_Game&#45;&gt;m_GamePlatform -->
<g id="edge24" class="edge">
<title>m_Game&#45;&gt;m_GamePlatform</title>
<path fill="none" stroke="#000000" d="M475.4743,-241.6719C489.4032,-211.4062 511.3435,-175.9874 543,-157 640.243,-98.6741 945.1672,-159.0116 1052,-121 1065.8154,-116.0844 1079.4283,-108.2969 1091.6054,-99.9238"/>
<polygon fill="#000000" stroke="#000000" points="1093.4935,-102.4462 1098.9909,-94.655 1089.8348,-97.3175 1093.4935,-102.4462"/>
</g>
<!-- m_Game&#45;&gt;m_GamePublisher -->
<g id="edge23" class="edge">
<title>m_Game&#45;&gt;m_GamePublisher</title>
<path fill="none" stroke="#000000" d="M453.7183,-241.8808C451.9434,-200.1704 449.5119,-143.0299 447.8554,-104.1028"/>
<polygon fill="#000000" stroke="#000000" points="450.9817,-103.4769 447.4519,-94.619 444.6874,-103.7448 450.9817,-103.4769"/>
</g>
<!-- m_GamePurchase -->
<g id="node11" class="node">
<title>m_GamePurchase</title>
<path fill="none" stroke="#000000" d="M213,-.5C213,-.5 333,-.5 333,-.5 339,-.5 345,-6.5 345,-12.5 345,-12.5 345,-108.5 345,-108.5 345,-114.5 339,-120.5 333,-120.5 333,-120.5 213,-120.5 213,-120.5 207,-120.5 201,-114.5 201,-108.5 201,-108.5 201,-12.5 201,-12.5 201,-6.5 207,-.5 213,-.5"/>
<text text-anchor="start" x="232.7874" y="-107.2" font-family="Arial BoldMT" font-size="11.00" fill="#000000">GamePurchase</text>
<polyline fill="none" stroke="#000000" points="201,-101.5 345,-101.5 "/>
<text text-anchor="start" x="208" y="-88" font-family="ArialMT" font-size="10.00" fill="#000000">comments </text>
<text text-anchor="start" x="256.9014" y="-88" font-family="Arial ItalicMT" font-size="10.00" fill="#999999">text ∗</text>
<text text-anchor="start" x="208" y="-75" font-family="ArialMT" font-size="10.00" fill="#000000">completion_status </text>
<text text-anchor="start" x="291.3789" y="-75" font-family="Arial ItalicMT" font-size="10.00" fill="#999999">integer</text>
<text text-anchor="start" x="208" y="-62" font-family="ArialMT" font-size="10.00" fill="#000000">game_id </text>
<text text-anchor="start" x="249.1377" y="-62" font-family="Arial ItalicMT" font-size="10.00" fill="#999999">integer (8) ∗ FK</text>
<text text-anchor="start" x="208" y="-49" font-family="ArialMT" font-size="10.00" fill="#000000">id </text>
<text text-anchor="start" x="218.5615" y="-49" font-family="Arial ItalicMT" font-size="10.00" fill="#999999">integer (8) PK</text>
<text text-anchor="start" x="208" y="-36" font-family="ArialMT" font-size="10.00" fill="#000000">purchase_date </text>
<text text-anchor="start" x="276.9404" y="-36" font-family="Arial ItalicMT" font-size="10.00" fill="#999999">date</text>
<text text-anchor="start" x="208" y="-23" font-family="ArialMT" font-size="10.00" fill="#000000">rating </text>
<text text-anchor="start" x="235.793" y="-23" font-family="Arial ItalicMT" font-size="10.00" fill="#999999">integer</text>
<text text-anchor="start" x="208" y="-10" font-family="ArialMT" font-size="10.00" fill="#000000">user_id </text>
<text text-anchor="start" x="243.5762" y="-10" font-family="Arial ItalicMT" font-size="10.00" fill="#999999">integer (8) ∗ FK</text>
</g>
<!-- m_Game&#45;&gt;m_GamePurchase -->
<g id="edge21" class="edge">
<title>m_Game&#45;&gt;m_GamePurchase</title>
<path fill="none" stroke="#000000" d="M425.9899,-241.6812C410.3098,-215.2339 390.0321,-183.4473 369,-157 361.0526,-147.0063 352.1835,-136.9325 343.1358,-127.2575"/>
<polygon fill="#000000" stroke="#000000" points="345.3304,-124.9938 336.8527,-120.629 340.7581,-129.3279 345.3304,-124.9938"/>
</g>
<!-- m_Genre -->
<g id="node12" class="node">
<title>m_Genre</title>
<path fill="none" stroke="#000000" d="M915,-255C915,-255 1035,-255 1035,-255 1041,-255 1047,-261 1047,-267 1047,-267 1047,-324 1047,-324 1047,-330 1041,-336 1035,-336 1035,-336 915,-336 915,-336 909,-336 903,-330 903,-324 903,-324 903,-267 903,-267 903,-261 909,-255 915,-255"/>
<text text-anchor="start" x="957.7139" y="-322.7" font-family="Arial BoldMT" font-size="11.00" fill="#000000">Genre</text>
<polyline fill="none" stroke="#000000" points="903,-317 1047,-317 "/>
<text text-anchor="start" x="910" y="-304" font-family="ArialMT" font-size="10.00" fill="#000000">description </text>
<text text-anchor="start" x="961.1377" y="-304" font-family="Arial ItalicMT" font-size="10.00" fill="#999999">text ∗</text>
<text text-anchor="start" x="910" y="-291" font-family="ArialMT" font-size="10.00" fill="#000000">id </text>
<text text-anchor="start" x="920.5615" y="-291" font-family="Arial ItalicMT" font-size="10.00" fill="#999999">integer (8) PK</text>
<text text-anchor="start" x="910" y="-278" font-family="ArialMT" font-size="10.00" fill="#000000">name </text>
<text text-anchor="start" x="937.793" y="-278" font-family="Arial ItalicMT" font-size="10.00" fill="#999999">text ∗</text>
<text text-anchor="start" x="910" y="-265" font-family="ArialMT" font-size="10.00" fill="#000000">wikidata_id </text>
<text text-anchor="start" x="962.251" y="-265" font-family="Arial ItalicMT" font-size="10.00" fill="#999999">integer (8) U</text>
</g>
<!-- m_Game&#45;&gt;m_Genre -->
<g id="edge27" class="edge">
<title>m_Game&#45;&gt;m_Genre</title>
<path fill="none" stroke="#000000" stroke-dasharray="1,5" d="M473.7799,-349.1541C489.3271,-386.1691 516.0195,-432.1496 557.5,-452 589.2716,-467.2042 842.7284,-467.2042 874.5,-452 917.3743,-431.4826 944.1709,-382.8179 959.2038,-345.1585"/>
<polygon fill="#000000" stroke="#000000" points="962.307,-345.8646 962.5948,-336.3335 956.4262,-343.6049 962.307,-345.8646"/>
</g>
<!-- m_Game&#45;&gt;m_PgSearch::Document -->
<g id="edge3" class="edge">
<title>m_Game&#45;&gt;m_PgSearch::Document</title>
<path fill="none" stroke="#000000" d="M475.1921,-241.8156C489.0688,-211.3997 511.0527,-175.7757 543,-157 673.8429,-80.1025 1081.5656,-170.5951 1225,-121 1238.2846,-116.4066 1251.3581,-109.103 1263.1456,-101.1352"/>
</g>
<!-- m_Platform -->
<g id="node14" class="node">
<title>m_Platform</title>
<path fill="none" stroke="#000000" d="M1088,-255C1088,-255 1208,-255 1208,-255 1214,-255 1220,-261 1220,-267 1220,-267 1220,-324 1220,-324 1220,-330 1214,-336 1208,-336 1208,-336 1088,-336 1088,-336 1082,-336 1076,-330 1076,-324 1076,-324 1076,-267 1076,-267 1076,-261 1082,-255 1088,-255"/>
<text text-anchor="start" x="1125.5227" y="-322.7" font-family="Arial BoldMT" font-size="11.00" fill="#000000">Platform</text>
<polyline fill="none" stroke="#000000" points="1076,-317 1220,-317 "/>
<text text-anchor="start" x="1083" y="-304" font-family="ArialMT" font-size="10.00" fill="#000000">description </text>
<text text-anchor="start" x="1134.1377" y="-304" font-family="Arial ItalicMT" font-size="10.00" fill="#999999">text ∗</text>
<text text-anchor="start" x="1083" y="-291" font-family="ArialMT" font-size="10.00" fill="#000000">id </text>
<text text-anchor="start" x="1093.5615" y="-291" font-family="Arial ItalicMT" font-size="10.00" fill="#999999">integer (8) PK</text>
<text text-anchor="start" x="1083" y="-278" font-family="ArialMT" font-size="10.00" fill="#000000">name </text>
<text text-anchor="start" x="1110.793" y="-278" font-family="Arial ItalicMT" font-size="10.00" fill="#999999">text ∗</text>
<text text-anchor="start" x="1083" y="-265" font-family="ArialMT" font-size="10.00" fill="#000000">wikidata_id </text>
<text text-anchor="start" x="1135.251" y="-265" font-family="Arial ItalicMT" font-size="10.00" fill="#999999">integer (8) U</text>
</g>
<!-- m_Game&#45;&gt;m_Platform -->
<g id="edge25" class="edge">
<title>m_Game&#45;&gt;m_Platform</title>
<path fill="none" stroke="#000000" stroke-dasharray="1,5" d="M473.7799,-349.1541C489.3271,-386.1691 516.0195,-432.1496 557.5,-452 606.6107,-475.5018 998.3893,-475.5018 1047.5,-452 1090.3743,-431.4826 1117.1709,-382.8179 1132.2038,-345.1585"/>
<polygon fill="#000000" stroke="#000000" points="1135.307,-345.8646 1135.5948,-336.3335 1129.4262,-343.6049 1135.307,-345.8646"/>
</g>
<!-- m_Genre&#45;&gt;m_GameGenre -->
<g id="edge31" class="edge">
<title>m_Genre&#45;&gt;m_GameGenre</title>
<path fill="none" stroke="#000000" d="M973.2695,-254.8344C971.4728,-212.6109 968.673,-146.8151 966.8376,-103.6827"/>
<polygon fill="#000000" stroke="#000000" points="969.9798,-103.4303 966.4499,-94.5724 963.6855,-103.6982 969.9798,-103.4303"/>
</g>
<!-- m_Genre&#45;&gt;m_PgSearch::Document -->
<g id="edge4" class="edge">
<title>m_Genre&#45;&gt;m_PgSearch::Document</title>
<path fill="none" stroke="#000000" d="M990.1839,-254.9496C1004.093,-223.4228 1027.7582,-181.1187 1062,-157 1122.6544,-114.2772 1157.1137,-150.9275 1225,-121 1237.0268,-115.698 1249.0912,-108.5928 1260.2208,-101.118"/>
</g>
<!-- m_Platform&#45;&gt;m_GamePlatform -->
<g id="edge32" class="edge">
<title>m_Platform&#45;&gt;m_GamePlatform</title>
<path fill="none" stroke="#000000" d="M1146.2695,-254.8344C1144.4728,-212.6109 1141.673,-146.8151 1139.8376,-103.6827"/>
<polygon fill="#000000" stroke="#000000" points="1142.9798,-103.4303 1139.4499,-94.5724 1136.6855,-103.6982 1142.9798,-103.4303"/>
</g>
<!-- m_Platform&#45;&gt;m_PgSearch::Document -->
<g id="edge5" class="edge">
<title>m_Platform&#45;&gt;m_PgSearch::Document</title>
<path fill="none" stroke="#000000" d="M1176.2063,-254.8344C1206.0932,-211.7459 1253.0069,-144.1097 1282.8662,-101.061"/>
</g>
<!-- m_Series -->
<g id="node15" class="node">
<title>m_Series</title>
<path fill="none" stroke="#000000" d="M396,-470.5C396,-470.5 516,-470.5 516,-470.5 522,-470.5 528,-476.5 528,-482.5 528,-482.5 528,-526.5 528,-526.5 528,-532.5 522,-538.5 516,-538.5 516,-538.5 396,-538.5 396,-538.5 390,-538.5 384,-532.5 384,-526.5 384,-526.5 384,-482.5 384,-482.5 384,-476.5 390,-470.5 396,-470.5"/>
<text text-anchor="start" x="438.4104" y="-525.2" font-family="Arial BoldMT" font-size="11.00" fill="#000000">Series</text>
<polyline fill="none" stroke="#000000" points="384,-519.5 528,-519.5 "/>
<text text-anchor="start" x="391" y="-506" font-family="ArialMT" font-size="10.00" fill="#000000">id </text>
<text text-anchor="start" x="401.5615" y="-506" font-family="Arial ItalicMT" font-size="10.00" fill="#999999">integer (8) PK</text>
<text text-anchor="start" x="391" y="-493" font-family="ArialMT" font-size="10.00" fill="#000000">name </text>
<text text-anchor="start" x="418.793" y="-493" font-family="Arial ItalicMT" font-size="10.00" fill="#999999">text ∗</text>
<text text-anchor="start" x="391" y="-480" font-family="ArialMT" font-size="10.00" fill="#000000">wikidata_id </text>
<text text-anchor="start" x="443.251" y="-480" font-family="Arial ItalicMT" font-size="10.00" fill="#999999">integer (8) U</text>
</g>
<!-- m_Series&#45;&gt;m_Game -->
<g id="edge29" class="edge">
<title>m_Series&#45;&gt;m_Game</title>
<path fill="none" stroke="#000000" d="M456,-470.4554C456,-440.1717 456,-395.1118 456,-358.3059"/>
<polygon fill="#000000" stroke="#000000" points="459.1501,-358.1403 456,-349.1403 452.8501,-358.1403 459.1501,-358.1403"/>
</g>
<!-- m_Series&#45;&gt;m_PgSearch::Document -->
<g id="edge6" class="edge">
<title>m_Series&#45;&gt;m_PgSearch::Document</title>
<path fill="none" stroke="#000000" d="M528.2446,-502.8025C711.373,-497.8293 1182.9569,-480.5889 1235,-434 1330.4017,-348.5966 1325.0035,-178.9098 1316.6812,-101.1454"/>
</g>
<!-- m_User -->
<g id="node16" class="node">
<title>m_User</title>
<path fill="none" stroke="#000000" d="M203,-157.5C203,-157.5 343,-157.5 343,-157.5 349,-157.5 355,-163.5 355,-169.5 355,-169.5 355,-421.5 355,-421.5 355,-427.5 349,-433.5 343,-433.5 343,-433.5 203,-433.5 203,-433.5 197,-433.5 191,-427.5 191,-421.5 191,-421.5 191,-169.5 191,-169.5 191,-163.5 197,-157.5 203,-157.5"/>
<text text-anchor="start" x="259.3877" y="-420.2" font-family="Arial BoldMT" font-size="11.00" fill="#000000">User</text>
<polyline fill="none" stroke="#000000" points="191,-414.5 355,-414.5 "/>
<text text-anchor="start" x="198" y="-401" font-family="ArialMT" font-size="10.00" fill="#000000">bio </text>
<text text-anchor="start" x="214.123" y="-401" font-family="Arial ItalicMT" font-size="10.00" fill="#999999">text ∗</text>
<text text-anchor="start" x="198" y="-388" font-family="ArialMT" font-size="10.00" fill="#000000">confirmation_sent_at </text>
<text text-anchor="start" x="293.6104" y="-388" font-family="Arial ItalicMT" font-size="10.00" fill="#999999">datetime</text>
<text text-anchor="start" x="198" y="-375" font-family="ArialMT" font-size="10.00" fill="#000000">confirmation_token </text>
<text text-anchor="start" x="285.2705" y="-375" font-family="Arial ItalicMT" font-size="10.00" fill="#999999">string</text>
<text text-anchor="start" x="198" y="-362" font-family="ArialMT" font-size="10.00" fill="#000000">confirmed_at </text>
<text text-anchor="start" x="258.5859" y="-362" font-family="Arial ItalicMT" font-size="10.00" fill="#999999">datetime</text>
<text text-anchor="start" x="198" y="-349" font-family="ArialMT" font-size="10.00" fill="#000000">current_sign_in_at </text>
<text text-anchor="start" x="283.0537" y="-349" font-family="Arial ItalicMT" font-size="10.00" fill="#999999">datetime</text>
<text text-anchor="start" x="198" y="-336" font-family="ArialMT" font-size="10.00" fill="#000000">current_sign_in_ip </text>
<text text-anchor="start" x="282.4971" y="-336" font-family="Arial ItalicMT" font-size="10.00" fill="#999999">inet</text>
<text text-anchor="start" x="198" y="-323" font-family="ArialMT" font-size="10.00" fill="#000000">email </text>
<text text-anchor="start" x="224.6748" y="-323" font-family="Arial ItalicMT" font-size="10.00" fill="#999999">string ∗ U</text>
<text text-anchor="start" x="198" y="-310" font-family="ArialMT" font-size="10.00" fill="#000000">encrypted_password </text>
<text text-anchor="start" x="293.0537" y="-310" font-family="Arial ItalicMT" font-size="10.00" fill="#999999">string ∗</text>
<text text-anchor="start" x="198" y="-297" font-family="ArialMT" font-size="10.00" fill="#000000">id </text>
<text text-anchor="start" x="208.5615" y="-297" font-family="Arial ItalicMT" font-size="10.00" fill="#999999">integer (8) PK</text>
<text text-anchor="start" x="198" y="-284" font-family="ArialMT" font-size="10.00" fill="#000000">last_sign_in_at </text>
<text text-anchor="start" x="267.4922" y="-284" font-family="Arial ItalicMT" font-size="10.00" fill="#999999">datetime</text>
<text text-anchor="start" x="198" y="-271" font-family="ArialMT" font-size="10.00" fill="#000000">last_sign_in_ip </text>
<text text-anchor="start" x="266.9355" y="-271" font-family="Arial ItalicMT" font-size="10.00" fill="#999999">inet</text>
<text text-anchor="start" x="198" y="-258" font-family="ArialMT" font-size="10.00" fill="#000000">remember_created_at </text>
<text text-anchor="start" x="299.1621" y="-258" font-family="Arial ItalicMT" font-size="10.00" fill="#999999">datetime</text>
<text text-anchor="start" x="197.9561" y="-245" font-family="ArialMT" font-size="10.00" fill="#000000">reset_password_sent_at </text>
<text text-anchor="start" x="309.6895" y="-245" font-family="Arial ItalicMT" font-size="10.00" fill="#999999">datetime</text>
<text text-anchor="start" x="198" y="-232" font-family="ArialMT" font-size="10.00" fill="#000000">reset_password_token </text>
<text text-anchor="start" x="301.3936" y="-232" font-family="Arial ItalicMT" font-size="10.00" fill="#999999">string</text>
<text text-anchor="start" x="198" y="-219" font-family="ArialMT" font-size="10.00" fill="#000000">role </text>
<text text-anchor="start" x="217.4531" y="-219" font-family="Arial ItalicMT" font-size="10.00" fill="#999999">integer ∗</text>
<text text-anchor="start" x="198" y="-206" font-family="ArialMT" font-size="10.00" fill="#000000">sign_in_count </text>
<text text-anchor="start" x="262.4922" y="-206" font-family="Arial ItalicMT" font-size="10.00" fill="#999999">integer ∗</text>
<text text-anchor="start" x="198" y="-193" font-family="ArialMT" font-size="10.00" fill="#000000">slug </text>
<text text-anchor="start" x="219.123" y="-193" font-family="Arial ItalicMT" font-size="10.00" fill="#999999">string ∗ U</text>
<text text-anchor="start" x="198" y="-180" font-family="ArialMT" font-size="10.00" fill="#000000">unconfirmed_email </text>
<text text-anchor="start" x="285.2656" y="-180" font-family="Arial ItalicMT" font-size="10.00" fill="#999999">string</text>
<text text-anchor="start" x="198" y="-167" font-family="ArialMT" font-size="10.00" fill="#000000">username </text>
<text text-anchor="start" x="245.2461" y="-167" font-family="Arial ItalicMT" font-size="10.00" fill="#999999">text ∗ U</text>
</g>
<!-- m_User&#45;&gt;m_ActiveStorage::Attachment -->
<g id="edge9" class="edge">
<title>m_User&#45;&gt;m_ActiveStorage::Attachment</title>
<path fill="none" stroke="#000000" d="M190.8933,-177.3081C185.8928,-170.4089 180.9024,-163.5976 176,-157 163.9169,-140.7386 150.3358,-123.2572 138.0323,-107.7005"/>
</g>
<!-- m_User&#45;&gt;m_GamePurchase -->
<g id="edge12" class="edge">
<title>m_User&#45;&gt;m_GamePurchase</title>
<path fill="none" stroke="#000000" d="M273,-157.4403C273,-147.949 273,-138.6424 273,-129.7788"/>
<polygon fill="#000000" stroke="#000000" points="276.1501,-129.7131 273,-120.7132 269.8501,-129.7132 276.1501,-129.7131"/>
</g>
</g>
</svg>
