<?xml version="1.0" encoding="UTF-8" standalone="no"?>
<!DOCTYPE svg PUBLIC "-//W3C//DTD SVG 1.1//EN"
 "http://www.w3.org/Graphics/SVG/1.1/DTD/svg11.dtd">
<!-- Generated by graphviz version 2.40.1 (20161225.0304)
 -->
<!-- Title: GameTracker Pages: 1 -->
<svg width="1659pt" height="764pt"
 viewBox="0.00 0.00 1658.60 763.60" xmlns="http://www.w3.org/2000/svg" xmlns:xlink="http://www.w3.org/1999/xlink">
<g id="graph0" class="graph" transform="scale(1 1) rotate(0) translate(28.8 734.8)">
<title>GameTracker</title>
<polygon fill="#ffffff" stroke="transparent" points="-28.8,28.8 -28.8,-734.8 1629.8,-734.8 1629.8,28.8 -28.8,28.8"/>
<text text-anchor="middle" x="800.5" y="-691.6" font-family="Arial BoldMT" font-size="13.00" fill="#000000">VideoGameList Domain Model</text>
<!-- m_ActiveStorage::Attachment -->
<g id="node1" class="node">
<title>m_ActiveStorage::Attachment</title>
<path fill="none" stroke="#000000" d="M26,-131.5C26,-131.5 146,-131.5 146,-131.5 152,-131.5 158,-137.5 158,-143.5 158,-143.5 158,-213.5 158,-213.5 158,-219.5 152,-225.5 146,-225.5 146,-225.5 26,-225.5 26,-225.5 20,-225.5 14,-219.5 14,-213.5 14,-213.5 14,-143.5 14,-143.5 14,-137.5 20,-131.5 26,-131.5"/>
<text text-anchor="start" x="18.8835" y="-212.2" font-family="Arial BoldMT" font-size="11.00" fill="#000000">ActiveStorage::Attachment</text>
<polyline fill="none" stroke="#000000" points="14,-206.5 158,-206.5 "/>
<text text-anchor="start" x="21" y="-193" font-family="ArialMT" font-size="10.00" fill="#000000">blob_id </text>
<text text-anchor="start" x="56.0293" y="-193" font-family="Arial ItalicMT" font-size="10.00" fill="#999999">integer (8) ∗ FK</text>
<text text-anchor="start" x="21" y="-180" font-family="ArialMT" font-size="10.00" fill="#000000">id </text>
<text text-anchor="start" x="31.5615" y="-180" font-family="Arial ItalicMT" font-size="10.00" fill="#999999">integer (8) PK</text>
<text text-anchor="start" x="21" y="-167" font-family="ArialMT" font-size="10.00" fill="#000000">name </text>
<text text-anchor="start" x="48.793" y="-167" font-family="Arial ItalicMT" font-size="10.00" fill="#999999">string ∗</text>
<text text-anchor="start" x="21" y="-154" font-family="ArialMT" font-size="10.00" fill="#000000">record_id </text>
<text text-anchor="start" x="65.4678" y="-154" font-family="Arial ItalicMT" font-size="10.00" fill="#999999">integer (8) ∗ FK</text>
<text text-anchor="start" x="21" y="-141" font-family="ArialMT" font-size="10.00" fill="#000000">record_type </text>
<text text-anchor="start" x="76.5859" y="-141" font-family="Arial ItalicMT" font-size="10.00" fill="#999999">string ∗</text>
</g>
<!-- m_ActiveStorage::Blob -->
<g id="node2" class="node">
<title>m_ActiveStorage::Blob</title>
<path fill="none" stroke="#000000" d="M12,-366.5C12,-366.5 132,-366.5 132,-366.5 138,-366.5 144,-372.5 144,-378.5 144,-378.5 144,-474.5 144,-474.5 144,-480.5 138,-486.5 132,-486.5 132,-486.5 12,-486.5 12,-486.5 6,-486.5 0,-480.5 0,-474.5 0,-474.5 0,-378.5 0,-378.5 0,-372.5 6,-366.5 12,-366.5"/>
<text text-anchor="start" x="21.6951" y="-473.2" font-family="Arial BoldMT" font-size="11.00" fill="#000000">ActiveStorage::Blob</text>
<polyline fill="none" stroke="#000000" points="0,-467.5 144,-467.5 "/>
<text text-anchor="start" x="7" y="-454" font-family="ArialMT" font-size="10.00" fill="#000000">byte_size </text>
<text text-anchor="start" x="52.0244" y="-454" font-family="Arial ItalicMT" font-size="10.00" fill="#999999">integer (8) ∗</text>
<text text-anchor="start" x="7" y="-441" font-family="ArialMT" font-size="10.00" fill="#000000">checksum </text>
<text text-anchor="start" x="54.793" y="-441" font-family="Arial ItalicMT" font-size="10.00" fill="#999999">string ∗</text>
<text text-anchor="start" x="7" y="-428" font-family="ArialMT" font-size="10.00" fill="#000000">content_type </text>
<text text-anchor="start" x="67.0439" y="-428" font-family="Arial ItalicMT" font-size="10.00" fill="#999999">string</text>
<text text-anchor="start" x="7" y="-415" font-family="ArialMT" font-size="10.00" fill="#000000">filename </text>
<text text-anchor="start" x="47.5762" y="-415" font-family="Arial ItalicMT" font-size="10.00" fill="#999999">string ∗</text>
<text text-anchor="start" x="7" y="-402" font-family="ArialMT" font-size="10.00" fill="#000000">id </text>
<text text-anchor="start" x="17.5615" y="-402" font-family="Arial ItalicMT" font-size="10.00" fill="#999999">integer (8) PK</text>
<text text-anchor="start" x="7" y="-389" font-family="ArialMT" font-size="10.00" fill="#000000">key </text>
<text text-anchor="start" x="25.3398" y="-389" font-family="Arial ItalicMT" font-size="10.00" fill="#999999">string ∗</text>
<text text-anchor="start" x="7" y="-376" font-family="ArialMT" font-size="10.00" fill="#000000">metadata </text>
<text text-anchor="start" x="51.4727" y="-376" font-family="Arial ItalicMT" font-size="10.00" fill="#999999">text</text>
</g>
<!-- m_ActiveStorage::Blob&#45;&gt;m_ActiveStorage::Attachment -->
<g id="edge7" class="edge">
<title>m_ActiveStorage::Blob&#45;&gt;m_ActiveStorage::Attachment</title>
<path fill="none" stroke="#000000" d="M75.389,-366.4661C77.8329,-323.1738 81.0855,-265.5565 83.3425,-225.5753"/>
</g>
<!-- m_ActiveStorage::Blob&#45;&gt;m_ActiveStorage::Blob -->
<g id="edge11" class="edge">
<title>m_ActiveStorage::Blob&#45;&gt;m_ActiveStorage::Blob</title>
<path fill="none" stroke="#000000" stroke-dasharray="1,5" d="M144.1757,-464.6407C160.7932,-461.3542 173,-448.6406 173,-426.5 173,-404.3594 160.7932,-391.6458 144.1757,-388.3593"/>
</g>
<!-- m_Company -->
<g id="node3" class="node">
<title>m_Company</title>
<path fill="none" stroke="#000000" d="M718,-386C718,-386 838,-386 838,-386 844,-386 850,-392 850,-398 850,-398 850,-455 850,-455 850,-461 844,-467 838,-467 838,-467 718,-467 718,-467 712,-467 706,-461 706,-455 706,-455 706,-398 706,-398 706,-392 712,-386 718,-386"/>
<text text-anchor="start" x="752.4612" y="-453.7" font-family="Arial BoldMT" font-size="11.00" fill="#000000">Company</text>
<polyline fill="none" stroke="#000000" points="706,-448 850,-448 "/>
<text text-anchor="start" x="713" y="-435" font-family="ArialMT" font-size="10.00" fill="#000000">description </text>
<text text-anchor="start" x="764.1377" y="-435" font-family="Arial ItalicMT" font-size="10.00" fill="#999999">text ∗</text>
<text text-anchor="start" x="713" y="-422" font-family="ArialMT" font-size="10.00" fill="#000000">id </text>
<text text-anchor="start" x="723.5615" y="-422" font-family="Arial ItalicMT" font-size="10.00" fill="#999999">integer (8) PK</text>
<text text-anchor="start" x="713" y="-409" font-family="ArialMT" font-size="10.00" fill="#000000">name </text>
<text text-anchor="start" x="740.793" y="-409" font-family="Arial ItalicMT" font-size="10.00" fill="#999999">text ∗</text>
<text text-anchor="start" x="713" y="-396" font-family="ArialMT" font-size="10.00" fill="#000000">wikidata_id </text>
<text text-anchor="start" x="765.251" y="-396" font-family="Arial ItalicMT" font-size="10.00" fill="#999999">integer (8) U</text>
</g>
<!-- m_Game -->
<g id="node6" class="node">
<title>m_Game</title>
<path fill="none" stroke="#000000" d="M545,-366.5C545,-366.5 665,-366.5 665,-366.5 671,-366.5 677,-372.5 677,-378.5 677,-378.5 677,-474.5 677,-474.5 677,-480.5 671,-486.5 665,-486.5 665,-486.5 545,-486.5 545,-486.5 539,-486.5 533,-480.5 533,-474.5 533,-474.5 533,-378.5 533,-378.5 533,-372.5 539,-366.5 545,-366.5"/>
<text text-anchor="start" x="588.0227" y="-473.2" font-family="Arial BoldMT" font-size="11.00" fill="#000000">Game</text>
<polyline fill="none" stroke="#000000" points="533,-467.5 677,-467.5 "/>
<text text-anchor="start" x="540" y="-454" font-family="ArialMT" font-size="10.00" fill="#000000">description </text>
<text text-anchor="start" x="591.1377" y="-454" font-family="Arial ItalicMT" font-size="10.00" fill="#999999">text ∗</text>
<text text-anchor="start" x="540" y="-441" font-family="ArialMT" font-size="10.00" fill="#000000">id </text>
<text text-anchor="start" x="550.5615" y="-441" font-family="Arial ItalicMT" font-size="10.00" fill="#999999">integer (8) PK</text>
<text text-anchor="start" x="540" y="-428" font-family="ArialMT" font-size="10.00" fill="#000000">name </text>
<text text-anchor="start" x="567.793" y="-428" font-family="Arial ItalicMT" font-size="10.00" fill="#999999">text ∗</text>
<text text-anchor="start" x="540" y="-415" font-family="ArialMT" font-size="10.00" fill="#000000">pcgamingwiki_id </text>
<text text-anchor="start" x="616.1475" y="-415" font-family="Arial ItalicMT" font-size="10.00" fill="#999999">text U</text>
<text text-anchor="start" x="540" y="-402" font-family="ArialMT" font-size="10.00" fill="#000000">series_id </text>
<text text-anchor="start" x="582.7979" y="-402" font-family="Arial ItalicMT" font-size="10.00" fill="#999999">integer (8) FK</text>
<text text-anchor="start" x="540" y="-389" font-family="ArialMT" font-size="10.00" fill="#000000">steam_app_id </text>
<text text-anchor="start" x="605.6006" y="-389" font-family="Arial ItalicMT" font-size="10.00" fill="#999999">integer U</text>
<text text-anchor="start" x="540" y="-376" font-family="ArialMT" font-size="10.00" fill="#000000">wikidata_id </text>
<text text-anchor="start" x="592.251" y="-376" font-family="Arial ItalicMT" font-size="10.00" fill="#999999">integer (8) U</text>
</g>
<!-- m_GameDeveloper -->
<g id="node7" class="node">
<title>m_GameDeveloper</title>
<path fill="none" stroke="#000000" d="M545,-144.5C545,-144.5 665,-144.5 665,-144.5 671,-144.5 677,-150.5 677,-156.5 677,-156.5 677,-200.5 677,-200.5 677,-206.5 671,-212.5 665,-212.5 665,-212.5 545,-212.5 545,-212.5 539,-212.5 533,-206.5 533,-200.5 533,-200.5 533,-156.5 533,-156.5 533,-150.5 539,-144.5 545,-144.5"/>
<text text-anchor="start" x="562.9531" y="-199.2" font-family="Arial BoldMT" font-size="11.00" fill="#000000">GameDeveloper</text>
<polyline fill="none" stroke="#000000" points="533,-193.5 677,-193.5 "/>
<text text-anchor="start" x="540" y="-180" font-family="ArialMT" font-size="10.00" fill="#000000">company_id </text>
<text text-anchor="start" x="596.6992" y="-180" font-family="Arial ItalicMT" font-size="10.00" fill="#999999">integer (8) ∗ FK</text>
<text text-anchor="start" x="540" y="-167" font-family="ArialMT" font-size="10.00" fill="#000000">game_id </text>
<text text-anchor="start" x="581.1377" y="-167" font-family="Arial ItalicMT" font-size="10.00" fill="#999999">integer (8) ∗ FK</text>
<text text-anchor="start" x="540" y="-154" font-family="ArialMT" font-size="10.00" fill="#000000">id </text>
<text text-anchor="start" x="550.5615" y="-154" font-family="Arial ItalicMT" font-size="10.00" fill="#999999">integer (8) PK</text>
</g>
<!-- m_Company&#45;&gt;m_GameDeveloper -->
<g id="edge16" class="edge">
<title>m_Company&#45;&gt;m_GameDeveloper</title>
<path fill="none" stroke="#000000" d="M754.3628,-385.704C737.7222,-357.6868 714.4885,-319.9353 692,-288 675.6898,-264.8383 656.1757,-240.0444 639.7659,-219.9171"/>
<polygon fill="#000000" stroke="#000000" points="642.0131,-217.6895 633.8723,-212.7245 637.1401,-221.6825 642.0131,-217.6895"/>
</g>
<!-- m_GamePublisher -->
<g id="node11" class="node">
<title>m_GamePublisher</title>
<path fill="none" stroke="#000000" d="M718,-144.5C718,-144.5 838,-144.5 838,-144.5 844,-144.5 850,-150.5 850,-156.5 850,-156.5 850,-200.5 850,-200.5 850,-206.5 844,-212.5 838,-212.5 838,-212.5 718,-212.5 718,-212.5 712,-212.5 706,-206.5 706,-200.5 706,-200.5 706,-156.5 706,-156.5 706,-150.5 712,-144.5 718,-144.5"/>
<text text-anchor="start" x="738.0935" y="-199.2" font-family="Arial BoldMT" font-size="11.00" fill="#000000">GamePublisher</text>
<polyline fill="none" stroke="#000000" points="706,-193.5 850,-193.5 "/>
<text text-anchor="start" x="713" y="-180" font-family="ArialMT" font-size="10.00" fill="#000000">company_id </text>
<text text-anchor="start" x="769.6992" y="-180" font-family="Arial ItalicMT" font-size="10.00" fill="#999999">integer (8) ∗ FK</text>
<text text-anchor="start" x="713" y="-167" font-family="ArialMT" font-size="10.00" fill="#000000">game_id </text>
<text text-anchor="start" x="754.1377" y="-167" font-family="Arial ItalicMT" font-size="10.00" fill="#999999">integer (8) ∗ FK</text>
<text text-anchor="start" x="713" y="-154" font-family="ArialMT" font-size="10.00" fill="#000000">id </text>
<text text-anchor="start" x="723.5615" y="-154" font-family="Arial ItalicMT" font-size="10.00" fill="#999999">integer (8) PK</text>
</g>
<!-- m_Company&#45;&gt;m_GamePublisher -->
<g id="edge18" class="edge">
<title>m_Company&#45;&gt;m_GamePublisher</title>
<path fill="none" stroke="#000000" d="M778,-385.8255C778,-340.7013 778,-268.1768 778,-221.9605"/>
<polygon fill="#000000" stroke="#000000" points="781.1501,-221.8007 778,-212.8007 774.8501,-221.8007 781.1501,-221.8007"/>
</g>
<!-- m_PgSearch::Document -->
<g id="node15" class="node">
<title>m_PgSearch::Document</title>
<path fill="none" stroke="#000000" d="M1469,-138C1469,-138 1589,-138 1589,-138 1595,-138 1601,-144 1601,-150 1601,-150 1601,-207 1601,-207 1601,-213 1595,-219 1589,-219 1589,-219 1469,-219 1469,-219 1463,-219 1457,-213 1457,-207 1457,-207 1457,-150 1457,-150 1457,-144 1463,-138 1469,-138"/>
<text text-anchor="start" x="1474.7231" y="-205.7" font-family="Arial BoldMT" font-size="11.00" fill="#000000">PgSearch::Document</text>
<polyline fill="none" stroke="#000000" points="1457,-200 1601,-200 "/>
<text text-anchor="start" x="1464" y="-187" font-family="ArialMT" font-size="10.00" fill="#000000">content </text>
<text text-anchor="start" x="1499.5811" y="-187" font-family="Arial ItalicMT" font-size="10.00" fill="#999999">text</text>
<text text-anchor="start" x="1464" y="-174" font-family="ArialMT" font-size="10.00" fill="#000000">id </text>
<text text-anchor="start" x="1474.5615" y="-174" font-family="Arial ItalicMT" font-size="10.00" fill="#999999">integer (8) PK</text>
<text text-anchor="start" x="1464" y="-161" font-family="ArialMT" font-size="10.00" fill="#000000">searchable_id </text>
<text text-anchor="start" x="1529.0439" y="-161" font-family="Arial ItalicMT" font-size="10.00" fill="#999999">integer (8) FK</text>
<text text-anchor="start" x="1464" y="-148" font-family="ArialMT" font-size="10.00" fill="#000000">searchable_type </text>
<text text-anchor="start" x="1540.1621" y="-148" font-family="Arial ItalicMT" font-size="10.00" fill="#999999">string</text>
</g>
<!-- m_Company&#45;&gt;m_PgSearch::Document -->
<g id="edge1" class="edge">
<title>m_Company&#45;&gt;m_PgSearch::Document</title>
<path fill="none" stroke="#000000" d="M791.7337,-385.858C805.0273,-353.381 828.5802,-309.8108 865,-288 964.1844,-228.6011 1272.5534,-282.748 1384,-252 1410.9345,-244.5688 1438.7218,-231.8932 1462.6742,-219.1407"/>
</g>
<!-- m_Engine -->
<g id="node4" class="node">
<title>m_Engine</title>
<path fill="none" stroke="#000000" d="M1064,-392.5C1064,-392.5 1184,-392.5 1184,-392.5 1190,-392.5 1196,-398.5 1196,-404.5 1196,-404.5 1196,-448.5 1196,-448.5 1196,-454.5 1190,-460.5 1184,-460.5 1184,-460.5 1064,-460.5 1064,-460.5 1058,-460.5 1052,-454.5 1052,-448.5 1052,-448.5 1052,-404.5 1052,-404.5 1052,-398.5 1058,-392.5 1064,-392.5"/>
<text text-anchor="start" x="1104.8743" y="-447.2" font-family="Arial BoldMT" font-size="11.00" fill="#000000">Engine</text>
<polyline fill="none" stroke="#000000" points="1052,-441.5 1196,-441.5 "/>
<text text-anchor="start" x="1059" y="-428" font-family="ArialMT" font-size="10.00" fill="#000000">id </text>
<text text-anchor="start" x="1069.5615" y="-428" font-family="Arial ItalicMT" font-size="10.00" fill="#999999">integer (8) PK</text>
<text text-anchor="start" x="1059" y="-415" font-family="ArialMT" font-size="10.00" fill="#000000">name </text>
<text text-anchor="start" x="1086.793" y="-415" font-family="Arial ItalicMT" font-size="10.00" fill="#999999">text ∗</text>
<text text-anchor="start" x="1059" y="-402" font-family="ArialMT" font-size="10.00" fill="#000000">wikidata_id </text>
<text text-anchor="start" x="1111.251" y="-402" font-family="Arial ItalicMT" font-size="10.00" fill="#999999">integer (8) U</text>
</g>
<!-- m_Engine&#45;&gt;m_Game -->
<g id="edge21" class="edge">
<title>m_Engine&#45;&gt;m_Game</title>
<path fill="none" stroke="#000000" stroke-dasharray="1,5" d="M1114.0041,-460.6198C1100.5895,-499.1442 1072.5785,-559.5136 1023.5,-583 991.7284,-598.2042 738.2716,-598.2042 706.5,-583 670.5492,-565.7958 645.7065,-528.9639 629.6004,-495.3521"/>
<polygon fill="#000000" stroke="#000000" points="632.3257,-493.7401 625.6924,-486.89 626.6061,-496.3815 632.3257,-493.7401"/>
</g>
<!-- m_GameEngine -->
<g id="node8" class="node">
<title>m_GameEngine</title>
<path fill="none" stroke="#000000" d="M1064,-144.5C1064,-144.5 1184,-144.5 1184,-144.5 1190,-144.5 1196,-150.5 1196,-156.5 1196,-156.5 1196,-200.5 1196,-200.5 1196,-206.5 1190,-212.5 1184,-212.5 1184,-212.5 1064,-212.5 1064,-212.5 1058,-212.5 1052,-206.5 1052,-200.5 1052,-200.5 1052,-156.5 1052,-156.5 1052,-150.5 1058,-144.5 1064,-144.5"/>
<text text-anchor="start" x="1089.897" y="-199.2" font-family="Arial BoldMT" font-size="11.00" fill="#000000">GameEngine</text>
<polyline fill="none" stroke="#000000" points="1052,-193.5 1196,-193.5 "/>
<text text-anchor="start" x="1059" y="-180" font-family="ArialMT" font-size="10.00" fill="#000000">engine_id </text>
<text text-anchor="start" x="1105.1523" y="-180" font-family="Arial ItalicMT" font-size="10.00" fill="#999999">integer (8) ∗ FK</text>
<text text-anchor="start" x="1059" y="-167" font-family="ArialMT" font-size="10.00" fill="#000000">game_id </text>
<text text-anchor="start" x="1100.1377" y="-167" font-family="Arial ItalicMT" font-size="10.00" fill="#999999">integer (8) ∗ FK</text>
<text text-anchor="start" x="1059" y="-154" font-family="ArialMT" font-size="10.00" fill="#000000">id </text>
<text text-anchor="start" x="1069.5615" y="-154" font-family="Arial ItalicMT" font-size="10.00" fill="#999999">integer (8) PK</text>
</g>
<!-- m_Engine&#45;&gt;m_GameEngine -->
<g id="edge20" class="edge">
<title>m_Engine&#45;&gt;m_GameEngine</title>
<path fill="none" stroke="#000000" d="M1124,-392.277C1124,-347.9294 1124,-270.5611 1124,-222.0655"/>
<polygon fill="#000000" stroke="#000000" points="1127.1501,-221.7697 1124,-212.7697 1120.8501,-221.7697 1127.1501,-221.7697"/>
</g>
<!-- m_Engine&#45;&gt;m_PgSearch::Document -->
<g id="edge2" class="edge">
<title>m_Engine&#45;&gt;m_PgSearch::Document</title>
<path fill="none" stroke="#000000" d="M1135.914,-392.3421C1149.0612,-360.0124 1173.4683,-312.8393 1211,-288 1295.0858,-232.3503 1342.5836,-292.3302 1435,-252 1453.4172,-243.9628 1471.3732,-231.4639 1486.5733,-219.0383"/>
</g>
<!-- m_Favorite -->
<g id="node5" class="node">
<title>m_Favorite</title>
<path fill="none" stroke="#000000" d="M199,-138C199,-138 319,-138 319,-138 325,-138 331,-144 331,-150 331,-150 331,-207 331,-207 331,-213 325,-219 319,-219 319,-219 199,-219 199,-219 193,-219 187,-213 187,-207 187,-207 187,-150 187,-150 187,-144 193,-138 199,-138"/>
<text text-anchor="start" x="237.1323" y="-205.7" font-family="Arial BoldMT" font-size="11.00" fill="#000000">Favorite</text>
<polyline fill="none" stroke="#000000" points="187,-200 331,-200 "/>
<text text-anchor="start" x="194" y="-187" font-family="ArialMT" font-size="10.00" fill="#000000">favoritable_id </text>
<text text-anchor="start" x="256.2607" y="-187" font-family="Arial ItalicMT" font-size="10.00" fill="#999999">integer (8) FK</text>
<text text-anchor="start" x="194" y="-174" font-family="ArialMT" font-size="10.00" fill="#000000">favoritable_type </text>
<text text-anchor="start" x="267.3789" y="-174" font-family="Arial ItalicMT" font-size="10.00" fill="#999999">string</text>
<text text-anchor="start" x="194" y="-161" font-family="ArialMT" font-size="10.00" fill="#000000">id </text>
<text text-anchor="start" x="204.5615" y="-161" font-family="Arial ItalicMT" font-size="10.00" fill="#999999">integer (8) PK</text>
<text text-anchor="start" x="194" y="-148" font-family="ArialMT" font-size="10.00" fill="#000000">user_id </text>
<text text-anchor="start" x="229.5762" y="-148" font-family="Arial ItalicMT" font-size="10.00" fill="#999999">integer (8) FK</text>
</g>
<!-- m_Game&#45;&gt;m_ActiveStorage::Attachment -->
<g id="edge8" class="edge">
<title>m_Game&#45;&gt;m_ActiveStorage::Attachment</title>
<path fill="none" stroke="#000000" d="M532.9603,-374.9875C488.0872,-345.2575 428.0325,-309.5927 370,-288 286.1719,-256.8094 252.7888,-290.3819 172,-252 157.9852,-245.3417 144.4304,-235.7935 132.3863,-225.7729"/>
</g>
<!-- m_Game&#45;&gt;m_ActiveStorage::Blob -->
<g id="edge32" class="edge">
<title>m_Game&#45;&gt;m_ActiveStorage::Blob</title>
<path fill="none" stroke="#000000" stroke-dasharray="1,5" d="M533.614,-486.546C486.3761,-522.2233 421.2237,-564.0931 355.5,-583 320.2624,-593.1369 223.5746,-598.8277 190.5,-583 149.6138,-563.434 119.2263,-521.957 99.4643,-486.6169"/>
</g>
<!-- m_Game&#45;&gt;m_Favorite -->
<g id="edge22" class="edge">
<title>m_Game&#45;&gt;m_Favorite</title>
<path fill="none" stroke="#000000" d="M532.9227,-380.9435C480.1356,-346.8624 407.3137,-298.3392 346,-252 334.8716,-243.5895 323.2698,-234.2327 312.3005,-225.09"/>
<polygon fill="#000000" stroke="#000000" points="314.1133,-222.499 305.1948,-219.1249 310.0626,-227.3242 314.1133,-222.499"/>
</g>
<!-- m_Game&#45;&gt;m_GameDeveloper -->
<g id="edge24" class="edge">
<title>m_Game&#45;&gt;m_GameDeveloper</title>
<path fill="none" stroke="#000000" d="M605,-366.4661C605,-321.8746 605,-262.0856 605,-222.0246"/>
<polygon fill="#000000" stroke="#000000" points="608.1501,-221.788 605,-212.788 601.8501,-221.788 608.1501,-221.788"/>
</g>
<!-- m_Game&#45;&gt;m_GameEngine -->
<g id="edge30" class="edge">
<title>m_Game&#45;&gt;m_GameEngine</title>
<path fill="none" stroke="#000000" d="M627.9049,-366.3683C641.9739,-337.8283 662.9518,-306.0825 692,-288 823.2544,-206.2939 895.9258,-312.9796 1038,-252 1055.8368,-244.3443 1072.7187,-231.6456 1086.7247,-218.9386"/>
<polygon fill="#000000" stroke="#000000" points="1088.9462,-221.1738 1093.361,-212.722 1084.6392,-216.576 1088.9462,-221.1738"/>
</g>
<!-- m_GameGenre -->
<g id="node9" class="node">
<title>m_GameGenre</title>
<path fill="none" stroke="#000000" d="M1237,-144.5C1237,-144.5 1357,-144.5 1357,-144.5 1363,-144.5 1369,-150.5 1369,-156.5 1369,-156.5 1369,-200.5 1369,-200.5 1369,-206.5 1363,-212.5 1357,-212.5 1357,-212.5 1237,-212.5 1237,-212.5 1231,-212.5 1225,-206.5 1225,-200.5 1225,-200.5 1225,-156.5 1225,-156.5 1225,-150.5 1231,-144.5 1237,-144.5"/>
<text text-anchor="start" x="1264.7366" y="-199.2" font-family="Arial BoldMT" font-size="11.00" fill="#000000">GameGenre</text>
<polyline fill="none" stroke="#000000" points="1225,-193.5 1369,-193.5 "/>
<text text-anchor="start" x="1232" y="-180" font-family="ArialMT" font-size="10.00" fill="#000000">game_id </text>
<text text-anchor="start" x="1273.1377" y="-180" font-family="Arial ItalicMT" font-size="10.00" fill="#999999">integer (8) ∗ FK</text>
<text text-anchor="start" x="1232" y="-167" font-family="ArialMT" font-size="10.00" fill="#000000">genre_id </text>
<text text-anchor="start" x="1273.6992" y="-167" font-family="Arial ItalicMT" font-size="10.00" fill="#999999">integer (8) ∗ FK</text>
<text text-anchor="start" x="1232" y="-154" font-family="ArialMT" font-size="10.00" fill="#000000">id </text>
<text text-anchor="start" x="1242.5615" y="-154" font-family="Arial ItalicMT" font-size="10.00" fill="#999999">integer (8) PK</text>
</g>
<!-- m_Game&#45;&gt;m_GameGenre -->
<g id="edge28" class="edge">
<title>m_Game&#45;&gt;m_GameGenre</title>
<path fill="none" stroke="#000000" d="M627.473,-366.3024C641.475,-337.5598 662.5231,-305.6529 692,-288 791.1844,-228.6011 1103.9928,-295.7634 1211,-252 1229.1221,-244.5885 1246.1713,-231.8039 1260.2351,-218.9547"/>
<polygon fill="#000000" stroke="#000000" points="1262.5131,-221.1359 1266.891,-212.6649 1258.1861,-216.557 1262.5131,-221.1359"/>
</g>
<!-- m_GamePlatform -->
<g id="node10" class="node">
<title>m_GamePlatform</title>
<path fill="none" stroke="#000000" d="M891,-144.5C891,-144.5 1011,-144.5 1011,-144.5 1017,-144.5 1023,-150.5 1023,-156.5 1023,-156.5 1023,-200.5 1023,-200.5 1023,-206.5 1017,-212.5 1011,-212.5 1011,-212.5 891,-212.5 891,-212.5 885,-212.5 879,-206.5 879,-200.5 879,-200.5 879,-156.5 879,-156.5 879,-150.5 885,-144.5 891,-144.5"/>
<text text-anchor="start" x="913.5454" y="-199.2" font-family="Arial BoldMT" font-size="11.00" fill="#000000">GamePlatform</text>
<polyline fill="none" stroke="#000000" points="879,-193.5 1023,-193.5 "/>
<text text-anchor="start" x="886" y="-180" font-family="ArialMT" font-size="10.00" fill="#000000">game_id </text>
<text text-anchor="start" x="927.1377" y="-180" font-family="Arial ItalicMT" font-size="10.00" fill="#999999">integer (8) ∗ FK</text>
<text text-anchor="start" x="886" y="-167" font-family="ArialMT" font-size="10.00" fill="#000000">id </text>
<text text-anchor="start" x="896.5615" y="-167" font-family="Arial ItalicMT" font-size="10.00" fill="#999999">integer (8) PK</text>
<text text-anchor="start" x="886" y="-154" font-family="ArialMT" font-size="10.00" fill="#000000">platform_id </text>
<text text-anchor="start" x="938.2461" y="-154" font-family="Arial ItalicMT" font-size="10.00" fill="#999999">integer (8) ∗ FK</text>
</g>
<!-- m_Game&#45;&gt;m_GamePlatform -->
<g id="edge26" class="edge">
<title>m_Game&#45;&gt;m_GamePlatform</title>
<path fill="none" stroke="#000000" d="M629.4236,-366.1789C643.681,-338.3102 664.3727,-307.2085 692,-288 756.4821,-243.1674 794.4948,-286.5966 865,-252 881.9668,-243.6745 898.3294,-231.223 912.1447,-218.9237"/>
<polygon fill="#000000" stroke="#000000" points="914.6176,-220.9304 919.1268,-212.5285 910.3624,-216.2846 914.6176,-220.9304"/>
</g>
<!-- m_Game&#45;&gt;m_GamePublisher -->
<g id="edge25" class="edge">
<title>m_Game&#45;&gt;m_GamePublisher</title>
<path fill="none" stroke="#000000" d="M640.9134,-366.2968C656.1063,-341.6463 674.3485,-313.0778 692,-288 708.233,-264.9374 727.5325,-240.1524 743.7317,-220.0052"/>
<polygon fill="#000000" stroke="#000000" points="746.3434,-221.7849 749.5481,-212.8041 741.4424,-217.8262 746.3434,-221.7849"/>
</g>
<!-- m_GamePurchase -->
<g id="node12" class="node">
<title>m_GamePurchase</title>
<path fill="none" stroke="#000000" d="M372,-105.5C372,-105.5 492,-105.5 492,-105.5 498,-105.5 504,-111.5 504,-117.5 504,-117.5 504,-239.5 504,-239.5 504,-245.5 498,-251.5 492,-251.5 492,-251.5 372,-251.5 372,-251.5 366,-251.5 360,-245.5 360,-239.5 360,-239.5 360,-117.5 360,-117.5 360,-111.5 366,-105.5 372,-105.5"/>
<text text-anchor="start" x="391.7874" y="-238.2" font-family="Arial BoldMT" font-size="11.00" fill="#000000">GamePurchase</text>
<polyline fill="none" stroke="#000000" points="360,-232.5 504,-232.5 "/>
<text text-anchor="start" x="367" y="-219" font-family="ArialMT" font-size="10.00" fill="#000000">comments </text>
<text text-anchor="start" x="415.9014" y="-219" font-family="Arial ItalicMT" font-size="10.00" fill="#999999">text ∗</text>
<text text-anchor="start" x="367" y="-206" font-family="ArialMT" font-size="10.00" fill="#000000">completion_date </text>
<text text-anchor="start" x="443.1621" y="-206" font-family="Arial ItalicMT" font-size="10.00" fill="#999999">date</text>
<text text-anchor="start" x="367" y="-193" font-family="ArialMT" font-size="10.00" fill="#000000">completion_status </text>
<text text-anchor="start" x="450.3789" y="-193" font-family="Arial ItalicMT" font-size="10.00" fill="#999999">integer</text>
<text text-anchor="start" x="367" y="-180" font-family="ArialMT" font-size="10.00" fill="#000000">game_id </text>
<text text-anchor="start" x="408.1377" y="-180" font-family="Arial ItalicMT" font-size="10.00" fill="#999999">integer (8) ∗ FK</text>
<text text-anchor="start" x="367" y="-167" font-family="ArialMT" font-size="10.00" fill="#000000">hours_played </text>
<text text-anchor="start" x="429.8223" y="-167" font-family="Arial ItalicMT" font-size="10.00" fill="#999999">decimal (10,1)</text>
<text text-anchor="start" x="367" y="-154" font-family="ArialMT" font-size="10.00" fill="#000000">id </text>
<text text-anchor="start" x="377.5615" y="-154" font-family="Arial ItalicMT" font-size="10.00" fill="#999999">integer (8) PK</text>
<text text-anchor="start" x="367" y="-141" font-family="ArialMT" font-size="10.00" fill="#000000">rating </text>
<text text-anchor="start" x="394.793" y="-141" font-family="Arial ItalicMT" font-size="10.00" fill="#999999">integer</text>
<text text-anchor="start" x="367" y="-128" font-family="ArialMT" font-size="10.00" fill="#000000">start_date </text>
<text text-anchor="start" x="414.251" y="-128" font-family="Arial ItalicMT" font-size="10.00" fill="#999999">date</text>
<text text-anchor="start" x="367" y="-115" font-family="ArialMT" font-size="10.00" fill="#000000">user_id </text>
<text text-anchor="start" x="402.5762" y="-115" font-family="Arial ItalicMT" font-size="10.00" fill="#999999">integer (8) ∗ FK</text>
</g>
<!-- m_Game&#45;&gt;m_GamePurchase -->
<g id="edge23" class="edge">
<title>m_Game&#45;&gt;m_GamePurchase</title>
<path fill="none" stroke="#000000" d="M563.1215,-366.4661C540.7161,-334.3474 512.8105,-294.344 488.5092,-259.5073"/>
<polygon fill="#000000" stroke="#000000" points="490.7939,-257.2768 483.0612,-251.6975 485.6269,-260.8813 490.7939,-257.2768"/>
</g>
<!-- m_Genre -->
<g id="node14" class="node">
<title>m_Genre</title>
<path fill="none" stroke="#000000" d="M1237,-386C1237,-386 1357,-386 1357,-386 1363,-386 1369,-392 1369,-398 1369,-398 1369,-455 1369,-455 1369,-461 1363,-467 1357,-467 1357,-467 1237,-467 1237,-467 1231,-467 1225,-461 1225,-455 1225,-455 1225,-398 1225,-398 1225,-392 1231,-386 1237,-386"/>
<text text-anchor="start" x="1279.7139" y="-453.7" font-family="Arial BoldMT" font-size="11.00" fill="#000000">Genre</text>
<polyline fill="none" stroke="#000000" points="1225,-448 1369,-448 "/>
<text text-anchor="start" x="1232" y="-435" font-family="ArialMT" font-size="10.00" fill="#000000">description </text>
<text text-anchor="start" x="1283.1377" y="-435" font-family="Arial ItalicMT" font-size="10.00" fill="#999999">text ∗</text>
<text text-anchor="start" x="1232" y="-422" font-family="ArialMT" font-size="10.00" fill="#000000">id </text>
<text text-anchor="start" x="1242.5615" y="-422" font-family="Arial ItalicMT" font-size="10.00" fill="#999999">integer (8) PK</text>
<text text-anchor="start" x="1232" y="-409" font-family="ArialMT" font-size="10.00" fill="#000000">name </text>
<text text-anchor="start" x="1259.793" y="-409" font-family="Arial ItalicMT" font-size="10.00" fill="#999999">text ∗</text>
<text text-anchor="start" x="1232" y="-396" font-family="ArialMT" font-size="10.00" fill="#000000">wikidata_id </text>
<text text-anchor="start" x="1284.251" y="-396" font-family="Arial ItalicMT" font-size="10.00" fill="#999999">integer (8) U</text>
</g>
<!-- m_Game&#45;&gt;m_Genre -->
<g id="edge29" class="edge">
<title>m_Game&#45;&gt;m_Genre</title>
<path fill="none" stroke="#000000" stroke-dasharray="1,5" d="M625.6924,-486.89C641.5757,-522.5802 667.5025,-564.3379 706.5,-583 755.6107,-606.5018 1147.3893,-606.5018 1196.5,-583 1239.3743,-562.4826 1266.1709,-513.8179 1281.2038,-476.1585"/>
<polygon fill="#000000" stroke="#000000" points="1284.307,-476.8646 1284.5948,-467.3335 1278.4262,-474.6049 1284.307,-476.8646"/>
</g>
<!-- m_Game&#45;&gt;m_PgSearch::Document -->
<g id="edge3" class="edge">
<title>m_Game&#45;&gt;m_PgSearch::Document</title>
<path fill="none" stroke="#000000" d="M627.1739,-366.4462C641.1414,-337.5543 662.2493,-305.4695 692,-288 824.7858,-210.0286 1235.212,-291.6705 1384,-252 1411.2704,-244.7291 1439.361,-231.9233 1463.4699,-219.0163"/>
</g>
<!-- m_Platform -->
<g id="node16" class="node">
<title>m_Platform</title>
<path fill="none" stroke="#000000" d="M891,-386C891,-386 1011,-386 1011,-386 1017,-386 1023,-392 1023,-398 1023,-398 1023,-455 1023,-455 1023,-461 1017,-467 1011,-467 1011,-467 891,-467 891,-467 885,-467 879,-461 879,-455 879,-455 879,-398 879,-398 879,-392 885,-386 891,-386"/>
<text text-anchor="start" x="928.5227" y="-453.7" font-family="Arial BoldMT" font-size="11.00" fill="#000000">Platform</text>
<polyline fill="none" stroke="#000000" points="879,-448 1023,-448 "/>
<text text-anchor="start" x="886" y="-435" font-family="ArialMT" font-size="10.00" fill="#000000">description </text>
<text text-anchor="start" x="937.1377" y="-435" font-family="Arial ItalicMT" font-size="10.00" fill="#999999">text ∗</text>
<text text-anchor="start" x="886" y="-422" font-family="ArialMT" font-size="10.00" fill="#000000">id </text>
<text text-anchor="start" x="896.5615" y="-422" font-family="Arial ItalicMT" font-size="10.00" fill="#999999">integer (8) PK</text>
<text text-anchor="start" x="886" y="-409" font-family="ArialMT" font-size="10.00" fill="#000000">name </text>
<text text-anchor="start" x="913.793" y="-409" font-family="Arial ItalicMT" font-size="10.00" fill="#999999">text ∗</text>
<text text-anchor="start" x="886" y="-396" font-family="ArialMT" font-size="10.00" fill="#000000">wikidata_id </text>
<text text-anchor="start" x="938.251" y="-396" font-family="Arial ItalicMT" font-size="10.00" fill="#999999">integer (8) U</text>
</g>
<!-- m_Game&#45;&gt;m_Platform -->
<g id="edge27" class="edge">
<title>m_Game&#45;&gt;m_Platform</title>
<path fill="none" stroke="#000000" stroke-dasharray="1,5" d="M625.6924,-486.89C641.5757,-522.5802 667.5025,-564.3379 706.5,-583 735.3651,-596.8133 821.6349,-596.8133 850.5,-583 893.3743,-562.4826 920.1709,-513.8179 935.2038,-476.1585"/>
<polygon fill="#000000" stroke="#000000" points="938.307,-476.8646 938.5948,-467.3335 932.4262,-474.6049 938.307,-476.8646"/>
</g>
<!-- m_GamePurchasePlatform -->
<g id="node13" class="node">
<title>m_GamePurchasePlatform</title>
<path fill="none" stroke="#000000" d="M360,-.5C360,-.5 504,-.5 504,-.5 510,-.5 516,-6.5 516,-12.5 516,-12.5 516,-56.5 516,-56.5 516,-62.5 510,-68.5 504,-68.5 504,-68.5 360,-68.5 360,-68.5 354,-68.5 348,-62.5 348,-56.5 348,-56.5 348,-12.5 348,-12.5 348,-6.5 354,-.5 360,-.5"/>
<text text-anchor="start" x="371.3101" y="-55.2" font-family="Arial BoldMT" font-size="11.00" fill="#000000">GamePurchasePlatform</text>
<polyline fill="none" stroke="#000000" points="348,-49.5 516,-49.5 "/>
<text text-anchor="start" x="354.5488" y="-36" font-family="ArialMT" font-size="10.00" fill="#000000">game_purchase_id </text>
<text text-anchor="start" x="442.3857" y="-36" font-family="Arial ItalicMT" font-size="10.00" fill="#999999">integer (8) ∗ FK</text>
<text text-anchor="start" x="355" y="-23" font-family="ArialMT" font-size="10.00" fill="#000000">id </text>
<text text-anchor="start" x="365.5615" y="-23" font-family="Arial ItalicMT" font-size="10.00" fill="#999999">integer (8) PK</text>
<text text-anchor="start" x="355" y="-10" font-family="ArialMT" font-size="10.00" fill="#000000">platform_id </text>
<text text-anchor="start" x="407.2461" y="-10" font-family="Arial ItalicMT" font-size="10.00" fill="#999999">integer (8) ∗ FK</text>
</g>
<!-- m_GamePurchase&#45;&gt;m_GamePurchasePlatform -->
<g id="edge35" class="edge">
<title>m_GamePurchase&#45;&gt;m_GamePurchasePlatform</title>
<path fill="none" stroke="#000000" d="M432,-105.2344C432,-95.8461 432,-86.4864 432,-77.7943"/>
<polygon fill="#000000" stroke="#000000" points="435.1501,-77.6545 432,-68.6545 428.8501,-77.6545 435.1501,-77.6545"/>
</g>
<!-- m_GamePurchase&#45;&gt;m_Platform -->
<g id="edge36" class="edge">
<title>m_GamePurchase&#45;&gt;m_Platform</title>
<path fill="none" stroke="#000000" stroke-dasharray="1,5" d="M504.2467,-244.546C509.0653,-247.3488 513.9972,-249.8696 519,-252 661.2476,-312.5741 733.9582,-205.9533 865,-288 897.6724,-308.4565 919.9218,-346.3475 933.5909,-377.3323"/>
<polygon fill="#000000" stroke="#000000" points="930.7998,-378.8184 937.2204,-385.8682 936.5975,-376.3532 930.7998,-378.8184"/>
</g>
<!-- m_Genre&#45;&gt;m_GameGenre -->
<g id="edge33" class="edge">
<title>m_Genre&#45;&gt;m_GameGenre</title>
<path fill="none" stroke="#000000" d="M1297,-385.8255C1297,-340.7013 1297,-268.1768 1297,-221.9605"/>
<polygon fill="#000000" stroke="#000000" points="1300.1501,-221.8007 1297,-212.8007 1293.8501,-221.8007 1300.1501,-221.8007"/>
</g>
<!-- m_Genre&#45;&gt;m_PgSearch::Document -->
<g id="edge4" class="edge">
<title>m_Genre&#45;&gt;m_PgSearch::Document</title>
<path fill="none" stroke="#000000" d="M1335.0503,-385.8255C1378.1147,-339.7912 1447.856,-265.2402 1490.9289,-219.1967"/>
</g>
<!-- m_Platform&#45;&gt;m_GamePlatform -->
<g id="edge34" class="edge">
<title>m_Platform&#45;&gt;m_GamePlatform</title>
<path fill="none" stroke="#000000" d="M951,-385.8255C951,-340.7013 951,-268.1768 951,-221.9605"/>
<polygon fill="#000000" stroke="#000000" points="954.1501,-221.8007 951,-212.8007 947.8501,-221.8007 954.1501,-221.8007"/>
</g>
<!-- m_Platform&#45;&gt;m_GamePurchasePlatform -->
<g id="edge37" class="edge">
<title>m_Platform&#45;&gt;m_GamePurchasePlatform</title>
<path fill="none" stroke="#000000" d="M965.0663,-385.8575C978.5022,-353.6093 1002.0815,-310.3593 1038,-288 1103.6272,-247.1469 1332.2435,-309.421 1384,-252 1427.7419,-203.4708 1428.459,-152.8732 1384,-105 1355.0467,-73.8233 759.8073,-47.2944 525.5461,-38.0223"/>
<polygon fill="#000000" stroke="#000000" points="525.4697,-34.8669 516.3526,-37.6599 525.2216,-41.162 525.4697,-34.8669"/>
</g>
<!-- m_Platform&#45;&gt;m_PgSearch::Document -->
<g id="edge5" class="edge">
<title>m_Platform&#45;&gt;m_PgSearch::Document</title>
<path fill="none" stroke="#000000" d="M964.9892,-385.7326C978.3792,-353.4101 1001.9343,-310.121 1038,-288 1113.5118,-241.6845 1352.6376,-284.6127 1435,-252 1454.0684,-244.4496 1472.4464,-231.7469 1487.8163,-219.0061"/>
</g>
<!-- m_Series -->
<g id="node17" class="node">
<title>m_Series</title>
<path fill="none" stroke="#000000" d="M545,-601.5C545,-601.5 665,-601.5 665,-601.5 671,-601.5 677,-607.5 677,-613.5 677,-613.5 677,-657.5 677,-657.5 677,-663.5 671,-669.5 665,-669.5 665,-669.5 545,-669.5 545,-669.5 539,-669.5 533,-663.5 533,-657.5 533,-657.5 533,-613.5 533,-613.5 533,-607.5 539,-601.5 545,-601.5"/>
<text text-anchor="start" x="587.4104" y="-656.2" font-family="Arial BoldMT" font-size="11.00" fill="#000000">Series</text>
<polyline fill="none" stroke="#000000" points="533,-650.5 677,-650.5 "/>
<text text-anchor="start" x="540" y="-637" font-family="ArialMT" font-size="10.00" fill="#000000">id </text>
<text text-anchor="start" x="550.5615" y="-637" font-family="Arial ItalicMT" font-size="10.00" fill="#999999">integer (8) PK</text>
<text text-anchor="start" x="540" y="-624" font-family="ArialMT" font-size="10.00" fill="#000000">name </text>
<text text-anchor="start" x="567.793" y="-624" font-family="Arial ItalicMT" font-size="10.00" fill="#999999">text ∗</text>
<text text-anchor="start" x="540" y="-611" font-family="ArialMT" font-size="10.00" fill="#000000">wikidata_id </text>
<text text-anchor="start" x="592.251" y="-611" font-family="Arial ItalicMT" font-size="10.00" fill="#999999">integer (8) U</text>
</g>
<!-- m_Series&#45;&gt;m_Game -->
<g id="edge31" class="edge">
<title>m_Series&#45;&gt;m_Game</title>
<path fill="none" stroke="#000000" d="M605,-601.4554C605,-572.999 605,-531.4955 605,-496.0532"/>
<polygon fill="#000000" stroke="#000000" points="608.1501,-495.7104 605,-486.7105 601.8501,-495.7105 608.1501,-495.7104"/>
</g>
<!-- m_Series&#45;&gt;m_PgSearch::Document -->
<g id="edge6" class="edge">
<title>m_Series&#45;&gt;m_PgSearch::Document</title>
<path fill="none" stroke="#000000" d="M677.1703,-633.2992C859.5621,-627.134 1328.4726,-607.306 1384,-565 1495.3058,-480.1969 1521.1739,-299.923 1527.1831,-219.1389"/>
</g>
<!-- m_User -->
<g id="node18" class="node">
<title>m_User</title>
<path fill="none" stroke="#000000" d="M203,-288.5C203,-288.5 343,-288.5 343,-288.5 349,-288.5 355,-294.5 355,-300.5 355,-300.5 355,-552.5 355,-552.5 355,-558.5 349,-564.5 343,-564.5 343,-564.5 203,-564.5 203,-564.5 197,-564.5 191,-558.5 191,-552.5 191,-552.5 191,-300.5 191,-300.5 191,-294.5 197,-288.5 203,-288.5"/>
<text text-anchor="start" x="259.3877" y="-551.2" font-family="Arial BoldMT" font-size="11.00" fill="#000000">User</text>
<polyline fill="none" stroke="#000000" points="191,-545.5 355,-545.5 "/>
<text text-anchor="start" x="198" y="-532" font-family="ArialMT" font-size="10.00" fill="#000000">bio </text>
<text text-anchor="start" x="214.123" y="-532" font-family="Arial ItalicMT" font-size="10.00" fill="#999999">text ∗</text>
<text text-anchor="start" x="198" y="-519" font-family="ArialMT" font-size="10.00" fill="#000000">confirmation_sent_at </text>
<text text-anchor="start" x="293.6104" y="-519" font-family="Arial ItalicMT" font-size="10.00" fill="#999999">datetime</text>
<text text-anchor="start" x="198" y="-506" font-family="ArialMT" font-size="10.00" fill="#000000">confirmation_token </text>
<text text-anchor="start" x="285.2705" y="-506" font-family="Arial ItalicMT" font-size="10.00" fill="#999999">string</text>
<text text-anchor="start" x="198" y="-493" font-family="ArialMT" font-size="10.00" fill="#000000">confirmed_at </text>
<text text-anchor="start" x="258.5859" y="-493" font-family="Arial ItalicMT" font-size="10.00" fill="#999999">datetime</text>
<text text-anchor="start" x="198" y="-480" font-family="ArialMT" font-size="10.00" fill="#000000">current_sign_in_at </text>
<text text-anchor="start" x="283.0537" y="-480" font-family="Arial ItalicMT" font-size="10.00" fill="#999999">datetime</text>
<text text-anchor="start" x="198" y="-467" font-family="ArialMT" font-size="10.00" fill="#000000">current_sign_in_ip </text>
<text text-anchor="start" x="282.4971" y="-467" font-family="Arial ItalicMT" font-size="10.00" fill="#999999">inet</text>
<text text-anchor="start" x="198" y="-454" font-family="ArialMT" font-size="10.00" fill="#000000">email </text>
<text text-anchor="start" x="224.6748" y="-454" font-family="Arial ItalicMT" font-size="10.00" fill="#999999">string ∗ U</text>
<text text-anchor="start" x="198" y="-441" font-family="ArialMT" font-size="10.00" fill="#000000">encrypted_password </text>
<text text-anchor="start" x="293.0537" y="-441" font-family="Arial ItalicMT" font-size="10.00" fill="#999999">string ∗</text>
<text text-anchor="start" x="198" y="-428" font-family="ArialMT" font-size="10.00" fill="#000000">id </text>
<text text-anchor="start" x="208.5615" y="-428" font-family="Arial ItalicMT" font-size="10.00" fill="#999999">integer (8) PK</text>
<text text-anchor="start" x="198" y="-415" font-family="ArialMT" font-size="10.00" fill="#000000">last_sign_in_at </text>
<text text-anchor="start" x="267.4922" y="-415" font-family="Arial ItalicMT" font-size="10.00" fill="#999999">datetime</text>
<text text-anchor="start" x="198" y="-402" font-family="ArialMT" font-size="10.00" fill="#000000">last_sign_in_ip </text>
<text text-anchor="start" x="266.9355" y="-402" font-family="Arial ItalicMT" font-size="10.00" fill="#999999">inet</text>
<text text-anchor="start" x="198" y="-389" font-family="ArialMT" font-size="10.00" fill="#000000">remember_created_at </text>
<text text-anchor="start" x="299.1621" y="-389" font-family="Arial ItalicMT" font-size="10.00" fill="#999999">datetime</text>
<text text-anchor="start" x="197.9561" y="-376" font-family="ArialMT" font-size="10.00" fill="#000000">reset_password_sent_at </text>
<text text-anchor="start" x="309.6895" y="-376" font-family="Arial ItalicMT" font-size="10.00" fill="#999999">datetime</text>
<text text-anchor="start" x="198" y="-363" font-family="ArialMT" font-size="10.00" fill="#000000">reset_password_token </text>
<text text-anchor="start" x="301.3936" y="-363" font-family="Arial ItalicMT" font-size="10.00" fill="#999999">string</text>
<text text-anchor="start" x="198" y="-350" font-family="ArialMT" font-size="10.00" fill="#000000">role </text>
<text text-anchor="start" x="217.4531" y="-350" font-family="Arial ItalicMT" font-size="10.00" fill="#999999">integer ∗</text>
<text text-anchor="start" x="198" y="-337" font-family="ArialMT" font-size="10.00" fill="#000000">sign_in_count </text>
<text text-anchor="start" x="262.4922" y="-337" font-family="Arial ItalicMT" font-size="10.00" fill="#999999">integer ∗</text>
<text text-anchor="start" x="198" y="-324" font-family="ArialMT" font-size="10.00" fill="#000000">slug </text>
<text text-anchor="start" x="219.123" y="-324" font-family="Arial ItalicMT" font-size="10.00" fill="#999999">string ∗ U</text>
<text text-anchor="start" x="198" y="-311" font-family="ArialMT" font-size="10.00" fill="#000000">unconfirmed_email </text>
<text text-anchor="start" x="285.2656" y="-311" font-family="Arial ItalicMT" font-size="10.00" fill="#999999">string</text>
<text text-anchor="start" x="198" y="-298" font-family="ArialMT" font-size="10.00" fill="#000000">username </text>
<text text-anchor="start" x="245.2461" y="-298" font-family="Arial ItalicMT" font-size="10.00" fill="#999999">text ∗ U</text>
</g>
<!-- m_User&#45;&gt;m_ActiveStorage::Attachment -->
<g id="edge9" class="edge">
<title>m_User&#45;&gt;m_ActiveStorage::Attachment</title>
<path fill="none" stroke="#000000" d="M190.7863,-307.8178C185.8347,-301.0755 180.8821,-294.4293 176,-288 160.1509,-267.1284 141.9126,-244.6716 126.0159,-225.5607"/>
</g>
<!-- m_User&#45;&gt;m_Favorite -->
<g id="edge14" class="edge">
<title>m_User&#45;&gt;m_Favorite</title>
<path fill="none" stroke="#000000" d="M265.2017,-288.3594C263.9992,-267.0572 262.8285,-246.319 261.8341,-228.7038"/>
<polygon fill="#000000" stroke="#000000" points="264.953,-228.0633 261.3007,-219.2552 258.6631,-228.4185 264.953,-228.0633"/>
</g>
<!-- m_User&#45;&gt;m_GamePurchase -->
<g id="edge12" class="edge">
<title>m_User&#45;&gt;m_GamePurchase</title>
<path fill="none" stroke="#000000" d="M355.0616,-298.5045C363.6136,-285.1655 372.1261,-271.8882 380.2026,-259.2909"/>
<polygon fill="#000000" stroke="#000000" points="382.9657,-260.8174 385.1715,-251.5407 377.6621,-257.4171 382.9657,-260.8174"/>
</g>
</g>
</svg>
