<?xml version="1.0" encoding="UTF-8" standalone="no"?>
<!DOCTYPE svg PUBLIC "-//W3C//DTD SVG 1.1//EN"
 "http://www.w3.org/Graphics/SVG/1.1/DTD/svg11.dtd">
<!-- Generated by graphviz version 2.40.1 (20161225.0304)
 -->
<!-- Title: GameTracker Pages: 1 -->
<svg width="1441pt" height="659pt"
 viewBox="0.00 0.00 1440.60 658.60" xmlns="http://www.w3.org/2000/svg" xmlns:xlink="http://www.w3.org/1999/xlink">
<g id="graph0" class="graph" transform="scale(1 1) rotate(0) translate(28.8 629.8)">
<title>GameTracker</title>
<polygon fill="#ffffff" stroke="transparent" points="-28.8,28.8 -28.8,-629.8 1411.8,-629.8 1411.8,28.8 -28.8,28.8"/>
<text text-anchor="middle" x="691.5" y="-586.6" font-family="Arial BoldMT" font-size="13.00" fill="#000000">Continue From Checkpoint domain model</text>
<!-- m_ActiveStorage::Attachment -->
<g id="node1" class="node">
<title>m_ActiveStorage::Attachment</title>
<path fill="none" stroke="#000000" d="M40,-26.5C40,-26.5 160,-26.5 160,-26.5 166,-26.5 172,-32.5 172,-38.5 172,-38.5 172,-108.5 172,-108.5 172,-114.5 166,-120.5 160,-120.5 160,-120.5 40,-120.5 40,-120.5 34,-120.5 28,-114.5 28,-108.5 28,-108.5 28,-38.5 28,-38.5 28,-32.5 34,-26.5 40,-26.5"/>
<text text-anchor="start" x="32.8835" y="-107.2" font-family="Arial BoldMT" font-size="11.00" fill="#000000">ActiveStorage::Attachment</text>
<polyline fill="none" stroke="#000000" points="28,-101.5 172,-101.5 "/>
<text text-anchor="start" x="35" y="-88" font-family="ArialMT" font-size="10.00" fill="#000000">blob_id </text>
<text text-anchor="start" x="70.0293" y="-88" font-family="Arial ItalicMT" font-size="10.00" fill="#999999">integer (8) ∗ FK</text>
<text text-anchor="start" x="35" y="-75" font-family="ArialMT" font-size="10.00" fill="#000000">id </text>
<text text-anchor="start" x="45.5615" y="-75" font-family="Arial ItalicMT" font-size="10.00" fill="#999999">integer (8) PK</text>
<text text-anchor="start" x="35" y="-62" font-family="ArialMT" font-size="10.00" fill="#000000">name </text>
<text text-anchor="start" x="62.793" y="-62" font-family="Arial ItalicMT" font-size="10.00" fill="#999999">string ∗</text>
<text text-anchor="start" x="35" y="-49" font-family="ArialMT" font-size="10.00" fill="#000000">record_id </text>
<text text-anchor="start" x="79.4678" y="-49" font-family="Arial ItalicMT" font-size="10.00" fill="#999999">integer (8) ∗ FK</text>
<text text-anchor="start" x="35" y="-36" font-family="ArialMT" font-size="10.00" fill="#000000">record_type </text>
<text text-anchor="start" x="90.5859" y="-36" font-family="Arial ItalicMT" font-size="10.00" fill="#999999">string ∗</text>
</g>
<!-- m_ActiveStorage::Blob -->
<g id="node2" class="node">
<title>m_ActiveStorage::Blob</title>
<path fill="none" stroke="#000000" d="M12,-261.5C12,-261.5 132,-261.5 132,-261.5 138,-261.5 144,-267.5 144,-273.5 144,-273.5 144,-369.5 144,-369.5 144,-375.5 138,-381.5 132,-381.5 132,-381.5 12,-381.5 12,-381.5 6,-381.5 0,-375.5 0,-369.5 0,-369.5 0,-273.5 0,-273.5 0,-267.5 6,-261.5 12,-261.5"/>
<text text-anchor="start" x="21.6951" y="-368.2" font-family="Arial BoldMT" font-size="11.00" fill="#000000">ActiveStorage::Blob</text>
<polyline fill="none" stroke="#000000" points="0,-362.5 144,-362.5 "/>
<text text-anchor="start" x="7" y="-349" font-family="ArialMT" font-size="10.00" fill="#000000">byte_size </text>
<text text-anchor="start" x="52.0244" y="-349" font-family="Arial ItalicMT" font-size="10.00" fill="#999999">integer (8) ∗</text>
<text text-anchor="start" x="7" y="-336" font-family="ArialMT" font-size="10.00" fill="#000000">checksum </text>
<text text-anchor="start" x="54.793" y="-336" font-family="Arial ItalicMT" font-size="10.00" fill="#999999">string ∗</text>
<text text-anchor="start" x="7" y="-323" font-family="ArialMT" font-size="10.00" fill="#000000">content_type </text>
<text text-anchor="start" x="67.0439" y="-323" font-family="Arial ItalicMT" font-size="10.00" fill="#999999">string</text>
<text text-anchor="start" x="7" y="-310" font-family="ArialMT" font-size="10.00" fill="#000000">filename </text>
<text text-anchor="start" x="47.5762" y="-310" font-family="Arial ItalicMT" font-size="10.00" fill="#999999">string ∗</text>
<text text-anchor="start" x="7" y="-297" font-family="ArialMT" font-size="10.00" fill="#000000">id </text>
<text text-anchor="start" x="17.5615" y="-297" font-family="Arial ItalicMT" font-size="10.00" fill="#999999">integer (8) PK</text>
<text text-anchor="start" x="7" y="-284" font-family="ArialMT" font-size="10.00" fill="#000000">key </text>
<text text-anchor="start" x="25.3398" y="-284" font-family="Arial ItalicMT" font-size="10.00" fill="#999999">string ∗</text>
<text text-anchor="start" x="7" y="-271" font-family="ArialMT" font-size="10.00" fill="#000000">metadata </text>
<text text-anchor="start" x="51.4727" y="-271" font-family="Arial ItalicMT" font-size="10.00" fill="#999999">text</text>
</g>
<!-- m_ActiveStorage::Blob&#45;&gt;m_ActiveStorage::Attachment -->
<g id="edge7" class="edge">
<title>m_ActiveStorage::Blob&#45;&gt;m_ActiveStorage::Attachment</title>
<path fill="none" stroke="#000000" d="M78.778,-261.4661C83.6659,-218.1738 90.171,-160.5565 94.685,-120.5753"/>
</g>
<!-- m_ActiveStorage::Blob&#45;&gt;m_ActiveStorage::Blob -->
<g id="edge11" class="edge">
<title>m_ActiveStorage::Blob&#45;&gt;m_ActiveStorage::Blob</title>
<path fill="none" stroke="#000000" stroke-dasharray="1,5" d="M144.1757,-359.6407C160.7932,-356.3542 173,-343.6406 173,-321.5 173,-299.3594 160.7932,-286.6458 144.1757,-283.3593"/>
</g>
<!-- m_Company -->
<g id="node3" class="node">
<title>m_Company</title>
<path fill="none" stroke="#000000" d="M569,-281C569,-281 689,-281 689,-281 695,-281 701,-287 701,-293 701,-293 701,-350 701,-350 701,-356 695,-362 689,-362 689,-362 569,-362 569,-362 563,-362 557,-356 557,-350 557,-350 557,-293 557,-293 557,-287 563,-281 569,-281"/>
<text text-anchor="start" x="603.4612" y="-348.7" font-family="Arial BoldMT" font-size="11.00" fill="#000000">Company</text>
<polyline fill="none" stroke="#000000" points="557,-343 701,-343 "/>
<text text-anchor="start" x="564" y="-330" font-family="ArialMT" font-size="10.00" fill="#000000">description </text>
<text text-anchor="start" x="615.1377" y="-330" font-family="Arial ItalicMT" font-size="10.00" fill="#999999">text ∗</text>
<text text-anchor="start" x="564" y="-317" font-family="ArialMT" font-size="10.00" fill="#000000">id </text>
<text text-anchor="start" x="574.5615" y="-317" font-family="Arial ItalicMT" font-size="10.00" fill="#999999">integer (8) PK</text>
<text text-anchor="start" x="564" y="-304" font-family="ArialMT" font-size="10.00" fill="#000000">name </text>
<text text-anchor="start" x="591.793" y="-304" font-family="Arial ItalicMT" font-size="10.00" fill="#999999">text ∗</text>
<text text-anchor="start" x="564" y="-291" font-family="ArialMT" font-size="10.00" fill="#000000">wikidata_id </text>
<text text-anchor="start" x="616.251" y="-291" font-family="Arial ItalicMT" font-size="10.00" fill="#999999">integer (8) U</text>
</g>
<!-- m_Game -->
<g id="node5" class="node">
<title>m_Game</title>
<path fill="none" stroke="#000000" d="M396,-268C396,-268 516,-268 516,-268 522,-268 528,-274 528,-280 528,-280 528,-363 528,-363 528,-369 522,-375 516,-375 516,-375 396,-375 396,-375 390,-375 384,-369 384,-363 384,-363 384,-280 384,-280 384,-274 390,-268 396,-268"/>
<text text-anchor="start" x="439.0227" y="-361.7" font-family="Arial BoldMT" font-size="11.00" fill="#000000">Game</text>
<polyline fill="none" stroke="#000000" points="384,-356 528,-356 "/>
<text text-anchor="start" x="391" y="-343" font-family="ArialMT" font-size="10.00" fill="#000000">description </text>
<text text-anchor="start" x="442.1377" y="-343" font-family="Arial ItalicMT" font-size="10.00" fill="#999999">text ∗</text>
<text text-anchor="start" x="391" y="-330" font-family="ArialMT" font-size="10.00" fill="#000000">id </text>
<text text-anchor="start" x="401.5615" y="-330" font-family="Arial ItalicMT" font-size="10.00" fill="#999999">integer (8) PK</text>
<text text-anchor="start" x="391" y="-317" font-family="ArialMT" font-size="10.00" fill="#000000">name </text>
<text text-anchor="start" x="418.793" y="-317" font-family="Arial ItalicMT" font-size="10.00" fill="#999999">text ∗</text>
<text text-anchor="start" x="391" y="-304" font-family="ArialMT" font-size="10.00" fill="#000000">pcgamingwiki_id </text>
<text text-anchor="start" x="467.1475" y="-304" font-family="Arial ItalicMT" font-size="10.00" fill="#999999">text U</text>
<text text-anchor="start" x="391" y="-291" font-family="ArialMT" font-size="10.00" fill="#000000">series_id </text>
<text text-anchor="start" x="433.7979" y="-291" font-family="Arial ItalicMT" font-size="10.00" fill="#999999">integer (8) FK</text>
<text text-anchor="start" x="391" y="-278" font-family="ArialMT" font-size="10.00" fill="#000000">wikidata_id </text>
<text text-anchor="start" x="443.251" y="-278" font-family="Arial ItalicMT" font-size="10.00" fill="#999999">integer (8) U</text>
</g>
<!-- m_GameDeveloper -->
<g id="node6" class="node">
<title>m_GameDeveloper</title>
<path fill="none" stroke="#000000" d="M559,-39.5C559,-39.5 679,-39.5 679,-39.5 685,-39.5 691,-45.5 691,-51.5 691,-51.5 691,-95.5 691,-95.5 691,-101.5 685,-107.5 679,-107.5 679,-107.5 559,-107.5 559,-107.5 553,-107.5 547,-101.5 547,-95.5 547,-95.5 547,-51.5 547,-51.5 547,-45.5 553,-39.5 559,-39.5"/>
<text text-anchor="start" x="576.9531" y="-94.2" font-family="Arial BoldMT" font-size="11.00" fill="#000000">GameDeveloper</text>
<polyline fill="none" stroke="#000000" points="547,-88.5 691,-88.5 "/>
<text text-anchor="start" x="554" y="-75" font-family="ArialMT" font-size="10.00" fill="#000000">company_id </text>
<text text-anchor="start" x="610.6992" y="-75" font-family="Arial ItalicMT" font-size="10.00" fill="#999999">integer (8) ∗ FK</text>
<text text-anchor="start" x="554" y="-62" font-family="ArialMT" font-size="10.00" fill="#000000">game_id </text>
<text text-anchor="start" x="595.1377" y="-62" font-family="Arial ItalicMT" font-size="10.00" fill="#999999">integer (8) ∗ FK</text>
<text text-anchor="start" x="554" y="-49" font-family="ArialMT" font-size="10.00" fill="#000000">id </text>
<text text-anchor="start" x="564.5615" y="-49" font-family="Arial ItalicMT" font-size="10.00" fill="#999999">integer (8) PK</text>
</g>
<!-- m_Company&#45;&gt;m_GameDeveloper -->
<g id="edge15" class="edge">
<title>m_Company&#45;&gt;m_GameDeveloper</title>
<path fill="none" stroke="#000000" d="M627.3599,-280.8255C625.5404,-235.7013 622.616,-163.1768 620.7524,-116.9605"/>
<polygon fill="#000000" stroke="#000000" points="623.8932,-116.6664 620.3831,-107.8007 617.5984,-116.9203 623.8932,-116.6664"/>
</g>
<!-- m_GamePublisher -->
<g id="node10" class="node">
<title>m_GamePublisher</title>
<path fill="none" stroke="#000000" d="M386,-39.5C386,-39.5 506,-39.5 506,-39.5 512,-39.5 518,-45.5 518,-51.5 518,-51.5 518,-95.5 518,-95.5 518,-101.5 512,-107.5 506,-107.5 506,-107.5 386,-107.5 386,-107.5 380,-107.5 374,-101.5 374,-95.5 374,-95.5 374,-51.5 374,-51.5 374,-45.5 380,-39.5 386,-39.5"/>
<text text-anchor="start" x="406.0935" y="-94.2" font-family="Arial BoldMT" font-size="11.00" fill="#000000">GamePublisher</text>
<polyline fill="none" stroke="#000000" points="374,-88.5 518,-88.5 "/>
<text text-anchor="start" x="381" y="-75" font-family="ArialMT" font-size="10.00" fill="#000000">company_id </text>
<text text-anchor="start" x="437.6992" y="-75" font-family="Arial ItalicMT" font-size="10.00" fill="#999999">integer (8) ∗ FK</text>
<text text-anchor="start" x="381" y="-62" font-family="ArialMT" font-size="10.00" fill="#000000">game_id </text>
<text text-anchor="start" x="422.1377" y="-62" font-family="Arial ItalicMT" font-size="10.00" fill="#999999">integer (8) ∗ FK</text>
<text text-anchor="start" x="381" y="-49" font-family="ArialMT" font-size="10.00" fill="#000000">id </text>
<text text-anchor="start" x="391.5615" y="-49" font-family="Arial ItalicMT" font-size="10.00" fill="#999999">integer (8) PK</text>
</g>
<!-- m_Company&#45;&gt;m_GamePublisher -->
<g id="edge17" class="edge">
<title>m_Company&#45;&gt;m_GamePublisher</title>
<path fill="none" stroke="#000000" d="M606.258,-280.9243C589.8387,-252.6694 566.5045,-214.5488 543,-183 525.3554,-159.3167 503.7255,-134.5549 485.3718,-114.5814"/>
<polygon fill="#000000" stroke="#000000" points="487.4529,-112.1924 479.0284,-107.7258 482.8287,-116.4711 487.4529,-112.1924"/>
</g>
<!-- m_PgSearch::Document -->
<g id="node13" class="node">
<title>m_PgSearch::Document</title>
<path fill="none" stroke="#000000" d="M1251,-33C1251,-33 1371,-33 1371,-33 1377,-33 1383,-39 1383,-45 1383,-45 1383,-102 1383,-102 1383,-108 1377,-114 1371,-114 1371,-114 1251,-114 1251,-114 1245,-114 1239,-108 1239,-102 1239,-102 1239,-45 1239,-45 1239,-39 1245,-33 1251,-33"/>
<text text-anchor="start" x="1256.7231" y="-100.7" font-family="Arial BoldMT" font-size="11.00" fill="#000000">PgSearch::Document</text>
<polyline fill="none" stroke="#000000" points="1239,-95 1383,-95 "/>
<text text-anchor="start" x="1246" y="-82" font-family="ArialMT" font-size="10.00" fill="#000000">content </text>
<text text-anchor="start" x="1281.5811" y="-82" font-family="Arial ItalicMT" font-size="10.00" fill="#999999">text</text>
<text text-anchor="start" x="1246" y="-69" font-family="ArialMT" font-size="10.00" fill="#000000">id </text>
<text text-anchor="start" x="1256.5615" y="-69" font-family="Arial ItalicMT" font-size="10.00" fill="#999999">integer (8) PK</text>
<text text-anchor="start" x="1246" y="-56" font-family="ArialMT" font-size="10.00" fill="#000000">searchable_id </text>
<text text-anchor="start" x="1311.0439" y="-56" font-family="Arial ItalicMT" font-size="10.00" fill="#999999">integer (8) FK</text>
<text text-anchor="start" x="1246" y="-43" font-family="ArialMT" font-size="10.00" fill="#000000">searchable_type </text>
<text text-anchor="start" x="1322.1621" y="-43" font-family="Arial ItalicMT" font-size="10.00" fill="#999999">string</text>
</g>
<!-- m_Company&#45;&gt;m_PgSearch::Document -->
<g id="edge1" class="edge">
<title>m_Company&#45;&gt;m_PgSearch::Document</title>
<path fill="none" stroke="#000000" d="M642.7414,-280.8708C656.0397,-248.4016 679.595,-204.8355 716,-183 813.243,-124.6741 1120.0738,-189.9954 1225,-147 1242.9922,-139.6274 1259.9299,-126.965 1273.9381,-114.2067"/>
</g>
<!-- m_Engine -->
<g id="node4" class="node">
<title>m_Engine</title>
<path fill="none" stroke="#000000" d="M742,-287.5C742,-287.5 862,-287.5 862,-287.5 868,-287.5 874,-293.5 874,-299.5 874,-299.5 874,-343.5 874,-343.5 874,-349.5 868,-355.5 862,-355.5 862,-355.5 742,-355.5 742,-355.5 736,-355.5 730,-349.5 730,-343.5 730,-343.5 730,-299.5 730,-299.5 730,-293.5 736,-287.5 742,-287.5"/>
<text text-anchor="start" x="782.8743" y="-342.2" font-family="Arial BoldMT" font-size="11.00" fill="#000000">Engine</text>
<polyline fill="none" stroke="#000000" points="730,-336.5 874,-336.5 "/>
<text text-anchor="start" x="737" y="-323" font-family="ArialMT" font-size="10.00" fill="#000000">id </text>
<text text-anchor="start" x="747.5615" y="-323" font-family="Arial ItalicMT" font-size="10.00" fill="#999999">integer (8) PK</text>
<text text-anchor="start" x="737" y="-310" font-family="ArialMT" font-size="10.00" fill="#000000">name </text>
<text text-anchor="start" x="764.793" y="-310" font-family="Arial ItalicMT" font-size="10.00" fill="#999999">text ∗</text>
<text text-anchor="start" x="737" y="-297" font-family="ArialMT" font-size="10.00" fill="#000000">wikidata_id </text>
<text text-anchor="start" x="789.251" y="-297" font-family="Arial ItalicMT" font-size="10.00" fill="#999999">integer (8) U</text>
</g>
<!-- m_Engine&#45;&gt;m_Game -->
<g id="edge20" class="edge">
<title>m_Engine&#45;&gt;m_Game</title>
<path fill="none" stroke="#000000" stroke-dasharray="1,5" d="M792.0041,-355.6198C778.5895,-394.1442 750.5785,-454.5136 701.5,-478 672.6349,-491.8133 586.3651,-491.8133 557.5,-478 519.0981,-459.6229 493.3707,-418.8504 477.4272,-383.5296"/>
<polygon fill="#000000" stroke="#000000" points="480.2614,-382.1479 473.7799,-375.1541 474.4853,-384.6634 480.2614,-382.1479"/>
</g>
<!-- m_GameEngine -->
<g id="node7" class="node">
<title>m_GameEngine</title>
<path fill="none" stroke="#000000" d="M732,-39.5C732,-39.5 852,-39.5 852,-39.5 858,-39.5 864,-45.5 864,-51.5 864,-51.5 864,-95.5 864,-95.5 864,-101.5 858,-107.5 852,-107.5 852,-107.5 732,-107.5 732,-107.5 726,-107.5 720,-101.5 720,-95.5 720,-95.5 720,-51.5 720,-51.5 720,-45.5 726,-39.5 732,-39.5"/>
<text text-anchor="start" x="757.897" y="-94.2" font-family="Arial BoldMT" font-size="11.00" fill="#000000">GameEngine</text>
<polyline fill="none" stroke="#000000" points="720,-88.5 864,-88.5 "/>
<text text-anchor="start" x="727" y="-75" font-family="ArialMT" font-size="10.00" fill="#000000">engine_id </text>
<text text-anchor="start" x="773.1523" y="-75" font-family="Arial ItalicMT" font-size="10.00" fill="#999999">integer (8) ∗ FK</text>
<text text-anchor="start" x="727" y="-62" font-family="ArialMT" font-size="10.00" fill="#000000">game_id </text>
<text text-anchor="start" x="768.1377" y="-62" font-family="Arial ItalicMT" font-size="10.00" fill="#999999">integer (8) ∗ FK</text>
<text text-anchor="start" x="727" y="-49" font-family="ArialMT" font-size="10.00" fill="#000000">id </text>
<text text-anchor="start" x="737.5615" y="-49" font-family="Arial ItalicMT" font-size="10.00" fill="#999999">integer (8) PK</text>
</g>
<!-- m_Engine&#45;&gt;m_GameEngine -->
<g id="edge19" class="edge">
<title>m_Engine&#45;&gt;m_GameEngine</title>
<path fill="none" stroke="#000000" d="M800.62,-287.277C798.8281,-242.837 795.6991,-165.2386 793.7445,-116.7628"/>
<polygon fill="#000000" stroke="#000000" points="796.892,-116.6354 793.3818,-107.7697 790.5971,-116.8893 796.892,-116.6354"/>
</g>
<!-- m_Engine&#45;&gt;m_PgSearch::Document -->
<g id="edge2" class="edge">
<title>m_Engine&#45;&gt;m_PgSearch::Document</title>
<path fill="none" stroke="#000000" d="M813.5133,-287.2173C826.4205,-254.5532 850.7075,-206.9186 889,-183 1016.3805,-103.4345 1087.0782,-206.4476 1225,-147 1242.6757,-139.3814 1259.4213,-126.8246 1273.3587,-114.2271"/>
</g>
<!-- m_Game&#45;&gt;m_ActiveStorage::Attachment -->
<g id="edge8" class="edge">
<title>m_Game&#45;&gt;m_ActiveStorage::Attachment</title>
<path fill="none" stroke="#000000" d="M434.9662,-267.6888C420.705,-238.2101 398.955,-203.5851 369,-183 300.6839,-136.053 260.6142,-183.1086 186,-147 172.0335,-140.2411 158.4971,-130.6543 146.4555,-120.6286"/>
</g>
<!-- m_Game&#45;&gt;m_ActiveStorage::Blob -->
<g id="edge30" class="edge">
<title>m_Game&#45;&gt;m_ActiveStorage::Blob</title>
<path fill="none" stroke="#000000" stroke-dasharray="1,5" d="M438.2201,-375.1541C422.6729,-412.1691 395.9805,-458.1496 354.5,-478 321.6259,-493.7318 223.3741,-493.7318 190.5,-478 149.6138,-458.434 119.2263,-416.957 99.4643,-381.6169"/>
</g>
<!-- m_Game&#45;&gt;m_GameDeveloper -->
<g id="edge22" class="edge">
<title>m_Game&#45;&gt;m_GameDeveloper</title>
<path fill="none" stroke="#000000" d="M488.8974,-267.8622C504.9416,-242.032 524.6877,-210.7202 543,-183 557.9294,-160.4006 575.0944,-135.5764 589.3297,-115.286"/>
<polygon fill="#000000" stroke="#000000" points="592.0317,-116.9197 594.6313,-107.7456 586.878,-113.2962 592.0317,-116.9197"/>
</g>
<!-- m_Game&#45;&gt;m_GameEngine -->
<g id="edge28" class="edge">
<title>m_Game&#45;&gt;m_GameEngine</title>
<path fill="none" stroke="#000000" d="M477.2138,-267.9476C491.5351,-238.5552 513.2851,-203.9302 543,-183 603.6544,-140.2772 639.5968,-180.088 706,-147 722.766,-138.6457 738.9761,-126.3145 752.7175,-114.1293"/>
<polygon fill="#000000" stroke="#000000" points="755.1396,-116.1837 759.6682,-107.7923 750.8951,-111.5281 755.1396,-116.1837"/>
</g>
<!-- m_GameGenre -->
<g id="node8" class="node">
<title>m_GameGenre</title>
<path fill="none" stroke="#000000" d="M905,-39.5C905,-39.5 1025,-39.5 1025,-39.5 1031,-39.5 1037,-45.5 1037,-51.5 1037,-51.5 1037,-95.5 1037,-95.5 1037,-101.5 1031,-107.5 1025,-107.5 1025,-107.5 905,-107.5 905,-107.5 899,-107.5 893,-101.5 893,-95.5 893,-95.5 893,-51.5 893,-51.5 893,-45.5 899,-39.5 905,-39.5"/>
<text text-anchor="start" x="932.7366" y="-94.2" font-family="Arial BoldMT" font-size="11.00" fill="#000000">GameGenre</text>
<polyline fill="none" stroke="#000000" points="893,-88.5 1037,-88.5 "/>
<text text-anchor="start" x="900" y="-75" font-family="ArialMT" font-size="10.00" fill="#000000">game_id </text>
<text text-anchor="start" x="941.1377" y="-75" font-family="Arial ItalicMT" font-size="10.00" fill="#999999">integer (8) ∗ FK</text>
<text text-anchor="start" x="900" y="-62" font-family="ArialMT" font-size="10.00" fill="#000000">genre_id </text>
<text text-anchor="start" x="941.6992" y="-62" font-family="Arial ItalicMT" font-size="10.00" fill="#999999">integer (8) ∗ FK</text>
<text text-anchor="start" x="900" y="-49" font-family="ArialMT" font-size="10.00" fill="#000000">id </text>
<text text-anchor="start" x="910.5615" y="-49" font-family="Arial ItalicMT" font-size="10.00" fill="#999999">integer (8) PK</text>
</g>
<!-- m_Game&#45;&gt;m_GameGenre -->
<g id="edge26" class="edge">
<title>m_Game&#45;&gt;m_GameGenre</title>
<path fill="none" stroke="#000000" d="M475.8894,-267.7375C489.9148,-237.6939 511.8121,-202.4809 543,-183 670.3805,-103.4345 741.0782,-206.4476 879,-147 896.8251,-139.317 913.7043,-126.6121 927.7114,-113.9077"/>
<polygon fill="#000000" stroke="#000000" points="929.9319,-116.1439 934.3485,-107.693 925.6259,-111.5452 929.9319,-116.1439"/>
</g>
<!-- m_GamePlatform -->
<g id="node9" class="node">
<title>m_GamePlatform</title>
<path fill="none" stroke="#000000" d="M1078,-39.5C1078,-39.5 1198,-39.5 1198,-39.5 1204,-39.5 1210,-45.5 1210,-51.5 1210,-51.5 1210,-95.5 1210,-95.5 1210,-101.5 1204,-107.5 1198,-107.5 1198,-107.5 1078,-107.5 1078,-107.5 1072,-107.5 1066,-101.5 1066,-95.5 1066,-95.5 1066,-51.5 1066,-51.5 1066,-45.5 1072,-39.5 1078,-39.5"/>
<text text-anchor="start" x="1100.5454" y="-94.2" font-family="Arial BoldMT" font-size="11.00" fill="#000000">GamePlatform</text>
<polyline fill="none" stroke="#000000" points="1066,-88.5 1210,-88.5 "/>
<text text-anchor="start" x="1073" y="-75" font-family="ArialMT" font-size="10.00" fill="#000000">game_id </text>
<text text-anchor="start" x="1114.1377" y="-75" font-family="Arial ItalicMT" font-size="10.00" fill="#999999">integer (8) ∗ FK</text>
<text text-anchor="start" x="1073" y="-62" font-family="ArialMT" font-size="10.00" fill="#000000">id </text>
<text text-anchor="start" x="1083.5615" y="-62" font-family="Arial ItalicMT" font-size="10.00" fill="#999999">integer (8) PK</text>
<text text-anchor="start" x="1073" y="-49" font-family="ArialMT" font-size="10.00" fill="#000000">platform_id </text>
<text text-anchor="start" x="1125.2461" y="-49" font-family="Arial ItalicMT" font-size="10.00" fill="#999999">integer (8) ∗ FK</text>
</g>
<!-- m_Game&#45;&gt;m_GamePlatform -->
<g id="edge24" class="edge">
<title>m_Game&#45;&gt;m_GamePlatform</title>
<path fill="none" stroke="#000000" d="M475.4743,-267.6719C489.4032,-237.4062 511.3435,-201.9874 543,-183 640.243,-124.6741 947.0738,-189.9954 1052,-147 1070.1171,-139.5762 1087.1651,-126.7889 1101.2295,-113.9409"/>
<polygon fill="#000000" stroke="#000000" points="1103.507,-116.1227 1107.8857,-107.6521 1099.1804,-111.5433 1103.507,-116.1227"/>
</g>
<!-- m_Game&#45;&gt;m_GamePublisher -->
<g id="edge23" class="edge">
<title>m_Game&#45;&gt;m_GamePublisher</title>
<path fill="none" stroke="#000000" d="M453.8425,-267.993C452.0222,-222.8511 449.4494,-159.0447 447.7538,-116.9944"/>
<polygon fill="#000000" stroke="#000000" points="450.895,-116.7102 447.3849,-107.8444 444.6001,-116.964 450.895,-116.7102"/>
</g>
<!-- m_GamePurchase -->
<g id="node11" class="node">
<title>m_GamePurchase</title>
<path fill="none" stroke="#000000" d="M213,-.5C213,-.5 333,-.5 333,-.5 339,-.5 345,-6.5 345,-12.5 345,-12.5 345,-134.5 345,-134.5 345,-140.5 339,-146.5 333,-146.5 333,-146.5 213,-146.5 213,-146.5 207,-146.5 201,-140.5 201,-134.5 201,-134.5 201,-12.5 201,-12.5 201,-6.5 207,-.5 213,-.5"/>
<text text-anchor="start" x="232.7874" y="-133.2" font-family="Arial BoldMT" font-size="11.00" fill="#000000">GamePurchase</text>
<polyline fill="none" stroke="#000000" points="201,-127.5 345,-127.5 "/>
<text text-anchor="start" x="208" y="-114" font-family="ArialMT" font-size="10.00" fill="#000000">comments </text>
<text text-anchor="start" x="256.9014" y="-114" font-family="Arial ItalicMT" font-size="10.00" fill="#999999">text ∗</text>
<text text-anchor="start" x="208" y="-101" font-family="ArialMT" font-size="10.00" fill="#000000">completion_date </text>
<text text-anchor="start" x="284.1621" y="-101" font-family="Arial ItalicMT" font-size="10.00" fill="#999999">date</text>
<text text-anchor="start" x="208" y="-88" font-family="ArialMT" font-size="10.00" fill="#000000">completion_status </text>
<text text-anchor="start" x="291.3789" y="-88" font-family="Arial ItalicMT" font-size="10.00" fill="#999999">integer</text>
<text text-anchor="start" x="208" y="-75" font-family="ArialMT" font-size="10.00" fill="#000000">game_id </text>
<text text-anchor="start" x="249.1377" y="-75" font-family="Arial ItalicMT" font-size="10.00" fill="#999999">integer (8) ∗ FK</text>
<text text-anchor="start" x="208" y="-62" font-family="ArialMT" font-size="10.00" fill="#000000">id </text>
<text text-anchor="start" x="218.5615" y="-62" font-family="Arial ItalicMT" font-size="10.00" fill="#999999">integer (8) PK</text>
<text text-anchor="start" x="208" y="-49" font-family="ArialMT" font-size="10.00" fill="#000000">purchase_date </text>
<text text-anchor="start" x="276.9404" y="-49" font-family="Arial ItalicMT" font-size="10.00" fill="#999999">date</text>
<text text-anchor="start" x="208" y="-36" font-family="ArialMT" font-size="10.00" fill="#000000">rating </text>
<text text-anchor="start" x="235.793" y="-36" font-family="Arial ItalicMT" font-size="10.00" fill="#999999">integer</text>
<text text-anchor="start" x="208" y="-23" font-family="ArialMT" font-size="10.00" fill="#000000">start_date </text>
<text text-anchor="start" x="255.251" y="-23" font-family="Arial ItalicMT" font-size="10.00" fill="#999999">date</text>
<text text-anchor="start" x="208" y="-10" font-family="ArialMT" font-size="10.00" fill="#000000">user_id </text>
<text text-anchor="start" x="243.5762" y="-10" font-family="Arial ItalicMT" font-size="10.00" fill="#999999">integer (8) ∗ FK</text>
</g>
<!-- m_Game&#45;&gt;m_GamePurchase -->
<g id="edge21" class="edge">
<title>m_Game&#45;&gt;m_GamePurchase</title>
<path fill="none" stroke="#000000" d="M425.0652,-267.9072C409.2372,-241.6615 389.1038,-209.9828 369,-183 361.7679,-173.2933 353.883,-163.3872 345.8425,-153.6958"/>
<polygon fill="#000000" stroke="#000000" points="348.1616,-151.559 339.9673,-146.6829 343.3324,-155.6048 348.1616,-151.559"/>
</g>
<!-- m_Genre -->
<g id="node12" class="node">
<title>m_Genre</title>
<path fill="none" stroke="#000000" d="M915,-281C915,-281 1035,-281 1035,-281 1041,-281 1047,-287 1047,-293 1047,-293 1047,-350 1047,-350 1047,-356 1041,-362 1035,-362 1035,-362 915,-362 915,-362 909,-362 903,-356 903,-350 903,-350 903,-293 903,-293 903,-287 909,-281 915,-281"/>
<text text-anchor="start" x="957.7139" y="-348.7" font-family="Arial BoldMT" font-size="11.00" fill="#000000">Genre</text>
<polyline fill="none" stroke="#000000" points="903,-343 1047,-343 "/>
<text text-anchor="start" x="910" y="-330" font-family="ArialMT" font-size="10.00" fill="#000000">description </text>
<text text-anchor="start" x="961.1377" y="-330" font-family="Arial ItalicMT" font-size="10.00" fill="#999999">text ∗</text>
<text text-anchor="start" x="910" y="-317" font-family="ArialMT" font-size="10.00" fill="#000000">id </text>
<text text-anchor="start" x="920.5615" y="-317" font-family="Arial ItalicMT" font-size="10.00" fill="#999999">integer (8) PK</text>
<text text-anchor="start" x="910" y="-304" font-family="ArialMT" font-size="10.00" fill="#000000">name </text>
<text text-anchor="start" x="937.793" y="-304" font-family="Arial ItalicMT" font-size="10.00" fill="#999999">text ∗</text>
<text text-anchor="start" x="910" y="-291" font-family="ArialMT" font-size="10.00" fill="#000000">wikidata_id </text>
<text text-anchor="start" x="962.251" y="-291" font-family="Arial ItalicMT" font-size="10.00" fill="#999999">integer (8) U</text>
</g>
<!-- m_Game&#45;&gt;m_Genre -->
<g id="edge27" class="edge">
<title>m_Game&#45;&gt;m_Genre</title>
<path fill="none" stroke="#000000" stroke-dasharray="1,5" d="M473.7799,-375.1541C489.3271,-412.1691 516.0195,-458.1496 557.5,-478 589.2716,-493.2042 842.7284,-493.2042 874.5,-478 917.3743,-457.4826 944.1709,-408.8179 959.2038,-371.1585"/>
<polygon fill="#000000" stroke="#000000" points="962.307,-371.8646 962.5948,-362.3335 956.4262,-369.6049 962.307,-371.8646"/>
</g>
<!-- m_Game&#45;&gt;m_PgSearch::Document -->
<g id="edge3" class="edge">
<title>m_Game&#45;&gt;m_PgSearch::Document</title>
<path fill="none" stroke="#000000" d="M475.1921,-267.8156C489.0688,-237.3997 511.0527,-201.7757 543,-183 673.8429,-106.1025 1084.0577,-203.288 1225,-147 1243.2397,-139.7156 1260.3522,-126.9069 1274.435,-114.0013"/>
</g>
<!-- m_Platform -->
<g id="node14" class="node">
<title>m_Platform</title>
<path fill="none" stroke="#000000" d="M1088,-281C1088,-281 1208,-281 1208,-281 1214,-281 1220,-287 1220,-293 1220,-293 1220,-350 1220,-350 1220,-356 1214,-362 1208,-362 1208,-362 1088,-362 1088,-362 1082,-362 1076,-356 1076,-350 1076,-350 1076,-293 1076,-293 1076,-287 1082,-281 1088,-281"/>
<text text-anchor="start" x="1125.5227" y="-348.7" font-family="Arial BoldMT" font-size="11.00" fill="#000000">Platform</text>
<polyline fill="none" stroke="#000000" points="1076,-343 1220,-343 "/>
<text text-anchor="start" x="1083" y="-330" font-family="ArialMT" font-size="10.00" fill="#000000">description </text>
<text text-anchor="start" x="1134.1377" y="-330" font-family="Arial ItalicMT" font-size="10.00" fill="#999999">text ∗</text>
<text text-anchor="start" x="1083" y="-317" font-family="ArialMT" font-size="10.00" fill="#000000">id </text>
<text text-anchor="start" x="1093.5615" y="-317" font-family="Arial ItalicMT" font-size="10.00" fill="#999999">integer (8) PK</text>
<text text-anchor="start" x="1083" y="-304" font-family="ArialMT" font-size="10.00" fill="#000000">name </text>
<text text-anchor="start" x="1110.793" y="-304" font-family="Arial ItalicMT" font-size="10.00" fill="#999999">text ∗</text>
<text text-anchor="start" x="1083" y="-291" font-family="ArialMT" font-size="10.00" fill="#000000">wikidata_id </text>
<text text-anchor="start" x="1135.251" y="-291" font-family="Arial ItalicMT" font-size="10.00" fill="#999999">integer (8) U</text>
</g>
<!-- m_Game&#45;&gt;m_Platform -->
<g id="edge25" class="edge">
<title>m_Game&#45;&gt;m_Platform</title>
<path fill="none" stroke="#000000" stroke-dasharray="1,5" d="M473.7799,-375.1541C489.3271,-412.1691 516.0195,-458.1496 557.5,-478 606.6107,-501.5018 998.3893,-501.5018 1047.5,-478 1090.3743,-457.4826 1117.1709,-408.8179 1132.2038,-371.1585"/>
<polygon fill="#000000" stroke="#000000" points="1135.307,-371.8646 1135.5948,-362.3335 1129.4262,-369.6049 1135.307,-371.8646"/>
</g>
<!-- m_Genre&#45;&gt;m_GameGenre -->
<g id="edge31" class="edge">
<title>m_Genre&#45;&gt;m_GameGenre</title>
<path fill="none" stroke="#000000" d="M973.3599,-280.8255C971.5404,-235.7013 968.616,-163.1768 966.7524,-116.9605"/>
<polygon fill="#000000" stroke="#000000" points="969.8932,-116.6664 966.3831,-107.8007 963.5984,-116.9203 969.8932,-116.6664"/>
</g>
<!-- m_Genre&#45;&gt;m_PgSearch::Document -->
<g id="edge4" class="edge">
<title>m_Genre&#45;&gt;m_PgSearch::Document</title>
<path fill="none" stroke="#000000" d="M990.1839,-280.9496C1004.093,-249.4228 1027.7582,-207.1187 1062,-183 1122.6544,-140.2772 1158.5968,-180.088 1225,-147 1241.7001,-138.6785 1257.8487,-126.4114 1271.5553,-114.273"/>
</g>
<!-- m_Platform&#45;&gt;m_GamePlatform -->
<g id="edge32" class="edge">
<title>m_Platform&#45;&gt;m_GamePlatform</title>
<path fill="none" stroke="#000000" d="M1146.3599,-280.8255C1144.5404,-235.7013 1141.616,-163.1768 1139.7524,-116.9605"/>
<polygon fill="#000000" stroke="#000000" points="1142.8932,-116.6664 1139.3831,-107.8007 1136.5984,-116.9203 1142.8932,-116.6664"/>
</g>
<!-- m_Platform&#45;&gt;m_PgSearch::Document -->
<g id="edge5" class="edge">
<title>m_Platform&#45;&gt;m_PgSearch::Document</title>
<path fill="none" stroke="#000000" d="M1174.7336,-280.8255C1204.99,-234.7912 1253.9893,-160.2402 1284.2518,-114.1967"/>
</g>
<!-- m_Series -->
<g id="node15" class="node">
<title>m_Series</title>
<path fill="none" stroke="#000000" d="M396,-496.5C396,-496.5 516,-496.5 516,-496.5 522,-496.5 528,-502.5 528,-508.5 528,-508.5 528,-552.5 528,-552.5 528,-558.5 522,-564.5 516,-564.5 516,-564.5 396,-564.5 396,-564.5 390,-564.5 384,-558.5 384,-552.5 384,-552.5 384,-508.5 384,-508.5 384,-502.5 390,-496.5 396,-496.5"/>
<text text-anchor="start" x="438.4104" y="-551.2" font-family="Arial BoldMT" font-size="11.00" fill="#000000">Series</text>
<polyline fill="none" stroke="#000000" points="384,-545.5 528,-545.5 "/>
<text text-anchor="start" x="391" y="-532" font-family="ArialMT" font-size="10.00" fill="#000000">id </text>
<text text-anchor="start" x="401.5615" y="-532" font-family="Arial ItalicMT" font-size="10.00" fill="#999999">integer (8) PK</text>
<text text-anchor="start" x="391" y="-519" font-family="ArialMT" font-size="10.00" fill="#000000">name </text>
<text text-anchor="start" x="418.793" y="-519" font-family="Arial ItalicMT" font-size="10.00" fill="#999999">text ∗</text>
<text text-anchor="start" x="391" y="-506" font-family="ArialMT" font-size="10.00" fill="#000000">wikidata_id </text>
<text text-anchor="start" x="443.251" y="-506" font-family="Arial ItalicMT" font-size="10.00" fill="#999999">integer (8) U</text>
</g>
<!-- m_Series&#45;&gt;m_Game -->
<g id="edge29" class="edge">
<title>m_Series&#45;&gt;m_Game</title>
<path fill="none" stroke="#000000" d="M456,-496.4554C456,-466.1717 456,-421.1118 456,-384.3059"/>
<polygon fill="#000000" stroke="#000000" points="459.1501,-384.1403 456,-375.1403 452.8501,-384.1403 459.1501,-384.1403"/>
</g>
<!-- m_Series&#45;&gt;m_PgSearch::Document -->
<g id="edge6" class="edge">
<title>m_Series&#45;&gt;m_PgSearch::Document</title>
<path fill="none" stroke="#000000" d="M528.2624,-528.8223C711.4332,-523.8965 1183.1104,-506.7599 1235,-460 1333.8095,-370.9586 1326.3454,-194.1137 1317.0566,-114.284"/>
</g>
<!-- m_User -->
<g id="node16" class="node">
<title>m_User</title>
<path fill="none" stroke="#000000" d="M203,-183.5C203,-183.5 343,-183.5 343,-183.5 349,-183.5 355,-189.5 355,-195.5 355,-195.5 355,-447.5 355,-447.5 355,-453.5 349,-459.5 343,-459.5 343,-459.5 203,-459.5 203,-459.5 197,-459.5 191,-453.5 191,-447.5 191,-447.5 191,-195.5 191,-195.5 191,-189.5 197,-183.5 203,-183.5"/>
<text text-anchor="start" x="259.3877" y="-446.2" font-family="Arial BoldMT" font-size="11.00" fill="#000000">User</text>
<polyline fill="none" stroke="#000000" points="191,-440.5 355,-440.5 "/>
<text text-anchor="start" x="198" y="-427" font-family="ArialMT" font-size="10.00" fill="#000000">bio </text>
<text text-anchor="start" x="214.123" y="-427" font-family="Arial ItalicMT" font-size="10.00" fill="#999999">text ∗</text>
<text text-anchor="start" x="198" y="-414" font-family="ArialMT" font-size="10.00" fill="#000000">confirmation_sent_at </text>
<text text-anchor="start" x="293.6104" y="-414" font-family="Arial ItalicMT" font-size="10.00" fill="#999999">datetime</text>
<text text-anchor="start" x="198" y="-401" font-family="ArialMT" font-size="10.00" fill="#000000">confirmation_token </text>
<text text-anchor="start" x="285.2705" y="-401" font-family="Arial ItalicMT" font-size="10.00" fill="#999999">string</text>
<text text-anchor="start" x="198" y="-388" font-family="ArialMT" font-size="10.00" fill="#000000">confirmed_at </text>
<text text-anchor="start" x="258.5859" y="-388" font-family="Arial ItalicMT" font-size="10.00" fill="#999999">datetime</text>
<text text-anchor="start" x="198" y="-375" font-family="ArialMT" font-size="10.00" fill="#000000">current_sign_in_at </text>
<text text-anchor="start" x="283.0537" y="-375" font-family="Arial ItalicMT" font-size="10.00" fill="#999999">datetime</text>
<text text-anchor="start" x="198" y="-362" font-family="ArialMT" font-size="10.00" fill="#000000">current_sign_in_ip </text>
<text text-anchor="start" x="282.4971" y="-362" font-family="Arial ItalicMT" font-size="10.00" fill="#999999">inet</text>
<text text-anchor="start" x="198" y="-349" font-family="ArialMT" font-size="10.00" fill="#000000">email </text>
<text text-anchor="start" x="224.6748" y="-349" font-family="Arial ItalicMT" font-size="10.00" fill="#999999">string ∗ U</text>
<text text-anchor="start" x="198" y="-336" font-family="ArialMT" font-size="10.00" fill="#000000">encrypted_password </text>
<text text-anchor="start" x="293.0537" y="-336" font-family="Arial ItalicMT" font-size="10.00" fill="#999999">string ∗</text>
<text text-anchor="start" x="198" y="-323" font-family="ArialMT" font-size="10.00" fill="#000000">id </text>
<text text-anchor="start" x="208.5615" y="-323" font-family="Arial ItalicMT" font-size="10.00" fill="#999999">integer (8) PK</text>
<text text-anchor="start" x="198" y="-310" font-family="ArialMT" font-size="10.00" fill="#000000">last_sign_in_at </text>
<text text-anchor="start" x="267.4922" y="-310" font-family="Arial ItalicMT" font-size="10.00" fill="#999999">datetime</text>
<text text-anchor="start" x="198" y="-297" font-family="ArialMT" font-size="10.00" fill="#000000">last_sign_in_ip </text>
<text text-anchor="start" x="266.9355" y="-297" font-family="Arial ItalicMT" font-size="10.00" fill="#999999">inet</text>
<text text-anchor="start" x="198" y="-284" font-family="ArialMT" font-size="10.00" fill="#000000">remember_created_at </text>
<text text-anchor="start" x="299.1621" y="-284" font-family="Arial ItalicMT" font-size="10.00" fill="#999999">datetime</text>
<text text-anchor="start" x="197.9561" y="-271" font-family="ArialMT" font-size="10.00" fill="#000000">reset_password_sent_at </text>
<text text-anchor="start" x="309.6895" y="-271" font-family="Arial ItalicMT" font-size="10.00" fill="#999999">datetime</text>
<text text-anchor="start" x="198" y="-258" font-family="ArialMT" font-size="10.00" fill="#000000">reset_password_token </text>
<text text-anchor="start" x="301.3936" y="-258" font-family="Arial ItalicMT" font-size="10.00" fill="#999999">string</text>
<text text-anchor="start" x="198" y="-245" font-family="ArialMT" font-size="10.00" fill="#000000">role </text>
<text text-anchor="start" x="217.4531" y="-245" font-family="Arial ItalicMT" font-size="10.00" fill="#999999">integer ∗</text>
<text text-anchor="start" x="198" y="-232" font-family="ArialMT" font-size="10.00" fill="#000000">sign_in_count </text>
<text text-anchor="start" x="262.4922" y="-232" font-family="Arial ItalicMT" font-size="10.00" fill="#999999">integer ∗</text>
<text text-anchor="start" x="198" y="-219" font-family="ArialMT" font-size="10.00" fill="#000000">slug </text>
<text text-anchor="start" x="219.123" y="-219" font-family="Arial ItalicMT" font-size="10.00" fill="#999999">string ∗ U</text>
<text text-anchor="start" x="198" y="-206" font-family="ArialMT" font-size="10.00" fill="#000000">unconfirmed_email </text>
<text text-anchor="start" x="285.2656" y="-206" font-family="Arial ItalicMT" font-size="10.00" fill="#999999">string</text>
<text text-anchor="start" x="198" y="-193" font-family="ArialMT" font-size="10.00" fill="#000000">username </text>
<text text-anchor="start" x="245.2461" y="-193" font-family="Arial ItalicMT" font-size="10.00" fill="#999999">text ∗ U</text>
</g>
<!-- m_User&#45;&gt;m_ActiveStorage::Attachment -->
<g id="edge9" class="edge">
<title>m_User&#45;&gt;m_ActiveStorage::Attachment</title>
<path fill="none" stroke="#000000" d="M190.8065,-203.6735C170.3189,-174.304 149.5084,-144.4716 132.9874,-120.7884"/>
</g>
<!-- m_User&#45;&gt;m_GamePurchase -->
<g id="edge12" class="edge">
<title>m_User&#45;&gt;m_GamePurchase</title>
<path fill="none" stroke="#000000" d="M273,-183.3594C273,-174.0317 273,-164.812 273,-155.9154"/>
<polygon fill="#000000" stroke="#000000" points="276.1501,-155.7701 273,-146.7701 269.8501,-155.7702 276.1501,-155.7701"/>
</g>
</g>
</svg>
