<?xml version="1.0" standalone="no"?>
<!DOCTYPE svg PUBLIC "-//W3C//DTD SVG 20010904//EN"
 "http://www.w3.org/TR/2001/REC-SVG-20010904/DTD/svg10.dtd">
<svg version="1.0" xmlns="http://www.w3.org/2000/svg"
 width="700.000000pt" height="700.000000pt" viewBox="0 0 700.000000 700.000000"
 preserveAspectRatio="xMidYMid meet">
<metadata>
Created by potrace 1.11, written by Peter Selinger 2001-2013
</metadata>
<g transform="translate(0.000000,700.000000) scale(0.100000,-0.100000)"
fill="#000000" stroke="none">
<path d="M0 3500 l0 -3500 3500 0 3500 0 0 3500 0 3500 -3500 0 -3500 0 0
-3500z m4725 1105 c52 -13 123 -39 157 -57 77 -41 164 -125 206 -198 l32 -55
0 148 0 147 435 0 435 0 0 -215 0 -215 -149 0 -150 0 -4 -857 c-3 -822 -5
-862 -24 -953 -107 -489 -414 -771 -925 -846 -151 -22 -429 -15 -570 16 -331
70 -549 230 -674 494 -31 66 -35 79 -23 90 8 7 115 68 239 135 200 109 226
121 235 105 114 -197 236 -313 400 -379 91 -37 250 -47 341 -20 195 56 341
210 405 425 18 64 22 107 26 295 3 127 1 216 -4 210 -5 -5 -26 -36 -47 -68
-57 -85 -172 -188 -258 -230 -220 -108 -530 -110 -771 -3 -172 76 -337 235
-425 411 -157 314 -146 788 26 1130 83 166 219 317 358 399 88 52 231 101 332
116 105 14 287 3 397 -25z m-2665 -230 l0 -215 -110 0 c-60 0 -110 -2 -110 -4
0 -4 337 -755 380 -848 8 -18 21 -28 34 -28 19 0 38 48 170 428 82 235 151
433 154 440 3 9 -13 12 -62 12 l-66 0 0 215 0 215 480 0 480 0 0 -215 0 -215
-107 0 -108 0 -309 -693 c-171 -380 -339 -756 -374 -834 l-65 -143 -216 0
-217 0 -389 823 c-213 452 -393 828 -398 835 -7 8 -47 12 -138 12 l-129 0 0
215 0 215 550 0 550 0 0 -215z"/>
<path d="M4475 4186 c-174 -42 -296 -181 -342 -386 -25 -111 -22 -340 5 -442
57 -211 182 -323 375 -335 161 -10 291 40 400 156 116 124 157 239 157 447 0
205 -41 334 -141 439 -27 28 -71 64 -97 78 -96 52 -246 70 -357 43z"/>
</g>
</svg>
