<svg version="1.1" id="Layer_1" xmlns="http://www.w3.org/2000/svg" x="0" y="0" viewBox="0 0 16 16" xml:space="preserve"><style>.st1{fill:#fff}</style><path fill="#5856d6" d="M0 0h16v16H0z"/><path class="st1" d="M7.3 6.5l-1.7 3.8h-1L2.8 6.5h-.6v-1h2.5v1h-.5l.9 2h.1l.7-2h-.3v-1h2.2v1h-.5zM13 6.5V10c0 1.5-.9 2.6-2.7 2.6-1 0-2-.3-2.4-1.4l1.1-.6c.3.6.8 1 1.4 1 .7 0 1.3-.6 1.3-1.5v-.7c-.3.5-.7.9-1.6.9C9 10.3 8 9.5 8 8c0-1.4.8-2.6 2.2-2.6.8 0 1.3.3 1.5.8v-.7h2v1H13zm-1.4 1.2c0-.8-.4-1.3-1.1-1.3-.6 0-1.1.4-1.1 1.4 0 .9.4 1.3 1 1.3.7 0 1.2-.6 1.2-1.3v-.1z"/></svg>