<svg version="1.1" id="Layer_1" xmlns="http://www.w3.org/2000/svg" x="0" y="0" viewBox="0 0 800 336.6" xml:space="preserve"><style>.st0{fill:#fff}</style><path class="st0" d="M160.3 129.6l-52 114.4h-30L23.5 129.6H8V98.2h74.2v31.4H68.3l28.4 61.1h1.9l21.6-61.1h-11.6V98.2h66.5v31.4h-14.8zM331.9 129.9v106.7c0 46.6-25.8 79.2-80.3 79.2-30 0-61-10-73.2-43.7l31.9-18.1c10 18.8 23.6 28.8 41.6 28.8 22.3 0 38.4-16.8 38.4-46.2v-19.1c-7.7 14.9-21.9 26.5-47.7 26.5-33.9 0-63.6-24.3-63.6-70.2 0-43.3 24.5-78.6 65.5-78.6 22.9 0 37.7 10.3 45.8 25.6V98.2h61v31.7h-19.4zm-41.6 36.8c0-24.3-13.6-38.5-32.6-38.5-18.4 0-32.3 13.3-32.3 43 0 27.8 12.3 39.8 29.7 39.8 22.6 0 35.2-19.1 35.2-40.8v-3.5zM361.9 244v-18.4h25.2V40h-25.5V21.5h48.1v204.1h25.2V244h-73zM452.3 244v-18.4h25.2v-107h-25.8v-18.4H500v125.5h25.2V244h-72.9zm22.9-210.5h24.5v29.4h-24.5V33.5zM599.4 247.3c-20.3 0-42.3-6.1-54.5-14.2l4.5-32.7 18.1 1.9-1 19.1c9.4 4.5 20 7.1 31.9 7.1 20 0 38.7-7.8 38.7-24.3 0-39.5-90-9.4-90-65.3 0-30.4 27.1-41.7 53.2-41.7 19.7 0 38.1 6.1 50 13.3l3.5 33.6-18.7 2.3-3.5-23.3c-8.7-4.5-17.7-7.1-29.4-7.1-18.1 0-31 6.5-31 21.3 0 37.5 89 7.8 89 65 .1 28.2-26.3 45-60.8 45zM745.5 247.3c-28.7 0-44.5-17.5-44.5-45.6v-83.4h-23.2v-18.1H701V53.9h22.6v46.3h56.1v18.1h-56.1v80.5c0 17.5 6.8 28.8 24.2 28.8 11.3 0 21.9-4.5 26.1-27.8l17.1 5.5c-3.9 27.7-19.7 42-45.5 42z"/></svg>